#N canvas 108 89 999 524 10;
#X obj 131 10 udpreceive 54321;
#X obj 131 32 unpackOSC;
#X obj 131 53 routeOSC /bang;
#X obj 454 400 noise~;
#X obj 455 482 *~;
#X obj 561 406 del;
#X msg 525 434 1;
#X msg 561 434 0;
#X obj 100 100 bng 30 250 50 0 empty empty 7 7 15 0 25 -262144 -4034
-1;
#X obj 283 531 *~ 0.999;
#X obj 282 463 *~ 0.5;
#X obj 336 482 *~ 0.5;
#X obj 336 462 z~ 1;
#X obj 282 504 +~;
#X obj 579 216 expr 44100/($f1*1.09545)*0.025;
#X obj 284 342 osc~;
#X obj 301 242 t b f f;
#X obj 301 266 * 1;
#X obj 281 175 hsl 128 15 0 1 0 1 empty empty amp 1 10 7 0 10 -262144
-258113 -1 12700 1;
#X obj 284 362 -~ 1;
#X obj 283 385 *~ 1;
#X obj 282 405 +~;
#X obj 133 100 hsl 101 30 0 1 0 0 empty empty empty -2 -8 0 10 -4034
-1 -1 3700 1;
#X obj 281 115 hsl 128 15 0 10 0 1 empty empty FM harmonic 0.708661
4 8 0 10 -262144 -258113 -1 900 1;
#X msg 516 79 label FM harmonic \$1;
#X obj 281 130 hsl 128 15 0 2 0 1 empty empty FM amount 0.598425
4 8 0 10 -262144 -258113 -1 3800 1;
#X obj 148 175 hsl 128 15 0.0101 0.999 0 1 empty empty decay 0.983795
5 8 0 10 -262144 -258113 -1 12300 1;
#X obj 392 428 sqrt;
#X msg 515 157 label decay \$1;
#X obj 281 160 hsl 128 15 20 15000 0 1 empty empty LP 15000 4 8 0
10 -262144 -258113 -1 12700 1;
#X msg 516 137 label LP \$1;
#X obj 281 145 hsl 128 15 0 10000 0 1 empty empty BP 3858.27 4 8 0
10 -262144 -258113 -1 4900 1;
#X msg 517 117 label BP \$1;
#X msg 516 98 label FM amount \$1;
#X msg 343 321 1;
#X msg 388 360 1000 \$1;
#X obj 284 563 lop~ 100;
#X msg 516 179 label amp \$1;
#X obj 19 201 int;
#X obj 19 223 change;
#X obj 19 173 * 10;
#X obj 281 100 hsl 128 15 0 127 0 1 empty empty frq 75.15 10 8 0 10
-204786 -258113 -1 3600 1;
#X msg 518 55 label frq \$1;
#X obj 416 253 mtof;
#X obj 199 294 t b f;
#X obj 180 207 random 100;
#X obj 199 232 pack f 50;
#X obj 199 252 line;
#X obj 182 160 nbx 5 15 -1e+37 1e+37 0 1 empty empty sm -15 7 0 10
-204786 -1 -1 500 256;
#X obj 182 145 nbx 5 15 -1e+37 1e+37 0 1 empty empty ra -15 7 0 10
-204786 -1 -1 41 256;
#X obj 388 328 +;
#X obj 108 296 *~;
#X obj 355 602 *~;
#X obj 130 132 vsl 15 55 0 1 0 1 empty empty -> 2 7 0 10 -228856 -258113
-1 3900 1;
#X obj 115 132 vsl 15 55 0 1000 0 1 empty empty >- 2 7 0 10 -204786
-258113 -1 600 1;
#X obj 100 132 vsl 15 55 0 1000 0 1 empty empty >a 2 7 0 10 -204786
-258113 -1 1500 1;
#X obj 20 296 *~;
#X obj 301 287 sig~;
#X obj 283 318 +~;
#X obj 21 146 spigot;
#X obj 21 121 t b f;
#X obj 199 273 spigot;
#X obj 236 101 tgl 15 1 empty empty empty 17 7 0 10 -204786 -1 -1 1
1;
#X obj 388 281 t b f;
#X obj 388 303 +;
#X obj 182 130 nbx 5 15 0 1e+37 0 1 empty empty empty 0 -8 0 10 -262144
-1 -1 95 256;
#X obj 388 253 *;
#X obj 454 510 delwrite~ \$0-k2 200;
#X obj 282 428 vd~ \$0-k2 200;
#X obj 285 603 *~;
#X obj 21 343 +~;
#X obj 387 384 /;
#X obj 130 73 route /s07 /b07;
#X text 244 54 Arduino-OSC /bang/s07;
#X obj 20 267 r~ mod_r07a;
#X obj 109 266 r~ mod_r07;
#X obj 285 628 s~ out_07;
#X obj 356 629 s~ out_r07;
#X obj 455 459 *~ 5;
#X obj 454 435 vcf~ 10;
#X obj 246 73 r rnd_01;
#X connect 0 0 1 0;
#X connect 1 0 2 0;
#X connect 2 0 72 0;
#X connect 3 0 79 0;
#X connect 4 0 67 0;
#X connect 5 0 7 0;
#X connect 6 0 4 1;
#X connect 7 0 4 1;
#X connect 8 0 6 0;
#X connect 8 0 5 0;
#X connect 8 0 34 0;
#X connect 8 0 45 0;
#X connect 9 0 36 0;
#X connect 9 0 67 0;
#X connect 10 0 13 0;
#X connect 11 0 13 1;
#X connect 12 0 11 0;
#X connect 13 0 9 0;
#X connect 14 0 5 1;
#X connect 14 0 17 0;
#X connect 15 0 19 0;
#X connect 16 0 17 0;
#X connect 16 1 17 1;
#X connect 16 2 24 0;
#X connect 17 0 57 0;
#X connect 18 0 37 0;
#X connect 18 0 69 1;
#X connect 19 0 20 0;
#X connect 20 0 21 0;
#X connect 21 0 68 0;
#X connect 22 0 40 0;
#X connect 22 0 66 0;
#X connect 23 0 16 0;
#X connect 24 0 23 0;
#X connect 25 0 33 0;
#X connect 25 0 20 1;
#X connect 26 0 27 0;
#X connect 27 0 28 0;
#X connect 27 0 9 1;
#X connect 28 0 26 0;
#X connect 29 0 30 0;
#X connect 29 0 36 1;
#X connect 30 0 29 0;
#X connect 31 0 32 0;
#X connect 31 0 79 1;
#X connect 32 0 31 0;
#X connect 33 0 25 0;
#X connect 34 0 15 1;
#X connect 35 0 71 0;
#X connect 36 0 52 0;
#X connect 36 0 69 0;
#X connect 37 0 18 0;
#X connect 38 0 39 0;
#X connect 39 0 8 0;
#X connect 40 0 38 0;
#X connect 41 0 43 0;
#X connect 41 0 64 0;
#X connect 42 0 41 0;
#X connect 43 0 64 0;
#X connect 44 0 50 0;
#X connect 44 1 50 1;
#X connect 45 0 46 0;
#X connect 46 0 47 0;
#X connect 47 0 61 0;
#X connect 48 0 46 1;
#X connect 49 0 45 1;
#X connect 50 0 14 0;
#X connect 50 0 42 0;
#X connect 50 0 35 0;
#X connect 51 0 70 1;
#X connect 52 0 77 0;
#X connect 53 0 52 1;
#X connect 54 0 51 1;
#X connect 55 0 56 1;
#X connect 56 0 70 0;
#X connect 57 0 58 1;
#X connect 58 0 15 0;
#X connect 59 0 8 0;
#X connect 60 0 59 0;
#X connect 60 1 59 1;
#X connect 61 0 44 0;
#X connect 62 0 61 1;
#X connect 63 0 64 0;
#X connect 63 1 64 1;
#X connect 64 0 50 0;
#X connect 65 0 66 1;
#X connect 66 0 63 0;
#X connect 68 0 10 0;
#X connect 68 0 12 0;
#X connect 69 0 76 0;
#X connect 70 0 58 0;
#X connect 71 0 21 1;
#X connect 72 0 22 0;
#X connect 72 1 8 0;
#X connect 74 0 56 0;
#X connect 75 0 51 0;
#X connect 78 0 4 0;
#X connect 79 0 78 0;
#X connect 80 0 22 0;
#X coords 0 -1 1 1 311 90 2 100 100;
