#N canvas 294 131 1000 524 10;
#X obj 251 616 *~ 0.5;
#X obj 98 465 *~;
#X obj 364 622 *~;
#N canvas 775 218 450 397 asr 0;
#X msg 57 204 1 0;
#X msg 57 178 set 1 \$1;
#X obj 158 145 +;
#X obj 135 191 pipe;
#X floatatom 158 169 5 0 0 0 - - -, f 5;
#X msg 232 225 0 1291.34;
#X msg 232 150 set 0 \$1;
#X obj 24 24 inlet;
#X obj 89 22 inlet;
#X obj 158 21 inlet;
#X obj 232 23 inlet;
#X obj 24 75 bng 15 250 50 0 empty empty empty 17 7 0 10 -262144 -1
-1;
#X floatatom 89 78 5 0 0 0 a - -, f 5;
#X floatatom 158 77 5 0 0 0 s - -, f 5;
#X floatatom 232 78 5 0 0 0 r - -, f 5;
#X obj 158 98 t b f;
#X obj 144 252 line~;
#X obj 144 276 outlet~;
#X connect 0 0 16 0;
#X connect 1 0 0 0;
#X connect 2 0 4 0;
#X connect 3 0 5 0;
#X connect 4 0 3 1;
#X connect 5 0 16 0;
#X connect 6 0 5 0;
#X connect 7 0 11 0;
#X connect 8 0 12 0;
#X connect 9 0 13 0;
#X connect 10 0 14 0;
#X connect 11 0 0 0;
#X connect 11 0 3 0;
#X connect 12 0 2 0;
#X connect 12 0 1 0;
#X connect 13 0 15 0;
#X connect 14 0 6 0;
#X connect 15 0 2 0;
#X connect 15 1 2 1;
#X connect 16 0 17 0;
#X restore 284 399 pd asr;
#N canvas 28 456 450 397 asr 0;
#X msg 57 204 1 0;
#X msg 57 178 set 1 \$1;
#X obj 158 145 +;
#X obj 135 191 pipe;
#X floatatom 158 169 5 0 0 0 - - -, f 5;
#X msg 232 225 0 629.921;
#X msg 232 150 set 0 \$1;
#X obj 24 24 inlet;
#X obj 89 22 inlet;
#X obj 158 21 inlet;
#X obj 232 23 inlet;
#X obj 24 75 bng 15 250 50 0 empty empty empty 17 7 0 10 -262144 -1
-1;
#X floatatom 89 78 5 0 0 0 a - -, f 5;
#X floatatom 158 77 5 0 0 0 s - -, f 5;
#X floatatom 232 76 5 0 0 0 r - -, f 5;
#X obj 158 98 t b f;
#X obj 144 252 line~;
#X obj 144 276 outlet~;
#X connect 0 0 16 0;
#X connect 1 0 0 0;
#X connect 2 0 4 0;
#X connect 3 0 5 0;
#X connect 4 0 3 1;
#X connect 5 0 16 0;
#X connect 6 0 5 0;
#X connect 7 0 11 0;
#X connect 8 0 12 0;
#X connect 9 0 13 0;
#X connect 10 0 14 0;
#X connect 11 0 0 0;
#X connect 11 0 3 0;
#X connect 12 0 2 0;
#X connect 12 0 1 0;
#X connect 13 0 15 0;
#X connect 14 0 6 0;
#X connect 15 0 2 0;
#X connect 15 1 2 1;
#X connect 16 0 17 0;
#X restore 360 531 pd asr;
#X obj 251 506 osc~;
#X obj 251 592 *~;
#X obj 292 535 osc~;
#X obj 252 463 +~;
#X obj 293 506 +~;
#X obj 249 298 osc~;
#X obj 252 418 *~;
#X obj 9 467 *~;
#X obj 100 100 bng 30 250 50 0 empty empty 8 8 15 0 25 -262144 -159808
-1;
#X obj 133 100 hsl 100 30 0 1 0 0 empty empty empty 10 15 0 10 -159808
-1 -1 8742 1;
#X obj 130 132 vsl 15 55 0 1 0 1 empty empty -> 2 7 0 10 -228856 -258113
-1 4000 1;
#X obj 115 132 vsl 15 55 0 10000 0 1 empty empty >- 2 7 0 10 -232576
-258113 -1 2300 1;
#X obj 100 132 vsl 15 55 0 1000 0 1 empty empty >a 2 7 0 10 -232576
-258113 -1 500 1;
#X obj 240 100 hsl 128 15 0 127 0 1 empty empty mod 433.301 10 7 0
10 -262144 -258113 -1 400 1;
#X obj 240 130 hsl 128 15 0 1000 0 1 empty empty a 0 10 7 0 10 -262144
-258113 -1 0 1;
#X msg 663 133 label a \$1;
#X obj 240 145 hsl 128 15 0 1000 0 1 empty empty s 118.11 10 7 0 10
-262144 -258113 -1 1500 1;
#X msg 664 150 label s \$1;
#X obj 240 160 hsl 128 15 0 2000 0 1 empty empty r 1291.34 10 7 0
10 -262144 -258113 -1 8200 1;
#X msg 664 167 label r \$1;
#X obj 445 100 hsl 128 15 0 127 0 1 empty empty carr 269.299 10 7
0 10 -232576 -258113 -1 1500 1;
#X msg 653 225 label carr \$1;
#X obj 445 130 hsl 128 15 0 1000 0 1 empty empty a 0 10 7 0 10 -262144
-258113 -1 0 1;
#X msg 653 242 label a \$1;
#X obj 445 145 hsl 128 15 0 1000 0 1 empty empty s 0 10 7 0 10 -262144
-258113 -1 0 1;
#X msg 654 259 label s \$1;
#X obj 445 160 hsl 128 15 0 2000 0 1 empty empty r 629.921 10 7 0
10 -262144 -258113 -1 4000 1;
#X msg 654 276 label r \$1;
#X msg 664 116 label mod \$1;
#X obj 253 442 *~;
#X obj 240 175 hsl 128 15 0 2000 0 1 empty empty index 1322.83 10
7 0 10 -262144 -258113 -1 8400 1;
#X msg 664 184 label index \$1;
#X obj 388 115 nbx 5 15 -1e+37 1e+37 0 1 empty empty spr -20 7 0 10
-232576 -1 -1 1008 256;
#X obj 445 175 hsl 128 15 0 1 0 1 empty empty amp 0.701654 10 7 0
10 -262144 -258113 -1 8911 1;
#X msg 654 293 label amp \$1;
#X obj 439 359 mtof;
#X obj 362 375 t b f;
#X obj 367 235 metro 100;
#X obj 367 290 random 100;
#X obj 366 328 pack f 50;
#X obj 363 349 line;
#X obj 444 235 random 6000;
#X obj 388 175 nbx 5 15 -1e+37 1e+37 0 1 empty empty sm -15 7 0 10
-232576 -1 -1 90 256;
#X obj 388 160 nbx 5 15 -1e+37 1e+37 0 1 empty empty ra -15 7 0 10
-232576 -1 -1 174 256;
#X obj 388 145 nbx 5 15 -1e+37 1e+37 0 1 empty empty ms -15 7 0 10
-232576 -1 -1 7358 256;
#X obj 362 405 +;
#X obj 251 557 +~;
#X obj 23 194 * 10;
#X obj 23 217 int;
#X obj 23 239 change;
#X obj 57 358 mtof;
#X obj 92 334 t b f;
#X obj 92 269 random 100;
#X obj 92 294 pack f 50;
#X obj 92 314 line;
#X obj 92 383 +;
#X obj 21 129 spigot;
#X obj 21 104 t b f;
#X obj 491 359 *;
#X obj 388 100 nbx 5 15 -1e+37 1e+37 0 1 empty empty empty 0 -8 0 10
-262144 -1 -1 138 256;
#X obj 410 414 +;
#X obj 429 389 t b f;
#X obj 93 243 metro 100;
#X obj 168 242 random 6000;
#X obj 180 175 nbx 5 15 -1e+37 1e+37 0 1 empty empty sm -15 7 0 10
-262144 -1 -1 12 256;
#X obj 180 160 nbx 5 15 -1e+37 1e+37 0 1 empty empty ra -15 7 0 10
-262144 -1 -1 500 256;
#X obj 180 130 nbx 5 15 -1e+37 1e+37 0 1 empty empty empty -15 7 0
10 -262144 -1 -1 416 256;
#X obj 165 130 tgl 15 1 empty empty empty 17 7 0 10 -232576 -1 -1 1
1;
#X obj 180 145 nbx 5 15 -1e+37 1e+37 0 1 empty empty ms -15 7 0 10
-262144 -1 -1 221 256;
#X obj 77 212 expr $f1*(-$f2)+$f2+$f3;
#X obj 130 7 udpreceive 54321;
#X obj 130 29 unpackOSC;
#X obj 130 50 routeOSC /bang;
#X obj 10 430 r~ mod_r08a;
#X obj 99 431 r~ mod_r08;
#X obj 130 70 route /s08 /b08;
#X text 243 51 Arduino-OSC /bang/s08;
#X obj 363 648 s~ out_r08;
#X obj 251 650 s~ out_08;
#X obj 288 258 phasor~;
#X obj 278 357 *~;
#X obj 250 328 + 1;
#X obj 252 357 *~;
#X obj 296 331 * -1;
#X obj 288 282 *~ -2;
#X obj 289 307 +~ 1;
#X obj 240 115 hsl 128 15 0 -1 0 1 empty empty sine----------saw 10
7 0 10 -262144 -258113 -1 8500 1;
#X obj 252 384 +~;
#X obj 249 70 r rnd_08;
#X connect 0 0 83 0;
#X connect 1 0 8 0;
#X connect 2 0 82 0;
#X connect 3 0 11 1;
#X connect 4 0 6 1;
#X connect 5 0 51 0;
#X connect 6 0 0 0;
#X connect 6 0 2 0;
#X connect 7 0 51 1;
#X connect 8 0 5 0;
#X connect 8 0 9 0;
#X connect 9 0 7 0;
#X connect 10 0 87 0;
#X connect 11 0 34 0;
#X connect 12 0 8 0;
#X connect 13 0 3 0;
#X connect 13 0 4 0;
#X connect 14 0 52 0;
#X connect 14 0 63 0;
#X connect 14 0 74 0;
#X connect 15 0 2 1;
#X connect 16 0 1 1;
#X connect 17 0 12 1;
#X connect 18 0 55 0;
#X connect 19 0 20 0;
#X connect 19 0 3 1;
#X connect 20 0 19 0;
#X connect 21 0 22 0;
#X connect 21 0 3 2;
#X connect 22 0 21 0;
#X connect 23 0 24 0;
#X connect 23 0 3 3;
#X connect 24 0 23 0;
#X connect 25 0 40 0;
#X connect 26 0 25 0;
#X connect 27 0 28 0;
#X connect 27 0 4 1;
#X connect 28 0 27 0;
#X connect 29 0 30 0;
#X connect 29 0 4 2;
#X connect 30 0 29 0;
#X connect 31 0 32 0;
#X connect 31 0 4 3;
#X connect 32 0 31 0;
#X connect 33 0 18 0;
#X connect 34 0 8 0;
#X connect 35 0 36 0;
#X connect 35 0 34 1;
#X connect 36 0 35 0;
#X connect 37 0 9 1;
#X connect 38 0 39 0;
#X connect 38 0 0 1;
#X connect 39 0 38 0;
#X connect 40 0 65 0;
#X connect 41 0 50 0;
#X connect 41 1 50 1;
#X connect 42 0 46 0;
#X connect 42 0 43 0;
#X connect 43 0 44 0;
#X connect 44 0 45 0;
#X connect 45 0 41 0;
#X connect 46 0 42 1;
#X connect 47 0 44 1;
#X connect 48 0 43 1;
#X connect 49 0 46 1;
#X connect 50 0 26 0;
#X connect 50 0 8 1;
#X connect 51 0 6 0;
#X connect 52 0 53 0;
#X connect 53 0 54 0;
#X connect 54 0 13 0;
#X connect 55 0 60 0;
#X connect 56 0 60 0;
#X connect 56 1 60 1;
#X connect 57 0 58 0;
#X connect 58 0 59 0;
#X connect 59 0 56 0;
#X connect 60 0 33 0;
#X connect 60 0 10 0;
#X connect 60 0 84 0;
#X connect 61 0 13 0;
#X connect 62 0 61 0;
#X connect 62 1 61 1;
#X connect 63 0 66 0;
#X connect 64 0 63 1;
#X connect 65 0 50 0;
#X connect 66 0 65 0;
#X connect 66 1 65 1;
#X connect 67 0 68 0;
#X connect 67 0 57 0;
#X connect 68 0 67 1;
#X connect 69 0 58 1;
#X connect 70 0 57 1;
#X connect 71 0 74 1;
#X connect 72 0 67 0;
#X connect 72 0 42 0;
#X connect 73 0 74 2;
#X connect 74 0 68 1;
#X connect 75 0 76 0;
#X connect 76 0 77 0;
#X connect 77 0 80 0;
#X connect 78 0 12 0;
#X connect 79 0 1 0;
#X connect 80 0 14 0;
#X connect 80 1 62 0;
#X connect 84 0 89 0;
#X connect 85 0 92 1;
#X connect 86 0 87 1;
#X connect 87 0 92 0;
#X connect 88 0 85 1;
#X connect 89 0 90 0;
#X connect 90 0 85 0;
#X connect 91 0 88 0;
#X connect 91 0 86 0;
#X connect 92 0 11 0;
#X connect 93 0 14 0;
#X coords 0 -1 1 1 475 90 2 100 100;
