#N canvas 348 179 1009 524 10;
#X obj 98 465 *~;
#X obj 364 615 *~;
#N canvas 775 218 450 397 asr 0;
#X msg 57 204 1 338.583;
#X msg 57 178 set 1 \$1;
#X obj 158 145 +;
#X obj 135 191 pipe;
#X floatatom 158 169 5 0 0 0 - - -, f 5;
#X msg 232 225 0 393.701;
#X msg 232 150 set 0 \$1;
#X obj 24 24 inlet;
#X obj 89 22 inlet;
#X obj 158 21 inlet;
#X obj 232 23 inlet;
#X obj 24 75 bng 15 250 50 0 empty empty empty 17 7 0 10 -262144 -1
-1;
#X floatatom 89 78 5 0 0 0 a - -, f 5;
#X floatatom 158 77 5 0 0 0 s - -, f 5;
#X floatatom 232 78 5 0 0 0 r - -, f 5;
#X obj 158 98 t b f;
#X obj 144 252 line~;
#X obj 144 276 outlet~;
#X connect 0 0 16 0;
#X connect 1 0 0 0;
#X connect 2 0 4 0;
#X connect 3 0 5 0;
#X connect 4 0 3 1;
#X connect 5 0 16 0;
#X connect 6 0 5 0;
#X connect 7 0 11 0;
#X connect 8 0 12 0;
#X connect 9 0 13 0;
#X connect 10 0 14 0;
#X connect 11 0 0 0;
#X connect 11 0 3 0;
#X connect 12 0 2 0;
#X connect 12 0 1 0;
#X connect 13 0 15 0;
#X connect 14 0 6 0;
#X connect 15 0 2 0;
#X connect 15 1 2 1;
#X connect 16 0 17 0;
#X restore 287 367 pd asr;
#N canvas 28 456 450 397 asr 0;
#X msg 57 204 1 763.78;
#X msg 57 178 set 1 \$1;
#X obj 158 145 +;
#X obj 135 191 pipe;
#X floatatom 158 169 5 0 0 0 - - -, f 5;
#X msg 232 225 0 1212.6;
#X msg 232 150 set 0 \$1;
#X obj 24 24 inlet;
#X obj 89 22 inlet;
#X obj 158 21 inlet;
#X obj 232 23 inlet;
#X obj 24 75 bng 15 250 50 0 empty empty empty 17 7 0 10 -262144 -1
-1;
#X floatatom 89 78 5 0 0 0 a - -, f 5;
#X floatatom 158 77 5 0 0 0 s - -, f 5;
#X floatatom 232 76 5 0 0 0 r - -, f 5;
#X obj 158 98 t b f;
#X obj 144 252 line~;
#X obj 144 276 outlet~;
#X connect 0 0 16 0;
#X connect 1 0 0 0;
#X connect 2 0 4 0;
#X connect 3 0 5 0;
#X connect 4 0 3 1;
#X connect 5 0 16 0;
#X connect 6 0 5 0;
#X connect 7 0 11 0;
#X connect 8 0 12 0;
#X connect 9 0 13 0;
#X connect 10 0 14 0;
#X connect 11 0 0 0;
#X connect 11 0 3 0;
#X connect 12 0 2 0;
#X connect 12 0 1 0;
#X connect 13 0 15 0;
#X connect 14 0 6 0;
#X connect 15 0 2 0;
#X connect 15 1 2 1;
#X connect 16 0 17 0;
#X restore 367 549 pd asr;
#X obj 252 487 osc~;
#X obj 251 592 *~;
#X obj 290 472 osc~;
#X obj 252 463 +~;
#X obj 289 446 +~;
#X obj 251 367 osc~;
#X obj 252 394 *~;
#X obj 9 467 *~;
#X obj 100 100 bng 30 250 50 0 empty empty 9 8 15 0 25 -262144 -159808
-1;
#X obj 133 100 hsl 100 30 0 1 0 0 empty empty empty 10 15 0 10 -159808
-1 -1 5146 1;
#X obj 130 132 vsl 15 55 0 1 0 1 empty empty -> 2 7 0 10 -228856 -258113
-1 4000 1;
#X obj 115 132 vsl 15 55 0 10000 0 1 empty empty >- 2 7 0 10 -232576
-258113 -1 2300 1;
#X obj 100 132 vsl 15 55 0 1000 0 1 empty empty >a 2 7 0 10 -232576
-258113 -1 500 1;
#X obj 240 100 hsl 128 15 0 127 0 1 empty empty mod 992.301 10 7 0
10 -262144 -258113 -1 400 1;
#X obj 240 130 hsl 128 15 0 1000 0 1 empty empty a 338.583 10 7 0
10 -262144 -258113 -1 4300 1;
#X msg 663 133 label a \$1;
#X obj 240 145 hsl 128 15 0 1000 0 1 empty empty s 118.11 10 7 0 10
-262144 -258113 -1 1500 1;
#X msg 664 150 label s \$1;
#X obj 240 160 hsl 128 15 0 2000 0 1 empty empty r 393.701 10 7 0
10 -262144 -258113 -1 2500 1;
#X msg 664 167 label r \$1;
#X obj 445 100 hsl 128 15 0 127 0 1 empty empty carr 266.695 10 7
0 10 -232576 -258113 -1 2000 1;
#X msg 653 225 label carr \$1;
#X obj 445 130 hsl 128 15 0 1000 0 1 empty empty a 763.78 10 7 0 10
-262144 -258113 -1 9700 1;
#X msg 653 242 label a \$1;
#X obj 445 145 hsl 128 15 0 1000 0 1 empty empty s 55.1181 10 7 0
10 -262144 -258113 -1 700 1;
#X msg 654 259 label s \$1;
#X obj 445 160 hsl 128 15 0 2000 0 1 empty empty r 1212.6 10 7 0 10
-262144 -258113 -1 7700 1;
#X msg 654 276 label r \$1;
#X msg 664 116 label mod \$1;
#X obj 253 418 *~;
#X obj 240 175 hsl 128 15 0 2000 0 1 empty empty index 1811.02 10
7 0 10 -262144 -258113 -1 11500 1;
#X msg 664 184 label index \$1;
#X obj 388 115 nbx 5 15 -1e+37 1e+37 0 1 empty empty spr -20 7 0 10
-232576 -1 -1 76 256;
#X obj 445 175 hsl 128 15 0 1 0 1 empty empty amp 0.796142 10 7 0
10 -262144 -258113 -1 10111 1;
#X msg 654 293 label amp \$1;
#X obj 439 359 mtof;
#X obj 362 375 t b f;
#X obj 367 235 metro 100;
#X obj 367 290 random 100;
#X obj 366 328 pack f 50;
#X obj 363 349 line;
#X obj 444 235 random 6000;
#X obj 388 175 nbx 5 15 -1e+37 1e+37 0 1 empty empty sm -15 7 0 10
-232576 -1 -1 90 256;
#X obj 388 160 nbx 5 15 -1e+37 1e+37 0 1 empty empty ra -15 7 0 10
-232576 -1 -1 174 256;
#X obj 388 145 nbx 5 15 -1e+37 1e+37 0 1 empty empty ms -15 7 0 10
-232576 -1 -1 7358 256;
#X obj 361 400 +;
#X obj 251 570 +~;
#X obj 23 194 * 10;
#X obj 23 217 int;
#X obj 23 239 change;
#X obj 120 361 mtof;
#X obj 155 337 t b f;
#X obj 155 272 random 100;
#X obj 155 297 pack f 50;
#X obj 155 317 line;
#X obj 155 386 +;
#X obj 21 129 spigot;
#X obj 21 104 t b f;
#X obj 463 319 *;
#X obj 388 100 nbx 5 15 -1e+37 1e+37 0 1 empty empty empty 0 -8 0 10
-262144 -1 -1 138 256;
#X obj 410 414 +;
#X obj 429 389 t b f;
#X obj 156 246 metro 100;
#X obj 230 246 random 6000;
#X obj 180 175 nbx 5 15 -1e+37 1e+37 0 1 empty empty sm -15 7 0 10
-262144 -1 -1 12 256;
#X obj 180 160 nbx 5 15 -1e+37 1e+37 0 1 empty empty ra -15 7 0 10
-262144 -1 -1 3533 256;
#X obj 180 130 nbx 5 15 -1e+37 1e+37 0 1 empty empty empty -15 7 0
10 -262144 -1 -1 416 256;
#X obj 165 130 tgl 15 1 empty empty empty 17 7 0 10 -232576 -1 -1 1
1;
#X obj 180 145 nbx 5 15 -1e+37 1e+37 0 1 empty empty ms -15 7 0 10
-262144 -1 -1 70 256;
#X obj 101 200 expr $f1*(-$f2)+$f2+$f3;
#X obj 130 7 udpreceive 54321;
#X obj 130 29 unpackOSC;
#X obj 130 50 routeOSC /bang;
#X text 246 50 Arduino-OSC /bang/s09;
#X obj 130 70 route /s09 /b09;
#X obj 10 430 r~ mod_r09a;
#X obj 99 431 r~ mod_r09;
#X obj 363 650 s~ out_r09;
#X obj 251 650 s~ out_09;
#X obj 251 616 *~;
#X obj 334 425 phasor~;
#X obj 308 494 + 1;
#X obj 290 515 *~;
#X obj 354 495 * -1;
#X obj 334 449 *~ -2;
#X obj 335 474 +~ 1;
#X obj 445 115 hsl 128 15 0 -1 0 1 empty empty sine----------saw 10
7 0 10 -232576 -258113 -1 2600 1;
#X obj 336 516 *~;
#X obj 318 541 +~;
#X obj 247 69 r rnd_09;
#X connect 0 0 7 0;
#X connect 1 0 81 0;
#X connect 2 0 10 1;
#X connect 3 0 5 1;
#X connect 4 0 50 0;
#X connect 5 0 1 0;
#X connect 5 0 83 0;
#X connect 6 0 86 0;
#X connect 7 0 4 0;
#X connect 7 0 8 0;
#X connect 8 0 6 0;
#X connect 8 0 84 0;
#X connect 9 0 10 0;
#X connect 10 0 33 0;
#X connect 11 0 7 0;
#X connect 12 0 2 0;
#X connect 12 0 3 0;
#X connect 13 0 51 0;
#X connect 13 0 62 0;
#X connect 13 0 73 0;
#X connect 14 0 1 1;
#X connect 15 0 0 1;
#X connect 16 0 11 1;
#X connect 17 0 54 0;
#X connect 18 0 19 0;
#X connect 18 0 2 1;
#X connect 19 0 18 0;
#X connect 20 0 21 0;
#X connect 20 0 2 2;
#X connect 21 0 20 0;
#X connect 22 0 23 0;
#X connect 22 0 2 3;
#X connect 23 0 22 0;
#X connect 24 0 39 0;
#X connect 25 0 24 0;
#X connect 26 0 27 0;
#X connect 26 0 3 1;
#X connect 27 0 26 0;
#X connect 28 0 29 0;
#X connect 28 0 3 2;
#X connect 29 0 28 0;
#X connect 30 0 31 0;
#X connect 30 0 3 3;
#X connect 31 0 30 0;
#X connect 32 0 17 0;
#X connect 33 0 7 0;
#X connect 34 0 35 0;
#X connect 34 0 33 1;
#X connect 35 0 34 0;
#X connect 36 0 8 1;
#X connect 37 0 38 0;
#X connect 37 0 83 1;
#X connect 38 0 37 0;
#X connect 39 0 64 0;
#X connect 40 0 49 0;
#X connect 40 1 49 1;
#X connect 41 0 45 0;
#X connect 41 0 42 0;
#X connect 42 0 43 0;
#X connect 43 0 44 0;
#X connect 44 0 40 0;
#X connect 45 0 41 1;
#X connect 46 0 43 1;
#X connect 47 0 42 1;
#X connect 48 0 45 1;
#X connect 49 0 25 0;
#X connect 49 0 7 1;
#X connect 50 0 5 0;
#X connect 51 0 52 0;
#X connect 52 0 53 0;
#X connect 53 0 12 0;
#X connect 54 0 59 0;
#X connect 55 0 59 0;
#X connect 55 1 59 1;
#X connect 56 0 57 0;
#X connect 57 0 58 0;
#X connect 58 0 55 0;
#X connect 59 0 32 0;
#X connect 59 0 9 0;
#X connect 60 0 12 0;
#X connect 61 0 60 0;
#X connect 61 1 60 1;
#X connect 62 0 65 0;
#X connect 63 0 62 1;
#X connect 64 0 49 0;
#X connect 65 0 64 0;
#X connect 65 1 64 1;
#X connect 66 0 67 0;
#X connect 66 0 56 0;
#X connect 67 0 66 1;
#X connect 68 0 57 1;
#X connect 69 0 56 1;
#X connect 70 0 73 1;
#X connect 71 0 66 0;
#X connect 71 0 41 0;
#X connect 72 0 73 2;
#X connect 73 0 67 1;
#X connect 74 0 75 0;
#X connect 75 0 76 0;
#X connect 76 0 78 0;
#X connect 78 0 13 0;
#X connect 78 1 61 0;
#X connect 79 0 11 0;
#X connect 80 0 0 0;
#X connect 83 0 82 0;
#X connect 84 0 88 0;
#X connect 85 0 86 1;
#X connect 86 0 92 0;
#X connect 87 0 91 1;
#X connect 88 0 89 0;
#X connect 89 0 91 0;
#X connect 90 0 85 0;
#X connect 90 0 87 0;
#X connect 91 0 92 1;
#X connect 92 0 50 1;
#X connect 93 0 13 0;
#X coords 0 -1 1 1 475 90 2 100 100;
