#N canvas 328 102 1009 605 10;
#N canvas 453 103 818 759 drum 0;
#X obj 190 516 osc~;
#X obj 280 100 hsl 128 15 0 127 0 1 empty empty penv 6644.88 10 7
0 10 -262144 -258113 -1 11600 1;
#X floatatom 362 373 5 0 0 0 - - -, f 5;
#X obj 191 353 mtof;
#X obj 280 130 hsl 128 15 0 127 0 1 empty empty frq 60.3239 10 7 0
10 -262144 -258113 -1 1300 1;
#X floatatom 191 408 5 0 0 0 - - -, f 5;
#X obj 191 437 +~;
#X obj 428 344 line~;
#X obj 424 410 *~;
#X obj 362 397 *;
#X obj 426 465 *~;
#X obj 425 436 lop~ 200;
#X msg 335 312 1 0;
#X obj 100 100 bng 30 250 50 0 empty empty 1 8 15 0 25 -262144 -4032
-1;
#X obj 298 273 del;
#X msg 316 250 0;
#X obj 280 115 hsl 128 15 1.27 800 0 1 empty empty penv_dec 13.8484
10 7 0 10 -262144 -258113 -1 200 1;
#X msg 428 282 set 0 \$1;
#X msg 428 308 0 13.8484;
#X obj 380 145 hradio 15 1 1 2 empty empty pol -20 7 0 10 -262144 -258113
-1 0;
#X obj 562 163 * 2;
#X obj 562 193 - 1;
#X obj 190 629 *~;
#X obj 280 160 hsl 128 15 1.27 1500 0 1 empty empty dec 1405.59 10
7 0 10 -262144 -258113 -1 11900 1;
#X msg 275 409 set 0 \$1;
#X msg 275 435 0 1405.59;
#X obj 275 502 line~;
#X obj 272 569 lop~ 120;
#X obj 271 541 *~;
#X obj 501 84 metro 1000;
#X obj 100 130 tgl 30 0 empty empty empty 17 7 0 10 -262144 -258113
-1 1 1;
#X obj 190 683 *~ 0.5;
#X obj 280 175 hsl 128 15 0 1 0 1 empty empty amp 0.913386 10 7 0
10 -262144 -258113 -1 11600 1;
#X obj 133 100 hsl 100 30 0 1 0 0 empty empty empty -2 -8 0 10 -4032
-1 -1 1090 1;
#X msg 266 313 0;
#X obj 561 257 t b f;
#X obj 586 84 random 2000;
#X obj 277 39 spigot;
#X obj 277 64 random 127;
#X obj 55 61 inlet;
#X obj 262 100 tgl 15 1 empty empty empty 17 7 0 10 -262144 -1 -1 1
1;
#X obj 100 61 inlet;
#X obj 362 340 mtof;
#X obj 27 169 int;
#X obj 27 189 change;
#X obj 144 61 inlet;
#X obj 27 147 * 10;
#X obj 557 601 t b f;
#X obj 557 518 metro 100;
#X obj 262 130 tgl 15 1 empty empty empty 17 7 0 10 -262144 -1 -1 1
1;
#X obj 557 540 random 100;
#X obj 557 561 pack f 50;
#X obj 557 581 line;
#X obj 630 518 random 6000;
#X obj 221 175 nbx 5 15 -1e+37 1e+37 0 1 empty empty smooth -40 7 0
10 -262144 -1 -1 80 256;
#X obj 221 160 nbx 5 15 -1e+37 1e+37 0 1 empty empty range -35 7 0
10 -262144 -1 -1 53 256;
#X obj 221 145 nbx 5 15 -1e+37 1e+37 0 1 empty empty speed -35 7 0
10 -262144 -1 -1 1000 256;
#X obj 191 380 +;
#X msg 646 165 label frq \$1;
#X msg 647 189 label dec \$1;
#X msg 648 118 label penv \$1;
#X msg 648 213 label amp \$1;
#X msg 645 142 label penv_dec \$1;
#X obj 191 490 +~;
#X obj 159 460 *~;
#X obj 253 645 *~;
#X obj 161 132 vsl 15 55 0 1 0 0 empty empty -> 2 7 0 10 -204800 -258113
-1 2700 1;
#X obj 146 132 vsl 15 55 0 1000 0 1 empty empty >- 2 7 0 10 -204800
-258113 -1 200 1;
#X obj 300 693 s~ \$0-out_dr01;
#X obj 68 415 r~ \$0-mod_dr01;
#X obj 42 448 r~ \$0-mod_dr01a;
#X obj 131 132 vsl 15 55 0 1000 0 1 empty empty >a 2 7 0 10 -204800
-258113 -1 600 1;
#X obj 41 474 *~;
#X obj 190 721 s~ \$0-out_01;
#X obj 116 504 noise~;
#X obj 280 145 hsl 75 15 0 -1 0 1 empty empty sine-noise 10 8 0 10
-262144 -258113 -1 1000 1;
#X obj 208 555 + 1;
#X obj 236 555 * -1;
#X obj 190 575 *~;
#X obj 224 575 *~;
#X obj 189 606 +~;
#X obj 116 535 vcf~ 5;
#X obj 22 111 spigot;
#X obj 22 86 t b f;
#X connect 0 0 78 0;
#X connect 1 0 42 0;
#X connect 2 0 9 0;
#X connect 2 0 60 0;
#X connect 3 0 57 0;
#X connect 4 0 3 0;
#X connect 5 0 6 0;
#X connect 5 0 58 0;
#X connect 6 0 63 0;
#X connect 7 0 8 1;
#X connect 7 0 8 0;
#X connect 8 0 11 0;
#X connect 9 0 10 1;
#X connect 10 0 6 1;
#X connect 11 0 10 0;
#X connect 12 0 7 0;
#X connect 12 0 26 0;
#X connect 13 0 12 0;
#X connect 13 0 14 0;
#X connect 13 0 15 0;
#X connect 13 0 34 0;
#X connect 13 0 37 0;
#X connect 14 0 18 0;
#X connect 14 0 25 0;
#X connect 15 0 14 1;
#X connect 16 0 17 0;
#X connect 16 0 62 0;
#X connect 17 0 18 0;
#X connect 18 0 7 0;
#X connect 19 0 20 0;
#X connect 20 0 21 0;
#X connect 21 0 35 0;
#X connect 22 0 31 0;
#X connect 22 0 65 0;
#X connect 23 0 24 0;
#X connect 23 0 59 0;
#X connect 24 0 25 0;
#X connect 25 0 26 0;
#X connect 26 0 28 0;
#X connect 26 0 28 1;
#X connect 27 0 22 1;
#X connect 28 0 27 0;
#X connect 29 0 13 0;
#X connect 29 0 36 0;
#X connect 30 0 29 0;
#X connect 31 0 73 0;
#X connect 32 0 31 1;
#X connect 32 0 61 0;
#X connect 33 0 46 0;
#X connect 34 0 0 1;
#X connect 35 0 2 0;
#X connect 35 1 9 1;
#X connect 36 0 29 1;
#X connect 37 0 38 0;
#X connect 38 0 1 0;
#X connect 39 0 33 0;
#X connect 40 0 37 1;
#X connect 41 0 83 0;
#X connect 42 0 2 0;
#X connect 43 0 44 0;
#X connect 44 0 13 0;
#X connect 45 0 30 0;
#X connect 46 0 43 0;
#X connect 47 0 57 0;
#X connect 47 1 57 1;
#X connect 48 0 50 0;
#X connect 48 0 53 0;
#X connect 49 0 48 0;
#X connect 50 0 51 0;
#X connect 51 0 52 0;
#X connect 52 0 47 0;
#X connect 53 0 48 1;
#X connect 54 0 51 1;
#X connect 55 0 50 1;
#X connect 56 0 53 1;
#X connect 57 0 5 0;
#X connect 58 0 4 0;
#X connect 59 0 23 0;
#X connect 60 0 1 0;
#X connect 61 0 32 0;
#X connect 62 0 16 0;
#X connect 63 0 0 0;
#X connect 63 0 81 1;
#X connect 64 0 63 1;
#X connect 65 0 68 0;
#X connect 66 0 65 1;
#X connect 67 0 64 1;
#X connect 69 0 64 0;
#X connect 70 0 72 0;
#X connect 71 0 72 1;
#X connect 72 0 63 1;
#X connect 74 0 81 0;
#X connect 75 0 76 0;
#X connect 75 0 77 0;
#X connect 76 0 78 1;
#X connect 77 0 79 1;
#X connect 78 0 80 0;
#X connect 79 0 80 1;
#X connect 80 0 22 0;
#X connect 81 0 79 0;
#X connect 82 0 13 0;
#X connect 83 0 82 0;
#X connect 83 1 82 1;
#X coords 0 -1 1 1 310 90 2 100 100;
#X restore 531 148 pd drum;
#N canvas 294 75 936 783 karplus 0;
#X obj 100 100 bng 30 250 50 0 empty empty 3 8 15 0 25 -262144 -260097
-1;
#X obj 281 363 del;
#X msg 248 387 1;
#X msg 281 387 0;
#X obj 162 380 noise~;
#X obj 162 457 *~;
#X obj 405 434 vd~ buffer 100;
#X floatatom 223 576 5 0 0 0 - - -, f 5;
#X obj 163 651 delwrite~ buffer 1000;
#X obj 405 471 *~ 0.5;
#X obj 492 460 z~ 1;
#X obj 493 480 *~ 0.5;
#X obj 406 496 +~;
#X obj 423 344 expr 44100/($f1*1.09545)*0.025;
#X obj 100 130 tgl 30 0 empty empty empty 17 7 0 10 -262144 -258113
-1 1 1;
#X obj 223 515 random 1000;
#X obj 223 537 expr $f1 / 10000 + 0.9;
#X obj 240 115 hsl 128 15 0 1 0 1 empty empty amp 0.740157 10 7 0
10 -262144 -258113 -1 9400 1;
#X obj 177 696 *~ 0.5;
#X obj 133 100 hsl 100 30 0 1 0 0 empty empty empty -2 -8 0 10 -260097
-1 -1 34 1;
#X obj 177 600 *~ 0.99;
#X obj 16 42 inlet;
#X obj 67 42 inlet;
#X obj 18 130 int;
#X obj 18 147 change;
#X obj 118 42 inlet;
#X obj 18 110 * 10;
#X msg 466 149 label amp \$1;
#X obj 240 100 hsl 128 15 0 127 0 0 empty empty frq 106 10 8 0 10
-262144 -258113 -1 0 1;
#X msg 458 110 label frq \$1;
#X obj 100 296 mtof;
#X obj 32 304 t b f;
#X obj 33 216 metro 100;
#X obj 32 239 random 100;
#X obj 32 264 pack f 50;
#X obj 32 284 line;
#X obj 106 216 random 6000;
#X obj 218 175 nbx 5 15 -1e+37 1e+37 0 1 empty empty smooth -40 7 0
10 -262144 -1 -1 100 256;
#X obj 218 160 nbx 5 15 -1e+37 1e+37 0 1 empty empty range -35 7 0
10 -262144 -1 -1 300 256;
#X obj 218 145 nbx 5 15 -1e+37 1e+37 0 1 empty empty speed -35 7 0
10 -262144 -1 -1 3000 256;
#X obj 32 327 +;
#X obj 344 265 *~;
#X obj 288 695 *~;
#X obj 160 132 vsl 15 55 0 1 0 1 empty empty -> 2 7 0 10 -261682 -258113
-1 2700 1;
#X obj 145 132 vsl 15 55 0 5 0 1 empty empty >- 2 7 0 10 -261682 -258113
-1 2400 1;
#X obj 130 132 vsl 15 55 0 5 0 1 empty empty >a 2 7 0 10 -261682 -258113
-1 0 1;
#X obj 312 265 *~;
#X obj 310 214 r~ \$0-mod_kp01;
#X obj 311 235 r~ \$0-mod_kp01a;
#X obj 288 720 s~ \$0-out_kp01;
#X obj 404 402 +~;
#X obj 423 375 sig~;
#X obj 177 723 s~ \$0-out_03;
#X obj 43 91 spigot;
#X obj 43 66 t b f;
#X connect 0 0 1 0;
#X connect 0 0 2 0;
#X connect 0 0 15 0;
#X connect 0 0 33 0;
#X connect 1 0 3 0;
#X connect 2 0 5 1;
#X connect 3 0 5 1;
#X connect 4 0 5 0;
#X connect 5 0 8 0;
#X connect 6 0 9 0;
#X connect 6 0 10 0;
#X connect 7 0 20 1;
#X connect 9 0 12 0;
#X connect 10 0 11 0;
#X connect 11 0 12 1;
#X connect 12 0 20 0;
#X connect 13 0 1 1;
#X connect 13 0 51 0;
#X connect 14 0 32 0;
#X connect 15 0 16 0;
#X connect 16 0 7 0;
#X connect 17 0 27 0;
#X connect 17 0 18 1;
#X connect 18 0 52 0;
#X connect 19 0 26 0;
#X connect 20 0 8 0;
#X connect 20 0 18 0;
#X connect 20 0 42 0;
#X connect 21 0 19 0;
#X connect 22 0 54 0;
#X connect 23 0 24 0;
#X connect 24 0 0 0;
#X connect 25 0 14 0;
#X connect 26 0 23 0;
#X connect 27 0 17 0;
#X connect 28 0 30 0;
#X connect 29 0 28 0;
#X connect 30 0 40 0;
#X connect 31 0 40 0;
#X connect 31 1 40 1;
#X connect 32 0 36 0;
#X connect 32 0 0 0;
#X connect 33 0 34 0;
#X connect 34 0 35 0;
#X connect 35 0 31 0;
#X connect 36 0 32 1;
#X connect 37 0 34 1;
#X connect 38 0 33 1;
#X connect 39 0 36 1;
#X connect 40 0 29 0;
#X connect 40 0 13 0;
#X connect 41 0 50 0;
#X connect 42 0 49 0;
#X connect 43 0 42 1;
#X connect 44 0 41 1;
#X connect 45 0 46 1;
#X connect 46 0 50 0;
#X connect 47 0 41 0;
#X connect 48 0 46 0;
#X connect 50 0 6 0;
#X connect 51 0 50 1;
#X connect 53 0 0 0;
#X connect 54 0 53 0;
#X connect 54 1 53 1;
#X coords 0 -1 1 1 270 90 1 100 100;
#X restore 531 336 pd karplus;
#N canvas 297 75 846 794 karplus 0;
#X obj 299 466 noise~;
#X obj 301 549 *~;
#X obj 414 470 del;
#X msg 378 510 1;
#X msg 414 510 0;
#X obj 100 100 bng 30 250 50 0 empty empty 4 7 15 0 25 -262144 -4034
-1;
#X obj 301 630 delwrite~ \$0-karp 200;
#X obj 471 443 vd~ \$0-karp 200;
#X obj 408 561 *~ 0.999;
#X obj 408 693 *~ 0.5;
#X obj 471 478 *~ 0.5;
#X obj 561 494 *~ 0.5;
#X obj 561 474 z~ 1;
#X obj 471 510 +~;
#X obj 431 231 expr 44100/($f1*1.09545)*0.025;
#X obj 473 357 osc~;
#X obj 473 261 t b f f;
#X obj 473 285 * 1;
#X obj 285 190 hsl 128 15 0 1 0 1 empty empty amp 0.976378 10 7 0
10 -262144 -258113 -1 12400 1;
#X obj 473 377 -~ 1;
#X obj 472 400 *~ 1;
#X obj 471 420 +~;
#X obj 133 100 hsl 101 30 0 1 0 0 empty empty empty -2 -8 0 10 -4034
-1 -1 20 1;
#X obj 541 80 int;
#X obj 541 102 change;
#X obj 312 115 hsl 101 15 0 10 0 0 empty empty FM harmonic 0.7 4
8 0 10 -262144 -258113 -1 700 1;
#X msg 687 177 label FM harmonic \$1;
#X obj 312 130 hsl 101 15 0 2 0 1 empty empty FM amount 0.48 4 8
0 10 -262144 -258113 -1 2400 1;
#X obj 285 175 hsl 128 15 0.0101 0.999 0 1 empty empty decay 0.930928
5 8 0 10 -262144 -258113 -1 11000 1;
#X obj 461 536 sqrt;
#X msg 686 255 label decay \$1;
#X obj 285 160 hsl 128 15 20 15000 0 1 empty empty LP 3440.63 4 8
0 10 -262144 -258113 -1 2900 1;
#X msg 687 235 label LP \$1;
#X obj 285 145 hsl 128 15 0 10000 0 1 empty empty BP 1574.8 4 8 0
10 -262144 -258113 -1 2000 1;
#X msg 688 215 label BP \$1;
#X msg 687 196 label FM amount \$1;
#X obj 100 130 tgl 30 0 empty empty empty 17 7 0 10 -262144 -258113
-1 0.00475109 1;
#X msg 515 340 1;
#X obj 521 403 /;
#X msg 521 381 1000 \$1;
#X obj 300 510 vcf~ 10;
#X obj 407 661 lop~ 100;
#X obj 39 18 inlet;
#X msg 687 277 label amp \$1;
#X obj 87 20 inlet;
#X obj 138 19 inlet;
#X obj 19 245 int;
#X obj 19 267 change;
#X obj 19 183 * 10;
#X obj 285 100 hsl 128 15 0 127 0 0 empty empty frq 24.5623 10 8 0
10 -262144 -258113 -1 600 1;
#X msg 689 153 label frq \$1;
#X obj 166 413 mtof;
#X obj 48 455 t b f;
#X obj 49 367 metro 100;
#X obj 48 390 random 100;
#X obj 48 415 pack f 50;
#X obj 48 435 line;
#X obj 122 367 random 6000;
#X obj 219 175 nbx 5 15 -1e+37 1e+37 0 1 empty empty smooth -40 7 0
10 -262144 -1 -1 500 256;
#X obj 219 160 nbx 5 15 -1e+37 1e+37 0 1 empty empty range -35 7 0
10 -262144 -1 -1 41 256;
#X obj 219 145 nbx 5 15 -1e+37 1e+37 0 1 empty empty speed -35 7 0
10 -262144 -1 -1 5000 256;
#X obj 48 490 +;
#X obj 231 583 *~;
#X obj 468 716 *~;
#X obj 160 132 vsl 15 55 0 1 0 1 empty empty -> 2 7 0 10 -204786 -258113
-1 1700 1;
#X obj 145 132 vsl 15 55 0 5 0 1 empty empty >- 2 7 0 10 -204786 -258113
-1 3700 1;
#X obj 130 132 vsl 15 55 0 5 0 1 empty empty >a 2 7 0 10 -204786 -258113
-1 0 1;
#X obj 116 601 *~;
#X obj 117 550 r~ \$0-mod_kp02;
#X obj 114 571 r~ \$0-mod_kp02a;
#X obj 468 744 s~ \$0-out_kp02;
#X obj 473 306 sig~;
#X obj 455 337 +~;
#X obj 409 769 s~ \$0-out_04;
#X obj 100 78 spigot;
#X obj 100 53 t b f;
#X connect 0 0 40 0;
#X connect 1 0 6 0;
#X connect 2 0 4 0;
#X connect 3 0 1 1;
#X connect 4 0 1 1;
#X connect 5 0 3 0;
#X connect 5 0 2 0;
#X connect 5 0 37 0;
#X connect 5 0 54 0;
#X connect 7 0 10 0;
#X connect 7 0 12 0;
#X connect 8 0 6 0;
#X connect 8 0 41 0;
#X connect 9 0 73 0;
#X connect 10 0 13 0;
#X connect 11 0 13 1;
#X connect 12 0 11 0;
#X connect 13 0 8 0;
#X connect 14 0 2 1;
#X connect 14 0 17 0;
#X connect 15 0 19 0;
#X connect 16 0 17 0;
#X connect 16 1 17 1;
#X connect 16 2 26 0;
#X connect 17 0 71 0;
#X connect 18 0 43 0;
#X connect 18 0 9 1;
#X connect 19 0 20 0;
#X connect 20 0 21 0;
#X connect 21 0 7 0;
#X connect 22 0 23 0;
#X connect 22 0 48 0;
#X connect 23 0 24 0;
#X connect 24 0 5 0;
#X connect 25 0 16 0;
#X connect 26 0 25 0;
#X connect 27 0 35 0;
#X connect 27 0 20 1;
#X connect 28 0 29 0;
#X connect 29 0 30 0;
#X connect 29 0 8 1;
#X connect 30 0 28 0;
#X connect 31 0 32 0;
#X connect 31 0 41 1;
#X connect 32 0 31 0;
#X connect 33 0 34 0;
#X connect 33 0 40 1;
#X connect 34 0 33 0;
#X connect 35 0 27 0;
#X connect 36 0 53 0;
#X connect 37 0 15 1;
#X connect 38 0 21 1;
#X connect 39 0 38 0;
#X connect 40 0 1 0;
#X connect 41 0 9 0;
#X connect 41 0 63 0;
#X connect 42 0 22 0;
#X connect 43 0 18 0;
#X connect 44 0 75 0;
#X connect 45 0 36 0;
#X connect 46 0 47 0;
#X connect 47 0 5 0;
#X connect 48 0 46 0;
#X connect 49 0 51 0;
#X connect 50 0 49 0;
#X connect 51 0 61 0;
#X connect 52 0 61 0;
#X connect 52 1 61 1;
#X connect 53 0 57 0;
#X connect 53 0 5 0;
#X connect 54 0 55 0;
#X connect 55 0 56 0;
#X connect 56 0 52 0;
#X connect 57 0 53 1;
#X connect 58 0 55 1;
#X connect 59 0 54 1;
#X connect 60 0 57 1;
#X connect 61 0 14 0;
#X connect 61 0 50 0;
#X connect 61 0 39 0;
#X connect 62 0 72 0;
#X connect 63 0 70 0;
#X connect 64 0 63 1;
#X connect 65 0 62 1;
#X connect 66 0 67 1;
#X connect 67 0 72 0;
#X connect 68 0 62 0;
#X connect 69 0 67 0;
#X connect 71 0 72 1;
#X connect 72 0 15 0;
#X connect 74 0 5 0;
#X connect 75 0 74 0;
#X connect 75 1 74 1;
#X coords 0 -1 1 1 315 105 1 100 100;
#X restore 531 429 pd karplus 2;
#N canvas 111 170 1026 613 fm 0;
#X obj 435 523 *~ 0.5;
#X obj 415 160 hsl 128 15 0 1 0 1 empty empty amp 0.228346 10 7 0
10 -262144 -258113 -1 2900 1;
#X obj 435 482 osc~;
#X obj 415 100 hsl 128 15 0 127 0 1 empty empty carr 16.1758 10 7
0 10 -262144 -258113 -1 0 1;
#X obj 356 375 mtof;
#X obj 435 439 +~;
#X obj 133 100 hsl 128 15 0 127 0 1 empty empty mod 29.849 10 7 0
10 -262144 -258113 -1 1937 1;
#X obj 461 284 mtof;
#X obj 274 100 hsl 128 15 0 1000 0 1 empty empty index 202.495 10
7 0 10 -262144 -258113 -1 2369 1;
#X obj 461 387 *~ 500;
#X obj 461 308 +;
#X obj 592 211 t b f;
#X obj 290 274 metro 100;
#X obj 412 115 tgl 15 1 empty empty empty 17 7 0 10 -262144 -1 -1 1
1;
#X obj 394 401 +;
#X obj 394 375 t b f;
#X obj 290 296 random 100;
#X obj 290 317 pack f 50;
#X obj 290 337 line;
#X obj 502 322 +;
#X obj 500 296 t b f;
#X obj 363 274 random 6000;
#X floatatom 394 422 5 0 0 0 - - -, f 5;
#X floatatom 461 332 5 0 0 0 - - -, f 5;
#X obj 99 40 inlet;
#X obj 491 145 nbx 5 15 -1e+37 1e+37 0 1 empty empty smooth -40 7 0
10 -262144 -1 -1 150 256;
#X obj 491 130 nbx 5 15 -1e+37 1e+37 0 1 empty empty range -35 7 0
10 -262144 -1 -1 9 256;
#X obj 491 115 nbx 5 15 -1e+37 1e+37 0 1 empty empty speed -35 7 0
10 -262144 -1 -1 6000 256;
#X obj 117 361 metro 100;
#X obj 271 115 tgl 15 1 empty empty empty 17 7 0 10 -262144 -1 -1 1
1;
#X obj 117 383 random 100;
#X obj 117 404 pack f 50;
#X obj 117 424 line;
#X obj 190 361 random 6000;
#X obj 350 145 nbx 5 15 -1e+37 1e+37 0 1 empty empty smooth -40 7 0
10 -262144 -1 -1 3000 256;
#X obj 350 130 nbx 5 15 -1e+37 1e+37 0 1 empty empty range -35 7 0
10 -262144 -1 -1 48 256;
#X obj 350 115 nbx 5 15 -1e+37 1e+37 0 1 empty empty speed -35 7 0
10 -262144 -1 -1 6000 256;
#X obj 592 128 metro 100;
#X obj 130 115 tgl 15 1 empty empty empty 17 7 0 10 -262144 -1 -1 1
1;
#X obj 592 150 random 100;
#X obj 592 171 pack f 50;
#X obj 592 191 line;
#X obj 665 128 random 6000;
#X obj 209 145 nbx 5 15 -1e+37 1e+37 0 1 empty empty smooth -40 7 0
10 -262144 -1 -1 2000 256;
#X obj 209 130 nbx 5 15 -1e+37 1e+37 0 1 empty empty range -35 7 0
10 -262144 -1 -1 9 256;
#X obj 209 115 nbx 5 15 -1e+37 1e+37 0 1 empty empty speed -35 7 0
10 -262144 -1 -1 5000 256;
#X msg 843 442 label amp \$1;
#X msg 842 421 label index \$1;
#X floatatom 502 344 5 0 0 0 - - -, f 5;
#X obj 381 29 inlet;
#X obj 461 365 osc~;
#X obj 222 38 inlet;
#X obj 444 32 inlet;
#X obj 381 62 * 127;
#X obj 99 66 * 127;
#X obj 224 65 * 1000;
#X obj 504 435 *~ 500;
#X obj 516 488 +~;
#X obj 560 436 *~ 500;
#X obj 612 437 *~ 500;
#X msg 842 398 label mod \$1;
#X msg 842 378 label carr \$1;
#X obj 661 437 *~ 500;
#X obj 100 147 vsl 15 55 0 1000 0 1 empty empty empty 0 -9 0 10 -4032
-1 -1 0 1;
#X obj 115 147 vsl 15 55 0 1000 0 1 empty empty empty 0 -9 0 10 -257985
-1 -1 0 1;
#X obj 130 147 vsl 15 55 0 1000 0 1 empty empty empty 0 -9 0 10 -260097
-1 -1 0 1;
#X obj 145 147 vsl 15 55 0 1000 0 1 empty empty empty 0 -9 0 10 -4034
-1 -1 3600 1;
#X obj 434 556 s~ \$0-out_00;
#X obj 839 63 r~ \$0-out_01;
#X obj 847 104 r~ \$0-out_02;
#X obj 851 156 r~ \$0-out_03;
#X obj 852 203 r~ \$0-out_04;
#X connect 0 0 67 0;
#X connect 1 0 0 1;
#X connect 1 0 46 0;
#X connect 2 0 0 0;
#X connect 3 0 4 0;
#X connect 4 0 14 0;
#X connect 5 0 57 0;
#X connect 6 0 7 0;
#X connect 7 0 10 0;
#X connect 8 0 19 0;
#X connect 9 0 5 1;
#X connect 10 0 23 0;
#X connect 11 0 10 0;
#X connect 11 1 10 1;
#X connect 12 0 16 0;
#X connect 12 0 21 0;
#X connect 13 0 12 0;
#X connect 14 0 22 0;
#X connect 15 0 14 0;
#X connect 15 1 14 1;
#X connect 16 0 17 0;
#X connect 17 0 18 0;
#X connect 18 0 15 0;
#X connect 19 0 48 0;
#X connect 20 0 19 0;
#X connect 20 1 19 1;
#X connect 21 0 12 1;
#X connect 22 0 5 0;
#X connect 22 0 61 0;
#X connect 23 0 60 0;
#X connect 23 0 50 0;
#X connect 24 0 54 0;
#X connect 25 0 17 1;
#X connect 26 0 16 1;
#X connect 27 0 21 1;
#X connect 28 0 30 0;
#X connect 28 0 33 0;
#X connect 29 0 28 0;
#X connect 30 0 31 0;
#X connect 31 0 32 0;
#X connect 32 0 20 0;
#X connect 33 0 28 1;
#X connect 34 0 31 1;
#X connect 35 0 30 1;
#X connect 36 0 33 1;
#X connect 37 0 39 0;
#X connect 37 0 42 0;
#X connect 38 0 37 0;
#X connect 39 0 40 0;
#X connect 40 0 41 0;
#X connect 41 0 11 0;
#X connect 42 0 37 1;
#X connect 43 0 40 1;
#X connect 44 0 39 1;
#X connect 45 0 42 1;
#X connect 46 0 1 0;
#X connect 47 0 8 0;
#X connect 48 0 47 0;
#X connect 48 0 9 1;
#X connect 49 0 53 0;
#X connect 50 0 9 0;
#X connect 51 0 55 0;
#X connect 52 0 1 0;
#X connect 53 0 3 0;
#X connect 54 0 6 0;
#X connect 55 0 8 0;
#X connect 56 0 57 1;
#X connect 57 0 2 0;
#X connect 58 0 57 1;
#X connect 59 0 57 1;
#X connect 60 0 6 0;
#X connect 61 0 3 0;
#X connect 62 0 57 1;
#X connect 63 0 56 1;
#X connect 64 0 58 1;
#X connect 65 0 59 1;
#X connect 66 0 62 1;
#X connect 68 0 56 0;
#X connect 69 0 58 0;
#X connect 70 0 59 0;
#X connect 71 0 62 0;
#X coords 0 -1 1 1 445 105 2 100 100;
#X restore 21 73 pd fm;
#N canvas 1552 140 941 523 receive_OSC............... 1;
#X obj 31 33 udpreceive 54321;
#X floatatom 30 315 5 0 0 0 - - -, f 5;
#X floatatom 112 316 5 0 0 0 - - -, f 5;
#X obj 31 62 unpackOSC;
#X obj 31 294 unpack \$1 \$2;
#X floatatom 169 319 5 0 0 0 - - -, f 5;
#X floatatom 250 321 5 0 0 0 - - -, f 5;
#X obj 169 297 unpack \$1 \$2;
#X floatatom 306 322 5 0 0 0 - - -, f 5;
#X floatatom 356 322 5 0 0 0 - - -, f 5;
#X floatatom 406 322 5 0 0 0 - - -, f 5;
#X obj 30 346 outlet;
#X obj 112 347 outlet;
#X obj 169 347 outlet;
#X obj 251 348 outlet;
#X obj 306 348 outlet;
#X obj 356 348 outlet;
#X obj 406 348 outlet;
#X floatatom 456 322 5 0 0 0 - - -, f 5;
#X floatatom 506 322 5 0 0 0 - - -, f 5;
#X floatatom 556 322 5 0 0 0 - - -, f 5;
#X obj 456 348 outlet;
#X obj 506 348 outlet;
#X obj 556 348 outlet;
#X floatatom 607 321 5 0 0 0 - - -, f 5;
#X floatatom 657 321 5 0 0 0 - - -, f 5;
#X floatatom 707 321 5 0 0 0 - - -, f 5;
#X obj 607 347 outlet;
#X obj 657 347 outlet;
#X obj 707 347 outlet;
#X floatatom 756 321 5 0 0 0 - - -, f 5;
#X floatatom 806 321 5 0 0 0 - - -, f 5;
#X floatatom 856 321 5 0 0 0 - - -, f 5;
#X obj 756 347 outlet;
#X obj 806 347 outlet;
#X obj 856 347 outlet;
#X obj 31 89 route /xypg /xydf /b01s /b01b /b01t /b02s /b02b /b02t
/b03s /b03b /b03t /b04s /b04b /b04t, f 90;
#X connect 0 0 3 0;
#X connect 1 0 11 0;
#X connect 2 0 12 0;
#X connect 3 0 36 0;
#X connect 4 0 1 0;
#X connect 4 1 2 0;
#X connect 5 0 13 0;
#X connect 6 0 14 0;
#X connect 7 0 5 0;
#X connect 7 1 6 0;
#X connect 8 0 15 0;
#X connect 9 0 16 0;
#X connect 10 0 17 0;
#X connect 18 0 21 0;
#X connect 19 0 22 0;
#X connect 20 0 23 0;
#X connect 24 0 27 0;
#X connect 25 0 28 0;
#X connect 26 0 29 0;
#X connect 30 0 33 0;
#X connect 31 0 34 0;
#X connect 32 0 35 0;
#X connect 36 0 4 0;
#X connect 36 1 7 0;
#X connect 36 2 8 0;
#X connect 36 3 9 0;
#X connect 36 4 10 0;
#X connect 36 5 18 0;
#X connect 36 6 19 0;
#X connect 36 7 20 0;
#X connect 36 8 24 0;
#X connect 36 9 25 0;
#X connect 36 10 26 0;
#X connect 36 11 30 0;
#X connect 36 12 31 0;
#X connect 36 13 32 0;
#X restore 419 21 pd receive_OSC...............;
#N canvas 340 239 855 565 matrix 0;
#X obj 125 130 tgl 15 1 empty empty 1-> -20 7 0 10 -262144 -1 -1 0
1;
#X obj 140 130 tgl 15 1 empty empty empty 17 7 0 10 -262144 -1 -1 1
1;
#X obj 265 6 r~ \$0-out_dr01;
#X obj 275 331 s~ \$0-mod_dr01;
#X obj 265 49 *~;
#X obj 293 49 *~;
#X obj 321 49 *~;
#X obj 349 49 *~;
#X obj 155 130 tgl 15 1 empty empty empty 17 7 0 10 -262144 -1 -1 0
1;
#X obj 170 130 tgl 15 1 empty empty empty 17 7 0 10 -262144 -1 -1 1
1;
#X obj 292 353 s~ \$0-mod_fm01;
#X obj 321 374 s~ \$0-mod_kp01;
#X obj 349 395 s~ \$0-mod_kp02;
#X obj 26 306 s~ \$0-mod_dr01a;
#X obj 27 326 s~ \$0-mod_fm01a;
#X obj 27 346 s~ \$0-mod_kp01a;
#X obj 27 366 s~ \$0-mod_kp02a;
#X obj 125 145 tgl 15 1 empty empty 2-> -20 7 0 10 -262144 -1 -1 1
1;
#X obj 140 145 tgl 15 1 empty empty empty 17 7 0 10 -262144 -1 -1 0
1;
#X obj 385 48 *~;
#X obj 413 48 *~;
#X obj 441 48 *~;
#X obj 469 48 *~;
#X obj 155 145 tgl 15 1 empty empty empty 17 7 0 10 -262144 -1 -1 1
1;
#X obj 170 145 tgl 15 1 empty empty empty 17 7 0 10 -262144 -1 -1 0
1;
#X obj 385 5 r~ \$0-out_fm01;
#X obj 125 160 tgl 15 1 empty empty 3-> -20 7 0 10 -262144 -1 -1 1
1;
#X obj 140 160 tgl 15 1 empty empty empty 17 7 0 10 -262144 -1 -1 1
1;
#X obj 501 49 *~;
#X obj 529 49 *~;
#X obj 557 49 *~;
#X obj 585 49 *~;
#X obj 155 160 tgl 15 1 empty empty empty 17 7 0 10 -262144 -1 -1 1
1;
#X obj 170 160 tgl 15 1 empty empty empty 17 7 0 10 -262144 -1 -1 0
1;
#X obj 501 6 r~ \$0-out_kp01;
#X obj 125 175 tgl 15 1 empty empty 4-> -20 7 0 10 -262144 -1 -1 0
1;
#X obj 140 175 tgl 15 1 empty empty empty 17 7 0 10 -262144 -1 -1 1
1;
#X obj 615 48 *~;
#X obj 643 48 *~;
#X obj 671 48 *~;
#X obj 699 48 *~;
#X obj 155 175 tgl 15 1 empty empty empty 17 7 0 10 -262144 -1 -1 0
1;
#X obj 170 175 tgl 15 1 empty empty empty 17 7 0 10 -262144 -1 -1 0
1;
#X obj 615 5 r~ \$0-out_kp02;
#X connect 0 0 4 1;
#X connect 1 0 5 1;
#X connect 2 0 4 0;
#X connect 2 0 5 0;
#X connect 2 0 6 0;
#X connect 2 0 7 0;
#X connect 4 0 13 0;
#X connect 5 0 10 0;
#X connect 6 0 11 0;
#X connect 7 0 12 0;
#X connect 8 0 6 1;
#X connect 9 0 7 1;
#X connect 17 0 19 1;
#X connect 18 0 20 1;
#X connect 19 0 3 0;
#X connect 20 0 14 0;
#X connect 21 0 11 0;
#X connect 22 0 12 0;
#X connect 23 0 21 1;
#X connect 24 0 22 1;
#X connect 25 0 19 0;
#X connect 25 0 20 0;
#X connect 25 0 21 0;
#X connect 25 0 22 0;
#X connect 26 0 28 1;
#X connect 27 0 29 1;
#X connect 28 0 3 0;
#X connect 29 0 10 0;
#X connect 30 0 15 0;
#X connect 31 0 12 0;
#X connect 32 0 30 1;
#X connect 33 0 31 1;
#X connect 34 0 28 0;
#X connect 34 0 29 0;
#X connect 34 0 30 0;
#X connect 34 0 31 0;
#X connect 35 0 37 1;
#X connect 36 0 38 1;
#X connect 37 0 3 0;
#X connect 38 0 10 0;
#X connect 39 0 11 0;
#X connect 40 0 16 0;
#X connect 41 0 39 1;
#X connect 42 0 40 1;
#X connect 43 0 37 0;
#X connect 43 0 38 0;
#X connect 43 0 39 0;
#X connect 43 0 40 0;
#X coords 0 -1 1 1 85 90 1 100 100;
#X restore 354 214 pd matrix;
#N canvas 128 75 980 806 fm01 0;
#X obj 196 663 *~ 0.5;
#X obj 329 358 *~;
#X obj 309 669 *~;
#X obj 308 695 s~ \$0-out_fm01;
#X obj 330 320 r~ \$0-mod_fm01;
#N canvas 779 224 450 397 asr 0;
#X msg 57 204 1 0;
#X msg 57 178 set 1 \$1;
#X obj 158 145 +;
#X obj 135 191 pipe;
#X floatatom 158 169 5 0 0 0 - - -, f 5;
#X msg 232 225 0 488.189;
#X msg 232 150 set 0 \$1;
#X obj 24 24 inlet;
#X obj 89 22 inlet;
#X obj 158 21 inlet;
#X obj 232 23 inlet;
#X obj 24 75 bng 15 250 50 0 empty empty empty 17 7 0 10 -262144 -1
-1;
#X floatatom 89 78 5 0 0 0 a - -, f 5;
#X floatatom 158 77 5 0 0 0 s - -, f 5;
#X floatatom 232 78 5 0 0 0 r - -, f 5;
#X obj 158 98 t b f;
#X obj 144 252 line~;
#X obj 144 276 outlet~;
#X connect 0 0 16 0;
#X connect 1 0 0 0;
#X connect 2 0 4 0;
#X connect 3 0 5 0;
#X connect 4 0 3 1;
#X connect 5 0 16 0;
#X connect 6 0 5 0;
#X connect 7 0 11 0;
#X connect 8 0 12 0;
#X connect 9 0 13 0;
#X connect 10 0 14 0;
#X connect 11 0 0 0;
#X connect 11 0 3 0;
#X connect 12 0 2 0;
#X connect 12 0 1 0;
#X connect 13 0 15 0;
#X connect 14 0 6 0;
#X connect 15 0 2 0;
#X connect 15 1 2 1;
#X connect 16 0 17 0;
#X restore 264 342 pd asr;
#N canvas 28 456 450 397 asr 0;
#X msg 57 204 1 7.87402;
#X msg 57 178 set 1 \$1;
#X obj 158 145 +;
#X obj 135 191 pipe;
#X floatatom 158 169 5 0 0 0 - - -, f 5;
#X msg 232 225 0 1511.81;
#X msg 232 150 set 0 \$1;
#X obj 24 24 inlet;
#X obj 89 22 inlet;
#X obj 158 21 inlet;
#X obj 232 23 inlet;
#X obj 24 75 bng 15 250 50 0 empty empty empty 17 7 0 10 -262144 -1
-1;
#X floatatom 89 78 5 0 0 0 a - -, f 5;
#X floatatom 158 77 5 0 0 0 s - -, f 5;
#X floatatom 232 76 5 0 0 0 r - -, f 5;
#X obj 158 98 t b f;
#X obj 144 252 line~;
#X obj 144 276 outlet~;
#X connect 0 0 16 0;
#X connect 1 0 0 0;
#X connect 2 0 4 0;
#X connect 3 0 5 0;
#X connect 4 0 3 1;
#X connect 5 0 16 0;
#X connect 6 0 5 0;
#X connect 7 0 11 0;
#X connect 8 0 12 0;
#X connect 9 0 13 0;
#X connect 10 0 14 0;
#X connect 11 0 0 0;
#X connect 11 0 3 0;
#X connect 12 0 2 0;
#X connect 12 0 1 0;
#X connect 13 0 15 0;
#X connect 14 0 6 0;
#X connect 15 0 2 0;
#X connect 15 1 2 1;
#X connect 16 0 17 0;
#X restore 336 521 pd asr;
#X obj 198 538 osc~;
#X obj 197 604 *~;
#X obj 254 537 osc~;
#X obj 199 452 +~;
#X obj 255 499 +~;
#X obj 198 345 osc~;
#X obj 199 375 *~;
#X obj 450 369 *~;
#X obj 451 345 r~ \$0-mod_fm01a;
#X obj 100 100 bng 30 250 50 0 empty empty 2 8 15 0 25 -262144 -257985
-1;
#X obj 100 130 tgl 30 0 empty empty empty 17 7 0 10 -262144 -258113
-1 1 1;
#X obj 133 100 hsl 100 30 0 1 0 0 empty empty empty 10 15 0 10 -257985
-1 -1 1279 1;
#X obj 161 132 vsl 15 55 0 1 0 1 empty empty -> 2 7 0 10 -262130 -258113
-1 3700 1;
#X obj 146 132 vsl 15 55 0 1000 0 1 empty empty >- 2 7 0 10 -262130
-258113 -1 300 1;
#X obj 131 132 vsl 15 55 0 1000 0 1 empty empty >a 2 7 0 10 -262130
-258113 -1 0 1;
#X obj 277 100 hsl 128 15 0 127 0 1 empty empty mod 96.4661 10 7 0
10 -262144 -258113 -1 2811 1;
#X obj 277 130 hsl 128 15 0 1000 0 1 empty empty a 0 10 7 0 10 -262144
-258113 -1 0 1;
#X msg 663 133 label a \$1;
#X obj 277 145 hsl 128 15 0 1000 0 1 empty empty s 31.4961 10 7 0
10 -262144 -258113 -1 400 1;
#X msg 664 150 label s \$1;
#X obj 277 160 hsl 128 15 0 2000 0 1 empty empty r 488.189 10 7 0
10 -262144 -258113 -1 3100 1;
#X msg 664 167 label r \$1;
#X obj 415 100 hsl 128 15 0 127 0 1 empty empty carr 339.402 10 7
0 10 -262144 -258113 -1 5711 1;
#X msg 653 225 label carr \$1;
#X obj 415 130 hsl 128 15 0 1000 0 1 empty empty a 7.87402 10 7 0
10 -262144 -258113 -1 100 1;
#X msg 653 242 label a \$1;
#X obj 415 145 hsl 128 15 0 1000 0 1 empty empty s 55.1181 10 7 0
10 -262144 -258113 -1 700 1;
#X msg 654 259 label s \$1;
#X obj 415 160 hsl 128 15 0 2000 0 1 empty empty r 1511.81 10 7 0
10 -262144 -258113 -1 9600 1;
#X msg 654 276 label r \$1;
#X msg 663 116 label mod \$1;
#X obj 200 407 *~;
#X obj 277 175 hsl 128 15 0 1000 0 1 empty empty index 1000 10 7 0
10 -262144 -258113 -1 12700 1;
#X msg 664 184 label index \$1;
#X obj 412 115 nbx 5 15 -1e+37 1e+37 0 1 empty empty spr 30 7 0 10
-262144 -1 -1 80 256;
#X obj 415 175 hsl 128 15 0 1 0 1 empty empty amp 0.756772 10 7 0
10 -262144 -258113 -1 9611 1;
#X msg 654 293 label amp \$1;
#X obj 116 361 mtof;
#X obj 48 369 t b f;
#X obj 49 281 metro 100;
#X obj 48 304 random 100;
#X obj 48 329 pack f 50;
#X obj 48 349 line;
#X obj 122 281 random 6000;
#X obj 217 175 nbx 5 15 -1e+37 1e+37 0 1 empty empty smooth -40 7 0
10 -262144 -1 -1 69 256;
#X obj 217 160 nbx 5 15 -1e+37 1e+37 0 1 empty empty range -35 7 0
10 -262144 -1 -1 120 256;
#X obj 217 145 nbx 5 15 -1e+37 1e+37 0 1 empty empty speed -35 7 0
10 -262144 -1 -1 3149 256;
#X obj 48 404 +;
#X obj 197 570 +~;
#X obj 27 107 * 10;
#X obj 27 130 int;
#X obj 27 152 change;
#X floatatom 61 444 5 0 0 0 - - -, f 5;
#X obj 113 547 mtof;
#X obj 45 555 t b f;
#X obj 45 490 random 100;
#X obj 45 515 pack f 50;
#X obj 45 535 line;
#X obj 45 590 +;
#X obj 100 23 inlet;
#X obj 57 23 inlet;
#X obj 143 23 inlet;
#X obj 100 73 spigot;
#X obj 100 48 t b f;
#X obj 196 697 s~ \$0-out_02;
#X connect 0 0 71 0;
#X connect 1 0 10 0;
#X connect 2 0 3 0;
#X connect 4 0 1 0;
#X connect 5 0 13 1;
#X connect 6 0 8 1;
#X connect 7 0 55 0;
#X connect 8 0 0 0;
#X connect 8 0 2 0;
#X connect 9 0 55 1;
#X connect 10 0 7 0;
#X connect 10 0 11 0;
#X connect 11 0 9 0;
#X connect 12 0 13 0;
#X connect 13 0 38 0;
#X connect 14 0 10 0;
#X connect 15 0 14 0;
#X connect 16 0 5 0;
#X connect 16 0 6 0;
#X connect 17 0 46 0;
#X connect 18 0 56 0;
#X connect 19 0 2 1;
#X connect 20 0 1 1;
#X connect 21 0 14 1;
#X connect 22 0 60 0;
#X connect 23 0 24 0;
#X connect 23 0 5 1;
#X connect 24 0 23 0;
#X connect 25 0 26 0;
#X connect 25 0 5 2;
#X connect 26 0 25 0;
#X connect 27 0 28 0;
#X connect 27 0 5 3;
#X connect 28 0 27 0;
#X connect 29 0 44 0;
#X connect 30 0 29 0;
#X connect 31 0 32 0;
#X connect 31 0 6 1;
#X connect 32 0 31 0;
#X connect 33 0 34 0;
#X connect 33 0 6 2;
#X connect 34 0 33 0;
#X connect 35 0 36 0;
#X connect 35 0 6 3;
#X connect 36 0 35 0;
#X connect 37 0 22 0;
#X connect 38 0 10 0;
#X connect 39 0 40 0;
#X connect 39 0 38 1;
#X connect 40 0 39 0;
#X connect 41 0 11 1;
#X connect 42 0 43 0;
#X connect 42 0 0 1;
#X connect 43 0 42 0;
#X connect 44 0 54 0;
#X connect 45 0 54 0;
#X connect 45 1 54 1;
#X connect 46 0 50 0;
#X connect 46 0 16 0;
#X connect 46 0 47 0;
#X connect 46 0 62 0;
#X connect 47 0 48 0;
#X connect 48 0 49 0;
#X connect 49 0 45 0;
#X connect 50 0 46 1;
#X connect 51 0 48 1;
#X connect 51 0 63 1;
#X connect 52 0 47 1;
#X connect 52 0 62 1;
#X connect 53 0 50 1;
#X connect 54 0 30 0;
#X connect 54 0 59 0;
#X connect 54 0 10 1;
#X connect 55 0 8 0;
#X connect 56 0 57 0;
#X connect 57 0 58 0;
#X connect 58 0 16 0;
#X connect 60 0 65 0;
#X connect 61 0 65 0;
#X connect 61 1 65 1;
#X connect 62 0 63 0;
#X connect 63 0 64 0;
#X connect 64 0 61 0;
#X connect 65 0 37 0;
#X connect 65 0 12 0;
#X connect 66 0 70 0;
#X connect 67 0 18 0;
#X connect 68 0 17 0;
#X connect 69 0 16 0;
#X connect 70 0 69 0;
#X connect 70 1 69 1;
#X coords 0 -1 1 1 445 90 2 100 100;
#X restore 531 242 pd fm01;
#N canvas 389 89 844 700 mixer 0;
#X obj 199 149 vsl 15 128 0 127 0 1 empty empty empty 5 10 0 10 -4032
-1 -1 8500 1;
#X obj 202 132 hsl 25 15 0 -1 0 1 empty empty pan 3 7 0 10 -262144
-1 -1 1100 1;
#X obj 219 154 vu 8 120 empty empty -1 -8 0 10 -66577 -1 0 0;
#X obj 259 403 prvu~;
#X msg 591 475 t_metro \$1;
#X msg 590 495 t_release \$1;
#X obj 637 423 loadbang;
#X msg 637 444 10;
#N canvas 164 118 450 372 amp-pan-mo 0;
#X obj 141 233 *~;
#X obj 202 234 *~;
#X obj 159 211 + 1;
#X obj 220 211 * -1;
#X obj 220 152 *;
#X obj 297 119 t b f;
#X obj 142 169 *~;
#X obj 220 102 dbtorms;
#X obj 142 50 inlet~;
#X obj 220 49 inlet;
#X obj 297 47 inlet;
#X obj 351 49 inlet;
#X obj 141 272 outlet~;
#X obj 202 272 outlet~;
#X text 365 20 pan;
#X obj 297 75 pack \$1 10;
#X obj 297 97 line;
#X text 226 22 amp;
#X text 304 20 tog;
#X obj 264 271 outlet~;
#X connect 0 0 12 0;
#X connect 1 0 13 0;
#X connect 2 0 0 1;
#X connect 3 0 1 1;
#X connect 4 0 6 1;
#X connect 5 0 4 0;
#X connect 5 1 4 1;
#X connect 6 0 0 0;
#X connect 6 0 1 0;
#X connect 6 0 19 0;
#X connect 7 0 4 0;
#X connect 8 0 6 0;
#X connect 9 0 7 0;
#X connect 10 0 15 0;
#X connect 11 0 3 0;
#X connect 11 0 2 0;
#X connect 15 0 16 0;
#X connect 16 0 5 0;
#X restore 170 377 pd amp-pan-mo;
#X obj 199 280 tgl 15 1 empty empty 1 5 8 0 10 -262144 -1 -1 1 1;
#X obj 234 149 vsl 15 128 0 127 0 1 empty empty empty 5 10 0 10 -257985
-1 -1 7400 1;
#X obj 237 132 hsl 25 15 0 -1 0 1 empty empty pan 3 7 0 10 -262144
-1 -1 1500 1;
#X obj 254 154 vu 8 120 empty empty -1 -8 0 10 -66577 -1 0 0;
#X obj 281 458 prvu~;
#X obj 234 280 tgl 15 1 empty empty 2 5 8 0 10 -262144 -1 -1 1 1;
#X obj 268 149 vsl 15 128 0 127 0 1 empty empty empty 5 10 0 10 -260097
-1 -1 8400 1;
#X obj 271 132 hsl 25 15 0 -1 0 1 empty empty pan 3 7 0 10 -262144
-1 -1 400 1;
#X obj 288 154 vu 8 120 empty empty -1 -8 0 10 -66577 -1 0 0;
#X obj 268 280 tgl 15 1 empty empty 3 5 8 0 10 -262144 -1 -1 1 1;
#X obj 302 149 vsl 15 128 0 127 0 1 empty empty empty 5 10 0 10 -4034
-1 -1 10000 1;
#X obj 322 154 vu 8 120 empty empty -1 -8 0 10 -66577 -1 0 0;
#X obj 302 280 tgl 15 1 empty empty 4 5 8 0 10 -262144 -1 -1 1 1;
#X obj 305 132 hsl 25 15 0 -1 0 1 empty empty pan 3 7 0 10 -262144
-1 -1 1700 1;
#N canvas 164 118 450 372 amp-pan-mo 0;
#X obj 141 233 *~;
#X obj 202 234 *~;
#X obj 159 211 + 1;
#X obj 220 211 * -1;
#X obj 220 152 *;
#X obj 297 119 t b f;
#X obj 142 169 *~;
#X obj 220 102 dbtorms;
#X obj 142 50 inlet~;
#X obj 220 49 inlet;
#X obj 297 47 inlet;
#X obj 351 49 inlet;
#X obj 141 272 outlet~;
#X obj 202 272 outlet~;
#X text 365 20 pan;
#X obj 297 75 pack \$1 10;
#X obj 297 97 line;
#X text 226 22 amp;
#X text 304 20 tog;
#X obj 264 271 outlet~;
#X connect 0 0 12 0;
#X connect 1 0 13 0;
#X connect 2 0 0 1;
#X connect 3 0 1 1;
#X connect 4 0 6 1;
#X connect 5 0 4 0;
#X connect 5 1 4 1;
#X connect 6 0 0 0;
#X connect 6 0 1 0;
#X connect 6 0 19 0;
#X connect 7 0 4 0;
#X connect 8 0 6 0;
#X connect 9 0 7 0;
#X connect 10 0 15 0;
#X connect 11 0 3 0;
#X connect 11 0 2 0;
#X connect 15 0 16 0;
#X connect 16 0 5 0;
#X restore 194 430 pd amp-pan-mo;
#X obj 364 575 prvu~;
#N canvas 164 118 450 372 amp-pan-mo 0;
#X obj 141 233 *~;
#X obj 202 234 *~;
#X obj 159 211 + 1;
#X obj 220 211 * -1;
#X obj 220 152 *;
#X obj 297 119 t b f;
#X obj 142 169 *~;
#X obj 220 102 dbtorms;
#X obj 142 50 inlet~;
#X obj 220 49 inlet;
#X obj 297 47 inlet;
#X obj 351 49 inlet;
#X obj 141 272 outlet~;
#X obj 202 272 outlet~;
#X text 365 20 pan;
#X obj 297 75 pack \$1 10;
#X obj 297 97 line;
#X text 226 22 amp;
#X text 304 20 tog;
#X obj 264 271 outlet~;
#X connect 0 0 12 0;
#X connect 1 0 13 0;
#X connect 2 0 0 1;
#X connect 3 0 1 1;
#X connect 4 0 6 1;
#X connect 5 0 4 0;
#X connect 5 1 4 1;
#X connect 6 0 0 0;
#X connect 6 0 1 0;
#X connect 6 0 19 0;
#X connect 7 0 4 0;
#X connect 8 0 6 0;
#X connect 9 0 7 0;
#X connect 10 0 15 0;
#X connect 11 0 3 0;
#X connect 11 0 2 0;
#X connect 15 0 16 0;
#X connect 16 0 5 0;
#X restore 276 546 pd amp-pan-mo;
#X obj 328 515 prvu~;
#N canvas 164 118 450 372 amp-pan-mo 0;
#X obj 141 233 *~;
#X obj 202 234 *~;
#X obj 159 211 + 1;
#X obj 220 211 * -1;
#X obj 220 152 *;
#X obj 297 119 t b f;
#X obj 142 169 *~;
#X obj 220 102 dbtorms;
#X obj 142 50 inlet~;
#X obj 220 49 inlet;
#X obj 297 47 inlet;
#X obj 351 49 inlet;
#X obj 141 272 outlet~;
#X obj 202 272 outlet~;
#X text 365 20 pan;
#X obj 297 75 pack \$1 10;
#X obj 297 97 line;
#X text 226 22 amp;
#X text 304 20 tog;
#X obj 264 271 outlet~;
#X connect 0 0 12 0;
#X connect 1 0 13 0;
#X connect 2 0 0 1;
#X connect 3 0 1 1;
#X connect 4 0 6 1;
#X connect 5 0 4 0;
#X connect 5 1 4 1;
#X connect 6 0 0 0;
#X connect 6 0 1 0;
#X connect 6 0 19 0;
#X connect 7 0 4 0;
#X connect 8 0 6 0;
#X connect 9 0 7 0;
#X connect 10 0 15 0;
#X connect 11 0 3 0;
#X connect 11 0 2 0;
#X connect 15 0 16 0;
#X connect 16 0 5 0;
#X restore 240 491 pd amp-pan-mo;
#X obj 340 150 vsl 30 128 0 127 0 1 empty empty empty 0 -9 0 10 -262144
-1 -1 10400 1;
#X obj 165 149 vsl 15 128 0 127 0 1 empty empty empty 5 10 0 10 -262144
-1 -1 8700 1;
#X obj 168 132 hsl 25 15 0 -1 0 1 empty empty pan 3 7 0 10 -262144
-1 -1 1200 1;
#X obj 185 154 vu 8 120 empty empty -1 -8 0 10 -66577 -1 0 0;
#X obj 224 349 prvu~;
#N canvas 540 172 450 372 amp-pan-mo 0;
#X obj 110 233 *~;
#X obj 170 235 *~;
#X obj 127 212 + 1;
#X obj 220 211 * -1;
#X obj 220 136 *;
#X obj 297 119 t b f;
#X obj 110 128 *~;
#X obj 220 102 dbtorms;
#X obj 110 49 inlet~;
#X obj 220 49 inlet;
#X obj 297 47 inlet;
#X obj 351 49 inlet;
#X obj 110 272 outlet~;
#X obj 171 271 outlet~;
#X text 365 20 pan;
#X obj 297 75 pack \$1 10;
#X obj 297 97 line;
#X text 226 22 amp;
#X text 304 20 tog;
#X obj 297 272 outlet~;
#X obj 170 131 *~;
#X obj 171 49 inlet~;
#X obj 297 206 +~;
#X obj 297 228 /~ 2;
#X connect 0 0 12 0;
#X connect 1 0 13 0;
#X connect 2 0 0 1;
#X connect 3 0 1 1;
#X connect 4 0 20 1;
#X connect 4 0 6 1;
#X connect 5 0 4 0;
#X connect 5 1 4 1;
#X connect 6 0 0 0;
#X connect 6 0 22 0;
#X connect 7 0 4 0;
#X connect 8 0 6 0;
#X connect 9 0 7 0;
#X connect 10 0 15 0;
#X connect 11 0 3 0;
#X connect 11 0 2 0;
#X connect 15 0 16 0;
#X connect 16 0 5 0;
#X connect 20 0 1 0;
#X connect 20 0 22 1;
#X connect 21 0 20 0;
#X connect 22 0 23 0;
#X connect 23 0 19 0;
#X restore 137 321 pd amp-pan-mo;
#X obj 165 280 tgl 15 1 empty empty 0 5 8 0 10 -262144 -1 -1 1 1;
#X obj 376 154 vu 8 120 empty empty -1 -8 0 10 -66577 -1 0 0;
#X obj 388 154 vu 8 120 empty empty -1 -8 0 8 -66577 -1 1 0;
#X obj 435 337 prvu~;
#X obj 484 337 prvu~;
#X obj 136 662 dac~;
#X obj 136 568 +~;
#X obj 181 570 +~;
#X msg 407 48 \; pd dsp \$1;
#X obj 257 69 samplerate~;
#X obj 279 115 nbx 5 15 -1e+37 1e+37 0 0 empty empty samplerate -65
7 0 10 -262144 -1 -66577 44100 256;
#N canvas 1 75 450 300 cpu 0;
#X obj 118 253 outlet;
#X obj 118 168 cputime;
#X obj 118 28 loadbang;
#X obj 118 112 metro 1000;
#X msg 118 56 1;
#X floatatom 118 84 0 0 0 0 - - -;
#X obj 118 140 t b b;
#X obj 118 228 * 0.1;
#X obj 118 197 int;
#X text 163 84 <-- on/off;
#X connect 1 0 8 0;
#X connect 2 0 4 0;
#X connect 3 0 6 0;
#X connect 4 0 5 0;
#X connect 5 0 3 0;
#X connect 6 0 1 0;
#X connect 6 1 1 1;
#X connect 7 0 0 0;
#X connect 8 0 7 0;
#X restore 344 69 pd cpu;
#X obj 279 100 nbx 5 15 -1e+37 1e+37 0 0 empty empty cpu -25 7 0 10
-262144 -1 -66577 8 256;
#X obj 257 47 loadbang;
#X obj 165 100 tgl 30 0 empty empty DSP 3 15 0 14 -262144 -258113 -1
0 1;
#X obj 5 304 freeverb~;
#X msg 663 88 roomsize \$1;
#X msg 663 133 damping \$1;
#X msg 663 177 width \$1;
#X msg 663 221 wet \$1;
#X msg 663 265 dry \$1;
#X msg 716 327 freeze \$1;
#X msg 721 364 bypass \$1;
#X obj 104 268 tgl 15 0 empty empty bypass 0 -6 0 10 -262144 -1 -1
0 1;
#X obj 104 239 tgl 15 0 empty empty freeze 0 -6 0 10 -262144 -1 -1
0 1;
#X obj 103 207 hsl 60 15 0 1 0 1 empty empty dry 2 8 0 10 -262144 -258113
-1 4900 0;
#X obj 103 192 hsl 60 15 0 1 0 1 empty empty wet 2 8 0 10 -262144 -258113
-1 4900 0;
#X obj 103 177 hsl 60 15 0 1 0 1 empty empty width 2 8 0 10 -262144
-258113 -1 5600 0;
#X obj 103 162 hsl 60 15 0 2 0 1 empty empty damping 2 8 0 10 -262144
-258113 -1 4200 0;
#X obj 103 147 hsl 60 15 0.11 1.1 0 1 empty empty roomsize 2 8 0 10
-262144 -258113 -1 3200 0;
#X floatatom 645 69 3 0 0 0 - - -, f 3;
#X floatatom 645 114 3 0 0 0 - - -, f 3;
#X floatatom 645 159 3 0 0 0 - - -, f 3;
#X floatatom 645 202 3 0 0 0 - - -, f 3;
#X floatatom 644 248 3 0 0 0 - - -, f 3;
#X obj 220 587 dbtorms;
#X obj 136 612 *~;
#X obj 180 613 *~;
#X obj 6 270 r~ \$0-out_00;
#X obj 20 342 r~ \$0-out_01;
#X obj 20 399 r~ \$0-out_02;
#X obj 24 451 r~ \$0-out_03;
#X obj 25 498 r~ \$0-out_04;
#X connect 0 0 8 1;
#X connect 1 0 8 3;
#X connect 3 0 2 0;
#X connect 4 0 3 0;
#X connect 4 0 13 0;
#X connect 4 0 24 0;
#X connect 4 0 32 0;
#X connect 4 0 37 0;
#X connect 4 0 38 0;
#X connect 5 0 3 0;
#X connect 5 0 13 0;
#X connect 5 0 24 0;
#X connect 5 0 32 0;
#X connect 5 0 37 0;
#X connect 5 0 38 0;
#X connect 6 0 7 0;
#X connect 7 0 4 0;
#X connect 7 0 5 0;
#X connect 8 0 40 0;
#X connect 8 1 41 0;
#X connect 8 2 3 0;
#X connect 9 0 8 2;
#X connect 10 0 23 1;
#X connect 11 0 23 3;
#X connect 13 0 12 0;
#X connect 14 0 23 2;
#X connect 15 0 27 1;
#X connect 16 0 27 3;
#X connect 18 0 27 2;
#X connect 19 0 25 1;
#X connect 21 0 25 2;
#X connect 22 0 25 3;
#X connect 23 0 40 0;
#X connect 23 1 41 0;
#X connect 23 2 13 0;
#X connect 24 0 20 0;
#X connect 25 0 40 0;
#X connect 25 1 41 0;
#X connect 25 2 24 0;
#X connect 26 0 17 0;
#X connect 27 0 40 0;
#X connect 27 1 41 0;
#X connect 27 2 26 0;
#X connect 28 0 69 0;
#X connect 29 0 33 2;
#X connect 30 0 33 4;
#X connect 32 0 31 0;
#X connect 33 0 40 0;
#X connect 33 1 41 0;
#X connect 33 2 32 0;
#X connect 34 0 33 3;
#X connect 37 0 35 0;
#X connect 38 0 36 0;
#X connect 40 0 70 0;
#X connect 41 0 71 0;
#X connect 43 0 44 0;
#X connect 45 0 46 0;
#X connect 47 0 43 0;
#X connect 48 0 42 0;
#X connect 49 0 33 0;
#X connect 49 1 33 1;
#X connect 50 0 49 0;
#X connect 51 0 49 0;
#X connect 52 0 49 0;
#X connect 53 0 49 0;
#X connect 54 0 49 0;
#X connect 55 0 49 0;
#X connect 56 0 49 0;
#X connect 57 0 56 0;
#X connect 58 0 55 0;
#X connect 59 0 54 0;
#X connect 59 0 68 0;
#X connect 60 0 53 0;
#X connect 60 0 67 0;
#X connect 61 0 52 0;
#X connect 61 0 66 0;
#X connect 62 0 51 0;
#X connect 62 0 65 0;
#X connect 63 0 50 0;
#X connect 63 0 64 0;
#X connect 69 0 71 1;
#X connect 69 0 70 1;
#X connect 70 0 39 0;
#X connect 70 0 37 0;
#X connect 71 0 39 1;
#X connect 71 0 38 0;
#X connect 72 0 49 0;
#X connect 72 0 49 1;
#X connect 73 0 8 0;
#X connect 74 0 23 0;
#X connect 75 0 27 0;
#X connect 76 0 25 0;
#X coords 0 -1 1 1 330 195 2 100 100;
#X restore 24 214 pd mixer;
#X connect 4 0 3 0;
#X connect 4 1 3 1;
#X connect 4 2 3 2;
#X connect 4 3 3 3;
#X connect 4 4 0 0;
#X connect 4 5 0 1;
#X connect 4 6 0 2;
#X connect 4 7 6 0;
#X connect 4 8 6 1;
#X connect 4 9 6 2;
#X connect 4 10 1 0;
#X connect 4 11 1 1;
#X connect 4 12 1 2;
#X connect 4 13 2 0;
#X connect 4 14 2 1;
#X connect 4 15 2 2;
