#N canvas 472 106 823 611 10;
#N canvas 108 75 818 759 drum 0;
#X obj 191 483 osc~;
#X obj 364 194 mtof;
#X obj 240 115 hsl 128 15 1.7 800 0 1 empty empty penv 10 7 0 10 -262144
-1 -1 689 1;
#X floatatom 363 340 5 0 0 0 - - -, f 5;
#X obj 193 319 mtof;
#X obj 240 145 hsl 128 15 0 127 0 1 empty empty frq 10 7 0 10 -262144
-1 -1 3400 1;
#X floatatom 193 351 5 0 0 0 - - -, f 5;
#X obj 192 406 +~;
#X obj 429 311 line~;
#X obj 425 377 *~;
#X obj 363 364 *;
#X obj 427 432 *~;
#X obj 426 403 lop~ 200;
#X msg 336 279 1 0;
#X obj 100 130 bng 30 250 50 0 empty empty empty 17 7 0 10 -262144
-258113 -1;
#X obj 307 238 del;
#X msg 325 215 0;
#X obj 240 130 hsl 128 15 1.27 800 0 1 empty empty penv-dec 10 7 0
10 -262144 -1 -1 400 1;
#X msg 429 249 set 0 \$1;
#X msg 429 275 0 26.4269;
#X obj 190 115 hradio 15 1 1 2 empty empty pol -20 7 0 10 -262144 -1
-1 1;
#X obj 562 163 * 2;
#X obj 562 193 - 1;
#X obj 191 614 *~;
#X obj 240 160 hsl 128 15 1.27 800 0 1 empty empty dec 10 7 0 10 -262144
-1 -1 9000 1;
#X msg 276 376 set 0 \$1;
#X msg 276 402 0 567.299;
#X obj 276 469 line~;
#X obj 273 536 lop~ 120;
#X obj 272 508 *~;
#X obj 501 84 metro 1000;
#X obj 100 160 tgl 30 0 empty empty empty 17 7 0 10 -262144 -258113
-1 1 1;
#X obj 191 650 *~ 0.5;
#X obj 240 175 hsl 128 15 0 1 0 1 empty empty amp 10 7 0 10 -262144
-1 -1 5500 1;
#X obj 133 130 hsl 100 30 0 100 0 0 empty empty empty -2 -8 0 10 -262144
-1 -1 0 1;
#X msg 216 455 0;
#X obj 562 224 t b f;
#X obj 586 84 random 2000;
#X obj 68 337 spigot;
#X obj 68 362 random 127;
#X obj 191 702 outlet~;
#X obj 130 64 inlet;
#X obj 220 115 tgl 15 0 empty empty empty 17 7 0 10 -262144 -1 -1 1
1;
#X connect 0 0 23 0;
#X connect 1 0 3 0;
#X connect 2 0 1 0;
#X connect 3 0 10 0;
#X connect 4 0 6 0;
#X connect 5 0 4 0;
#X connect 6 0 7 0;
#X connect 7 0 0 0;
#X connect 8 0 9 1;
#X connect 8 0 9 0;
#X connect 9 0 12 0;
#X connect 10 0 11 1;
#X connect 11 0 7 1;
#X connect 12 0 11 0;
#X connect 13 0 8 0;
#X connect 13 0 27 0;
#X connect 14 0 13 0;
#X connect 14 0 15 0;
#X connect 14 0 16 0;
#X connect 14 0 35 0;
#X connect 14 0 38 0;
#X connect 15 0 19 0;
#X connect 15 0 26 0;
#X connect 16 0 15 1;
#X connect 17 0 18 0;
#X connect 18 0 19 0;
#X connect 19 0 8 0;
#X connect 20 0 21 0;
#X connect 21 0 22 0;
#X connect 22 0 36 0;
#X connect 23 0 32 0;
#X connect 24 0 25 0;
#X connect 25 0 26 0;
#X connect 26 0 27 0;
#X connect 27 0 29 0;
#X connect 27 0 29 1;
#X connect 28 0 23 1;
#X connect 29 0 28 0;
#X connect 30 0 14 0;
#X connect 30 0 37 0;
#X connect 31 0 30 0;
#X connect 32 0 40 0;
#X connect 33 0 32 1;
#X connect 34 0 14 0;
#X connect 35 0 0 1;
#X connect 36 0 3 0;
#X connect 36 1 10 1;
#X connect 37 0 30 1;
#X connect 38 0 39 0;
#X connect 39 0 2 0;
#X connect 41 0 34 0;
#X connect 42 0 38 1;
#X coords 0 -1 1 1 270 90 1 100 100;
#X restore 10 77 pd drum;
#N canvas 258 144 626 658 karplus 0;
#X obj 100 129 bng 30 250 50 0 empty empty empty 0 -6 0 8 -262144 -258113
-1;
#X floatatom 349 285 5 0 0 0 - - -, f 5;
#X obj 290 310 del;
#X msg 257 334 1;
#X msg 290 334 0;
#X obj 171 327 noise~;
#X obj 171 404 *~;
#X obj 349 330 vd~ buffer 100;
#X floatatom 232 523 5 0 0 0 - - -, f 5;
#X obj 172 598 delwrite~ buffer 1000;
#X obj 349 373 *~ 0.5;
#X obj 436 362 z~ 1;
#X obj 437 382 *~ 0.5;
#X obj 350 422 +~;
#X obj 349 254 expr 44100/($f1*1.09545)*0.025;
#X floatatom 349 224 5 0 0 0 - - -, f 5;
#X text 390 223 Frequency (Hz.);
#X obj 140 41 metro 2000;
#X obj 140 71 random 2000;
#X obj 100 160 tgl 30 0 empty empty empty 17 7 0 10 -262144 -258113
-1 1 1;
#X obj 232 462 random 1000;
#X obj 232 484 expr $f1 / 10000 + 0.9;
#X obj 240 129 hsl 128 15 0 1 0 1 empty empty amp 10 7 0 10 -262144
-1 -1 2800 1;
#X floatatom 371 616 5 0 0 0 - - -, f 5;
#X obj 332 655 *~ 0.5;
#X obj 133 129 hsl 100 30 0 100 0 0 empty empty empty -2 -8 0 10 -262144
-1 -1 0 1;
#X obj 186 547 *~ 0.99;
#X obj 349 197 random 500;
#X obj 333 688 outlet~;
#X obj 74 42 inlet;
#X connect 0 0 2 0;
#X connect 0 0 3 0;
#X connect 0 0 20 0;
#X connect 0 0 27 0;
#X connect 1 0 2 1;
#X connect 1 0 7 0;
#X connect 2 0 4 0;
#X connect 3 0 6 1;
#X connect 4 0 6 1;
#X connect 5 0 6 0;
#X connect 6 0 9 0;
#X connect 7 0 10 0;
#X connect 7 0 11 0;
#X connect 8 0 26 1;
#X connect 10 0 13 0;
#X connect 11 0 12 0;
#X connect 12 0 13 1;
#X connect 13 0 26 0;
#X connect 14 0 1 0;
#X connect 15 0 14 0;
#X connect 17 0 18 0;
#X connect 18 0 17 1;
#X connect 18 0 0 0;
#X connect 19 0 17 0;
#X connect 20 0 21 0;
#X connect 21 0 8 0;
#X connect 22 0 23 0;
#X connect 23 0 24 1;
#X connect 24 0 28 0;
#X connect 25 0 0 0;
#X connect 26 0 9 0;
#X connect 26 0 24 0;
#X connect 27 0 15 0;
#X connect 29 0 25 0;
#X coords 0 -1 1 1 270 90 1 100 100;
#X restore 285 77 pd karplus;
#X obj 139 439 dac~;
#X connect 0 0 2 0;
#X connect 1 0 2 1;
