#N canvas 1 75 450 300 10;
#X obj 190 516 osc~;
#X obj 255 100 hsl 128 15 0 127 0 1 empty empty penv 130.813 10 7
0 10 -262144 -258113 -1 4800 1;
#X floatatom 362 372 0 0 0 0 - - -;
#X obj 191 353 mtof;
#X obj 255 130 hsl 128 15 0 127 0 1 empty empty frq 65.8268 10 7 0
10 -262144 -258113 -1 1700 1;
#X floatatom 191 408 5 0 0 0 - - -, f 5;
#X obj 191 437 +~;
#X obj 449 337 line~;
#X obj 445 403 *~;
#X obj 447 456 *~;
#X obj 446 429 lop~ 200;
#X msg 313 316 1 0;
#X obj 100 100 bng 30 250 50 0 empty empty 1 8 15 0 25 -262144 -257985
-1;
#X obj 302 284 del;
#X msg 320 257 0;
#X obj 255 115 hsl 128 15 1.27 800 0 1 empty empty penv_dec 26.4269
10 7 0 10 -262144 -258113 -1 400 1;
#X msg 449 275 set 0 \$1;
#X msg 449 301 0 26.4269;
#X obj 190 629 *~;
#X obj 255 160 hsl 128 15 1.27 1500 0 1 empty empty dec 1110.57 10
7 0 10 -262144 -258113 -1 9400 1;
#X msg 274 391 set 0 \$1;
#X msg 274 417 0 1110.57;
#X obj 275 502 line~;
#X obj 272 569 lop~ 120;
#X obj 271 541 *~;
#X obj 52 233 metro 1000;
#X obj 100 130 tgl 30 0 empty empty empty 17 7 0 10 -228856 -1 -1 0
1;
#X obj 190 683 *~ 0.5;
#X obj 255 175 hsl 128 15 0 1 0 1 empty empty amp 1 10 7 0 10 -262144
-258113 -1 12700 1;
#X obj 133 100 hsl 100 30 0 1 0 0 empty empty empty -2 -8 0 10 -257985
-1 -1 0 1;
#X msg 266 313 0;
#X obj 137 233 random 2000;
#X obj 511 30 spigot;
#X obj 237 100 tgl 15 1 empty empty empty 17 7 0 10 -262130 -1 -1 1
1;
#X obj 336 208 mtof;
#X obj 27 169 int;
#X obj 27 189 change;
#X obj 27 147 * 10;
#X obj 399 600 t b f;
#X obj 399 517 metro 100;
#X obj 237 130 tgl 15 1 empty empty empty 17 7 0 10 -262130 -1 -1 1
1;
#X obj 399 539 random 100;
#X obj 399 560 pack f 50;
#X obj 399 580 line;
#X obj 472 517 random 6000;
#X obj 198 175 nbx 5 15 -1e+37 1e+37 0 1 empty empty sm -15 7 0 10
-262130 -1 -1 80 256;
#X obj 198 160 nbx 5 15 -1e+37 1e+37 0 1 empty empty ra -15 7 0 10
-262130 -1 -1 53 256;
#X obj 198 145 nbx 5 15 -1e+37 1e+37 0 1 empty empty ms -15 7 0 10
-262130 -1 -1 2913 256;
#X obj 191 380 +;
#X msg 646 165 label frq \$1;
#X msg 647 189 label dec \$1;
#X msg 645 121 label penv \$1;
#X msg 648 213 label amp \$1;
#X msg 645 142 label penv_dec \$1;
#X obj 191 490 +~;
#X obj 159 460 *~;
#X obj 253 645 *~;
#X obj 160 132 vsl 15 55 0 1 0 0 empty empty -> 2 7 0 10 -262130 -258113
-1 0 1;
#X obj 145 132 vsl 15 55 0 10000 0 1 empty empty >- 2 7 0 10 -262130
-258113 -1 1200 1;
#X obj 130 132 vsl 15 55 0 1000 0 1 empty empty >a 2 7 0 10 -262130
-258113 -1 700 1;
#X obj 41 474 *~;
#X obj 190 721 s~ \$0-out_01;
#X obj 71 505 noise~;
#X obj 255 145 hsl 128 15 0 1 0 1 empty empty noise 10 8 0 10 -262144
-258113 -1 2200 1;
#X obj 217 578 *~;
#X obj 189 606 +~;
#X obj 23 112 spigot;
#X obj 23 91 t b f;
#X obj 511 75 - 2500;
#X obj 468 75 t b f;
#X obj 362 340 +;
#X obj 511 104 *;
#X obj 511 53 random 5001;
#X obj 410 288 t b f;
#X obj 120 525 +~ 1500;
#X obj 114 555 vcf~ 10;
#X obj 130 20 r \$0-/bang;
#X obj 130 45 route /s01 /b01 /t01;
#X obj 68 415 r~ \$0-mod_r01;
#X obj 42 448 r~ \$0-mod_r01a;
#X obj 300 693 s~ \$0-out_r01;
#X obj 411 186 * 2;
#X obj 411 209 - 1;
#X obj 236 115 hradio 8 1 1 2 empty empty empty -18 4 0 8 -262144 -258113
-1 1;
#X obj 362 273 *;
#X obj 362 239 t b f;
#X obj 29 50 r \$0-tg_rnd;
#X connect 0 0 65 0;
#X connect 1 0 34 0;
#X connect 2 0 51 0;
#X connect 2 0 9 1;
#X connect 3 0 48 0;
#X connect 4 0 3 0;
#X connect 5 0 6 0;
#X connect 5 0 49 0;
#X connect 6 0 54 0;
#X connect 7 0 8 1;
#X connect 7 0 8 0;
#X connect 8 0 10 0;
#X connect 9 0 6 1;
#X connect 10 0 9 0;
#X connect 11 0 7 0;
#X connect 11 0 22 0;
#X connect 12 0 11 0;
#X connect 12 0 13 0;
#X connect 12 0 14 0;
#X connect 12 0 30 0;
#X connect 12 0 32 0;
#X connect 13 0 17 0;
#X connect 13 0 21 0;
#X connect 14 0 13 1;
#X connect 15 0 16 0;
#X connect 15 0 53 0;
#X connect 16 0 17 0;
#X connect 17 0 7 0;
#X connect 18 0 27 0;
#X connect 18 0 56 0;
#X connect 19 0 20 0;
#X connect 19 0 50 0;
#X connect 20 0 21 0;
#X connect 21 0 22 0;
#X connect 22 0 24 0;
#X connect 22 0 24 1;
#X connect 23 0 18 1;
#X connect 24 0 23 0;
#X connect 25 0 12 0;
#X connect 25 0 31 0;
#X connect 26 0 25 0;
#X connect 27 0 61 0;
#X connect 28 0 27 1;
#X connect 28 0 52 0;
#X connect 29 0 37 0;
#X connect 30 0 0 1;
#X connect 31 0 25 1;
#X connect 32 0 72 0;
#X connect 33 0 32 1;
#X connect 33 0 69 0;
#X connect 34 0 84 0;
#X connect 35 0 36 0;
#X connect 36 0 12 0;
#X connect 37 0 35 0;
#X connect 38 0 48 0;
#X connect 38 1 48 1;
#X connect 39 0 41 0;
#X connect 39 0 44 0;
#X connect 40 0 39 0;
#X connect 41 0 42 0;
#X connect 42 0 43 0;
#X connect 43 0 38 0;
#X connect 44 0 39 1;
#X connect 45 0 42 1;
#X connect 46 0 41 1;
#X connect 47 0 44 1;
#X connect 47 0 31 1;
#X connect 48 0 5 0;
#X connect 49 0 4 0;
#X connect 50 0 19 0;
#X connect 51 0 1 0;
#X connect 52 0 28 0;
#X connect 53 0 15 0;
#X connect 54 0 0 0;
#X connect 54 0 74 0;
#X connect 55 0 54 1;
#X connect 56 0 80 0;
#X connect 57 0 56 1;
#X connect 58 0 55 1;
#X connect 59 0 60 1;
#X connect 60 0 54 1;
#X connect 62 0 75 0;
#X connect 63 0 64 1;
#X connect 64 0 65 1;
#X connect 65 0 18 0;
#X connect 66 0 12 0;
#X connect 67 0 66 0;
#X connect 67 1 66 1;
#X connect 68 0 71 0;
#X connect 69 0 71 0;
#X connect 69 1 71 1;
#X connect 70 0 2 0;
#X connect 71 0 70 1;
#X connect 71 0 73 0;
#X connect 72 0 68 0;
#X connect 73 0 70 0;
#X connect 73 1 70 1;
#X connect 74 0 75 1;
#X connect 75 1 64 0;
#X connect 76 0 77 0;
#X connect 77 0 29 0;
#X connect 77 1 67 0;
#X connect 77 2 26 0;
#X connect 78 0 55 0;
#X connect 79 0 60 0;
#X connect 81 0 82 0;
#X connect 82 0 85 0;
#X connect 83 0 81 0;
#X connect 84 0 70 0;
#X connect 85 0 84 0;
#X connect 85 1 84 1;
#X connect 86 0 26 0;
