#N canvas 103 109 1054 610 10;
#N canvas 332 108 936 791 karplus 0;
#X obj 100 100 bng 30 250 50 0 empty empty 3 8 15 0 25 -262144 -260097
-1;
#X obj 470 378 del;
#X msg 437 402 1;
#X msg 470 402 0;
#X obj 380 373 noise~;
#X obj 381 465 *~;
#X obj 506 424 vd~ buffer 100;
#X floatatom 486 579 5 0 0 0 - - -, f 5;
#X obj 383 645 delwrite~ buffer 1000;
#X obj 506 460 *~ 0.5;
#X obj 566 452 z~ 1;
#X obj 567 472 *~ 0.5;
#X obj 507 495 +~;
#X obj 524 343 expr 44100/($f1*1.09545)*0.025;
#X obj 100 130 tgl 30 0 empty empty empty 17 7 0 10 -228856 -1 -1 0
1;
#X obj 486 531 random 1000;
#X obj 486 553 expr $f1 / 10000 + 0.9;
#X obj 300 115 hsl 128 15 0 1 0 1 empty empty kp_amp 1 10 7 0 10 -262144
-258113 -1 12700 1;
#X obj 133 100 hsl 100 30 0 1 0 0 empty empty empty -2 -8 0 10 -260097
-1 -1 0 1;
#X obj 440 604 *~ 0.99;
#X obj 16 159 int;
#X obj 16 176 change;
#X obj 16 139 * 10;
#X obj 300 100 hsl 128 15 0 127 0 1 empty empty kp_frq 58.2705 10
8 0 10 -262144 -258113 -1 3400 1;
#X obj 439 237 mtof;
#X obj 248 336 t b f;
#X obj 252 224 metro 100;
#X obj 251 247 random 100;
#X obj 251 272 pack f 50;
#X obj 252 293 line;
#X obj 325 224 random 6000;
#X obj 199 175 nbx 5 15 -1e+37 1e+37 0 1 empty empty sm -15 7 0 10
-262144 -1 -1 100 256;
#X obj 199 160 nbx 5 15 -1e+37 1e+37 0 1 empty empty ra -15 7 0 10
-262144 -1 -1 300 256;
#X obj 199 145 nbx 5 15 -1e+37 1e+37 0 1 empty empty ms -15 7 0 10
-262144 -1 -1 6652 256;
#X obj 469 305 +;
#X obj 504 301 *~;
#X obj 153 693 *~;
#X obj 160 132 vsl 15 55 0 1 0 1 empty empty -> 2 7 0 10 -261682 -258113
-1 1700 1;
#X obj 145 132 vsl 15 55 0 5 0 1 empty empty >- 2 7 0 10 -261682 -258113
-1 2500 1;
#X obj 130 132 vsl 15 55 0 5 0 1 empty empty >a 2 7 0 10 -261682 -258113
-1 1300 1;
#X obj 538 300 *~;
#X obj 505 401 +~;
#X obj 524 374 sig~;
#X obj 272 718 s~ \$0-out_03;
#X obj 13 109 spigot;
#X obj 13 84 t b f;
#X obj 225 554 osc~;
#X obj 226 617 *~;
#X obj 272 675 +~;
#X obj 243 460 line~;
#X obj 243 438 pack f 200;
#X obj 225 518 +~;
#X obj 270 569 osc~;
#X obj 271 544 +~;
#X obj 244 412 +;
#X obj 289 514 +~;
#X obj 17 235 bng 15 250 50 0 empty empty empty 17 7 0 10 -262144 -1
-1;
#X msg 17 327 1 0;
#X msg 25 301 set \$1 0;
#X obj 225 591 +~;
#X msg 56 327 0 500;
#X obj 25 264 > 0;
#X obj 321 438 random 10;
#X obj 322 460 - 5;
#X obj 244 387 * 400;
#X obj 224 493 *~ 20000;
#X obj 156 476 *~;
#X obj 300 160 hsl 128 15 0 5000 0 1 empty empty noise_ind 472.441
10 7 0 10 -262144 -258113 -1 1200 1;
#X obj 157 501 *~;
#X msg 675 94 label kp_frq \$1;
#X obj 300 145 hsl 128 15 0 127 0 1 empty empty noise_frq 391.995
10 8 0 10 -262144 -258113 -1 6700 1;
#X obj 429 213 mtof;
#X msg 674 131 label noise_frq \$1;
#X msg 676 165 label noise_ind \$1;
#X obj 300 175 hsl 128 15 0 1 0 1 empty empty noise_amp 0.275591 10
7 0 10 -262144 -258113 -1 3500 1;
#X msg 675 183 label noise_amp \$1;
#X msg 675 114 label kp_amp \$1;
#X obj 117 575 *~;
#X obj 17 367 line;
#X obj 17 398 *;
#X obj 118 551 *~;
#X obj 137 406 +~;
#X obj 138 371 *~ 10000;
#X obj 150 312 t b f;
#X obj 150 285 - 50;
#X obj 150 263 random 100;
#X obj 248 359 +;
#X obj 301 628 *~;
#X obj 300 130 hsl 128 15 0 1 0 1 empty empty osc_amp 0.330709 10
7 0 10 -262144 -258113 -1 4200 1;
#X msg 674 148 label osc_amp \$1;
#X obj 225 642 *~;
#X obj 330 337 expr~ $v1*$v2*1000;
#X obj 118 440 vcf~ 5;
#X msg 67 265 set 0 \$1;
#X obj 194 130 hsl 101 15 0 2000 0 1 empty empty osc_dec 500 10 7
0 10 -262144 -258113 -1 2500 1;
#X msg 647 39 label osc_dec \$1;
#X obj 252 315 spigot;
#X obj 243 115 tgl 15 0 empty empty empty 17 7 0 10 -261682 -1 -1 0
1;
#X obj 243 100 nbx 5 15 -1e+37 1e+37 0 1 empty empty empty 0 -8 0 10
-261682 -1 -1 114 256;
#X obj 377 276 *;
#X obj 377 249 t b f;
#X obj 429 262 t b f;
#X obj 429 289 +;
#X obj 128 31 r \$0-/bang;
#X obj 128 56 route /s03 /b03 /t03;
#X obj 504 243 r~ \$0-mod_r03;
#X obj 537 271 r~ \$0-mod_r03a;
#X obj 152 720 s~ \$0-out_r03;
#X connect 0 0 1 0;
#X connect 0 0 2 0;
#X connect 0 0 15 0;
#X connect 0 0 27 0;
#X connect 0 0 62 0;
#X connect 0 0 56 0;
#X connect 0 0 85 0;
#X connect 1 0 3 0;
#X connect 2 0 5 1;
#X connect 3 0 5 1;
#X connect 4 0 5 0;
#X connect 4 0 92 0;
#X connect 5 0 8 0;
#X connect 6 0 9 0;
#X connect 6 0 10 0;
#X connect 7 0 19 1;
#X connect 9 0 12 0;
#X connect 10 0 11 0;
#X connect 11 0 12 1;
#X connect 12 0 19 0;
#X connect 13 0 1 1;
#X connect 13 0 42 0;
#X connect 14 0 26 0;
#X connect 15 0 16 0;
#X connect 16 0 7 0;
#X connect 17 0 76 0;
#X connect 17 0 87 1;
#X connect 18 0 22 0;
#X connect 18 0 61 0;
#X connect 18 0 64 0;
#X connect 18 0 56 0;
#X connect 18 0 79 1;
#X connect 18 0 99 0;
#X connect 19 0 8 0;
#X connect 19 0 65 0;
#X connect 19 0 82 0;
#X connect 19 0 87 0;
#X connect 20 0 21 0;
#X connect 21 0 0 0;
#X connect 22 0 20 0;
#X connect 23 0 24 0;
#X connect 24 0 102 0;
#X connect 25 0 34 0;
#X connect 25 0 86 0;
#X connect 25 1 34 1;
#X connect 25 1 86 1;
#X connect 26 0 30 0;
#X connect 26 0 0 0;
#X connect 27 0 28 0;
#X connect 28 0 29 0;
#X connect 29 0 96 0;
#X connect 30 0 26 1;
#X connect 31 0 28 1;
#X connect 32 0 27 1;
#X connect 33 0 30 1;
#X connect 34 0 69 0;
#X connect 34 0 13 0;
#X connect 35 0 41 0;
#X connect 36 0 107 0;
#X connect 37 0 36 1;
#X connect 38 0 35 1;
#X connect 38 0 91 0;
#X connect 39 0 40 1;
#X connect 40 0 41 0;
#X connect 41 0 6 0;
#X connect 42 0 41 1;
#X connect 44 0 0 0;
#X connect 45 0 44 0;
#X connect 45 1 44 1;
#X connect 46 0 59 0;
#X connect 47 0 90 0;
#X connect 48 0 43 0;
#X connect 48 0 36 0;
#X connect 49 0 51 1;
#X connect 49 0 55 0;
#X connect 50 0 49 0;
#X connect 51 0 53 0;
#X connect 51 0 46 0;
#X connect 52 0 59 1;
#X connect 53 0 52 0;
#X connect 54 0 50 0;
#X connect 55 0 53 1;
#X connect 56 0 57 0;
#X connect 56 0 60 0;
#X connect 57 0 78 0;
#X connect 58 0 57 0;
#X connect 59 0 47 0;
#X connect 60 0 78 0;
#X connect 61 0 58 0;
#X connect 62 0 63 0;
#X connect 63 0 55 1;
#X connect 64 0 54 0;
#X connect 65 0 51 0;
#X connect 66 0 68 0;
#X connect 67 0 73 0;
#X connect 67 0 68 1;
#X connect 68 0 51 0;
#X connect 69 0 23 0;
#X connect 70 0 71 0;
#X connect 71 0 86 0;
#X connect 72 0 70 0;
#X connect 73 0 67 0;
#X connect 74 0 75 0;
#X connect 74 0 77 1;
#X connect 75 0 74 0;
#X connect 76 0 17 0;
#X connect 77 0 48 0;
#X connect 78 0 79 0;
#X connect 78 0 66 1;
#X connect 79 0 47 1;
#X connect 79 0 80 1;
#X connect 80 0 77 0;
#X connect 81 0 92 1;
#X connect 82 0 81 0;
#X connect 83 0 54 0;
#X connect 83 1 54 1;
#X connect 84 0 83 0;
#X connect 85 0 84 0;
#X connect 86 0 72 0;
#X connect 86 0 81 1;
#X connect 87 0 48 0;
#X connect 88 0 89 0;
#X connect 88 0 90 1;
#X connect 89 0 88 0;
#X connect 90 0 48 0;
#X connect 91 0 51 1;
#X connect 92 0 80 0;
#X connect 92 0 66 0;
#X connect 92 1 66 0;
#X connect 92 1 80 0;
#X connect 93 0 60 0;
#X connect 94 0 95 0;
#X connect 94 0 93 0;
#X connect 95 0 94 0;
#X connect 96 0 25 0;
#X connect 97 0 96 1;
#X connect 98 0 100 0;
#X connect 99 0 101 0;
#X connect 100 0 99 0;
#X connect 100 1 99 1;
#X connect 101 0 102 0;
#X connect 101 1 102 1;
#X connect 102 0 34 0;
#X connect 103 0 104 0;
#X connect 104 0 18 0;
#X connect 104 1 45 0;
#X connect 104 2 14 0;
#X connect 105 0 35 0;
#X connect 105 0 91 1;
#X connect 106 0 40 0;
#X coords 0 -1 1 1 330 90 1 100 100;
#X restore 444 200 pd karplus;
#N canvas 564 75 846 794 karplus 0;
#X obj 299 466 noise~;
#X obj 301 549 *~;
#X obj 414 470 del;
#X msg 378 510 1;
#X msg 414 510 0;
#X obj 100 100 bng 30 250 50 0 empty empty 4 7 15 0 25 -262144 -4034
-1;
#X obj 301 630 delwrite~ \$0-karp 200;
#X obj 454 447 vd~ \$0-karp 200;
#X obj 408 561 *~ 0.999;
#X obj 408 693 *~ 0.5;
#X obj 454 482 *~ 0.5;
#X obj 544 498 *~ 0.5;
#X obj 544 478 z~ 1;
#X obj 454 514 +~;
#X obj 431 231 expr 44100/($f1*1.09545)*0.025;
#X obj 456 361 osc~;
#X obj 473 261 t b f f;
#X obj 473 285 * 1;
#X obj 300 190 hsl 128 15 0 1 0 1 empty empty amp 1 10 7 0 10 -262144
-258113 -1 12700 1;
#X obj 456 381 -~ 1;
#X obj 455 404 *~ 1;
#X obj 454 424 +~;
#X obj 133 100 hsl 101 30 0 1 0 0 empty empty empty -2 -8 0 10 -4034
-1 -1 0 1;
#X obj 541 80 int;
#X obj 541 102 change;
#X obj 300 115 hsl 128 15 0 10 0 1 empty empty FM harmonic 3.70079
4 8 0 10 -262144 -258113 -1 4700 1;
#X msg 687 177 label FM harmonic \$1;
#X obj 300 130 hsl 128 15 0 2 0 1 empty empty FM amount 0.267717
4 8 0 10 -262144 -258113 -1 1700 1;
#X obj 300 175 hsl 128 15 0.0101 0.999 0 1 empty empty decay 0.987745
5 8 0 10 -262144 -258113 -1 12400 1;
#X obj 461 536 sqrt;
#X msg 686 255 label decay \$1;
#X obj 300 160 hsl 128 15 20 15000 0 1 empty empty LP 13230.7 4 8
0 10 -262144 -258113 -1 11200 1;
#X msg 687 235 label LP \$1;
#X obj 300 145 hsl 128 15 0 10000 0 1 empty empty BP 4173.23 4 8 0
10 -262144 -258113 -1 5300 1;
#X msg 688 215 label BP \$1;
#X msg 687 196 label FM amount \$1;
#X obj 100 130 tgl 30 0 empty empty empty 17 7 0 10 -228856 -1 -1 0
1;
#X msg 515 340 1;
#X obj 504 407 /;
#X msg 504 385 1000 \$1;
#X obj 300 510 vcf~ 10;
#X obj 407 661 lop~ 100;
#X msg 687 277 label amp \$1;
#X obj 19 245 int;
#X obj 19 267 change;
#X obj 19 183 * 10;
#X obj 300 100 hsl 128 15 0 127 0 1 empty empty frq 59 10 8 0 10 -262144
-258113 -1 5900 1;
#X msg 689 153 label frq \$1;
#X obj 166 413 mtof;
#X obj 48 477 t b f;
#X obj 49 367 metro 100;
#X obj 48 390 random 100;
#X obj 48 415 pack f 50;
#X obj 48 435 line;
#X obj 122 367 random 6000;
#X obj 198 175 nbx 5 15 -1e+37 1e+37 0 1 empty empty sm -15 7 0 10
-204786 -1 -1 500 256;
#X obj 198 160 nbx 5 15 -1e+37 1e+37 0 1 empty empty ra -15 7 0 10
-204786 -1 -1 41 256;
#X obj 198 145 nbx 5 15 -1e+37 1e+37 0 1 empty empty ms -15 7 0 10
-204786 -1 -1 5422 256;
#X obj 138 498 +;
#X obj 350 322 *~;
#X obj 468 716 *~;
#X obj 160 132 vsl 15 55 0 1 0 1 empty empty -> 2 7 0 10 -204786 -258113
-1 3900 1;
#X obj 145 132 vsl 15 55 0 1000 0 1 empty empty >- 2 7 0 10 -204786
-258113 -1 2600 1;
#X obj 130 132 vsl 15 55 0 1000 0 1 empty empty >a 2 7 0 10 -204786
-258113 -1 800 1;
#X obj 267 278 *~;
#X obj 473 306 sig~;
#X obj 455 337 +~;
#X obj 409 769 s~ \$0-out_04;
#X obj 21 146 spigot;
#X obj 21 121 t b f;
#X obj 48 456 spigot;
#X obj 243 114 tgl 15 1 empty empty empty 17 7 0 10 -204786 -1 -1 1
1;
#X obj 138 442 t b f;
#X obj 138 464 +;
#X obj 243 100 nbx 5 15 0 1e+37 0 1 empty empty empty 0 -8 0 10 -262144
-1 -1 94 256;
#X obj 104 286 *;
#X obj 130 40 r \$0-/bang;
#X obj 130 65 route /s04 /b04 /t04;
#X obj 469 743 s~ \$0-out_r04;
#X obj 268 249 r~ \$0-mod_r04a;
#X obj 351 292 r~ \$0-mod_r04;
#X connect 0 0 40 0;
#X connect 1 0 6 0;
#X connect 2 0 4 0;
#X connect 3 0 1 1;
#X connect 4 0 1 1;
#X connect 5 0 3 0;
#X connect 5 0 2 0;
#X connect 5 0 37 0;
#X connect 5 0 51 0;
#X connect 7 0 10 0;
#X connect 7 0 12 0;
#X connect 8 0 6 0;
#X connect 8 0 41 0;
#X connect 9 0 67 0;
#X connect 10 0 13 0;
#X connect 11 0 13 1;
#X connect 12 0 11 0;
#X connect 13 0 8 0;
#X connect 14 0 2 1;
#X connect 14 0 17 0;
#X connect 15 0 19 0;
#X connect 16 0 17 0;
#X connect 16 1 17 1;
#X connect 16 2 26 0;
#X connect 17 0 65 0;
#X connect 18 0 42 0;
#X connect 18 0 9 1;
#X connect 19 0 20 0;
#X connect 20 0 21 0;
#X connect 21 0 7 0;
#X connect 22 0 23 0;
#X connect 22 0 45 0;
#X connect 22 0 75 0;
#X connect 23 0 24 0;
#X connect 24 0 5 0;
#X connect 25 0 16 0;
#X connect 26 0 25 0;
#X connect 27 0 35 0;
#X connect 27 0 20 1;
#X connect 28 0 29 0;
#X connect 29 0 30 0;
#X connect 29 0 8 1;
#X connect 30 0 28 0;
#X connect 31 0 32 0;
#X connect 31 0 41 1;
#X connect 32 0 31 0;
#X connect 33 0 34 0;
#X connect 33 0 40 1;
#X connect 34 0 33 0;
#X connect 35 0 27 0;
#X connect 36 0 50 0;
#X connect 37 0 15 1;
#X connect 38 0 21 1;
#X connect 39 0 38 0;
#X connect 40 0 1 0;
#X connect 41 0 9 0;
#X connect 41 0 60 0;
#X connect 42 0 18 0;
#X connect 43 0 44 0;
#X connect 44 0 5 0;
#X connect 45 0 43 0;
#X connect 46 0 48 0;
#X connect 46 0 73 0;
#X connect 47 0 46 0;
#X connect 48 0 73 0;
#X connect 49 0 58 0;
#X connect 49 1 58 1;
#X connect 50 0 54 0;
#X connect 50 0 5 0;
#X connect 51 0 52 0;
#X connect 52 0 53 0;
#X connect 53 0 70 0;
#X connect 54 0 50 1;
#X connect 55 0 52 1;
#X connect 56 0 51 1;
#X connect 57 0 54 1;
#X connect 58 0 14 0;
#X connect 58 0 47 0;
#X connect 58 0 39 0;
#X connect 59 0 66 0;
#X connect 60 0 78 0;
#X connect 61 0 60 1;
#X connect 62 0 59 1;
#X connect 63 0 64 1;
#X connect 64 0 66 0;
#X connect 65 0 66 1;
#X connect 66 0 15 0;
#X connect 68 0 5 0;
#X connect 69 0 68 0;
#X connect 69 1 68 1;
#X connect 70 0 49 0;
#X connect 71 0 70 1;
#X connect 72 0 73 0;
#X connect 72 1 73 1;
#X connect 73 0 58 0;
#X connect 74 0 75 1;
#X connect 75 0 72 0;
#X connect 76 0 77 0;
#X connect 77 0 22 0;
#X connect 77 1 69 0;
#X connect 77 2 36 0;
#X connect 79 0 64 0;
#X connect 80 0 59 0;
#X coords 0 -1 1 1 330 105 1 100 100;
#X restore 444 293 pd karplus 2;
#N canvas 263 162 1026 683 fm 0;
#X obj 461 571 *~ 0.5;
#X obj 274 160 hsl 128 15 0 1 0 1 empty empty amp 0.861339 10 7 0
10 -262144 -258113 -1 10939 1;
#X obj 462 546 osc~;
#X obj 274 100 hsl 128 15 0 127 0 1 empty empty carr 26.3586 10 7
0 10 -262144 -258113 -1 1890 1;
#X obj 259 378 mtof;
#X obj 298 447 +~;
#X obj 133 100 hsl 128 15 0 127 0 1 empty empty mod 37.4201 10 7 0
10 -262144 -258113 -1 2261 1;
#X obj 461 284 mtof;
#X obj 133 175 hsl 128 15 0 1000 0 1 empty empty index 245.308 10
7 0 10 -262144 -258113 -1 3028 1;
#X obj 463 493 *~ 500;
#X obj 461 308 +;
#X obj 569 265 t b f;
#X obj 297 262 metro 100;
#X obj 271 115 tgl 15 1 empty empty empty 17 7 0 10 -262144 -1 -1 1
1;
#X obj 297 404 +;
#X obj 297 378 t b f;
#X obj 297 284 random 100;
#X obj 297 305 pack f 50;
#X obj 297 325 line;
#X obj 502 322 +;
#X obj 500 296 t b f;
#X obj 370 262 random 6000;
#X floatatom 297 425 5 0 0 0 - - -, f 5;
#X floatatom 461 336 5 0 0 0 - - -, f 5;
#X obj 350 145 nbx 5 15 -1e+37 1e+37 0 1 empty empty smooth -40 7 0
10 -262144 -1 -1 150 256;
#X obj 350 130 nbx 5 15 -1e+37 1e+37 0 1 empty empty range -35 7 0
10 -262144 -1 -1 9 256;
#X obj 350 115 nbx 5 15 -1e+37 1e+37 0 1 empty empty speed -35 7 0
10 -262144 -1 -1 6000 256;
#X obj 105 268 metro 100;
#X obj 130 190 tgl 15 1 empty empty empty 17 7 0 10 -262144 -1 -1 1
1;
#X obj 105 290 random 100;
#X obj 105 311 pack f 50;
#X obj 105 331 line;
#X obj 177 268 random 6000;
#X obj 209 220 nbx 5 15 -1e+37 1e+37 0 1 empty empty smooth -40 7 0
10 -262144 -1 -1 3000 256;
#X obj 209 205 nbx 5 15 -1e+37 1e+37 0 1 empty empty range -35 7 0
10 -262144 -1 -1 12 256;
#X obj 209 190 nbx 5 15 -1e+37 1e+37 0 1 empty empty speed -35 7 0
10 -262144 -1 -1 8000 256;
#X obj 569 182 metro 100;
#X obj 130 115 tgl 15 1 empty empty empty 17 7 0 10 -262144 -1 -1 1
1;
#X obj 569 204 random 100;
#X obj 569 225 pack f 50;
#X obj 569 245 line;
#X obj 642 182 random 6000;
#X obj 209 145 nbx 5 15 -1e+37 1e+37 0 1 empty empty smooth -40 7 0
10 -262144 -1 -1 2000 256;
#X obj 209 130 nbx 5 15 -1e+37 1e+37 0 1 empty empty range -35 7 0
10 -262144 -1 -1 11 256;
#X obj 209 115 nbx 5 15 -1e+37 1e+37 0 1 empty empty speed -35 7 0
10 -262144 -1 -1 7000 256;
#X msg 662 81 label amp \$1;
#X msg 661 61 label index \$1;
#X floatatom 502 344 5 0 0 0 - - -, f 5;
#X obj 239 73 * 127;
#X obj 128 71 * 127;
#X obj 183 71 * 1000;
#X obj 537 435 *~ 500;
#X obj 462 524 +~;
#X obj 586 435 *~ 500;
#X obj 635 435 *~ 500;
#X msg 661 41 label mod \$1;
#X msg 661 21 label carr \$1;
#X obj 685 435 *~ 500;
#X obj 404 177 vsl 15 55 0 1000 0 1 empty empty empty 0 -9 0 10 -4032
-1 -1 400 1;
#X obj 419 177 vsl 15 55 0 1000 0 1 empty empty empty 0 -9 0 10 -257985
-1 -1 800 1;
#X obj 434 177 vsl 15 55 0 1000 0 1 empty empty empty 0 -9 0 10 -260097
-1 -1 800 1;
#X obj 449 177 vsl 15 55 0 4000 0 1 empty empty empty 0 -9 0 10 -4034
-1 -1 900 1;
#X obj 785 264 r~ \$0-out_01;
#X obj 785 284 r~ \$0-out_02;
#X obj 785 305 r~ \$0-out_03;
#X obj 785 325 r~ \$0-out_04;
#X obj 128 8 r \$0-/drone;
#X obj 128 50 unpack \$1 \$2;
#X obj 239 50 unpack \$1 \$2;
#X obj 460 600 freeverb~;
#X msg 145 416 roomsize \$1;
#X msg 146 436 damping \$1;
#X msg 147 456 width \$1;
#X msg 147 477 wet \$1;
#X msg 148 499 dry \$1;
#X obj 100 100 bng 30 250 50 0 empty empty 0 8 15 0 25 -262144 -228856
-1;
#X obj 460 630 s~ \$0-out_00_l;
#X obj 521 656 s~ \$0-out_00_r;
#X obj 389 220 tgl 15 0 empty empty bypass -45 8 0 10 -261234 -1 -1
0 1;
#X obj 389 205 tgl 15 0 empty empty freeze -45 8 0 10 -261234 -1 -1
0 1;
#X obj 342 190 hsl 60 15 0 1 0 1 empty empty dry 2 8 0 10 -262144 -258113
-1 4900 0;
#X obj 342 175 hsl 60 15 0 1 0 1 empty empty wet 2 8 0 10 -262144 -258113
-1 4900 0;
#X obj 274 205 hsl 60 15 0 1 0 1 empty empty width 2 8 0 10 -262144
-258113 -1 5600 0;
#X obj 274 190 hsl 60 15 0 2 0 1 empty empty damping 2 8 0 10 -262144
-258113 -1 5200 0;
#X obj 274 175 hsl 60 15 0.11 1.1 0 1 empty empty roomsize 2 8 0 10
-262144 -258113 -1 4400 0;
#X msg 146 523 freeze \$1;
#X msg 146 543 bypass \$1;
#X obj 461 365 phasor~;
#X obj 409 390 osc~;
#X obj 133 160 hsl 128 15 0 -1 0 1 empty empty sine----------saw 10
7 0 10 -262144 -258113 -1 2600 1;
#X obj 463 471 *~;
#X obj 427 424 + 1;
#X obj 409 457 *~;
#X obj 481 445 * -1;
#X obj 735 435 *~ 500;
#X obj 785 345 r~ \$0-out_05;
#X obj 464 177 vsl 15 55 0 1000 0 1 empty empty empty 0 -9 0 10 -159808
-1 -1 800 1;
#X obj 128 29 route /xymi /xyca /tm /ti /tc /sp;
#X obj 363 49 * -1;
#X obj 461 389 *~ -2;
#X obj 462 414 +~ 1;
#X obj 479 177 vsl 15 55 0 1000 0 1 empty empty empty 0 -9 0 10 -4160
-1 -1 800 1;
#X obj 784 435 *~ 500;
#X obj 785 364 r~ \$0-out_06;
#X connect 0 0 69 0;
#X connect 0 0 69 1;
#X connect 1 0 0 1;
#X connect 1 0 45 0;
#X connect 2 0 0 0;
#X connect 3 0 4 0;
#X connect 4 0 14 0;
#X connect 5 0 52 0;
#X connect 6 0 7 0;
#X connect 7 0 10 0;
#X connect 8 0 19 0;
#X connect 9 0 52 0;
#X connect 10 0 23 0;
#X connect 11 0 10 0;
#X connect 11 1 10 1;
#X connect 12 0 16 0;
#X connect 12 0 21 0;
#X connect 13 0 12 0;
#X connect 14 0 22 0;
#X connect 15 0 14 0;
#X connect 15 1 14 1;
#X connect 16 0 17 0;
#X connect 17 0 18 0;
#X connect 18 0 15 0;
#X connect 19 0 47 0;
#X connect 20 0 19 0;
#X connect 20 1 19 1;
#X connect 21 0 12 1;
#X connect 22 0 5 0;
#X connect 22 0 56 0;
#X connect 23 0 55 0;
#X connect 23 0 87 0;
#X connect 23 0 88 0;
#X connect 24 0 17 1;
#X connect 25 0 16 1;
#X connect 26 0 21 1;
#X connect 27 0 29 0;
#X connect 27 0 32 0;
#X connect 28 0 27 0;
#X connect 29 0 30 0;
#X connect 30 0 31 0;
#X connect 31 0 20 0;
#X connect 32 0 27 1;
#X connect 33 0 30 1;
#X connect 34 0 29 1;
#X connect 35 0 32 1;
#X connect 36 0 38 0;
#X connect 36 0 41 0;
#X connect 37 0 36 0;
#X connect 38 0 39 0;
#X connect 39 0 40 0;
#X connect 40 0 11 0;
#X connect 41 0 36 1;
#X connect 42 0 39 1;
#X connect 43 0 38 1;
#X connect 44 0 41 1;
#X connect 45 0 1 0;
#X connect 46 0 8 0;
#X connect 47 0 46 0;
#X connect 47 0 9 1;
#X connect 48 0 3 0;
#X connect 49 0 6 0;
#X connect 50 0 8 0;
#X connect 51 0 52 1;
#X connect 52 0 2 0;
#X connect 53 0 52 1;
#X connect 54 0 52 1;
#X connect 55 0 6 0;
#X connect 56 0 3 0;
#X connect 57 0 52 1;
#X connect 58 0 51 1;
#X connect 59 0 53 1;
#X connect 60 0 54 1;
#X connect 61 0 57 1;
#X connect 62 0 51 0;
#X connect 63 0 53 0;
#X connect 64 0 54 0;
#X connect 65 0 57 0;
#X connect 66 0 97 0;
#X connect 67 0 49 0;
#X connect 67 1 50 0;
#X connect 68 0 48 0;
#X connect 68 1 1 0;
#X connect 69 0 76 0;
#X connect 69 1 77 0;
#X connect 70 0 69 0;
#X connect 71 0 69 0;
#X connect 72 0 69 0;
#X connect 73 0 69 0;
#X connect 74 0 69 0;
#X connect 75 0 29 0;
#X connect 75 0 16 0;
#X connect 75 0 38 0;
#X connect 78 0 86 0;
#X connect 79 0 85 0;
#X connect 80 0 74 0;
#X connect 81 0 73 0;
#X connect 82 0 72 0;
#X connect 83 0 71 0;
#X connect 84 0 70 0;
#X connect 85 0 69 0;
#X connect 86 0 69 0;
#X connect 87 0 99 0;
#X connect 88 0 92 0;
#X connect 89 0 91 0;
#X connect 89 0 93 0;
#X connect 90 0 9 0;
#X connect 91 0 92 1;
#X connect 92 0 9 0;
#X connect 93 0 90 1;
#X connect 94 0 52 1;
#X connect 95 0 94 0;
#X connect 96 0 94 1;
#X connect 97 0 67 0;
#X connect 97 1 68 0;
#X connect 97 2 37 0;
#X connect 97 3 28 0;
#X connect 97 4 3 0;
#X connect 97 5 98 0;
#X connect 98 0 89 0;
#X connect 99 0 100 0;
#X connect 100 0 90 0;
#X connect 101 0 102 1;
#X connect 103 0 102 0;
#X coords 0 -1 1 1 395 135 2 100 100;
#X restore 43 14 pd fm;
#N canvas 283 311 844 700 mixer 0;
#X obj 133 149 vsl 15 128 0 127 0 1 empty empty empty 5 10 0 10 -4032
-1 -1 8294 1;
#X obj 136 132 hsl 25 15 0 -1 0 1 empty empty pan 3 7 0 10 -262144
-1 -1 1100 1;
#X obj 153 154 vu 8 120 empty empty -1 -8 0 10 -66577 -1 0 0;
#X obj 274 365 prvu~;
#X msg 591 475 t_metro \$1;
#X msg 590 495 t_release \$1;
#X obj 637 423 loadbang;
#X msg 637 444 10;
#N canvas 164 118 450 372 amp-pan-mo 0;
#X obj 141 233 *~;
#X obj 202 234 *~;
#X obj 159 211 + 1;
#X obj 220 211 * -1;
#X obj 220 152 *;
#X obj 297 119 t b f;
#X obj 142 169 *~;
#X obj 220 102 dbtorms;
#X obj 142 50 inlet~;
#X obj 220 49 inlet;
#X obj 297 47 inlet;
#X obj 351 49 inlet;
#X obj 141 272 outlet~;
#X obj 202 272 outlet~;
#X text 365 20 pan;
#X obj 297 75 pack \$1 10;
#X obj 297 97 line;
#X text 226 22 amp;
#X text 304 20 tog;
#X obj 264 271 outlet~;
#X connect 0 0 12 0;
#X connect 1 0 13 0;
#X connect 2 0 0 1;
#X connect 3 0 1 1;
#X connect 4 0 6 1;
#X connect 5 0 4 0;
#X connect 5 1 4 1;
#X connect 6 0 0 0;
#X connect 6 0 1 0;
#X connect 6 0 19 0;
#X connect 7 0 4 0;
#X connect 8 0 6 0;
#X connect 9 0 7 0;
#X connect 10 0 15 0;
#X connect 11 0 3 0;
#X connect 11 0 2 0;
#X connect 15 0 16 0;
#X connect 16 0 5 0;
#X restore 175 365 pd amp-pan-mo;
#X obj 133 280 tgl 15 1 empty empty 1 5 8 0 10 -262144 -1 -1 1 1;
#X obj 166 149 vsl 15 128 0 127 0 1 empty empty empty 5 10 0 10 -257985
-1 -1 8779 1;
#X obj 169 132 hsl 25 15 0 -1 0 1 empty empty pan 3 7 0 10 -262144
-1 -1 1800 1;
#X obj 186 154 vu 8 120 empty empty -1 -8 0 10 -66577 -1 0 0;
#X obj 300 390 prvu~;
#X obj 166 280 tgl 15 1 empty empty 2 5 8 0 10 -262144 -1 -1 1 1;
#X obj 199 149 vsl 15 128 0 127 0 1 empty empty empty 5 10 0 10 -260097
-1 -1 8864 1;
#X obj 202 132 hsl 25 15 0 -1 0 1 empty empty pan 3 7 0 10 -262144
-1 -1 100 1;
#X obj 219 154 vu 8 120 empty empty -1 -8 0 10 -66577 -1 0 0;
#X obj 199 280 tgl 15 1 empty empty 3 5 8 0 10 -262144 -1 -1 1 1;
#X obj 232 149 vsl 15 128 0 127 0 1 empty empty empty 5 10 0 10 -4034
-1 -1 8925 1;
#X obj 252 154 vu 8 120 empty empty -1 -8 0 10 -66577 -1 0 0;
#X obj 232 280 tgl 15 1 empty empty 4 5 8 0 10 -262144 -1 -1 1 1;
#X obj 235 132 hsl 25 15 0 -1 0 1 empty empty pan 3 7 0 10 -262144
-1 -1 2200 1;
#N canvas 164 118 450 372 amp-pan-mo 0;
#X obj 141 233 *~;
#X obj 202 234 *~;
#X obj 159 211 + 1;
#X obj 220 211 * -1;
#X obj 220 152 *;
#X obj 297 119 t b f;
#X obj 142 169 *~;
#X obj 220 102 dbtorms;
#X obj 142 50 inlet~;
#X obj 220 49 inlet;
#X obj 297 47 inlet;
#X obj 351 49 inlet;
#X obj 141 272 outlet~;
#X obj 202 272 outlet~;
#X text 365 20 pan;
#X obj 297 75 pack \$1 10;
#X obj 297 97 line;
#X text 226 22 amp;
#X text 304 20 tog;
#X obj 264 271 outlet~;
#X connect 0 0 12 0;
#X connect 1 0 13 0;
#X connect 2 0 0 1;
#X connect 3 0 1 1;
#X connect 4 0 6 1;
#X connect 5 0 4 0;
#X connect 5 1 4 1;
#X connect 6 0 0 0;
#X connect 6 0 1 0;
#X connect 6 0 19 0;
#X connect 7 0 4 0;
#X connect 8 0 6 0;
#X connect 9 0 7 0;
#X connect 10 0 15 0;
#X connect 11 0 3 0;
#X connect 11 0 2 0;
#X connect 15 0 16 0;
#X connect 16 0 5 0;
#X restore 202 390 pd amp-pan-mo;
#X obj 374 436 prvu~;
#N canvas 164 118 450 372 amp-pan-mo 0;
#X obj 141 233 *~;
#X obj 202 234 *~;
#X obj 159 211 + 1;
#X obj 220 211 * -1;
#X obj 220 152 *;
#X obj 297 119 t b f;
#X obj 142 169 *~;
#X obj 220 102 dbtorms;
#X obj 142 50 inlet~;
#X obj 220 49 inlet;
#X obj 297 47 inlet;
#X obj 351 49 inlet;
#X obj 141 272 outlet~;
#X obj 202 272 outlet~;
#X text 365 20 pan;
#X obj 297 75 pack \$1 10;
#X obj 297 97 line;
#X text 226 22 amp;
#X text 304 20 tog;
#X obj 264 271 outlet~;
#X connect 0 0 12 0;
#X connect 1 0 13 0;
#X connect 2 0 0 1;
#X connect 3 0 1 1;
#X connect 4 0 6 1;
#X connect 5 0 4 0;
#X connect 5 1 4 1;
#X connect 6 0 0 0;
#X connect 6 0 1 0;
#X connect 6 0 19 0;
#X connect 7 0 4 0;
#X connect 8 0 6 0;
#X connect 9 0 7 0;
#X connect 10 0 15 0;
#X connect 11 0 3 0;
#X connect 11 0 2 0;
#X connect 15 0 16 0;
#X connect 16 0 5 0;
#X restore 277 436 pd amp-pan-mo;
#X obj 325 413 prvu~;
#N canvas 164 118 450 372 amp-pan-mo 0;
#X obj 141 233 *~;
#X obj 202 234 *~;
#X obj 159 211 + 1;
#X obj 220 211 * -1;
#X obj 220 152 *;
#X obj 297 119 t b f;
#X obj 142 169 *~;
#X obj 220 102 dbtorms;
#X obj 142 50 inlet~;
#X obj 220 49 inlet;
#X obj 297 47 inlet;
#X obj 351 49 inlet;
#X obj 141 272 outlet~;
#X obj 202 272 outlet~;
#X text 365 20 pan;
#X obj 297 75 pack \$1 10;
#X obj 297 97 line;
#X text 226 22 amp;
#X text 304 20 tog;
#X obj 264 271 outlet~;
#X connect 0 0 12 0;
#X connect 1 0 13 0;
#X connect 2 0 0 1;
#X connect 3 0 1 1;
#X connect 4 0 6 1;
#X connect 5 0 4 0;
#X connect 5 1 4 1;
#X connect 6 0 0 0;
#X connect 6 0 1 0;
#X connect 6 0 19 0;
#X connect 7 0 4 0;
#X connect 8 0 6 0;
#X connect 9 0 7 0;
#X connect 10 0 15 0;
#X connect 11 0 3 0;
#X connect 11 0 2 0;
#X connect 15 0 16 0;
#X connect 16 0 5 0;
#X restore 228 413 pd amp-pan-mo;
#X obj 331 150 vsl 30 128 0 127 0 1 empty empty empty 0 -9 0 10 -262144
-1 -1 9300 1;
#X obj 100 149 vsl 15 128 0 127 0 1 empty empty empty 5 10 0 10 -262144
-1 -1 8100 1;
#X obj 103 132 hsl 25 15 0 -1 0 1 empty empty pan 3 7 0 10 -262144
-1 -1 1200 1;
#X obj 120 154 vu 8 120 empty empty -1 -8 0 10 -66577 -1 0 0;
#X obj 235 327 prvu~;
#N canvas 540 172 450 372 amp-pan-mo 0;
#X obj 110 233 *~;
#X obj 170 235 *~;
#X obj 127 212 + 1;
#X obj 220 211 * -1;
#X obj 220 136 *;
#X obj 297 119 t b f;
#X obj 110 128 *~;
#X obj 220 102 dbtorms;
#X obj 110 49 inlet~;
#X obj 220 49 inlet;
#X obj 297 47 inlet;
#X obj 351 49 inlet;
#X obj 110 272 outlet~;
#X obj 171 271 outlet~;
#X text 365 20 pan;
#X obj 297 75 pack \$1 10;
#X obj 297 97 line;
#X text 226 22 amp;
#X text 304 20 tog;
#X obj 297 272 outlet~;
#X obj 170 131 *~;
#X obj 171 49 inlet~;
#X obj 297 206 +~;
#X obj 297 228 /~ 2;
#X connect 0 0 12 0;
#X connect 1 0 13 0;
#X connect 2 0 0 1;
#X connect 3 0 1 1;
#X connect 4 0 20 1;
#X connect 4 0 6 1;
#X connect 5 0 4 0;
#X connect 5 1 4 1;
#X connect 6 0 0 0;
#X connect 6 0 22 0;
#X connect 7 0 4 0;
#X connect 8 0 6 0;
#X connect 9 0 7 0;
#X connect 10 0 15 0;
#X connect 11 0 3 0;
#X connect 11 0 2 0;
#X connect 15 0 16 0;
#X connect 16 0 5 0;
#X connect 20 0 1 0;
#X connect 20 0 22 1;
#X connect 21 0 20 0;
#X connect 22 0 23 0;
#X connect 23 0 19 0;
#X restore 137 327 pd amp-pan-mo;
#X obj 100 280 tgl 15 1 empty empty 0 5 8 0 10 -262144 -1 -1 1 1;
#X obj 366 154 vu 8 120 empty empty -1 -8 0 10 -66577 -1 0 0;
#X obj 377 154 vu 8 120 empty empty -1 -8 0 8 -66577 -1 1 0;
#X obj 435 337 prvu~;
#X obj 484 337 prvu~;
#X obj 136 662 dac~;
#X obj 136 568 +~;
#X obj 181 570 +~;
#X msg 506 99 \; pd dsp \$1;
#X obj 555 39 samplerate~;
#X obj 274 115 nbx 5 15 -1e+37 1e+37 0 0 empty empty samplerate -65
7 0 10 -262144 -1 -66577 44100 256;
#N canvas 1 75 450 300 cpu 0;
#X obj 118 253 outlet;
#X obj 118 168 cputime;
#X obj 118 28 loadbang;
#X obj 118 112 metro 1000;
#X msg 118 56 1;
#X floatatom 118 84 0 0 0 0 - - -;
#X obj 118 140 t b b;
#X obj 118 228 * 0.1;
#X obj 118 197 int;
#X text 163 84 <-- on/off;
#X connect 1 0 8 0;
#X connect 2 0 4 0;
#X connect 3 0 6 0;
#X connect 4 0 5 0;
#X connect 5 0 3 0;
#X connect 6 0 1 0;
#X connect 6 1 1 1;
#X connect 7 0 0 0;
#X connect 8 0 7 0;
#X restore 642 39 pd cpu;
#X obj 274 100 nbx 5 15 -1e+37 1e+37 0 0 empty empty cpu -25 7 0 10
-262144 -1 -66577 2 256;
#X obj 555 17 loadbang;
#X obj 331 100 tgl 30 0 empty empty DSP 3 15 0 14 -262144 -258113 -1
0 1;
#X obj 220 601 dbtorms;
#X obj 136 626 *~;
#X obj 180 627 *~;
#X obj 23 347 r~ \$0-out_01;
#X obj 24 372 r~ \$0-out_02;
#X obj 25 395 r~ \$0-out_03;
#X obj 26 420 r~ \$0-out_04;
#X obj 183 661 outlet~;
#X obj 249 661 outlet~;
#X obj 68 11 r \$0-/mixer;
#X obj 53 69 * 127;
#X obj 129 70 * 127;
#X obj 205 70 * 127;
#X obj 282 70 * 127;
#X obj 356 72 * 127;
#X obj 10 310 r~ \$0-out_00_l;
#X obj 10 326 r~ \$0-out_00_r;
#X obj 265 149 vsl 15 128 0 127 0 1 empty empty empty 5 10 0 10 -159808
-1 -1 8109 1;
#X obj 285 154 vu 8 120 empty empty -1 -8 0 10 -66577 -1 0 0;
#X obj 265 280 tgl 15 1 empty empty 5 5 8 0 10 -262144 -1 -1 1 1;
#X obj 268 132 hsl 25 15 0 -1 0 1 empty empty pan 3 7 0 10 -262144
-1 -1 600 1;
#X obj 421 460 prvu~;
#N canvas 164 118 450 372 amp-pan-mo 0;
#X obj 141 233 *~;
#X obj 202 234 *~;
#X obj 159 211 + 1;
#X obj 220 211 * -1;
#X obj 220 152 *;
#X obj 297 119 t b f;
#X obj 142 169 *~;
#X obj 220 102 dbtorms;
#X obj 142 50 inlet~;
#X obj 220 49 inlet;
#X obj 297 47 inlet;
#X obj 351 49 inlet;
#X obj 141 272 outlet~;
#X obj 202 272 outlet~;
#X text 365 20 pan;
#X obj 297 75 pack \$1 10;
#X obj 297 97 line;
#X text 226 22 amp;
#X text 304 20 tog;
#X obj 264 271 outlet~;
#X connect 0 0 12 0;
#X connect 1 0 13 0;
#X connect 2 0 0 1;
#X connect 3 0 1 1;
#X connect 4 0 6 1;
#X connect 5 0 4 0;
#X connect 5 1 4 1;
#X connect 6 0 0 0;
#X connect 6 0 1 0;
#X connect 6 0 19 0;
#X connect 7 0 4 0;
#X connect 8 0 6 0;
#X connect 9 0 7 0;
#X connect 10 0 15 0;
#X connect 11 0 3 0;
#X connect 11 0 2 0;
#X connect 15 0 16 0;
#X connect 16 0 5 0;
#X restore 321 460 pd amp-pan-mo;
#X obj 27 444 r~ \$0-out_05;
#X obj 410 70 * 127;
#X obj 298 149 vsl 15 128 0 127 0 1 empty empty empty 5 10 0 10 -4160
-1 -1 7428 1;
#X obj 318 154 vu 8 120 empty empty -1 -8 0 10 -66577 -1 0 0;
#X obj 298 280 tgl 15 1 empty empty 6 5 8 0 10 -262144 -1 -1 1 1;
#X obj 301 132 hsl 25 15 0 -1 0 1 empty empty pan 3 7 0 10 -262144
-1 -1 1600 1;
#X obj 438 484 prvu~;
#N canvas 164 118 450 372 amp-pan-mo 0;
#X obj 141 233 *~;
#X obj 202 234 *~;
#X obj 159 211 + 1;
#X obj 220 211 * -1;
#X obj 220 152 *;
#X obj 297 119 t b f;
#X obj 142 169 *~;
#X obj 220 102 dbtorms;
#X obj 142 50 inlet~;
#X obj 220 49 inlet;
#X obj 297 47 inlet;
#X obj 351 49 inlet;
#X obj 141 272 outlet~;
#X obj 202 272 outlet~;
#X text 365 20 pan;
#X obj 297 75 pack \$1 10;
#X obj 297 97 line;
#X text 226 22 amp;
#X text 304 20 tog;
#X obj 264 271 outlet~;
#X connect 0 0 12 0;
#X connect 1 0 13 0;
#X connect 2 0 0 1;
#X connect 3 0 1 1;
#X connect 4 0 6 1;
#X connect 5 0 4 0;
#X connect 5 1 4 1;
#X connect 6 0 0 0;
#X connect 6 0 1 0;
#X connect 6 0 19 0;
#X connect 7 0 4 0;
#X connect 8 0 6 0;
#X connect 9 0 7 0;
#X connect 10 0 15 0;
#X connect 11 0 3 0;
#X connect 11 0 2 0;
#X connect 15 0 16 0;
#X connect 16 0 5 0;
#X restore 334 483 pd amp-pan-mo;
#X obj 28 466 r~ \$0-out_06;
#X obj 461 70 * 127;
#X obj 68 33 route /f00 /t00 /f01 /t01 /f02 /t02 /f03 /t03 /f04 /t04
/f05 /t05 /f06 /t06;
#X connect 0 0 8 1;
#X connect 1 0 8 3;
#X connect 3 0 2 0;
#X connect 4 0 3 0;
#X connect 4 0 13 0;
#X connect 4 0 24 0;
#X connect 4 0 32 0;
#X connect 4 0 37 0;
#X connect 4 0 38 0;
#X connect 4 0 70 0;
#X connect 4 0 78 0;
#X connect 5 0 3 0;
#X connect 5 0 13 0;
#X connect 5 0 24 0;
#X connect 5 0 32 0;
#X connect 5 0 37 0;
#X connect 5 0 38 0;
#X connect 5 0 70 0;
#X connect 5 0 78 0;
#X connect 6 0 7 0;
#X connect 7 0 4 0;
#X connect 7 0 5 0;
#X connect 8 0 40 0;
#X connect 8 1 41 0;
#X connect 8 2 3 0;
#X connect 9 0 8 2;
#X connect 10 0 23 1;
#X connect 11 0 23 3;
#X connect 13 0 12 0;
#X connect 14 0 23 2;
#X connect 15 0 27 1;
#X connect 16 0 27 3;
#X connect 18 0 27 2;
#X connect 19 0 25 1;
#X connect 21 0 25 2;
#X connect 22 0 25 3;
#X connect 23 0 40 0;
#X connect 23 1 41 0;
#X connect 23 2 13 0;
#X connect 24 0 20 0;
#X connect 25 0 40 0;
#X connect 25 1 41 0;
#X connect 25 2 24 0;
#X connect 26 0 17 0;
#X connect 27 0 40 0;
#X connect 27 1 41 0;
#X connect 27 2 26 0;
#X connect 28 0 49 0;
#X connect 29 0 33 2;
#X connect 30 0 33 4;
#X connect 32 0 31 0;
#X connect 33 0 40 0;
#X connect 33 1 41 0;
#X connect 33 2 32 0;
#X connect 34 0 33 3;
#X connect 37 0 35 0;
#X connect 38 0 36 0;
#X connect 40 0 50 0;
#X connect 41 0 51 0;
#X connect 43 0 44 0;
#X connect 45 0 46 0;
#X connect 47 0 43 0;
#X connect 48 0 42 0;
#X connect 49 0 51 1;
#X connect 49 0 50 1;
#X connect 50 0 39 0;
#X connect 50 0 37 0;
#X connect 50 0 56 0;
#X connect 51 0 39 1;
#X connect 51 0 38 0;
#X connect 51 0 57 0;
#X connect 52 0 8 0;
#X connect 53 0 23 0;
#X connect 54 0 27 0;
#X connect 55 0 25 0;
#X connect 58 0 82 0;
#X connect 59 0 29 0;
#X connect 60 0 0 0;
#X connect 61 0 10 0;
#X connect 62 0 15 0;
#X connect 63 0 19 0;
#X connect 64 0 33 0;
#X connect 65 0 33 1;
#X connect 66 0 71 1;
#X connect 68 0 71 2;
#X connect 69 0 71 3;
#X connect 70 0 67 0;
#X connect 71 0 40 0;
#X connect 71 1 41 0;
#X connect 71 2 70 0;
#X connect 72 0 71 0;
#X connect 73 0 66 0;
#X connect 74 0 79 1;
#X connect 76 0 79 2;
#X connect 77 0 79 3;
#X connect 78 0 75 0;
#X connect 79 0 40 0;
#X connect 79 1 41 0;
#X connect 79 2 78 0;
#X connect 80 0 79 0;
#X connect 81 0 74 0;
#X connect 82 0 59 0;
#X connect 82 1 34 0;
#X connect 82 2 60 0;
#X connect 82 3 9 0;
#X connect 82 4 61 0;
#X connect 82 5 14 0;
#X connect 82 6 62 0;
#X connect 82 7 18 0;
#X connect 82 8 63 0;
#X connect 82 9 21 0;
#X connect 82 10 73 0;
#X connect 82 11 68 0;
#X connect 82 12 81 0;
#X connect 82 13 76 0;
#X coords 0 -1 1 1 315 195 1 100 100;
#X restore 123 152 pd mixer;
#N canvas 856 334 450 431 (subpatch) 0;
#X obj 18 222 symbol;
#X symbolatom 18 285 60 0 0 0 - - -, f 60;
#X obj 18 392 writesf~ 2;
#X msg 40 340 start;
#X msg 91 340 stop;
#X msg 18 312 open -wave \$1;
#X symbolatom 100 100 17 0 0 0 - - -, f 17;
#X obj 220 100 bng 30 250 50 0 empty empty rec 6 15 0 10 -258113 -4034
-262144;
#X obj 250 100 bng 30 250 50 0 empty empty stop 3 15 0 10 -262144 -1
-1;
#X obj 155 340 inlet~;
#X obj 218 341 inlet~;
#X obj 18 255 makefilename /home/oscar/%s.wav;
#X connect 0 0 11 0;
#X connect 1 0 5 0;
#X connect 3 0 2 0;
#X connect 4 0 2 0;
#X connect 5 0 2 0;
#X connect 6 0 0 0;
#X connect 7 0 3 0;
#X connect 8 0 4 0;
#X connect 9 0 2 0;
#X connect 10 0 2 1;
#X connect 11 0 1 0;
#X coords 0 1 100 -1 180 30 1 100 100;
#X restore 123 347 graph;
#N canvas 145 186 1132 652 matrix 0;
#X obj 79 361 *~;
#X obj 108 360 *~;
#X obj 136 360 *~;
#X obj 164 360 *~;
#X obj 260 360 *~;
#X obj 288 360 *~;
#X obj 316 360 *~;
#X obj 344 360 *~;
#X obj 429 360 *~;
#X obj 457 360 *~;
#X obj 485 360 *~;
#X obj 513 360 *~;
#X obj 600 360 *~;
#X obj 628 360 *~;
#X obj 656 360 *~;
#X obj 684 360 *~;
#X obj 60 283 metro 8000;
#X obj 146 283 random 8000;
#X obj 160 100 tgl 15 0 empty empty empty 17 7 0 10 -262144 -258113
-1 0 1;
#X obj 638 138 random 2;
#X obj 569 115 random 2;
#X obj 705 115 random 2;
#X obj 772 115 random 2;
#X obj 770 138 random 2;
#X obj 705 138 random 2;
#X obj 569 138 random 2;
#X obj 175 100 bng 15 250 50 0 empty empty empty 17 7 0 10 -258113
-1 -1;
#X obj 638 183 random 2;
#X obj 569 160 random 2;
#X obj 637 159 random 2;
#X obj 705 160 random 2;
#X obj 772 160 random 2;
#X obj 770 183 random 2;
#X obj 705 183 random 2;
#X obj 569 183 random 2;
#X obj 100 100 nbx 5 15 -1e+37 1e+37 0 1 empty empty empty 0 -8 0 10
-261234 -1 -1 7000 256;
#X obj 94 11 r \$0-/matrix;
#X obj 878 83 spigot;
#X obj 878 58 t b f;
#X obj 260 593 s~ \$0-mod_r01;
#X obj 389 594 s~ \$0-mod_r02;
#X obj 513 594 s~ \$0-mod_r03;
#X obj 628 594 s~ \$0-mod_r04;
#X obj 78 515 s~ \$0-mod_r01a;
#X obj 78 534 s~ \$0-mod_r02a;
#X obj 78 554 s~ \$0-mod_r03a;
#X obj 78 574 s~ \$0-mod_r04a;
#X obj 746 594 s~ \$0-mod_r05;
#X obj 78 594 s~ \$0-mod_r05a;
#X obj 638 205 random 2;
#X obj 770 205 random 2;
#X obj 705 205 random 2;
#X obj 569 205 random 2;
#X obj 836 115 random 2;
#X obj 834 138 random 2;
#X obj 835 160 random 2;
#X obj 835 182 random 2;
#X obj 835 205 random 2;
#X obj 190 100 bng 15 250 50 0 empty empty 0 5 8 0 10 -262144 -1 -1
;
#X msg 717 76 0;
#X obj 771 360 *~;
#X obj 798 360 *~;
#X obj 825 360 *~;
#X obj 853 360 *~;
#X obj 80 317 r~ \$0-out_r01;
#X obj 260 317 r~ \$0-out_r02;
#X obj 429 317 r~ \$0-out_r03;
#X obj 600 317 r~ \$0-out_r04;
#X obj 770 317 r~ \$0-out_r05;
#X obj 192 360 *~;
#X obj 371 360 *~;
#X obj 880 360 *~;
#X obj 635 114 random 2;
#X obj 541 360 *~;
#X obj 713 360 *~;
#X obj 638 226 random 2;
#X obj 770 226 random 2;
#X obj 705 226 random 2;
#X obj 569 226 random 2;
#X obj 835 226 random 2;
#X obj 901 115 random 2;
#X obj 899 138 random 2;
#X obj 900 160 random 2;
#X obj 900 183 random 2;
#X obj 900 205 random 2;
#X obj 900 226 random 2;
#X obj 940 360 *~;
#X obj 966 360 *~;
#X obj 994 360 *~;
#X obj 1022 360 *~;
#X obj 1049 360 *~;
#X obj 222 360 *~;
#X obj 859 594 s~ \$0-mod_r06;
#X obj 939 317 r~ \$0-out_r06;
#X obj 78 614 s~ \$0-mod_r06a;
#X obj 400 360 *~;
#X obj 570 360 *~;
#X obj 742 360 *~;
#X obj 908 360 *~;
#X obj 1078 360 *~;
#X obj 130 130 tgl 15 1 empty empty 1-> -20 7 0 10 -262144 -1 -1 0
1;
#X obj 145 130 tgl 15 1 empty empty empty 17 7 0 10 -262144 -1 -1 0
1;
#X obj 160 130 tgl 15 1 empty empty empty 17 7 0 10 -262144 -1 -1 0
1;
#X obj 175 130 tgl 15 1 empty empty empty 17 7 0 10 -262144 -1 -1 1
1;
#X obj 130 145 tgl 15 1 empty empty 2-> -20 7 0 10 -262144 -1 -1 0
1;
#X obj 145 145 tgl 15 1 empty empty empty 17 7 0 10 -262144 -1 -1 1
1;
#X obj 160 145 tgl 15 1 empty empty empty 17 7 0 10 -262144 -1 -1 0
1;
#X obj 175 145 tgl 15 1 empty empty empty 17 7 0 10 -262144 -1 -1 1
1;
#X obj 130 160 tgl 15 1 empty empty 3-> -20 7 0 10 -262144 -1 -1 0
1;
#X obj 145 160 tgl 15 1 empty empty empty 17 7 0 10 -262144 -1 -1 1
1;
#X obj 160 160 tgl 15 1 empty empty empty 17 7 0 10 -262144 -1 -1 0
1;
#X obj 175 160 tgl 15 1 empty empty empty 17 7 0 10 -262144 -1 -1 0
1;
#X obj 130 175 tgl 15 1 empty empty 4-> -20 7 0 10 -262144 -1 -1 0
1;
#X obj 145 175 tgl 15 1 empty empty empty 17 7 0 10 -262144 -1 -1 0
1;
#X obj 160 175 tgl 15 1 empty empty empty 17 7 0 10 -262144 -1 -1 1
1;
#X obj 175 175 tgl 15 1 empty empty empty 17 7 0 10 -262144 -1 -1 0
1;
#X obj 190 130 tgl 15 1 empty empty empty 17 7 0 10 -262144 -1 -1 0
1;
#X obj 190 145 tgl 15 1 empty empty empty 17 7 0 10 -262144 -1 -1 1
1;
#X obj 190 160 tgl 15 1 empty empty empty 17 7 0 10 -262144 -1 -1 0
1;
#X obj 190 175 tgl 15 1 empty empty empty 17 7 0 10 -262144 -1 -1 1
1;
#X obj 130 190 tgl 15 1 empty empty 5-> -20 7 0 10 -262144 -1 -1 1
1;
#X obj 145 190 tgl 15 1 empty empty empty 17 7 0 10 -262144 -1 -1 1
1;
#X obj 160 190 tgl 15 1 empty empty empty 17 7 0 10 -262144 -1 -1 1
1;
#X obj 175 190 tgl 15 1 empty empty empty 17 7 0 10 -262144 -1 -1 1
1;
#X obj 190 190 tgl 15 1 empty empty empty 17 7 0 10 -262144 -1 -1 1
1;
#X obj 205 130 tgl 15 1 empty empty empty 17 7 0 10 -262144 -1 -1 0
1;
#X obj 205 145 tgl 15 1 empty empty empty 17 7 0 10 -262144 -1 -1 1
1;
#X obj 205 160 tgl 15 1 empty empty empty 17 7 0 10 -262144 -1 -1 1
1;
#X obj 205 175 tgl 15 1 empty empty empty 17 7 0 10 -262144 -1 -1 1
1;
#X obj 205 190 tgl 15 1 empty empty empty 17 7 0 10 -262144 -1 -1 0
1;
#X obj 205 205 tgl 15 1 empty empty empty 17 7 0 10 -262144 -1 -1 0
1;
#X obj 130 205 tgl 15 1 empty empty 6-> -20 7 0 10 -262144 -1 -1 0
1;
#X obj 145 205 tgl 15 1 empty empty empty 17 7 0 10 -262144 -1 -1 0
1;
#X obj 160 205 tgl 15 1 empty empty empty 17 7 0 10 -262144 -1 -1 1
1;
#X obj 175 205 tgl 15 1 empty empty empty 17 7 0 10 -262144 -1 -1 1
1;
#X obj 190 205 tgl 15 1 empty empty empty 17 7 0 10 -262144 -1 -1 0
1;
#X obj 94 36 route /t11 /t12 /t13 /t14 /t15 /t16 /t21 /t22 /t23 /t24
/t25 /t26 /t31 /t32 /t33 /t34 /t35 /t36 /t41 /t42 /t43 /t44 /t45 /t46
/t51 /t52 /t53 /t54 /t55 /t56 /t61 /t62 /t63 /t64 /t65 /t66 /tr /br
/br0, f 104;
#X connect 0 0 43 0;
#X connect 1 0 40 0;
#X connect 2 0 41 0;
#X connect 3 0 42 0;
#X connect 4 0 39 0;
#X connect 5 0 44 0;
#X connect 6 0 41 0;
#X connect 7 0 42 0;
#X connect 8 0 39 0;
#X connect 9 0 40 0;
#X connect 10 0 45 0;
#X connect 11 0 42 0;
#X connect 12 0 39 0;
#X connect 13 0 40 0;
#X connect 14 0 41 0;
#X connect 15 0 46 0;
#X connect 16 0 17 0;
#X connect 16 0 26 0;
#X connect 17 0 16 1;
#X connect 18 0 16 0;
#X connect 19 0 105 0;
#X connect 20 0 100 0;
#X connect 21 0 102 0;
#X connect 22 0 103 0;
#X connect 23 0 107 0;
#X connect 24 0 106 0;
#X connect 25 0 104 0;
#X connect 26 0 20 0;
#X connect 26 0 25 0;
#X connect 26 0 19 0;
#X connect 26 0 21 0;
#X connect 26 0 24 0;
#X connect 26 0 22 0;
#X connect 26 0 23 0;
#X connect 26 0 28 0;
#X connect 26 0 34 0;
#X connect 26 0 29 0;
#X connect 26 0 27 0;
#X connect 26 0 30 0;
#X connect 26 0 33 0;
#X connect 26 0 31 0;
#X connect 26 0 32 0;
#X connect 26 0 53 0;
#X connect 26 0 54 0;
#X connect 26 0 55 0;
#X connect 26 0 56 0;
#X connect 26 0 50 0;
#X connect 26 0 51 0;
#X connect 26 0 49 0;
#X connect 26 0 52 0;
#X connect 26 0 72 0;
#X connect 26 0 78 0;
#X connect 26 0 75 0;
#X connect 26 0 77 0;
#X connect 26 0 76 0;
#X connect 26 0 79 0;
#X connect 26 0 80 0;
#X connect 26 0 81 0;
#X connect 26 0 82 0;
#X connect 26 0 83 0;
#X connect 26 0 84 0;
#X connect 26 0 85 0;
#X connect 26 0 57 0;
#X connect 27 0 113 0;
#X connect 28 0 108 0;
#X connect 29 0 109 0;
#X connect 30 0 110 0;
#X connect 31 0 111 0;
#X connect 32 0 115 0;
#X connect 33 0 114 0;
#X connect 34 0 112 0;
#X connect 35 0 17 1;
#X connect 36 0 136 0;
#X connect 37 0 26 0;
#X connect 38 0 37 0;
#X connect 38 1 37 1;
#X connect 49 0 121 0;
#X connect 50 0 123 0;
#X connect 51 0 122 0;
#X connect 52 0 120 0;
#X connect 53 0 116 0;
#X connect 54 0 117 0;
#X connect 55 0 118 0;
#X connect 56 0 119 0;
#X connect 57 0 124 0;
#X connect 58 0 59 0;
#X connect 59 0 100 0;
#X connect 59 0 101 0;
#X connect 59 0 102 0;
#X connect 59 0 103 0;
#X connect 59 0 116 0;
#X connect 59 0 104 0;
#X connect 59 0 105 0;
#X connect 59 0 106 0;
#X connect 59 0 108 0;
#X connect 59 0 109 0;
#X connect 59 0 110 0;
#X connect 59 0 111 0;
#X connect 59 0 118 0;
#X connect 59 0 112 0;
#X connect 59 0 113 0;
#X connect 59 0 115 0;
#X connect 59 0 119 0;
#X connect 59 0 120 0;
#X connect 59 0 121 0;
#X connect 59 0 124 0;
#X connect 59 0 107 0;
#X connect 59 0 117 0;
#X connect 59 0 114 0;
#X connect 59 0 122 0;
#X connect 59 0 123 0;
#X connect 59 0 131 0;
#X connect 59 0 132 0;
#X connect 59 0 133 0;
#X connect 59 0 134 0;
#X connect 59 0 135 0;
#X connect 59 0 129 0;
#X connect 59 0 130 0;
#X connect 59 0 128 0;
#X connect 59 0 127 0;
#X connect 59 0 126 0;
#X connect 59 0 125 0;
#X connect 60 0 39 0;
#X connect 61 0 40 0;
#X connect 62 0 41 0;
#X connect 63 0 42 0;
#X connect 64 0 0 0;
#X connect 64 0 1 0;
#X connect 64 0 2 0;
#X connect 64 0 3 0;
#X connect 64 0 69 0;
#X connect 64 0 91 0;
#X connect 65 0 4 0;
#X connect 65 0 5 0;
#X connect 65 0 6 0;
#X connect 65 0 7 0;
#X connect 65 0 70 0;
#X connect 65 0 95 0;
#X connect 66 0 8 0;
#X connect 66 0 9 0;
#X connect 66 0 10 0;
#X connect 66 0 11 0;
#X connect 66 0 73 0;
#X connect 66 0 96 0;
#X connect 67 0 12 0;
#X connect 67 0 13 0;
#X connect 67 0 14 0;
#X connect 67 0 15 0;
#X connect 67 0 74 0;
#X connect 67 0 97 0;
#X connect 68 0 60 0;
#X connect 68 0 61 0;
#X connect 68 0 62 0;
#X connect 68 0 63 0;
#X connect 68 0 71 0;
#X connect 68 0 98 0;
#X connect 69 0 47 0;
#X connect 70 0 47 0;
#X connect 71 0 48 0;
#X connect 72 0 101 0;
#X connect 73 0 47 0;
#X connect 74 0 47 0;
#X connect 75 0 132 0;
#X connect 76 0 134 0;
#X connect 77 0 133 0;
#X connect 78 0 131 0;
#X connect 79 0 135 0;
#X connect 80 0 125 0;
#X connect 81 0 126 0;
#X connect 82 0 127 0;
#X connect 83 0 128 0;
#X connect 84 0 129 0;
#X connect 85 0 130 0;
#X connect 86 0 39 0;
#X connect 87 0 40 0;
#X connect 88 0 41 0;
#X connect 89 0 42 0;
#X connect 90 0 47 0;
#X connect 91 0 92 0;
#X connect 93 0 86 0;
#X connect 93 0 87 0;
#X connect 93 0 88 0;
#X connect 93 0 89 0;
#X connect 93 0 90 0;
#X connect 93 0 99 0;
#X connect 95 0 92 0;
#X connect 96 0 92 0;
#X connect 97 0 92 0;
#X connect 98 0 92 0;
#X connect 99 0 94 0;
#X connect 100 0 0 1;
#X connect 101 0 1 1;
#X connect 102 0 2 1;
#X connect 103 0 3 1;
#X connect 104 0 4 1;
#X connect 105 0 5 1;
#X connect 106 0 6 1;
#X connect 107 0 7 1;
#X connect 108 0 8 1;
#X connect 109 0 9 1;
#X connect 110 0 10 1;
#X connect 111 0 11 1;
#X connect 112 0 12 1;
#X connect 113 0 13 1;
#X connect 114 0 14 1;
#X connect 115 0 15 1;
#X connect 116 0 69 1;
#X connect 117 0 70 1;
#X connect 118 0 73 1;
#X connect 119 0 74 1;
#X connect 120 0 60 1;
#X connect 121 0 61 1;
#X connect 122 0 62 1;
#X connect 123 0 63 1;
#X connect 124 0 71 1;
#X connect 125 0 91 1;
#X connect 126 0 95 1;
#X connect 127 0 96 1;
#X connect 128 0 97 1;
#X connect 129 0 98 1;
#X connect 130 0 99 1;
#X connect 131 0 86 1;
#X connect 132 0 87 1;
#X connect 133 0 88 1;
#X connect 134 0 89 1;
#X connect 135 0 90 1;
#X connect 136 0 100 0;
#X connect 136 1 101 0;
#X connect 136 2 102 0;
#X connect 136 3 103 0;
#X connect 136 4 116 0;
#X connect 136 5 125 0;
#X connect 136 6 104 0;
#X connect 136 7 101 0;
#X connect 136 8 106 0;
#X connect 136 9 107 0;
#X connect 136 10 117 0;
#X connect 136 11 126 0;
#X connect 136 12 108 0;
#X connect 136 13 109 0;
#X connect 136 14 110 0;
#X connect 136 15 111 0;
#X connect 136 16 118 0;
#X connect 136 17 127 0;
#X connect 136 18 112 0;
#X connect 136 19 113 0;
#X connect 136 20 114 0;
#X connect 136 21 115 0;
#X connect 136 22 119 0;
#X connect 136 23 128 0;
#X connect 136 24 120 0;
#X connect 136 25 121 0;
#X connect 136 26 122 0;
#X connect 136 27 123 0;
#X connect 136 28 124 0;
#X connect 136 29 129 0;
#X connect 136 30 131 0;
#X connect 136 31 132 0;
#X connect 136 32 133 0;
#X connect 136 33 134 0;
#X connect 136 34 135 0;
#X connect 136 35 130 0;
#X connect 136 36 18 0;
#X connect 136 37 26 0;
#X connect 136 38 58 0;
#X coords 0 -1 1 1 120 120 2 100 100;
#X restore 810 200 pd matrix;
#N canvas 340 93 980 806 fm01 0;
#X obj 249 674 *~ 0.5;
#X obj 382 369 *~;
#X obj 362 680 *~;
#N canvas 775 218 450 397 asr 0;
#X msg 57 204 1 0;
#X msg 57 178 set 1 \$1;
#X obj 158 145 +;
#X obj 135 191 pipe;
#X floatatom 158 169 5 0 0 0 - - -, f 5;
#X msg 232 225 0 220.472;
#X msg 232 150 set 0 \$1;
#X obj 24 24 inlet;
#X obj 89 22 inlet;
#X obj 158 21 inlet;
#X obj 232 23 inlet;
#X obj 24 75 bng 15 250 50 0 empty empty empty 17 7 0 10 -262144 -1
-1;
#X floatatom 89 78 5 0 0 0 a - -, f 5;
#X floatatom 158 77 5 0 0 0 s - -, f 5;
#X floatatom 232 78 5 0 0 0 r - -, f 5;
#X obj 158 98 t b f;
#X obj 144 252 line~;
#X obj 144 276 outlet~;
#X connect 0 0 16 0;
#X connect 1 0 0 0;
#X connect 2 0 4 0;
#X connect 3 0 5 0;
#X connect 4 0 3 1;
#X connect 5 0 16 0;
#X connect 6 0 5 0;
#X connect 7 0 11 0;
#X connect 8 0 12 0;
#X connect 9 0 13 0;
#X connect 10 0 14 0;
#X connect 11 0 0 0;
#X connect 11 0 3 0;
#X connect 12 0 2 0;
#X connect 12 0 1 0;
#X connect 13 0 15 0;
#X connect 14 0 6 0;
#X connect 15 0 2 0;
#X connect 15 1 2 1;
#X connect 16 0 17 0;
#X restore 317 353 pd asr;
#N canvas 28 456 450 397 asr 0;
#X msg 57 204 1 7.87402;
#X msg 57 178 set 1 \$1;
#X obj 158 145 +;
#X obj 135 191 pipe;
#X floatatom 158 169 5 0 0 0 - - -, f 5;
#X msg 232 225 0 787.402;
#X msg 232 150 set 0 \$1;
#X obj 24 24 inlet;
#X obj 89 22 inlet;
#X obj 158 21 inlet;
#X obj 232 23 inlet;
#X obj 24 75 bng 15 250 50 0 empty empty empty 17 7 0 10 -262144 -1
-1;
#X floatatom 89 78 5 0 0 0 a - -, f 5;
#X floatatom 158 77 5 0 0 0 s - -, f 5;
#X floatatom 232 76 5 0 0 0 r - -, f 5;
#X obj 158 98 t b f;
#X obj 144 252 line~;
#X obj 144 276 outlet~;
#X connect 0 0 16 0;
#X connect 1 0 0 0;
#X connect 2 0 4 0;
#X connect 3 0 5 0;
#X connect 4 0 3 1;
#X connect 5 0 16 0;
#X connect 6 0 5 0;
#X connect 7 0 11 0;
#X connect 8 0 12 0;
#X connect 9 0 13 0;
#X connect 10 0 14 0;
#X connect 11 0 0 0;
#X connect 11 0 3 0;
#X connect 12 0 2 0;
#X connect 12 0 1 0;
#X connect 13 0 15 0;
#X connect 14 0 6 0;
#X connect 15 0 2 0;
#X connect 15 1 2 1;
#X connect 16 0 17 0;
#X restore 389 532 pd asr;
#X obj 251 549 osc~;
#X obj 250 615 *~;
#X obj 307 548 osc~;
#X obj 252 463 +~;
#X obj 308 510 +~;
#X obj 251 356 osc~;
#X obj 252 386 *~;
#X obj 503 380 *~;
#X obj 100 100 bng 30 250 50 0 empty empty 6 8 15 0 25 -262144 -4160
-1;
#X obj 100 130 tgl 30 0 empty empty empty 17 7 0 10 -228856 -1 -1 0
1;
#X obj 133 100 hsl 100 30 0 1 0 0 empty empty empty 10 15 0 10 -4160
-1 -1 0 1;
#X obj 160 132 vsl 15 55 0 1 0 1 empty empty -> 2 7 0 10 -203904 -258113
-1 2700 1;
#X obj 145 132 vsl 15 55 0 10000 0 1 empty empty >- 2 7 0 10 -203904
-258113 -1 2900 1;
#X obj 130 132 vsl 15 55 0 1000 0 1 empty empty >a 2 7 0 10 -203904
-258113 -1 500 1;
#X obj 256 100 hsl 128 15 0 127 0 1 empty empty mod 1975.53 10 7 0
10 -262144 -258113 -1 9500 1;
#X obj 256 130 hsl 128 15 0 1000 0 1 empty empty a 0 10 7 0 10 -262144
-258113 -1 0 1;
#X msg 663 133 label a \$1;
#X obj 256 145 hsl 128 15 0 1000 0 1 empty empty s 0 10 7 0 10 -262144
-258113 -1 0 1;
#X msg 664 150 label s \$1;
#X obj 256 160 hsl 128 15 0 2000 0 1 empty empty r 220.472 10 7 0
10 -262144 -258113 -1 1400 1;
#X msg 664 167 label r \$1;
#X obj 390 100 hsl 128 15 0 127 0 1 empty empty carr 73.8842 10 7
0 10 -262144 -258113 -1 3811 1;
#X msg 653 225 label carr \$1;
#X obj 390 130 hsl 128 15 0 1000 0 1 empty empty a 7.87402 10 7 0
10 -262144 -258113 -1 100 1;
#X msg 653 242 label a \$1;
#X obj 390 145 hsl 128 15 0 1000 0 1 empty empty s 0 10 7 0 10 -262144
-258113 -1 0 1;
#X msg 654 259 label s \$1;
#X obj 390 160 hsl 128 15 0 2000 0 1 empty empty r 787.402 10 7 0
10 -262144 -258113 -1 5000 1;
#X msg 654 276 label r \$1;
#X msg 663 116 label mod \$1;
#X obj 253 418 *~;
#X obj 256 175 hsl 128 15 0 2000 0 1 empty empty index 1212.6 10 7
0 10 -262144 -258113 -1 7700 1;
#X msg 664 184 label index \$1;
#X obj 387 115 nbx 5 15 -1e+37 1e+37 0 1 empty empty spr 30 7 0 10
-262144 -1 -1 80 256;
#X obj 390 175 hsl 128 15 0 1 0 1 empty empty amp 0.756772 10 7 0
10 -262144 -258113 -1 9611 1;
#X msg 654 293 label amp \$1;
#X obj 125 329 mtof;
#X obj 48 369 t b f;
#X obj 49 281 metro 100;
#X obj 48 304 random 100;
#X obj 48 329 pack f 50;
#X obj 48 349 line;
#X obj 122 281 random 6000;
#X obj 199 175 nbx 5 15 -1e+37 1e+37 0 1 empty empty sm -15 7 0 10
-203904 -1 -1 69 256;
#X obj 199 160 nbx 5 15 -1e+37 1e+37 0 1 empty empty ra -15 7 0 10
-203904 -1 -1 409 256;
#X obj 199 145 nbx 5 15 -1e+37 1e+37 0 1 empty empty ms -15 7 0 10
-203904 -1 -1 6902 256;
#X obj 48 404 +;
#X obj 250 581 +~;
#X obj 23 194 * 10;
#X obj 23 217 int;
#X obj 23 239 change;
#X floatatom 61 444 5 0 0 0 - - -, f 5;
#X obj 126 489 mtof;
#X obj 45 555 t b f;
#X obj 45 490 random 100;
#X obj 45 515 pack f 50;
#X obj 45 535 line;
#X obj 45 590 +;
#X obj 21 129 spigot;
#X obj 21 104 t b f;
#X obj 239 295 *;
#X obj 253 115 nbx 5 15 -1e+37 1e+37 0 1 empty empty empty 0 -8 0 10
-203904 -1 -1 1343 256;
#X obj 106 564 +;
#X obj 125 539 t b f;
#X obj 96 384 +;
#X obj 115 359 t b f;
#X obj 129 31 r \$0-/bang;
#X obj 504 356 r~ \$0-mod_r06a;
#X obj 383 331 r~ \$0-mod_r06;
#X obj 361 706 s~ \$0-out_r06;
#X obj 249 708 s~ \$0-out_06;
#X obj 129 56 route /s06 /b06 /t06;
#X connect 0 0 75 0;
#X connect 1 0 8 0;
#X connect 2 0 74 0;
#X connect 3 0 11 1;
#X connect 4 0 6 1;
#X connect 5 0 52 0;
#X connect 6 0 0 0;
#X connect 6 0 2 0;
#X connect 7 0 52 1;
#X connect 8 0 5 0;
#X connect 8 0 9 0;
#X connect 9 0 7 0;
#X connect 10 0 11 0;
#X connect 11 0 35 0;
#X connect 12 0 8 0;
#X connect 13 0 3 0;
#X connect 13 0 4 0;
#X connect 14 0 43 0;
#X connect 15 0 53 0;
#X connect 15 0 65 0;
#X connect 16 0 2 1;
#X connect 17 0 1 1;
#X connect 18 0 12 1;
#X connect 19 0 57 0;
#X connect 20 0 21 0;
#X connect 20 0 3 1;
#X connect 21 0 20 0;
#X connect 22 0 23 0;
#X connect 22 0 3 2;
#X connect 23 0 22 0;
#X connect 24 0 25 0;
#X connect 24 0 3 3;
#X connect 25 0 24 0;
#X connect 26 0 41 0;
#X connect 27 0 26 0;
#X connect 28 0 29 0;
#X connect 28 0 4 1;
#X connect 29 0 28 0;
#X connect 30 0 31 0;
#X connect 30 0 4 2;
#X connect 31 0 30 0;
#X connect 32 0 33 0;
#X connect 32 0 4 3;
#X connect 33 0 32 0;
#X connect 34 0 19 0;
#X connect 35 0 8 0;
#X connect 36 0 37 0;
#X connect 36 0 35 1;
#X connect 37 0 36 0;
#X connect 38 0 9 1;
#X connect 39 0 40 0;
#X connect 39 0 0 1;
#X connect 40 0 39 0;
#X connect 41 0 69 0;
#X connect 42 0 51 0;
#X connect 42 1 51 1;
#X connect 43 0 47 0;
#X connect 43 0 13 0;
#X connect 43 0 44 0;
#X connect 43 0 59 0;
#X connect 44 0 45 0;
#X connect 45 0 46 0;
#X connect 46 0 42 0;
#X connect 47 0 43 1;
#X connect 48 0 45 1;
#X connect 48 0 60 1;
#X connect 49 0 44 1;
#X connect 49 0 59 1;
#X connect 50 0 47 1;
#X connect 51 0 27 0;
#X connect 51 0 56 0;
#X connect 51 0 8 1;
#X connect 52 0 6 0;
#X connect 53 0 54 0;
#X connect 54 0 55 0;
#X connect 55 0 13 0;
#X connect 57 0 67 0;
#X connect 58 0 62 0;
#X connect 58 1 62 1;
#X connect 59 0 60 0;
#X connect 60 0 61 0;
#X connect 61 0 58 0;
#X connect 62 0 34 0;
#X connect 62 0 10 0;
#X connect 63 0 13 0;
#X connect 64 0 63 0;
#X connect 64 1 63 1;
#X connect 65 0 68 0;
#X connect 65 0 70 0;
#X connect 66 0 65 1;
#X connect 67 0 62 0;
#X connect 68 0 67 0;
#X connect 68 1 67 1;
#X connect 69 0 51 0;
#X connect 70 0 69 0;
#X connect 70 1 69 1;
#X connect 71 0 76 0;
#X connect 72 0 12 0;
#X connect 73 0 1 0;
#X connect 76 0 15 0;
#X connect 76 1 64 0;
#X connect 76 2 14 0;
#X coords 0 -1 1 1 420 90 2 100 100;
#X restore 444 494 pd fm01;
#N canvas 540 97 818 759 drum 0;
#X obj 190 516 osc~;
#X obj 255 100 hsl 128 15 0 127 0 1 empty empty penv 77.7817 10 7
0 10 -262144 -258113 -1 3900 1;
#X floatatom 362 398 0 0 0 0 - - -;
#X obj 191 353 mtof;
#X obj 255 130 hsl 128 15 0 127 0 1 empty empty frq 29.8268 10 7 0
10 -262144 -258113 -1 1700 1;
#X floatatom 191 408 5 0 0 0 - - -, f 5;
#X obj 191 437 +~;
#X obj 449 337 line~;
#X obj 445 403 *~;
#X obj 447 456 *~;
#X obj 446 429 lop~ 200;
#X msg 313 316 1 0;
#X obj 100 100 bng 30 250 50 0 empty empty 1 8 15 0 25 -262144 -4032
-1;
#X obj 302 284 del;
#X msg 320 257 0;
#X obj 255 115 hsl 128 15 1.27 800 0 1 empty empty penv_dec 13.8484
10 7 0 10 -262144 -258113 -1 200 1;
#X msg 449 275 set 0 \$1;
#X msg 449 301 0 13.8484;
#X obj 190 629 *~;
#X obj 255 160 hsl 128 15 1.27 1500 0 1 empty empty dec 1110.57 10
7 0 10 -262144 -258113 -1 9400 1;
#X msg 274 391 set 0 \$1;
#X msg 274 417 0 1110.57;
#X obj 275 502 line~;
#X obj 272 569 lop~ 120;
#X obj 271 541 *~;
#X obj 52 233 metro 1000;
#X obj 100 130 tgl 30 0 empty empty empty 17 7 0 10 -228856 -1 -1 0
1;
#X obj 190 683 *~ 0.5;
#X obj 255 175 hsl 128 15 0 1 0 1 empty empty amp 1 10 7 0 10 -262144
-258113 -1 12700 1;
#X obj 133 100 hsl 100 30 0 1 0 0 empty empty empty -2 -8 0 10 -4032
-1 -1 0 1;
#X msg 266 313 0;
#X obj 137 233 random 2000;
#X obj 511 30 spigot;
#X obj 237 100 tgl 15 1 empty empty empty 17 7 0 10 -204800 -1 -1 1
1;
#X obj 361 333 mtof;
#X obj 27 169 int;
#X obj 27 189 change;
#X obj 27 147 * 10;
#X obj 399 600 t b f;
#X obj 399 517 metro 100;
#X obj 237 130 tgl 15 1 empty empty empty 17 7 0 10 -204800 -1 -1 1
1;
#X obj 399 539 random 100;
#X obj 399 560 pack f 50;
#X obj 399 580 line;
#X obj 472 517 random 6000;
#X obj 198 175 nbx 5 15 -1e+37 1e+37 0 1 empty empty sm -15 7 0 10
-204800 -1 -1 80 256;
#X obj 198 160 nbx 5 15 -1e+37 1e+37 0 1 empty empty ra -15 7 0 10
-204800 -1 -1 53 256;
#X obj 198 145 nbx 5 15 -1e+37 1e+37 0 1 empty empty ms -15 7 0 10
-204800 -1 -1 2913 256;
#X obj 191 380 +;
#X msg 646 165 label frq \$1;
#X msg 647 189 label dec \$1;
#X msg 648 118 label penv \$1;
#X msg 648 213 label amp \$1;
#X msg 645 142 label penv_dec \$1;
#X obj 191 490 +~;
#X obj 159 460 *~;
#X obj 253 645 *~;
#X obj 160 132 vsl 15 55 0 1 0 0 empty empty -> 2 7 0 10 -204800 -258113
-1 0 1;
#X obj 145 132 vsl 15 55 0 10000 0 1 empty empty >- 2 7 0 10 -204800
-258113 -1 2100 1;
#X obj 130 132 vsl 15 55 0 1000 0 1 empty empty >a 2 7 0 10 -204800
-258113 -1 700 1;
#X obj 41 474 *~;
#X obj 190 721 s~ \$0-out_01;
#X obj 116 504 noise~;
#X obj 255 145 hsl 128 15 0 1 0 1 empty empty noise 10 8 0 10 -262144
-258113 -1 2200 1;
#X obj 217 578 *~;
#X obj 189 606 +~;
#X obj 23 112 spigot;
#X obj 23 91 t b f;
#X obj 511 75 - 2500;
#X obj 468 75 t b f;
#X obj 362 376 +;
#X obj 511 104 *;
#X obj 511 53 random 5001;
#X obj 369 265 t b f;
#X obj 43 524 +~ 1500;
#X obj 116 535 vcf~ 10;
#X obj 130 20 r \$0-/bang;
#X obj 130 45 route /s01 /b01 /t01;
#X obj 68 415 r~ \$0-mod_r01;
#X obj 42 448 r~ \$0-mod_r01a;
#X obj 300 693 s~ \$0-out_r01;
#X connect 0 0 65 0;
#X connect 1 0 34 0;
#X connect 2 0 51 0;
#X connect 2 0 9 1;
#X connect 3 0 48 0;
#X connect 4 0 3 0;
#X connect 5 0 6 0;
#X connect 5 0 49 0;
#X connect 6 0 54 0;
#X connect 7 0 8 1;
#X connect 7 0 8 0;
#X connect 8 0 10 0;
#X connect 9 0 6 1;
#X connect 10 0 9 0;
#X connect 11 0 7 0;
#X connect 11 0 22 0;
#X connect 12 0 11 0;
#X connect 12 0 13 0;
#X connect 12 0 14 0;
#X connect 12 0 30 0;
#X connect 12 0 32 0;
#X connect 13 0 17 0;
#X connect 13 0 21 0;
#X connect 14 0 13 1;
#X connect 15 0 16 0;
#X connect 15 0 53 0;
#X connect 16 0 17 0;
#X connect 17 0 7 0;
#X connect 18 0 27 0;
#X connect 18 0 56 0;
#X connect 19 0 20 0;
#X connect 19 0 50 0;
#X connect 20 0 21 0;
#X connect 21 0 22 0;
#X connect 22 0 24 0;
#X connect 22 0 24 1;
#X connect 23 0 18 1;
#X connect 24 0 23 0;
#X connect 25 0 12 0;
#X connect 25 0 31 0;
#X connect 26 0 25 0;
#X connect 27 0 61 0;
#X connect 28 0 27 1;
#X connect 28 0 52 0;
#X connect 29 0 37 0;
#X connect 30 0 0 1;
#X connect 31 0 25 1;
#X connect 32 0 72 0;
#X connect 33 0 32 1;
#X connect 33 0 69 0;
#X connect 34 0 70 0;
#X connect 35 0 36 0;
#X connect 36 0 12 0;
#X connect 37 0 35 0;
#X connect 38 0 48 0;
#X connect 38 1 48 1;
#X connect 39 0 41 0;
#X connect 39 0 44 0;
#X connect 40 0 39 0;
#X connect 41 0 42 0;
#X connect 42 0 43 0;
#X connect 43 0 38 0;
#X connect 44 0 39 1;
#X connect 45 0 42 1;
#X connect 46 0 41 1;
#X connect 47 0 44 1;
#X connect 47 0 31 1;
#X connect 48 0 5 0;
#X connect 49 0 4 0;
#X connect 50 0 19 0;
#X connect 51 0 1 0;
#X connect 52 0 28 0;
#X connect 53 0 15 0;
#X connect 54 0 0 0;
#X connect 54 0 74 0;
#X connect 55 0 54 1;
#X connect 56 0 80 0;
#X connect 57 0 56 1;
#X connect 58 0 55 1;
#X connect 59 0 60 1;
#X connect 60 0 54 1;
#X connect 62 0 75 0;
#X connect 63 0 64 1;
#X connect 64 0 65 1;
#X connect 65 0 18 0;
#X connect 66 0 12 0;
#X connect 67 0 66 0;
#X connect 67 1 66 1;
#X connect 68 0 71 0;
#X connect 69 0 71 0;
#X connect 69 1 71 1;
#X connect 70 0 2 0;
#X connect 71 0 70 1;
#X connect 71 0 73 0;
#X connect 72 0 68 0;
#X connect 73 0 70 0;
#X connect 73 1 70 1;
#X connect 74 0 75 1;
#X connect 75 1 64 0;
#X connect 76 0 77 0;
#X connect 77 0 29 0;
#X connect 77 1 67 0;
#X connect 77 2 26 0;
#X connect 78 0 55 0;
#X connect 79 0 60 0;
#X coords 0 -1 1 1 285 90 2 100 100;
#X restore 444 14 pd drum;
#N canvas 920 518 450 300 receive_OSC 0;
#X obj 92 58 udpreceive 54321;
#X obj 92 89 unpackOSC;
#X obj 92 150 s \$0-/bang;
#X obj 154 179 s \$0-/drone;
#X obj 216 213 s \$0-/mixer;
#X obj 278 247 s \$0-/matrix;
#X obj 92 122 routeOSC /bang /drone /mixer /matrix;
#X connect 0 0 1 0;
#X connect 1 0 6 0;
#X connect 6 0 2 0;
#X connect 6 1 3 0;
#X connect 6 2 4 0;
#X connect 6 3 5 0;
#X restore 123 382 pd receive_OSC;
#N canvas 447 93 980 806 fm01 0;
#X obj 249 674 *~ 0.5;
#X obj 382 369 *~;
#X obj 362 680 *~;
#N canvas 775 218 450 397 asr 0;
#X msg 57 204 1 661.417;
#X msg 57 178 set 1 \$1;
#X obj 158 145 +;
#X obj 135 191 pipe;
#X floatatom 158 169 5 0 0 0 - - -, f 5;
#X msg 232 225 0 1606.3;
#X msg 232 150 set 0 \$1;
#X obj 24 24 inlet;
#X obj 89 22 inlet;
#X obj 158 21 inlet;
#X obj 232 23 inlet;
#X obj 24 75 bng 15 250 50 0 empty empty empty 17 7 0 10 -262144 -1
-1;
#X floatatom 89 78 5 0 0 0 a - -, f 5;
#X floatatom 158 77 5 0 0 0 s - -, f 5;
#X floatatom 232 78 5 0 0 0 r - -, f 5;
#X obj 158 98 t b f;
#X obj 144 252 line~;
#X obj 144 276 outlet~;
#X connect 0 0 16 0;
#X connect 1 0 0 0;
#X connect 2 0 4 0;
#X connect 3 0 5 0;
#X connect 4 0 3 1;
#X connect 5 0 16 0;
#X connect 6 0 5 0;
#X connect 7 0 11 0;
#X connect 8 0 12 0;
#X connect 9 0 13 0;
#X connect 10 0 14 0;
#X connect 11 0 0 0;
#X connect 11 0 3 0;
#X connect 12 0 2 0;
#X connect 12 0 1 0;
#X connect 13 0 15 0;
#X connect 14 0 6 0;
#X connect 15 0 2 0;
#X connect 15 1 2 1;
#X connect 16 0 17 0;
#X restore 299 342 pd asr;
#N canvas 28 456 450 397 asr 0;
#X msg 57 204 1 417.323;
#X msg 57 178 set 1 \$1;
#X obj 158 145 +;
#X obj 135 191 pipe;
#X floatatom 158 169 5 0 0 0 - - -, f 5;
#X msg 232 225 0 803.15;
#X msg 232 150 set 0 \$1;
#X obj 24 24 inlet;
#X obj 89 22 inlet;
#X obj 158 21 inlet;
#X obj 232 23 inlet;
#X obj 24 75 bng 15 250 50 0 empty empty empty 17 7 0 10 -262144 -1
-1;
#X floatatom 89 78 5 0 0 0 a - -, f 5;
#X floatatom 158 77 5 0 0 0 s - -, f 5;
#X floatatom 232 76 5 0 0 0 r - -, f 5;
#X obj 158 98 t b f;
#X obj 144 252 line~;
#X obj 144 276 outlet~;
#X connect 0 0 16 0;
#X connect 1 0 0 0;
#X connect 2 0 4 0;
#X connect 3 0 5 0;
#X connect 4 0 3 1;
#X connect 5 0 16 0;
#X connect 6 0 5 0;
#X connect 7 0 11 0;
#X connect 8 0 12 0;
#X connect 9 0 13 0;
#X connect 10 0 14 0;
#X connect 11 0 0 0;
#X connect 11 0 3 0;
#X connect 12 0 2 0;
#X connect 12 0 1 0;
#X connect 13 0 15 0;
#X connect 14 0 6 0;
#X connect 15 0 2 0;
#X connect 15 1 2 1;
#X connect 16 0 17 0;
#X restore 747 486 pd asr;
#X obj 251 549 osc~;
#X obj 249 614 *~;
#X obj 307 548 osc~;
#X obj 252 463 +~;
#X obj 308 510 +~;
#X obj 257 342 osc~;
#X obj 257 380 *~;
#X obj 503 380 *~;
#X obj 100 100 bng 30 250 50 0 empty empty 5 8 15 0 25 -262144 -159808
-1;
#X obj 100 130 tgl 30 0 empty empty empty 17 7 0 10 -228856 -1 -1 0
1;
#X obj 133 100 hsl 100 30 0 1 0 0 empty empty empty 10 15 0 10 -159808
-1 -1 0 1;
#X obj 160 132 vsl 15 55 0 1 0 1 empty empty -> 2 7 0 10 -232576 -258113
-1 1600 1;
#X obj 145 132 vsl 15 55 0 10000 0 1 empty empty >- 2 7 0 10 -232576
-258113 -1 2300 1;
#X obj 130 132 vsl 15 55 0 1000 0 1 empty empty >a 2 7 0 10 -232576
-258113 -1 500 1;
#X obj 257 100 hsl 128 15 0 127 0 1 empty empty mod 2134.83 10 7 0
10 -262144 -258113 -1 1700 1;
#X obj 255 130 hsl 128 15 0 1000 0 1 empty empty a 661.417 10 7 0
10 -262144 -258113 -1 8400 1;
#X msg 663 133 label a \$1;
#X obj 255 145 hsl 128 15 0 1000 0 1 empty empty s 543.307 10 7 0
10 -262144 -258113 -1 6900 1;
#X msg 664 150 label s \$1;
#X obj 255 160 hsl 128 15 0 2000 0 1 empty empty r 1606.3 10 7 0 10
-262144 -258113 -1 10200 1;
#X msg 664 167 label r \$1;
#X obj 460 100 hsl 128 15 0 127 0 1 empty empty carr 18.354 10 7 0
10 -262144 -258113 -1 1400 1;
#X msg 653 225 label carr \$1;
#X obj 460 130 hsl 128 15 0 1000 0 1 empty empty a 417.323 10 7 0
10 -262144 -258113 -1 5300 1;
#X msg 653 242 label a \$1;
#X obj 460 145 hsl 128 15 0 1000 0 1 empty empty s 0 10 7 0 10 -262144
-258113 -1 0 1;
#X msg 654 259 label s \$1;
#X obj 460 160 hsl 128 15 0 2000 0 1 empty empty r 803.15 10 7 0 10
-262144 -258113 -1 5100 1;
#X msg 654 276 label r \$1;
#X msg 664 116 label mod \$1;
#X obj 253 418 *~;
#X obj 255 175 hsl 128 15 0 2000 0 1 empty empty index 1023.62 10
7 0 10 -262144 -258113 -1 6500 1;
#X msg 664 184 label index \$1;
#X obj 457 115 nbx 5 15 -1e+37 1e+37 0 1 empty empty spr 30 7 0 10
-262144 -1 -1 80 256;
#X obj 460 175 hsl 128 15 0 1 0 1 empty empty amp 0.77252 10 7 0 10
-262144 -258113 -1 9811 1;
#X msg 654 293 label amp \$1;
#X obj 583 485 mtof;
#X obj 506 525 t b f;
#X obj 507 437 metro 100;
#X obj 506 460 random 100;
#X obj 506 485 pack f 50;
#X obj 506 505 line;
#X obj 577 437 random 6000;
#X obj 403 175 nbx 5 15 -1e+37 1e+37 0 1 empty empty sm -15 7 0 10
-232576 -1 -1 90 256;
#X obj 403 160 nbx 5 15 -1e+37 1e+37 0 1 empty empty ra -15 7 0 10
-232576 -1 -1 174 256;
#X obj 403 145 nbx 5 15 -1e+37 1e+37 0 1 empty empty ms -15 7 0 10
-232576 -1 -1 8000 256;
#X obj 506 560 +;
#X obj 250 581 +~;
#X obj 23 194 * 10;
#X obj 23 217 int;
#X obj 23 239 change;
#X obj 185 354 mtof;
#X obj 28 424 t b f;
#X obj 28 359 random 100;
#X obj 28 384 pack f 50;
#X obj 28 404 line;
#X obj 28 473 +;
#X obj 21 129 spigot;
#X obj 21 104 t b f;
#X obj 495 318 *;
#X obj 403 100 nbx 5 15 -1e+37 1e+37 0 1 empty empty empty 0 -8 0 10
-262144 -1 -1 138 256;
#X obj 554 540 +;
#X obj 573 515 t b f;
#X obj 129 31 r \$0-/bang;
#X obj 249 708 s~ \$0-out_05;
#X obj 129 56 route /s05 /b05 /t05;
#X obj 361 706 s~ \$0-out_r05;
#X obj 504 356 r~ \$0-mod_r05a;
#X obj 29 333 metro 100;
#X obj 90 309 random 6000;
#X obj 198 175 nbx 5 15 -1e+37 1e+37 0 1 empty empty sm -15 7 0 10
-262144 -1 -1 12 256;
#X obj 198 160 nbx 5 15 -1e+37 1e+37 0 1 empty empty ra -15 7 0 10
-262144 -1 -1 3192 256;
#X obj 198 130 nbx 5 15 -1e+37 1e+37 0 1 empty empty empty -15 7 0
10 -262144 -1 -1 416 256;
#X obj 183 130 tgl 15 1 empty empty empty 17 7 0 10 -232576 -1 -1 1
1;
#X floatatom 120 522 5 0 0 0 - - -, f 5;
#X obj 198 145 nbx 5 15 -1e+37 1e+37 0 1 empty empty ms -15 7 0 10
-262144 -1 -1 110 256;
#X obj 82 466 expr $f1*(-$f2)+$f2+$f3;
#X obj 383 335 r~ \$0-mod_r05;
#X connect 0 0 69 0;
#X connect 1 0 8 0;
#X connect 2 0 71 0;
#X connect 3 0 11 1;
#X connect 4 0 6 1;
#X connect 5 0 52 0;
#X connect 6 0 0 0;
#X connect 6 0 2 0;
#X connect 7 0 52 1;
#X connect 8 0 5 0;
#X connect 8 0 9 0;
#X connect 9 0 7 0;
#X connect 10 0 11 0;
#X connect 11 0 35 0;
#X connect 12 0 8 0;
#X connect 13 0 3 0;
#X connect 13 0 4 0;
#X connect 14 0 43 0;
#X connect 15 0 53 0;
#X connect 15 0 64 0;
#X connect 15 0 81 0;
#X connect 16 0 2 1;
#X connect 17 0 1 1;
#X connect 18 0 12 1;
#X connect 19 0 56 0;
#X connect 20 0 21 0;
#X connect 20 0 3 1;
#X connect 21 0 20 0;
#X connect 22 0 23 0;
#X connect 22 0 3 2;
#X connect 23 0 22 0;
#X connect 24 0 25 0;
#X connect 24 0 3 3;
#X connect 25 0 24 0;
#X connect 26 0 41 0;
#X connect 27 0 26 0;
#X connect 28 0 29 0;
#X connect 28 0 4 1;
#X connect 29 0 28 0;
#X connect 30 0 31 0;
#X connect 30 0 4 2;
#X connect 31 0 30 0;
#X connect 32 0 33 0;
#X connect 32 0 4 3;
#X connect 33 0 32 0;
#X connect 34 0 19 0;
#X connect 35 0 8 0;
#X connect 36 0 37 0;
#X connect 36 0 35 1;
#X connect 37 0 36 0;
#X connect 38 0 9 1;
#X connect 39 0 40 0;
#X connect 39 0 0 1;
#X connect 40 0 39 0;
#X connect 41 0 66 0;
#X connect 42 0 51 0;
#X connect 42 1 51 1;
#X connect 43 0 47 0;
#X connect 43 0 13 0;
#X connect 43 0 44 0;
#X connect 44 0 45 0;
#X connect 45 0 46 0;
#X connect 46 0 42 0;
#X connect 47 0 43 1;
#X connect 48 0 45 1;
#X connect 49 0 44 1;
#X connect 50 0 47 1;
#X connect 51 0 27 0;
#X connect 51 0 8 1;
#X connect 52 0 6 0;
#X connect 53 0 54 0;
#X connect 54 0 55 0;
#X connect 55 0 13 0;
#X connect 56 0 61 0;
#X connect 57 0 61 0;
#X connect 57 1 61 1;
#X connect 58 0 59 0;
#X connect 59 0 60 0;
#X connect 60 0 57 0;
#X connect 61 0 34 0;
#X connect 61 0 10 0;
#X connect 62 0 13 0;
#X connect 63 0 62 0;
#X connect 63 1 62 1;
#X connect 64 0 67 0;
#X connect 65 0 64 1;
#X connect 66 0 51 0;
#X connect 67 0 66 0;
#X connect 67 1 66 1;
#X connect 68 0 70 0;
#X connect 70 0 15 0;
#X connect 70 1 63 0;
#X connect 70 2 14 0;
#X connect 72 0 12 0;
#X connect 73 0 74 0;
#X connect 73 0 58 0;
#X connect 74 0 73 1;
#X connect 75 0 59 1;
#X connect 76 0 58 1;
#X connect 77 0 81 1;
#X connect 78 0 73 0;
#X connect 80 0 81 2;
#X connect 81 0 79 0;
#X connect 81 0 74 1;
#X connect 82 0 1 0;
#X coords 0 -1 1 1 490 90 2 100 100;
#X restore 444 401 pd fm01;
#N canvas 482 95 818 759 drum 0;
#X obj 255 100 hsl 128 15 0 127 0 1 empty empty penv 1108.73 10 7
0 10 -262144 -258113 -1 8500 1;
#X floatatom 387 355 0 0 0 0 - - -;
#X obj 191 353 mtof;
#X obj 255 130 hsl 128 15 0 127 0 1 empty empty frq 148.813 10 7 0
10 -262144 -258113 -1 4800 1;
#X floatatom 191 408 5 0 0 0 - - -, f 5;
#X obj 191 437 +~;
#X obj 457 290 line~;
#X obj 453 336 *~;
#X obj 455 389 *~;
#X obj 454 362 lop~ 200;
#X msg 311 311 1 0;
#X obj 100 100 bng 30 250 50 0 empty empty 2 8 15 0 25 -262144 -257985
-1;
#X obj 302 284 del;
#X msg 320 257 0;
#X obj 255 115 hsl 128 15 1.27 800 0 1 empty empty penv_dec 32.7161
10 7 0 10 -262144 -258113 -1 500 1;
#X msg 457 228 set 0 \$1;
#X msg 457 254 0 32.7161;
#X obj 190 646 *~;
#X obj 255 160 hsl 128 15 1.27 1500 0 1 empty empty dec 154.683 10
7 0 10 -262144 -258113 -1 1300 1;
#X msg 274 391 set 0 \$1;
#X msg 274 417 0 154.683;
#X obj 275 502 line~;
#X obj 272 577 lop~ 120;
#X obj 271 541 *~;
#X obj 52 233 metro 1000;
#X obj 100 130 tgl 30 0 empty empty empty 17 7 0 10 -228856 -1 -1 0
1;
#X obj 190 683 *~ 0.5;
#X obj 255 175 hsl 128 15 0 1 0 1 empty empty amp 1 10 7 0 10 -262144
-258113 -1 12700 1;
#X obj 133 100 hsl 100 30 0 1 0 0 empty empty empty -2 -8 0 10 -257985
-1 -1 0 1;
#X msg 266 313 0;
#X obj 137 233 random 2000;
#X obj 511 30 spigot;
#X obj 237 100 tgl 15 1 empty empty empty 17 7 0 10 -262130 -1 -1 1
1;
#X obj 359 280 mtof;
#X obj 27 169 int;
#X obj 27 189 change;
#X obj 27 147 * 10;
#X obj 399 600 t b f;
#X obj 399 517 metro 100;
#X obj 237 130 tgl 15 1 empty empty empty 17 7 0 10 -262130 -1 -1 1
1;
#X obj 399 539 random 100;
#X obj 399 560 pack f 50;
#X obj 399 580 line;
#X obj 472 517 random 6000;
#X obj 198 175 nbx 5 15 -1e+37 1e+37 0 1 empty empty sm -15 7 0 10
-203904 -1 -1 80 256;
#X obj 198 160 nbx 5 15 -1e+37 1e+37 0 1 empty empty ra -15 7 0 10
-262130 -1 -1 53 256;
#X obj 198 145 nbx 5 15 -1e+37 1e+37 0 1 empty empty ms -15 7 0 10
-262130 -1 -1 2913 256;
#X obj 191 380 +;
#X msg 646 165 label frq \$1;
#X msg 647 189 label dec \$1;
#X msg 648 118 label penv \$1;
#X msg 648 213 label amp \$1;
#X msg 645 142 label penv_dec \$1;
#X obj 130 465 +~;
#X obj 148 438 *~;
#X obj 253 662 *~;
#X obj 160 132 vsl 15 55 0 1 0 0 empty empty -> 2 7 0 10 -262130 -258113
-1 0 1;
#X obj 145 132 vsl 15 55 0 10000 0 1 empty empty >- 2 7 0 10 -262130
-258113 -1 2100 1;
#X obj 130 132 vsl 15 55 0 1000 0 1 empty empty >a 2 7 0 10 -262130
-258113 -1 800 1;
#X obj 39 460 *~;
#X obj 58 495 noise~;
#X obj 255 145 hsl 128 15 0 1 0 1 empty empty noise 10 8 0 10 -262144
-258113 -1 12700 1;
#X obj 217 597 *~;
#X obj 189 623 +~;
#X obj 23 112 spigot;
#X obj 23 91 t b f;
#X obj 511 75 - 2500;
#X obj 468 75 t b f;
#X obj 387 333 +;
#X obj 511 104 *;
#X obj 511 53 random 5001;
#X obj 395 280 t b f;
#X obj 81 527 +~ 1500;
#X obj 58 548 vcf~ 10;
#X obj 130 20 r \$0-/bang;
#X obj 217 466 phasor~;
#X obj 165 491 osc~;
#X obj 178 130 hsl 55 15 0 -1 0 1 empty empty sine-saw 3 7 0 10 -262144
-258113 -1 2400 1;
#X obj 219 572 *~;
#X obj 183 525 + 1;
#X obj 165 558 *~;
#X obj 237 546 * -1;
#X obj 217 490 *~ -2;
#X obj 218 515 +~ 1;
#X obj 66 400 r~ \$0-mod_r02;
#X obj 40 438 r~ \$0-mod_r02a;
#X obj 252 683 s~ \$0-out_r02;
#X obj 190 721 s~ \$0-out_02;
#X obj 130 45 route /s02 /b02 /t02;
#X connect 0 0 33 0;
#X connect 1 0 50 0;
#X connect 1 0 8 1;
#X connect 2 0 47 0;
#X connect 3 0 2 0;
#X connect 4 0 5 0;
#X connect 4 0 48 0;
#X connect 5 0 53 0;
#X connect 6 0 7 1;
#X connect 6 0 7 0;
#X connect 7 0 9 0;
#X connect 8 0 5 1;
#X connect 9 0 8 0;
#X connect 10 0 6 0;
#X connect 10 0 21 0;
#X connect 11 0 10 0;
#X connect 11 0 12 0;
#X connect 11 0 13 0;
#X connect 11 0 29 0;
#X connect 11 0 31 0;
#X connect 12 0 16 0;
#X connect 12 0 20 0;
#X connect 13 0 12 1;
#X connect 14 0 15 0;
#X connect 14 0 52 0;
#X connect 15 0 16 0;
#X connect 16 0 6 0;
#X connect 17 0 26 0;
#X connect 17 0 55 0;
#X connect 18 0 19 0;
#X connect 18 0 49 0;
#X connect 19 0 20 0;
#X connect 20 0 21 0;
#X connect 21 0 23 0;
#X connect 21 0 23 1;
#X connect 22 0 17 1;
#X connect 23 0 22 0;
#X connect 24 0 11 0;
#X connect 24 0 30 0;
#X connect 25 0 24 0;
#X connect 26 0 87 0;
#X connect 27 0 26 1;
#X connect 27 0 51 0;
#X connect 28 0 36 0;
#X connect 29 0 76 1;
#X connect 29 0 75 1;
#X connect 30 0 24 1;
#X connect 31 0 70 0;
#X connect 32 0 31 1;
#X connect 32 0 67 0;
#X connect 33 0 68 0;
#X connect 34 0 35 0;
#X connect 35 0 11 0;
#X connect 36 0 34 0;
#X connect 37 0 47 0;
#X connect 37 1 47 1;
#X connect 38 0 40 0;
#X connect 38 0 43 0;
#X connect 39 0 38 0;
#X connect 40 0 41 0;
#X connect 41 0 42 0;
#X connect 42 0 37 0;
#X connect 43 0 38 1;
#X connect 44 0 41 1;
#X connect 45 0 40 1;
#X connect 46 0 43 1;
#X connect 46 0 30 1;
#X connect 47 0 4 0;
#X connect 48 0 3 0;
#X connect 49 0 18 0;
#X connect 50 0 0 0;
#X connect 51 0 27 0;
#X connect 52 0 14 0;
#X connect 53 0 72 0;
#X connect 53 0 75 0;
#X connect 53 0 76 0;
#X connect 54 0 53 1;
#X connect 55 0 86 0;
#X connect 56 0 55 1;
#X connect 57 0 54 1;
#X connect 58 0 59 1;
#X connect 59 0 53 1;
#X connect 60 0 73 0;
#X connect 61 0 62 1;
#X connect 62 0 63 1;
#X connect 63 0 17 0;
#X connect 64 0 11 0;
#X connect 65 0 64 0;
#X connect 65 1 64 1;
#X connect 66 0 69 0;
#X connect 67 0 69 0;
#X connect 67 1 69 1;
#X connect 68 0 1 0;
#X connect 69 0 68 1;
#X connect 69 0 71 0;
#X connect 70 0 66 0;
#X connect 71 0 68 0;
#X connect 71 1 68 1;
#X connect 72 0 73 1;
#X connect 73 1 62 0;
#X connect 74 0 88 0;
#X connect 75 0 82 0;
#X connect 76 0 80 0;
#X connect 77 0 79 0;
#X connect 77 0 81 0;
#X connect 78 0 63 0;
#X connect 79 0 80 1;
#X connect 80 0 63 0;
#X connect 81 0 78 1;
#X connect 82 0 83 0;
#X connect 83 0 78 0;
#X connect 84 0 54 0;
#X connect 85 0 59 0;
#X connect 88 0 28 0;
#X connect 88 1 65 0;
#X connect 88 2 25 0;
#X coords 0 -1 1 1 285 90 2 100 100;
#X restore 444 107 pd drum;
#X connect 3 0 4 0;
#X connect 3 1 4 1;
