#N canvas 408 75 580 661 10;
#X obj 122 93 bng 30 250 50 0 empty empty empty 0 -6 0 8 -262144 -258113
-1;
#X floatatom 223 230 5 0 0 0 - - -, f 5;
#X obj 164 244 del;
#X msg 131 268 1;
#X msg 164 268 0;
#X obj 45 261 noise~;
#X obj 45 338 *~;
#X obj 223 264 vd~ buffer 100;
#X floatatom 106 457 5 0 0 0 - - -, f 5;
#X obj 207 622 dac~;
#X obj 46 532 delwrite~ buffer 1000;
#X obj 223 307 *~ 0.5;
#X obj 224 356 +~;
#X obj 223 199 expr 44100/($f1*1.09545)*0.025;
#X floatatom 223 178 5 0 0 0 - - -, f 5;
#X obj 122 35 metro 2000;
#X obj 122 65 random 2000;
#X obj 122 7 tgl 15 0 empty empty empty 17 7 0 10 -262144 -1 -1 1 1
;
#X obj 106 396 random 1000;
#X obj 106 418 expr $f1 / 10000 + 0.9;
#X obj 338 476 hsl 128 15 0 1 0 0 empty empty empty -2 -8 0 10 -262144
-1 -1 6100 1;
#X floatatom 335 499 5 0 0 0 - - -, f 5;
#X obj 206 589 *~ 0.5;
#X obj 299 15 hsl 100 15 0 100 0 0 empty empty empty -2 -8 0 10 -262144
-1 -1 0 1;
#X obj 60 481 *~ 0.99;
#X obj 310 296 z~ 1;
#X obj 311 316 *~ 0.5;
#X obj 223 131 random 425;
#X obj 223 154 + 25;
#X obj 205 530 vcf~ 10;
#X obj 412 300 random 12500;
#X obj 412 327 + 250;
#X obj 412 376 line;
#X obj 412 350 pack \$1 400;
#X connect 0 0 2 0;
#X connect 0 0 3 0;
#X connect 0 0 18 0;
#X connect 0 0 27 0;
#X connect 0 0 30 0;
#X connect 1 0 2 1;
#X connect 1 0 7 0;
#X connect 2 0 4 0;
#X connect 3 0 6 1;
#X connect 4 0 6 1;
#X connect 5 0 6 0;
#X connect 6 0 10 0;
#X connect 7 0 11 0;
#X connect 7 0 25 0;
#X connect 8 0 24 1;
#X connect 11 0 12 0;
#X connect 12 0 24 0;
#X connect 13 0 1 0;
#X connect 14 0 13 0;
#X connect 15 0 16 0;
#X connect 16 0 15 1;
#X connect 16 0 0 0;
#X connect 17 0 15 0;
#X connect 18 0 19 0;
#X connect 19 0 8 0;
#X connect 20 0 21 0;
#X connect 21 0 22 1;
#X connect 22 0 9 0;
#X connect 22 0 9 1;
#X connect 23 0 0 0;
#X connect 24 0 10 0;
#X connect 24 0 29 0;
#X connect 25 0 26 0;
#X connect 26 0 12 1;
#X connect 27 0 28 0;
#X connect 28 0 14 0;
#X connect 29 0 22 0;
#X connect 29 1 22 0;
#X connect 30 0 31 0;
#X connect 31 0 33 0;
#X connect 32 0 29 1;
#X connect 33 0 32 0;
