#N canvas 285 75 869 813 10;
#X obj 100 105 bng 30 250 50 0 empty empty 6 8 15 0 25 -262144 -4032
-1;
#X obj 470 378 del;
#X msg 437 402 1;
#X msg 470 402 0;
#X obj 380 373 noise~;
#X obj 381 465 *~;
#X floatatom 486 579 5 0 0 0 - - -, f 5;
#X obj 506 460 *~ 0.5;
#X obj 566 452 z~ 1;
#X obj 567 472 *~ 0.5;
#X obj 507 495 +~;
#X obj 524 343 expr 44100/($f1*1.09545)*0.025;
#X obj 100 135 tgl 30 0 empty empty empty 17 7 0 10 -228856 -1 -1 1
1;
#X obj 486 531 random 1000;
#X obj 486 553 expr $f1 / 10000 + 0.9;
#X obj 300 120 hsl 128 15 0 1 0 1 empty empty kp_amp 0.748031 10 7
0 10 -262144 -258113 -1 9500 1;
#X obj 133 105 hsl 100 30 0 1 0 0 empty empty empty -2 -8 0 10 -4032
-1 -1 0 1;
#X obj 440 604 *~ 0.99;
#X obj 16 159 int;
#X obj 16 176 change;
#X obj 16 139 * 10;
#X obj 300 105 hsl 128 15 0 127 0 1 empty empty kp_frq 220 10 8 0
10 -262144 -258113 -1 5700 1;
#X obj 439 237 mtof;
#X obj 248 336 t b f;
#X obj 252 224 metro 100;
#X obj 251 247 random 100;
#X obj 251 272 pack f 50;
#X obj 252 293 line;
#X obj 325 224 random 6000;
#X obj 199 180 nbx 5 15 -1e+37 1e+37 0 1 empty empty sm -15 7 0 10
-262144 -1 -1 100 256;
#X obj 199 165 nbx 5 15 -1e+37 1e+37 0 1 empty empty ra -15 7 0 10
-262144 -1 -1 300 256;
#X obj 199 150 nbx 5 15 -1e+37 1e+37 0 1 empty empty ms -15 7 0 10
-262144 -1 -1 3489 256;
#X obj 469 305 +;
#X obj 531 309 *~;
#X obj 153 693 *~;
#X obj 160 137 vsl 15 55 0 1 0 1 empty empty -> 2 7 0 10 -204800 -258113
-1 1700 1;
#X obj 145 137 vsl 15 55 0 5 0 1 empty empty >- 2 7 0 10 -204800 -258113
-1 2500 1;
#X obj 130 137 vsl 15 55 0 5 0 1 empty empty >a 2 7 0 10 -204800 -258113
-1 3900 1;
#X obj 495 243 *~;
#X obj 505 401 +~;
#X obj 524 374 sig~;
#X obj 13 109 spigot;
#X obj 13 84 t b f;
#X obj 225 554 osc~;
#X obj 226 617 *~;
#X obj 272 675 +~;
#X obj 243 460 line~;
#X obj 243 438 pack f 200;
#X obj 225 518 +~;
#X obj 270 569 osc~;
#X obj 271 544 +~;
#X obj 244 412 +;
#X obj 289 514 +~;
#X obj 17 235 bng 15 250 50 0 empty empty empty 17 7 0 10 -262144 -1
-1;
#X msg 17 327 0 0;
#X msg 25 301 set \$1 0;
#X obj 225 591 +~;
#X msg 56 327 0 500;
#X obj 25 264 > 0;
#X obj 321 438 random 10;
#X obj 322 460 - 5;
#X obj 244 387 * 400;
#X obj 224 493 *~ 20000;
#X obj 156 476 *~;
#X obj 300 165 hsl 128 15 0 5000 0 1 empty empty noise_ind 3149.61
10 7 0 10 -262144 -258113 -1 8000 1;
#X obj 157 501 *~;
#X msg 705 195 label kp_frq \$1;
#X obj 300 150 hsl 128 15 0 127 0 1 empty empty noise_frq 164.814
10 8 0 10 -262144 -258113 -1 5200 1;
#X obj 429 218 mtof;
#X msg 704 232 label noise_frq \$1;
#X msg 706 266 label noise_ind \$1;
#X obj 300 180 hsl 128 15 0 1 0 1 empty empty noise_amp 0.905512 10
7 0 10 -262144 -258113 -1 11500 1;
#X msg 705 284 label noise_amp \$1;
#X msg 705 215 label kp_amp \$1;
#X obj 117 575 *~;
#X obj 17 367 line;
#X obj 17 398 *;
#X obj 118 551 *~;
#X obj 137 406 +~;
#X obj 138 371 *~ 10000;
#X obj 150 312 t b f;
#X obj 150 285 - 50;
#X obj 150 263 random 100;
#X obj 248 359 +;
#X obj 301 628 *~;
#X obj 300 135 hsl 128 15 0 1 0 1 empty empty osc_amp 0.834646 10
7 0 10 -262144 -258113 -1 10600 1;
#X msg 704 249 label osc_amp \$1;
#X obj 225 642 *~;
#X obj 326 320 expr~ $v1*$v2*1000;
#X obj 118 440 vcf~ 5;
#X msg 67 265 set 0 \$1;
#X obj 194 135 hsl 101 15 0 2000 0 1 empty empty osc_dec 500 10 7
0 10 -262144 -258113 -1 2500 1;
#X msg 677 140 label osc_dec \$1;
#X obj 252 315 spigot;
#X obj 243 120 tgl 15 0 empty empty empty 17 7 0 10 -204800 -1 -1 0
1;
#X obj 243 105 nbx 5 15 -1e+37 1e+37 0 1 empty empty empty 0 -8 0 10
-204800 -1 -1 114 256;
#X obj 377 276 *;
#X obj 377 249 t b f;
#X obj 429 262 t b f;
#X obj 429 289 +;
#X floatatom 661 385 5 0 0 0 - - -, f 5;
#X obj 661 496 metro;
#X obj 661 460 > 0;
#X obj 732 496 random 500;
#X obj 799 461 expr 3000/$f1;
#X obj 650 44 inlet;
#X obj 708 26 inlet;
#X text 648 26 tgl-rnd;
#X text 754 28 OSC-bang;
#X text 154 740 mixer;
#X text 276 739 fm-out;
#X text 580 250 fm-in;
#X text 548 218 fm-fb;
#X obj 152 720 outlet~;
#X obj 272 718 outlet~;
#X obj 495 216 inlet~;
#X obj 532 252 inlet~;
#X obj 708 51 route /s06 /b06 /t06;
#X obj 383 645 delwrite~ karp06 1000;
#X obj 506 424 vd~ karp06 1000;
#X connect 0 0 1 0;
#X connect 0 0 2 0;
#X connect 0 0 13 0;
#X connect 0 0 25 0;
#X connect 0 0 59 0;
#X connect 0 0 53 0;
#X connect 0 0 82 0;
#X connect 1 0 3 0;
#X connect 2 0 5 1;
#X connect 3 0 5 1;
#X connect 4 0 5 0;
#X connect 4 0 89 0;
#X connect 5 0 118 0;
#X connect 6 0 17 1;
#X connect 7 0 10 0;
#X connect 8 0 9 0;
#X connect 9 0 10 1;
#X connect 10 0 17 0;
#X connect 11 0 1 1;
#X connect 11 0 40 0;
#X connect 12 0 24 0;
#X connect 13 0 14 0;
#X connect 14 0 6 0;
#X connect 15 0 73 0;
#X connect 15 0 84 1;
#X connect 16 0 20 0;
#X connect 16 0 58 0;
#X connect 16 0 61 0;
#X connect 16 0 76 1;
#X connect 16 0 96 0;
#X connect 17 0 62 0;
#X connect 17 0 79 0;
#X connect 17 0 84 0;
#X connect 17 0 118 0;
#X connect 18 0 19 0;
#X connect 19 0 0 0;
#X connect 19 0 100 0;
#X connect 20 0 18 0;
#X connect 21 0 22 0;
#X connect 22 0 99 0;
#X connect 23 0 32 0;
#X connect 23 0 83 0;
#X connect 23 1 32 1;
#X connect 23 1 83 1;
#X connect 24 0 28 0;
#X connect 24 0 0 0;
#X connect 25 0 26 0;
#X connect 26 0 27 0;
#X connect 27 0 93 0;
#X connect 28 0 24 1;
#X connect 29 0 26 1;
#X connect 30 0 25 1;
#X connect 31 0 28 1;
#X connect 32 0 66 0;
#X connect 32 0 11 0;
#X connect 33 0 39 0;
#X connect 34 0 113 0;
#X connect 35 0 34 1;
#X connect 36 0 33 1;
#X connect 36 0 88 0;
#X connect 37 0 38 1;
#X connect 38 0 39 0;
#X connect 39 0 119 0;
#X connect 40 0 39 1;
#X connect 41 0 0 0;
#X connect 42 0 41 0;
#X connect 42 1 41 1;
#X connect 43 0 56 0;
#X connect 44 0 87 0;
#X connect 45 0 34 0;
#X connect 45 0 114 0;
#X connect 46 0 48 1;
#X connect 46 0 52 0;
#X connect 47 0 46 0;
#X connect 48 0 50 0;
#X connect 48 0 43 0;
#X connect 49 0 56 1;
#X connect 50 0 49 0;
#X connect 51 0 47 0;
#X connect 52 0 50 1;
#X connect 53 0 54 0;
#X connect 53 0 57 0;
#X connect 54 0 75 0;
#X connect 55 0 54 0;
#X connect 56 0 44 0;
#X connect 57 0 75 0;
#X connect 58 0 55 0;
#X connect 59 0 60 0;
#X connect 60 0 52 1;
#X connect 61 0 51 0;
#X connect 62 0 48 0;
#X connect 63 0 65 0;
#X connect 64 0 70 0;
#X connect 64 0 65 1;
#X connect 65 0 48 0;
#X connect 66 0 21 0;
#X connect 67 0 68 0;
#X connect 68 0 83 0;
#X connect 69 0 67 0;
#X connect 70 0 64 0;
#X connect 71 0 72 0;
#X connect 71 0 74 1;
#X connect 72 0 71 0;
#X connect 73 0 15 0;
#X connect 74 0 45 0;
#X connect 75 0 76 0;
#X connect 75 0 63 1;
#X connect 76 0 44 1;
#X connect 76 0 77 1;
#X connect 77 0 74 0;
#X connect 78 0 89 1;
#X connect 79 0 78 0;
#X connect 80 0 51 0;
#X connect 80 1 51 1;
#X connect 81 0 80 0;
#X connect 82 0 81 0;
#X connect 83 0 69 0;
#X connect 83 0 78 1;
#X connect 84 0 45 0;
#X connect 85 0 86 0;
#X connect 85 0 87 1;
#X connect 86 0 85 0;
#X connect 87 0 45 0;
#X connect 88 0 48 1;
#X connect 89 0 77 0;
#X connect 89 0 63 0;
#X connect 89 1 63 0;
#X connect 89 1 77 0;
#X connect 90 0 57 0;
#X connect 91 0 92 0;
#X connect 91 0 90 0;
#X connect 92 0 91 0;
#X connect 93 0 23 0;
#X connect 94 0 93 1;
#X connect 95 0 97 0;
#X connect 96 0 98 0;
#X connect 97 0 96 0;
#X connect 97 1 96 1;
#X connect 98 0 99 0;
#X connect 98 1 99 1;
#X connect 99 0 32 0;
#X connect 100 0 102 0;
#X connect 100 0 104 0;
#X connect 101 0 103 0;
#X connect 101 0 0 0;
#X connect 102 0 101 0;
#X connect 103 0 101 1;
#X connect 104 0 103 1;
#X connect 105 0 12 0;
#X connect 106 0 117 0;
#X connect 115 0 38 0;
#X connect 116 0 33 0;
#X connect 116 0 88 1;
#X connect 117 0 16 0;
#X connect 117 1 42 0;
#X connect 117 2 12 0;
#X connect 119 0 7 0;
#X connect 119 0 8 0;
#X coords 0 -1 1 1 330 100 2 100 100;
