#N canvas 201 86 885 762 10;
#X obj 249 674 *~ 0.5;
#X obj 358 310 *~;
#X obj 362 680 *~;
#N canvas 775 218 450 397 asr 0;
#X msg 57 204 1 897.638;
#X msg 57 178 set 1 \$1;
#X obj 158 145 +;
#X obj 135 191 pipe;
#X floatatom 158 169 5 0 0 0 - - -, f 5;
#X msg 232 225 0 1291.34;
#X msg 232 150 set 0 \$1;
#X obj 24 24 inlet;
#X obj 89 22 inlet;
#X obj 158 21 inlet;
#X obj 232 23 inlet;
#X obj 24 75 bng 15 250 50 0 empty empty empty 17 7 0 10 -262144 -1
-1;
#X floatatom 89 78 5 0 0 0 a - -, f 5;
#X floatatom 158 77 5 0 0 0 s - -, f 5;
#X floatatom 232 78 5 0 0 0 r - -, f 5;
#X obj 158 98 t b f;
#X obj 144 252 line~;
#X obj 144 276 outlet~;
#X connect 0 0 16 0;
#X connect 1 0 0 0;
#X connect 2 0 4 0;
#X connect 3 0 5 0;
#X connect 4 0 3 1;
#X connect 5 0 16 0;
#X connect 6 0 5 0;
#X connect 7 0 11 0;
#X connect 8 0 12 0;
#X connect 9 0 13 0;
#X connect 10 0 14 0;
#X connect 11 0 0 0;
#X connect 11 0 3 0;
#X connect 12 0 2 0;
#X connect 12 0 1 0;
#X connect 13 0 15 0;
#X connect 14 0 6 0;
#X connect 15 0 2 0;
#X connect 15 1 2 1;
#X connect 16 0 17 0;
#X restore 299 342 pd asr;
#N canvas 28 456 450 397 asr 0;
#X msg 57 204 1 0;
#X msg 57 178 set 1 \$1;
#X obj 158 145 +;
#X obj 135 191 pipe;
#X floatatom 158 169 5 0 0 0 - - -, f 5;
#X msg 232 225 0 992.126;
#X msg 232 150 set 0 \$1;
#X obj 24 24 inlet;
#X obj 89 22 inlet;
#X obj 158 21 inlet;
#X obj 232 23 inlet;
#X obj 24 75 bng 15 250 50 0 empty empty empty 17 7 0 10 -262144 -1
-1;
#X floatatom 89 78 5 0 0 0 a - -, f 5;
#X floatatom 158 77 5 0 0 0 s - -, f 5;
#X floatatom 232 76 5 0 0 0 r - -, f 5;
#X obj 158 98 t b f;
#X obj 144 252 line~;
#X obj 144 276 outlet~;
#X connect 0 0 16 0;
#X connect 1 0 0 0;
#X connect 2 0 4 0;
#X connect 3 0 5 0;
#X connect 4 0 3 1;
#X connect 5 0 16 0;
#X connect 6 0 5 0;
#X connect 7 0 11 0;
#X connect 8 0 12 0;
#X connect 9 0 13 0;
#X connect 10 0 14 0;
#X connect 11 0 0 0;
#X connect 11 0 3 0;
#X connect 12 0 2 0;
#X connect 12 0 1 0;
#X connect 13 0 15 0;
#X connect 14 0 6 0;
#X connect 15 0 2 0;
#X connect 15 1 2 1;
#X connect 16 0 17 0;
#X restore 376 503 pd asr;
#X obj 251 549 osc~;
#X obj 249 614 *~;
#X obj 307 548 osc~;
#X obj 252 463 +~;
#X obj 308 510 +~;
#X obj 257 342 osc~;
#X obj 257 380 *~;
#X obj 233 302 *~;
#X obj 100 105 bng 30 250 50 0 empty empty 8 8 15 0 25 -262144 -159808
-1;
#X obj 100 135 tgl 30 0 empty empty empty 17 7 0 10 -228856 -1 -1 1
1;
#X obj 133 105 hsl 100 30 0 1 0 0 empty empty empty 10 15 0 10 -159808
-1 -1 0 1;
#X obj 160 137 vsl 15 55 0 1 0 1 empty empty -> 2 7 0 10 -232576 -258113
-1 4000 1;
#X obj 145 137 vsl 15 55 0 10000 0 1 empty empty >- 2 7 0 10 -232576
-258113 -1 2300 1;
#X obj 130 137 vsl 15 55 0 1000 0 1 empty empty >a 2 7 0 10 -232576
-258113 -1 500 1;
#X obj 255 105 hsl 128 15 0 127 0 1 empty empty mod 2660.25 10 7 0
10 -262144 -258113 -1 700 1;
#X obj 255 135 hsl 128 15 0 1000 0 1 empty empty a 897.638 10 7 0
10 -262144 -258113 -1 11400 1;
#X msg 663 133 label a \$1;
#X obj 255 150 hsl 128 15 0 1000 0 1 empty empty s 118.11 10 7 0 10
-262144 -258113 -1 1500 1;
#X msg 664 150 label s \$1;
#X obj 255 165 hsl 128 15 0 2000 0 1 empty empty r 1291.34 10 7 0
10 -262144 -258113 -1 8200 1;
#X msg 664 167 label r \$1;
#X obj 460 105 hsl 128 15 0 127 0 1 empty empty carr 1512.91 10 7
0 10 -262144 -258113 -1 8900 1;
#X msg 653 225 label carr \$1;
#X obj 460 135 hsl 128 15 0 1000 0 1 empty empty a 0 10 7 0 10 -262144
-258113 -1 0 1;
#X msg 653 242 label a \$1;
#X obj 460 150 hsl 128 15 0 1000 0 1 empty empty s 31.4961 10 7 0
10 -262144 -258113 -1 400 1;
#X msg 654 259 label s \$1;
#X obj 460 165 hsl 128 15 0 2000 0 1 empty empty r 992.126 10 7 0
10 -262144 -258113 -1 6300 1;
#X msg 654 276 label r \$1;
#X msg 664 116 label mod \$1;
#X obj 253 418 *~;
#X obj 255 180 hsl 128 15 0 2000 0 1 empty empty index 1574.8 10 7
0 10 -262144 -258113 -1 10000 1;
#X msg 664 184 label index \$1;
#X obj 457 120 nbx 5 15 -1e+37 1e+37 0 1 empty empty spr 30 7 0 10
-262144 -1 -1 116 256;
#X obj 460 180 hsl 128 15 0 1 0 1 empty empty amp 0.701654 10 7 0
10 -262144 -258113 -1 8911 1;
#X msg 654 293 label amp \$1;
#X obj 514 368 mtof;
#X obj 437 408 t b f;
#X obj 438 320 metro 100;
#X obj 437 343 random 100;
#X obj 437 368 pack f 50;
#X obj 437 388 line;
#X obj 508 320 random 6000;
#X obj 403 180 nbx 5 15 -1e+37 1e+37 0 1 empty empty sm -15 7 0 10
-232576 -1 -1 90 256;
#X obj 403 165 nbx 5 15 -1e+37 1e+37 0 1 empty empty ra -15 7 0 10
-232576 -1 -1 174 256;
#X obj 403 150 nbx 5 15 -1e+37 1e+37 0 1 empty empty ms -15 7 0 10
-232576 -1 -1 5479 256;
#X obj 437 443 +;
#X obj 250 581 +~;
#X obj 23 194 * 10;
#X obj 23 217 int;
#X obj 23 239 change;
#X obj 185 354 mtof;
#X obj 28 424 t b f;
#X obj 28 359 random 100;
#X obj 28 384 pack f 50;
#X obj 28 404 line;
#X obj 28 473 +;
#X obj 21 129 spigot;
#X obj 21 104 t b f;
#X obj 501 264 *;
#X obj 403 105 nbx 5 15 -1e+37 1e+37 0 1 empty empty empty 0 -8 0 10
-262144 -1 -1 138 256;
#X obj 485 423 +;
#X obj 504 398 t b f;
#X obj 29 333 metro 100;
#X obj 90 309 random 6000;
#X obj 198 180 nbx 5 15 -1e+37 1e+37 0 1 empty empty sm -15 7 0 10
-262144 -1 -1 12 256;
#X obj 198 165 nbx 5 15 -1e+37 1e+37 0 1 empty empty ra -15 7 0 10
-262144 -1 -1 2855 256;
#X obj 198 135 nbx 5 15 -1e+37 1e+37 0 1 empty empty empty -15 7 0
10 -262144 -1 -1 491 256;
#X obj 183 135 tgl 15 1 empty empty empty 17 7 0 10 -232576 -1 -1 1
1;
#X obj 198 150 nbx 5 15 -1e+37 1e+37 0 1 empty empty ms -15 7 0 10
-262144 -1 -1 395 256;
#X obj 82 466 expr $f1*(-$f2)+$f2+$f3;
#X text 572 28 tgl-rnd;
#X text 715 29 OSC-bang;
#X text 247 725 mixer;
#X text 360 726 fm-out;
#X text 408 278 fm-in;
#X text 284 280 fm-fb;
#X obj 359 276 inlet~;
#X obj 234 278 inlet~;
#X obj 249 708 outlet~;
#X obj 361 706 outlet~;
#X obj 570 48 inlet;
#X obj 670 29 inlet;
#X obj 670 54 route /s08 /b08 /t08;
#X connect 0 0 84 0;
#X connect 1 0 8 0;
#X connect 2 0 85 0;
#X connect 3 0 11 1;
#X connect 4 0 6 1;
#X connect 5 0 52 0;
#X connect 6 0 0 0;
#X connect 6 0 2 0;
#X connect 7 0 52 1;
#X connect 8 0 5 0;
#X connect 8 0 9 0;
#X connect 9 0 7 0;
#X connect 10 0 11 0;
#X connect 11 0 35 0;
#X connect 12 0 8 0;
#X connect 13 0 3 0;
#X connect 13 0 4 0;
#X connect 14 0 43 0;
#X connect 15 0 53 0;
#X connect 15 0 64 0;
#X connect 15 0 75 0;
#X connect 16 0 2 1;
#X connect 17 0 1 1;
#X connect 18 0 12 1;
#X connect 19 0 56 0;
#X connect 20 0 21 0;
#X connect 20 0 3 1;
#X connect 21 0 20 0;
#X connect 22 0 23 0;
#X connect 22 0 3 2;
#X connect 23 0 22 0;
#X connect 24 0 25 0;
#X connect 24 0 3 3;
#X connect 25 0 24 0;
#X connect 26 0 41 0;
#X connect 27 0 26 0;
#X connect 28 0 29 0;
#X connect 28 0 4 1;
#X connect 29 0 28 0;
#X connect 30 0 31 0;
#X connect 30 0 4 2;
#X connect 31 0 30 0;
#X connect 32 0 33 0;
#X connect 32 0 4 3;
#X connect 33 0 32 0;
#X connect 34 0 19 0;
#X connect 35 0 8 0;
#X connect 36 0 37 0;
#X connect 36 0 35 1;
#X connect 37 0 36 0;
#X connect 38 0 9 1;
#X connect 39 0 40 0;
#X connect 39 0 0 1;
#X connect 40 0 39 0;
#X connect 41 0 66 0;
#X connect 42 0 51 0;
#X connect 42 1 51 1;
#X connect 43 0 47 0;
#X connect 43 0 13 0;
#X connect 43 0 44 0;
#X connect 44 0 45 0;
#X connect 45 0 46 0;
#X connect 46 0 42 0;
#X connect 47 0 43 1;
#X connect 48 0 45 1;
#X connect 49 0 44 1;
#X connect 50 0 47 1;
#X connect 51 0 27 0;
#X connect 51 0 8 1;
#X connect 52 0 6 0;
#X connect 53 0 54 0;
#X connect 54 0 55 0;
#X connect 55 0 13 0;
#X connect 56 0 61 0;
#X connect 57 0 61 0;
#X connect 57 1 61 1;
#X connect 58 0 59 0;
#X connect 59 0 60 0;
#X connect 60 0 57 0;
#X connect 61 0 34 0;
#X connect 61 0 10 0;
#X connect 62 0 13 0;
#X connect 63 0 62 0;
#X connect 63 1 62 1;
#X connect 64 0 67 0;
#X connect 65 0 64 1;
#X connect 66 0 51 0;
#X connect 67 0 66 0;
#X connect 67 1 66 1;
#X connect 68 0 69 0;
#X connect 68 0 58 0;
#X connect 69 0 68 1;
#X connect 70 0 59 1;
#X connect 71 0 58 1;
#X connect 72 0 75 1;
#X connect 73 0 68 0;
#X connect 74 0 75 2;
#X connect 75 0 69 1;
#X connect 82 0 1 0;
#X connect 83 0 12 0;
#X connect 86 0 14 0;
#X connect 87 0 88 0;
#X connect 88 0 15 0;
#X connect 88 1 63 0;
#X connect 88 2 14 0;
#X coords 0 -1 1 1 490 100 2 100 100;
