#N canvas 380 97 827 751 10;
#X obj 255 106 hsl 128 15 0 127 0 1 empty empty penv 767.135 10 7
0 10 -262144 -258113 -1 2200 1;
#X floatatom 387 355 0 0 0 0 - - -;
#X obj 191 353 mtof;
#X obj 255 136 hsl 128 15 0 127 0 1 empty empty frq 43.7081 10 7 0
10 -262144 -258113 -1 2600 1;
#X floatatom 191 408 5 0 0 0 - - -, f 5;
#X obj 191 437 +~;
#X obj 457 290 line~;
#X obj 453 336 *~;
#X obj 455 389 *~;
#X obj 454 362 lop~ 200;
#X msg 311 311 1 0;
#X obj 100 106 bng 30 250 50 0 empty empty 1 8 15 0 25 -262144 -257985
-1;
#X obj 302 284 del;
#X msg 320 257 0;
#X obj 255 121 hsl 128 15 1.27 800 0 1 empty empty penv_dec 26.4269
10 7 0 10 -262144 -258113 -1 400 1;
#X msg 457 228 set 0 \$1;
#X msg 457 254 0 26.4269;
#X obj 190 646 *~;
#X obj 255 166 hsl 128 15 1.27 1500 0 1 empty empty dec 697.53 10
7 0 10 -262144 -258113 -1 5900 1;
#X msg 274 391 set 0 \$1;
#X msg 274 417 0 697.53;
#X obj 275 502 line~;
#X obj 272 577 lop~ 120;
#X obj 271 541 *~;
#X obj 52 233 metro 1000;
#X obj 100 136 tgl 30 0 empty empty empty 17 7 0 10 -228856 -1 -1 1
1;
#X obj 190 683 *~ 0.5;
#X obj 255 181 hsl 128 15 0 1 0 1 empty empty amp 1 10 7 0 10 -262144
-258113 -1 12700 1;
#X obj 133 106 hsl 100 30 0 1 0 0 empty empty empty -2 -8 0 10 -257985
-1 -1 0 1;
#X msg 266 313 0;
#X obj 137 233 random 2000;
#X obj 511 30 spigot;
#X obj 237 106 tgl 15 1 empty empty empty 17 7 0 10 -262130 -1 -1 1
1;
#X obj 345 215 mtof;
#X obj 27 169 int;
#X obj 27 189 change;
#X obj 27 147 * 10;
#X obj 399 600 t b f;
#X obj 399 517 metro 100;
#X obj 237 136 tgl 15 1 empty empty empty 17 7 0 10 -262130 -1 -1 1
1;
#X obj 399 539 random 100;
#X obj 399 560 pack f 50;
#X obj 399 580 line;
#X obj 472 517 random 6000;
#X obj 198 181 nbx 5 15 -1e+37 1e+37 0 1 empty empty sm -15 7 0 10
-203904 -1 -1 80 256;
#X obj 198 166 nbx 5 15 -1e+37 1e+37 0 1 empty empty ra -15 7 0 10
-262130 -1 -1 53 256;
#X obj 198 151 nbx 5 15 -1e+37 1e+37 0 1 empty empty ms -15 7 0 10
-262130 -1 -1 2913 256;
#X obj 191 380 +;
#X msg 646 165 label frq \$1;
#X msg 647 189 label dec \$1;
#X msg 648 118 label penv \$1;
#X msg 648 213 label amp \$1;
#X msg 645 142 label penv_dec \$1;
#X obj 130 469 +~;
#X obj 148 438 *~;
#X obj 253 662 *~;
#X obj 160 138 vsl 15 55 0 1 0 0 empty empty -> 2 7 0 10 -262130 -258113
-1 0 1;
#X obj 145 138 vsl 15 55 0 10000 0 1 empty empty >- 2 7 0 10 -262130
-258113 -1 4600 1;
#X obj 130 138 vsl 15 55 0 1000 0 1 empty empty >a 2 7 0 10 -262130
-258113 -1 2000 1;
#X obj 39 376 *~;
#X obj 58 495 noise~;
#X obj 255 151 hsl 128 15 0 1 0 1 empty empty noise 10 8 0 10 -262144
-258113 -1 700 1;
#X obj 217 597 *~;
#X obj 189 623 +~;
#X obj 23 112 spigot;
#X obj 23 91 t b f;
#X obj 511 75 - 2500;
#X obj 468 75 t b f;
#X obj 387 333 +;
#X obj 511 104 *;
#X obj 511 53 random 5001;
#X obj 395 280 t b f;
#X obj 81 527 +~ 1500;
#X obj 58 548 vcf~ 10;
#X obj 217 466 phasor~;
#X obj 165 499 osc~;
#X obj 178 136 hsl 55 15 0 -1 0 1 empty empty sine-saw 3 7 0 10 -262144
-258113 -1 0 1;
#X obj 219 572 *~;
#X obj 183 525 + 1;
#X obj 165 558 *~;
#X obj 237 546 * -1;
#X obj 217 490 *~ -2;
#X obj 218 515 +~ 1;
#X obj 446 151 * 2;
#X obj 447 176 - 1;
#X obj 236 121 hradio 8 1 1 2 empty empty empty -18 4 0 8 -262144 -258113
-1 1;
#X obj 387 247 *;
#X obj 404 211 t b f;
#X obj 93 354 inlet~;
#X obj 40 354 inlet~;
#X obj 211 38 inlet;
#X text 210 21 tgl-rnd;
#X obj 312 8 inlet;
#X text 359 7 OSC-bang;
#X obj 190 721 outlet~;
#X obj 252 683 outlet~;
#X text 250 722 mixer;
#X text 315 686 fm-out;
#X text 95 336 fm-in;
#X text 38 335 fm-fb;
#X obj 312 33 route /s01 /b01 /t01;
#X connect 0 0 33 0;
#X connect 1 0 50 0;
#X connect 1 0 8 1;
#X connect 2 0 47 0;
#X connect 3 0 2 0;
#X connect 4 0 5 0;
#X connect 4 0 48 0;
#X connect 5 0 53 0;
#X connect 6 0 7 1;
#X connect 6 0 7 0;
#X connect 7 0 9 0;
#X connect 8 0 5 1;
#X connect 9 0 8 0;
#X connect 10 0 6 0;
#X connect 10 0 21 0;
#X connect 11 0 10 0;
#X connect 11 0 12 0;
#X connect 11 0 13 0;
#X connect 11 0 29 0;
#X connect 11 0 31 0;
#X connect 12 0 16 0;
#X connect 12 0 20 0;
#X connect 13 0 12 1;
#X connect 14 0 15 0;
#X connect 14 0 52 0;
#X connect 15 0 16 0;
#X connect 16 0 6 0;
#X connect 17 0 26 0;
#X connect 17 0 55 0;
#X connect 18 0 19 0;
#X connect 18 0 49 0;
#X connect 19 0 20 0;
#X connect 20 0 21 0;
#X connect 21 0 23 0;
#X connect 21 0 23 1;
#X connect 22 0 17 1;
#X connect 23 0 22 0;
#X connect 24 0 11 0;
#X connect 24 0 30 0;
#X connect 25 0 24 0;
#X connect 26 0 94 0;
#X connect 27 0 26 1;
#X connect 27 0 51 0;
#X connect 28 0 36 0;
#X connect 29 0 75 1;
#X connect 29 0 74 1;
#X connect 30 0 24 1;
#X connect 31 0 70 0;
#X connect 32 0 31 1;
#X connect 32 0 67 0;
#X connect 33 0 86 0;
#X connect 34 0 35 0;
#X connect 35 0 11 0;
#X connect 36 0 34 0;
#X connect 37 0 47 0;
#X connect 37 1 47 1;
#X connect 38 0 40 0;
#X connect 38 0 43 0;
#X connect 39 0 38 0;
#X connect 40 0 41 0;
#X connect 41 0 42 0;
#X connect 42 0 37 0;
#X connect 43 0 38 1;
#X connect 44 0 41 1;
#X connect 45 0 40 1;
#X connect 46 0 43 1;
#X connect 46 0 30 1;
#X connect 47 0 4 0;
#X connect 48 0 3 0;
#X connect 49 0 18 0;
#X connect 50 0 0 0;
#X connect 51 0 27 0;
#X connect 52 0 14 0;
#X connect 53 0 72 0;
#X connect 53 0 74 0;
#X connect 53 0 75 0;
#X connect 54 0 53 1;
#X connect 55 0 95 0;
#X connect 56 0 55 1;
#X connect 57 0 54 1;
#X connect 58 0 59 1;
#X connect 59 0 53 1;
#X connect 60 0 73 0;
#X connect 61 0 62 1;
#X connect 62 0 63 1;
#X connect 63 0 17 0;
#X connect 64 0 11 0;
#X connect 65 0 64 0;
#X connect 65 1 64 1;
#X connect 66 0 69 0;
#X connect 67 0 69 0;
#X connect 67 1 69 1;
#X connect 68 0 1 0;
#X connect 69 0 68 1;
#X connect 69 0 71 0;
#X connect 70 0 66 0;
#X connect 71 0 68 0;
#X connect 71 1 68 1;
#X connect 72 0 73 1;
#X connect 73 1 62 0;
#X connect 74 0 81 0;
#X connect 75 0 79 0;
#X connect 76 0 78 0;
#X connect 76 0 80 0;
#X connect 77 0 63 0;
#X connect 78 0 79 1;
#X connect 79 0 63 0;
#X connect 80 0 77 1;
#X connect 81 0 82 0;
#X connect 82 0 77 0;
#X connect 83 0 84 0;
#X connect 84 0 87 0;
#X connect 85 0 83 0;
#X connect 86 0 68 0;
#X connect 87 0 86 0;
#X connect 87 1 86 1;
#X connect 88 0 54 0;
#X connect 89 0 59 0;
#X connect 90 0 25 0;
#X connect 92 0 100 0;
#X connect 100 0 28 0;
#X connect 100 1 65 0;
#X connect 100 2 25 0;
#X coords 0 -1 1 1 285 100 2 100 100;
