#N canvas 1 75 859 764 10;
#X obj 249 674 *~ 0.5;
#X obj 359 310 *~;
#X obj 362 680 *~;
#N canvas 775 218 450 397 asr 0;
#X msg 57 204 1 0;
#X msg 57 178 set 1 \$1;
#X obj 158 145 +;
#X obj 135 191 pipe;
#X floatatom 158 169 5 0 0 0 - - -, f 5;
#X msg 232 225 0 220.472;
#X msg 232 150 set 0 \$1;
#X obj 24 24 inlet;
#X obj 89 22 inlet;
#X obj 158 21 inlet;
#X obj 232 23 inlet;
#X obj 24 75 bng 15 250 50 0 empty empty empty 17 7 0 10 -262144 -1
-1;
#X floatatom 89 78 5 0 0 0 a - -, f 5;
#X floatatom 158 77 5 0 0 0 s - -, f 5;
#X floatatom 232 78 5 0 0 0 r - -, f 5;
#X obj 158 98 t b f;
#X obj 144 252 line~;
#X obj 144 276 outlet~;
#X connect 0 0 16 0;
#X connect 1 0 0 0;
#X connect 2 0 4 0;
#X connect 3 0 5 0;
#X connect 4 0 3 1;
#X connect 5 0 16 0;
#X connect 6 0 5 0;
#X connect 7 0 11 0;
#X connect 8 0 12 0;
#X connect 9 0 13 0;
#X connect 10 0 14 0;
#X connect 11 0 0 0;
#X connect 11 0 3 0;
#X connect 12 0 2 0;
#X connect 12 0 1 0;
#X connect 13 0 15 0;
#X connect 14 0 6 0;
#X connect 15 0 2 0;
#X connect 15 1 2 1;
#X connect 16 0 17 0;
#X restore 317 353 pd asr;
#N canvas 28 456 450 397 asr 0;
#X msg 57 204 1 7.87402;
#X msg 57 178 set 1 \$1;
#X obj 158 145 +;
#X obj 135 191 pipe;
#X floatatom 158 169 5 0 0 0 - - -, f 5;
#X msg 232 225 0 787.402;
#X msg 232 150 set 0 \$1;
#X obj 24 24 inlet;
#X obj 89 22 inlet;
#X obj 158 21 inlet;
#X obj 232 23 inlet;
#X obj 24 75 bng 15 250 50 0 empty empty empty 17 7 0 10 -262144 -1
-1;
#X floatatom 89 78 5 0 0 0 a - -, f 5;
#X floatatom 158 77 5 0 0 0 s - -, f 5;
#X floatatom 232 76 5 0 0 0 r - -, f 5;
#X obj 158 98 t b f;
#X obj 144 252 line~;
#X obj 144 276 outlet~;
#X connect 0 0 16 0;
#X connect 1 0 0 0;
#X connect 2 0 4 0;
#X connect 3 0 5 0;
#X connect 4 0 3 1;
#X connect 5 0 16 0;
#X connect 6 0 5 0;
#X connect 7 0 11 0;
#X connect 8 0 12 0;
#X connect 9 0 13 0;
#X connect 10 0 14 0;
#X connect 11 0 0 0;
#X connect 11 0 3 0;
#X connect 12 0 2 0;
#X connect 12 0 1 0;
#X connect 13 0 15 0;
#X connect 14 0 6 0;
#X connect 15 0 2 0;
#X connect 15 1 2 1;
#X connect 16 0 17 0;
#X restore 389 532 pd asr;
#X obj 251 549 osc~;
#X obj 250 615 *~;
#X obj 307 548 osc~;
#X obj 252 463 +~;
#X obj 308 510 +~;
#X obj 251 356 osc~;
#X obj 252 386 *~;
#X obj 283 298 *~;
#X obj 100 105 bng 30 250 50 0 empty empty \$1 8 15 0 25 -262144 -159808
-1;
#X obj 100 135 tgl 30 0 empty empty empty 17 7 0 10 -228856 -1 -1 0
1;
#X obj 133 105 hsl 100 30 0 1 0 0 empty empty empty 10 15 0 10 -159808
-1 -1 0 1;
#X obj 160 137 vsl 15 55 0 1 0 1 empty empty -> 2 7 0 10 -232576 -258113
-1 2700 1;
#X obj 145 137 vsl 15 55 0 10000 0 1 empty empty >- 2 7 0 10 -232576
-258113 -1 2900 1;
#X obj 130 137 vsl 15 55 0 1000 0 1 empty empty >a 2 7 0 10 -232576
-258113 -1 1500 1;
#X obj 256 105 hsl 128 15 0 127 0 1 empty empty mod 51.9131 10 7 0
10 -262144 -258113 -1 3200 1;
#X obj 256 135 hsl 128 15 0 1000 0 1 empty empty a 0 10 7 0 10 -262144
-258113 -1 0 1;
#X msg 663 133 label a \$1;
#X obj 256 150 hsl 128 15 0 1000 0 1 empty empty s 0 10 7 0 10 -262144
-258113 -1 0 1;
#X msg 664 150 label s \$1;
#X obj 256 165 hsl 128 15 0 2000 0 1 empty empty r 220.472 10 7 0
10 -262144 -258113 -1 1400 1;
#X msg 664 167 label r \$1;
#X obj 390 105 hsl 128 15 0 127 0 1 empty empty carr 73.8842 10 7
0 10 -262144 -258113 -1 3811 1;
#X msg 653 225 label carr \$1;
#X obj 390 135 hsl 128 15 0 1000 0 1 empty empty a 7.87402 10 7 0
10 -262144 -258113 -1 100 1;
#X msg 653 242 label a \$1;
#X obj 390 150 hsl 128 15 0 1000 0 1 empty empty s 0 10 7 0 10 -262144
-258113 -1 0 1;
#X msg 654 259 label s \$1;
#X obj 390 165 hsl 128 15 0 2000 0 1 empty empty r 787.402 10 7 0
10 -262144 -258113 -1 5000 1;
#X msg 654 276 label r \$1;
#X msg 663 116 label mod \$1;
#X obj 253 418 *~;
#X obj 256 180 hsl 128 15 0 2000 0 1 empty empty index 1212.6 10 7
0 10 -262144 -258113 -1 7700 1;
#X msg 664 184 label index \$1;
#X obj 387 120 nbx 5 15 -1e+37 1e+37 0 1 empty empty spr 30 7 0 10
-262144 -1 -1 80 256;
#X obj 390 180 hsl 128 15 0 1 0 1 empty empty amp 0.756772 10 7 0
10 -262144 -258113 -1 9611 1;
#X msg 654 293 label amp \$1;
#X obj 125 329 mtof;
#X obj 48 369 t b f;
#X obj 49 281 metro 100;
#X obj 48 304 random 100;
#X obj 48 329 pack f 50;
#X obj 48 349 line;
#X obj 122 281 random 6000;
#X obj 199 180 nbx 5 15 -1e+37 1e+37 0 1 empty empty sm -15 7 0 10
-232576 -1 -1 69 256;
#X obj 199 165 nbx 5 15 -1e+37 1e+37 0 1 empty empty ra -15 7 0 10
-232576 -1 -1 409 256;
#X obj 199 150 nbx 5 15 -1e+37 1e+37 0 1 empty empty ms -15 7 0 10
-232576 -1 -1 6902 256;
#X obj 48 404 +;
#X obj 250 581 +~;
#X obj 23 194 * 10;
#X obj 23 217 int;
#X obj 23 239 change;
#X floatatom 61 444 5 0 0 0 - - -, f 5;
#X obj 126 489 mtof;
#X obj 45 555 t b f;
#X obj 45 490 random 100;
#X obj 45 515 pack f 50;
#X obj 45 535 line;
#X obj 45 590 +;
#X obj 21 129 spigot;
#X obj 21 104 t b f;
#X obj 239 295 *;
#X obj 253 120 nbx 5 15 -1e+37 1e+37 0 1 empty empty empty 0 -8 0 10
-232576 -1 -1 1343 256;
#X obj 106 564 +;
#X obj 125 539 t b f;
#X obj 96 384 +;
#X obj 115 359 t b f;
#X text 519 39 tgl-rnd;
#X text 703 37 OSC-bang;
#X text 249 726 mixer;
#X text 358 727 fm-out;
#X text 352 254 fm-in;
#X text 282 255 fm-fb;
#X obj 284 274 inlet~;
#X obj 360 272 inlet~;
#X obj 249 708 outlet~;
#X obj 361 706 outlet~;
#X obj 519 56 inlet;
#X obj 619 37 inlet;
#X obj 619 62 route /s0\$1 /b0\$1 /t0\$1;
#X connect 0 0 79 0;
#X connect 1 0 8 0;
#X connect 2 0 80 0;
#X connect 3 0 11 1;
#X connect 4 0 6 1;
#X connect 5 0 52 0;
#X connect 6 0 0 0;
#X connect 6 0 2 0;
#X connect 7 0 52 1;
#X connect 8 0 5 0;
#X connect 8 0 9 0;
#X connect 9 0 7 0;
#X connect 10 0 11 0;
#X connect 11 0 35 0;
#X connect 12 0 8 0;
#X connect 13 0 3 0;
#X connect 13 0 4 0;
#X connect 14 0 43 0;
#X connect 15 0 53 0;
#X connect 15 0 65 0;
#X connect 16 0 2 1;
#X connect 17 0 1 1;
#X connect 18 0 12 1;
#X connect 19 0 57 0;
#X connect 20 0 21 0;
#X connect 20 0 3 1;
#X connect 21 0 20 0;
#X connect 22 0 23 0;
#X connect 22 0 3 2;
#X connect 23 0 22 0;
#X connect 24 0 25 0;
#X connect 24 0 3 3;
#X connect 25 0 24 0;
#X connect 26 0 41 0;
#X connect 27 0 26 0;
#X connect 28 0 29 0;
#X connect 28 0 4 1;
#X connect 29 0 28 0;
#X connect 30 0 31 0;
#X connect 30 0 4 2;
#X connect 31 0 30 0;
#X connect 32 0 33 0;
#X connect 32 0 4 3;
#X connect 33 0 32 0;
#X connect 34 0 19 0;
#X connect 35 0 8 0;
#X connect 36 0 37 0;
#X connect 36 0 35 1;
#X connect 37 0 36 0;
#X connect 38 0 9 1;
#X connect 39 0 40 0;
#X connect 39 0 0 1;
#X connect 40 0 39 0;
#X connect 41 0 69 0;
#X connect 42 0 51 0;
#X connect 42 1 51 1;
#X connect 43 0 47 0;
#X connect 43 0 13 0;
#X connect 43 0 44 0;
#X connect 43 0 59 0;
#X connect 44 0 45 0;
#X connect 45 0 46 0;
#X connect 46 0 42 0;
#X connect 47 0 43 1;
#X connect 48 0 45 1;
#X connect 48 0 60 1;
#X connect 49 0 44 1;
#X connect 49 0 59 1;
#X connect 50 0 47 1;
#X connect 51 0 27 0;
#X connect 51 0 56 0;
#X connect 51 0 8 1;
#X connect 52 0 6 0;
#X connect 53 0 54 0;
#X connect 54 0 55 0;
#X connect 55 0 13 0;
#X connect 57 0 67 0;
#X connect 58 0 62 0;
#X connect 58 1 62 1;
#X connect 59 0 60 0;
#X connect 60 0 61 0;
#X connect 61 0 58 0;
#X connect 62 0 34 0;
#X connect 62 0 10 0;
#X connect 63 0 13 0;
#X connect 64 0 63 0;
#X connect 64 1 63 1;
#X connect 65 0 68 0;
#X connect 65 0 70 0;
#X connect 66 0 65 1;
#X connect 67 0 62 0;
#X connect 68 0 67 0;
#X connect 68 1 67 1;
#X connect 69 0 51 0;
#X connect 70 0 69 0;
#X connect 70 1 69 1;
#X connect 77 0 12 0;
#X connect 78 0 1 0;
#X connect 81 0 14 0;
#X connect 82 0 83 0;
#X connect 83 0 15 0;
#X connect 83 1 64 0;
#X connect 83 2 14 0;
#X coords 0 -1 1 1 420 100 2 100 100;
