#N canvas 14 88 896 808 10;
#X obj 299 466 noise~;
#X obj 301 549 *~;
#X obj 414 470 del;
#X msg 378 510 1;
#X msg 414 510 0;
#X obj 100 105 bng 30 250 50 0 empty empty \$1 7 15 0 25 -262144 -4032
-1;
#X obj 408 561 *~ 0.999;
#X obj 408 693 *~ 0.5;
#X obj 454 482 *~ 0.5;
#X obj 544 498 *~ 0.5;
#X obj 544 478 z~ 1;
#X obj 454 514 +~;
#X obj 431 231 expr 44100/($f1*1.09545)*0.025;
#X obj 456 361 osc~;
#X obj 473 261 t b f f;
#X obj 473 285 * 1;
#X obj 300 195 hsl 128 15 0 1 0 1 empty empty amp 1 10 7 0 10 -262144
-258113 -1 12700 1;
#X obj 456 381 -~ 1;
#X obj 455 404 *~ 1;
#X obj 454 424 +~;
#X obj 133 105 hsl 101 30 0 1 0 0 empty empty empty -2 -8 0 10 -4032
-1 -1 288 1;
#X obj 544 94 int;
#X obj 544 116 change;
#X obj 300 120 hsl 128 15 0 10 0 1 empty empty FM harmonic 3.70079
4 8 0 10 -262144 -258113 -1 4700 1;
#X msg 687 177 label FM harmonic \$1;
#X obj 300 135 hsl 128 15 0 2 0 1 empty empty FM amount 0.267717
4 8 0 10 -262144 -258113 -1 1700 1;
#X obj 300 180 hsl 128 15 0.0101 0.999 0 1 empty empty decay 0.955692
5 8 0 10 -262144 -258113 -1 11600 1;
#X obj 461 536 sqrt;
#X msg 686 255 label decay \$1;
#X obj 300 165 hsl 128 15 20 15000 0 1 empty empty LP 12287.1 4 8
0 10 -262144 -258113 -1 10400 1;
#X msg 687 235 label LP \$1;
#X obj 300 150 hsl 128 15 0 10000 0 1 empty empty BP 6299.21 4 8 0
10 -262144 -258113 -1 8000 1;
#X msg 688 215 label BP \$1;
#X msg 687 196 label FM amount \$1;
#X obj 100 135 tgl 30 0 empty empty empty 17 7 0 10 -228856 -1 -1 0
1;
#X msg 515 340 1;
#X obj 504 407 /;
#X msg 504 385 1000 \$1;
#X obj 300 510 vcf~ 10;
#X obj 407 661 lop~ 100;
#X msg 687 277 label amp \$1;
#X obj 19 245 int;
#X obj 19 267 change;
#X obj 19 183 * 10;
#X obj 300 105 hsl 128 15 0 127 0 1 empty empty frq 65.7085 10 8 0
10 -262144 -258113 -1 5900 1;
#X msg 689 153 label frq \$1;
#X obj 211 437 mtof;
#X obj 93 501 t b f;
#X obj 94 391 metro 100;
#X obj 93 414 random 100;
#X obj 93 439 pack f 50;
#X obj 93 459 line;
#X obj 167 391 random 6000;
#X obj 198 180 nbx 5 15 -1e+37 1e+37 0 1 empty empty sm -15 7 0 10
-204800 -1 -1 500 256;
#X obj 198 165 nbx 5 15 -1e+37 1e+37 0 1 empty empty ra -15 7 0 10
-204800 -1 -1 41 256;
#X obj 198 150 nbx 5 15 -1e+37 1e+37 0 1 empty empty ms -15 7 0 10
-204800 -1 -1 5422 256;
#X obj 183 522 +;
#X obj 205 289 *~;
#X obj 501 717 *~;
#X obj 160 137 vsl 15 55 0 1 0 1 empty empty -> 2 7 0 10 -204800 -258113
-1 3900 1;
#X obj 145 137 vsl 15 55 0 1000 0 1 empty empty >- 2 7 0 10 -204800
-258113 -1 2600 1;
#X obj 130 137 vsl 15 55 0 1000 0 1 empty empty >a 2 7 0 10 -204800
-258113 -1 800 1;
#X obj 143 288 *~;
#X obj 473 306 sig~;
#X obj 455 337 +~;
#X obj 21 146 spigot;
#X obj 21 121 t b f;
#X obj 93 480 spigot;
#X obj 243 119 tgl 15 1 empty empty empty 17 7 0 10 -204800 -1 -1 1
1;
#X obj 183 466 t b f;
#X obj 183 488 +;
#X obj 243 105 nbx 5 15 0 1e+37 0 1 empty empty empty 0 -8 0 10 -262144
-1 -1 94 256;
#X obj 183 357 *;
#X obj 389 48 inlet;
#X obj 490 38 inlet;
#X obj 490 63 route /s0\$1 /b0\$1 /t0\$1;
#X text 385 29 tgl-rnd;
#X text 532 38 OSC-bang;
#X text 474 769 mixer;
#X text 559 743 fm-out;
#X text 215 241 fm-in;
#X text 140 241 fm-fb;
#X obj 144 259 inlet~;
#X obj 206 259 inlet~;
#X obj 409 769 outlet~;
#X obj 502 744 outlet~;
#X obj 301 630 delwrite~ \$0-karp\$1 200;
#X obj 454 447 vd~ \$0-karp\$1 200;
#X connect 0 0 38 0;
#X connect 1 0 86 0;
#X connect 2 0 4 0;
#X connect 3 0 1 1;
#X connect 4 0 1 1;
#X connect 5 0 3 0;
#X connect 5 0 2 0;
#X connect 5 0 35 0;
#X connect 5 0 49 0;
#X connect 6 0 39 0;
#X connect 6 0 86 0;
#X connect 7 0 84 0;
#X connect 8 0 11 0;
#X connect 9 0 11 1;
#X connect 10 0 9 0;
#X connect 11 0 6 0;
#X connect 12 0 2 1;
#X connect 12 0 15 0;
#X connect 13 0 17 0;
#X connect 14 0 15 0;
#X connect 14 1 15 1;
#X connect 14 2 24 0;
#X connect 15 0 63 0;
#X connect 16 0 40 0;
#X connect 16 0 7 1;
#X connect 17 0 18 0;
#X connect 18 0 19 0;
#X connect 19 0 87 0;
#X connect 20 0 21 0;
#X connect 20 0 43 0;
#X connect 20 0 72 0;
#X connect 21 0 22 0;
#X connect 22 0 5 0;
#X connect 23 0 14 0;
#X connect 24 0 23 0;
#X connect 25 0 33 0;
#X connect 25 0 18 1;
#X connect 26 0 27 0;
#X connect 27 0 28 0;
#X connect 27 0 6 1;
#X connect 28 0 26 0;
#X connect 29 0 30 0;
#X connect 29 0 39 1;
#X connect 30 0 29 0;
#X connect 31 0 32 0;
#X connect 31 0 38 1;
#X connect 32 0 31 0;
#X connect 33 0 25 0;
#X connect 34 0 48 0;
#X connect 35 0 13 1;
#X connect 36 0 19 1;
#X connect 37 0 36 0;
#X connect 38 0 1 0;
#X connect 39 0 7 0;
#X connect 39 0 58 0;
#X connect 40 0 16 0;
#X connect 41 0 42 0;
#X connect 42 0 5 0;
#X connect 43 0 41 0;
#X connect 44 0 46 0;
#X connect 44 0 70 0;
#X connect 45 0 44 0;
#X connect 46 0 70 0;
#X connect 47 0 56 0;
#X connect 47 1 56 1;
#X connect 48 0 52 0;
#X connect 48 0 5 0;
#X connect 49 0 50 0;
#X connect 50 0 51 0;
#X connect 51 0 67 0;
#X connect 52 0 48 1;
#X connect 53 0 50 1;
#X connect 54 0 49 1;
#X connect 55 0 52 1;
#X connect 56 0 12 0;
#X connect 56 0 45 0;
#X connect 56 0 37 0;
#X connect 57 0 64 0;
#X connect 58 0 85 0;
#X connect 59 0 58 1;
#X connect 60 0 57 1;
#X connect 61 0 62 1;
#X connect 62 0 64 0;
#X connect 63 0 64 1;
#X connect 64 0 13 0;
#X connect 65 0 5 0;
#X connect 66 0 65 0;
#X connect 66 1 65 1;
#X connect 67 0 47 0;
#X connect 68 0 67 1;
#X connect 69 0 70 0;
#X connect 69 1 70 1;
#X connect 70 0 56 0;
#X connect 71 0 72 1;
#X connect 72 0 69 0;
#X connect 73 0 34 0;
#X connect 74 0 75 0;
#X connect 75 0 20 0;
#X connect 75 1 66 0;
#X connect 75 2 34 0;
#X connect 82 0 62 0;
#X connect 83 0 57 0;
#X connect 87 0 8 0;
#X connect 87 0 10 0;
#X coords 0 -1 1 1 330 115 2 100 100;
