#N canvas 489 75 860 778 10;
#X obj 98 465 noise~;
#X obj 100 548 *~;
#X obj 213 469 del;
#X msg 177 509 1;
#X msg 213 509 0;
#X obj 177 167 bng 30 250 50 0 empty empty empty 17 7 0 10 -262144
-1 -1;
#X obj 100 629 delwrite~ \$0-karp 200;
#X obj 270 398 vd~ \$0-karp 200;
#X obj 207 560 *~ 0.999;
#X obj 208 692 *~ 0.5;
#X obj 270 433 *~ 0.5;
#X obj 360 493 *~ 0.5;
#X obj 360 462 z~ 1;
#X obj 270 509 +~;
#X obj 233 158 expr 44100/($f1*1.09545)*0.025;
#X floatatom 233 183 5 0 0 0 - - -, f 5;
#X obj 206 743 outlet~;
#X obj 272 312 osc~;
#X obj 272 265 t b f f;
#X obj 272 289 * 1;
#X obj 320 666 hsl 128 15 0 127 0 1 empty empty empty -2 -8 0 10 -262144
-1 -1 10400 1;
#X obj 317 686 dbtorms;
#X floatatom 434 320 5 0 0 0 - - -, f 5;
#X obj 272 332 -~ 1;
#X obj 271 355 *~ 1;
#X obj 270 375 +~;
#X obj 343 58 hsl 101 15 0 10 0 0 empty empty empty -2 -8 0 10 -262144
-1 -1 4500 1;
#X obj 340 79 int;
#X obj 340 101 change;
#X obj 438 338 hsl 101 15 0 10 0 0 empty empty FM harmonic 0 4 8
0 10 -262144 -1 -4160 0 1;
#X msg 550 339 label FM harmonic \$1;
#X obj 438 353 hsl 101 15 0 2 0 1 empty empty FM amount 0 4 8 0 10
-262144 -1 -4160 0 1;
#X obj 438 398 hsl 101 15 0.0101 0.999 0 1 empty empty decay 0.979462
5 8 0 10 -262144 -1 -4160 9599 1;
#X obj 666 413 sqrt;
#X msg 549 417 label decay \$1;
#X obj 438 383 hsl 101 15 20 15000 0 1 empty empty LP 5712.4 4 8 0
10 -262144 -1 -4160 3800 1;
#X msg 550 397 label LP \$1;
#X obj 438 368 hsl 101 15 0 10000 0 1 empty empty BP 200 4 8 0 10
-262144 -1 -4160 200 1;
#X msg 551 377 label BP \$1;
#X msg 550 358 label FM amount \$1;
#X obj 320 738 dac~;
#X obj 141 64 metro 1000;
#X obj 139 36 tgl 15 0 empty empty empty 17 7 0 10 -262144 -1 -1 0
1;
#X msg 385 223 1;
#X obj 552 175 /;
#X msg 551 149 1000 \$1;
#X obj 99 509 vcf~ 10;
#X obj 206 660 lop~ 100;
#X obj 340 31 inlet;
#X connect 0 0 46 0;
#X connect 1 0 6 0;
#X connect 2 0 4 0;
#X connect 3 0 1 1;
#X connect 4 0 1 1;
#X connect 5 0 3 0;
#X connect 5 0 2 0;
#X connect 5 0 43 0;
#X connect 7 0 10 0;
#X connect 7 0 12 0;
#X connect 8 0 6 0;
#X connect 8 0 47 0;
#X connect 9 0 16 0;
#X connect 9 0 40 0;
#X connect 9 0 40 1;
#X connect 10 0 13 0;
#X connect 11 0 13 1;
#X connect 12 0 11 0;
#X connect 13 0 8 0;
#X connect 14 0 15 0;
#X connect 15 0 2 1;
#X connect 15 0 19 0;
#X connect 17 0 23 0;
#X connect 18 0 19 0;
#X connect 18 1 19 1;
#X connect 18 2 30 0;
#X connect 19 0 17 0;
#X connect 20 0 21 0;
#X connect 21 0 9 1;
#X connect 22 0 14 0;
#X connect 22 0 45 0;
#X connect 23 0 24 0;
#X connect 24 0 25 0;
#X connect 25 0 7 0;
#X connect 26 0 27 0;
#X connect 27 0 28 0;
#X connect 28 0 5 0;
#X connect 29 0 18 0;
#X connect 30 0 29 0;
#X connect 31 0 39 0;
#X connect 31 0 24 1;
#X connect 32 0 33 0;
#X connect 33 0 34 0;
#X connect 33 0 8 1;
#X connect 34 0 32 0;
#X connect 35 0 36 0;
#X connect 35 0 47 1;
#X connect 36 0 35 0;
#X connect 37 0 38 0;
#X connect 37 0 46 1;
#X connect 38 0 37 0;
#X connect 39 0 31 0;
#X connect 41 0 5 0;
#X connect 42 0 41 0;
#X connect 43 0 17 1;
#X connect 44 0 25 1;
#X connect 45 0 44 0;
#X connect 46 0 1 0;
#X connect 47 0 9 0;
#X connect 48 0 26 0;
#X coords 0 778 1 777 85 60 0;
