#N canvas 248 86 1126 757 10;
#X obj 54 16 receive fromGUI;
#X obj 54 49 route list;
#X obj 54 78 routeOSC /mixer /matrix /drone /bang;
#X obj 54 122 routeOSC /f00 /t00 /f01 /t01 /f02 /t02 /f03 /t03 /f04
/t04;
#X obj 316 174 routeOSC /t11 /t12 /t13 /t14 /t21 /t22 /t23 /t24 /t31
/t32 /t33 /t34 /t41 /t42 /t43 /t44 /tr /br;
#X obj 381 323 routeOSC /xymi /xyca /tm /ti /tc;
#X obj 553 405 routeOSC /s01 /b01 /t01 /s02 /b02 /t02 /s03 /b03 /t03
/s04 /b04 /t04;
#X msg 54 154 list /mixer/f00 \$1;
#X msg 54 177 list /mixer/t00 \$1;
#X msg 55 198 list /mixer/f01 \$1;
#X msg 55 221 list /mixer/t01 \$1;
#X msg 55 242 list /mixer/f02 \$1;
#X msg 55 265 list /mixer/t02 \$1;
#X msg 56 286 list /mixer/f03 \$1;
#X msg 56 309 list /mixer/t03 \$1;
#X msg 55 329 list /mixer/f04 \$1;
#X msg 55 352 list /mixer/t04 \$1;
#X msg 316 214 list /matrix/t11 \$1;
#X msg 316 237 list /matrix/t12 \$1;
#X msg 316 258 list /matrix/t13 \$1;
#X msg 317 278 list /matrix/t14 \$1;
#X msg 459 216 list /matrix/t21 \$1;
#X msg 460 238 list /matrix/t22 \$1;
#X msg 461 259 list /matrix/t23 \$1;
#X msg 461 279 list /matrix/t24 \$1;
#X msg 609 215 list /matrix/t31 \$1;
#X msg 609 238 list /matrix/t32 \$1;
#X msg 609 259 list /matrix/t33 \$1;
#X msg 609 280 list /matrix/t34 \$1;
#X msg 757 216 list /matrix/t41 \$1;
#X msg 759 237 list /matrix/t42 \$1;
#X msg 758 259 list /matrix/t43 \$1;
#X msg 759 279 list /matrix/t44 \$1;
#X msg 907 216 list /matrix/tr \$1;
#X msg 908 238 list /matrix/br \$1;
#X msg 381 345 list /drone/xymi \$1 \$2;
#X msg 383 366 list /drone/xyca \$1 \$2;
#X msg 384 387 list /drone/tm \$1;
#X msg 385 407 list /drone/ti \$1;
#X msg 385 427 list /drone/tc \$1;
#X msg 553 449 list /bang/s01 \$1;
#X msg 553 472 list /bang/b01 \$1;
#X msg 553 493 list /bang/t01 \$1;
#X msg 553 515 list /bang/s02 \$1;
#X msg 553 538 list /bang/b02 \$1;
#X msg 553 559 list /bang/t02 \$1;
#X msg 689 449 list /bang/s03 \$1;
#X msg 689 472 list /bang/b03 \$1;
#X msg 689 493 list /bang/t03 \$1;
#X msg 692 516 list /bang/s04 \$1;
#X msg 692 539 list /bang/b04 \$1;
#X msg 692 560 list /bang/t04 \$1;
#X obj 466 702 send toNetwork;
#X connect 0 0 1 0;
#X connect 1 0 2 0;
#X connect 2 0 3 0;
#X connect 2 1 4 0;
#X connect 2 2 5 0;
#X connect 2 3 6 0;
#X connect 3 0 7 0;
#X connect 3 1 8 0;
#X connect 3 2 9 0;
#X connect 3 3 10 0;
#X connect 3 4 11 0;
#X connect 3 5 12 0;
#X connect 3 6 13 0;
#X connect 3 7 14 0;
#X connect 3 8 15 0;
#X connect 3 9 16 0;
#X connect 4 0 17 0;
#X connect 4 1 18 0;
#X connect 4 2 19 0;
#X connect 4 3 20 0;
#X connect 4 4 21 0;
#X connect 4 5 22 0;
#X connect 4 6 23 0;
#X connect 4 7 24 0;
#X connect 4 8 25 0;
#X connect 4 9 26 0;
#X connect 4 10 27 0;
#X connect 4 11 28 0;
#X connect 4 12 29 0;
#X connect 4 13 30 0;
#X connect 4 14 31 0;
#X connect 4 15 32 0;
#X connect 4 16 33 0;
#X connect 4 17 34 0;
#X connect 5 0 35 0;
#X connect 5 1 36 0;
#X connect 5 2 37 0;
#X connect 5 3 38 0;
#X connect 5 4 39 0;
#X connect 6 0 40 0;
#X connect 6 1 41 0;
#X connect 6 2 42 0;
#X connect 6 3 43 0;
#X connect 6 4 44 0;
#X connect 6 5 45 0;
#X connect 6 6 46 0;
#X connect 6 7 47 0;
#X connect 6 8 48 0;
#X connect 6 9 49 0;
#X connect 6 10 50 0;
#X connect 6 11 51 0;
#X connect 7 0 52 0;
#X connect 8 0 52 0;
#X connect 9 0 52 0;
#X connect 10 0 52 0;
#X connect 11 0 52 0;
#X connect 12 0 52 0;
#X connect 13 0 52 0;
#X connect 14 0 52 0;
#X connect 15 0 52 0;
#X connect 16 0 52 0;
#X connect 17 0 52 0;
#X connect 18 0 52 0;
#X connect 19 0 52 0;
#X connect 20 0 52 0;
#X connect 21 0 52 0;
#X connect 22 0 52 0;
#X connect 23 0 52 0;
#X connect 24 0 52 0;
#X connect 25 0 52 0;
#X connect 26 0 52 0;
#X connect 27 0 52 0;
#X connect 28 0 52 0;
#X connect 29 0 52 0;
#X connect 30 0 52 0;
#X connect 31 0 52 0;
#X connect 32 0 52 0;
#X connect 33 0 52 0;
#X connect 34 0 52 0;
#X connect 35 0 52 0;
#X connect 36 0 52 0;
#X connect 37 0 52 0;
#X connect 38 0 52 0;
#X connect 39 0 52 0;
#X connect 40 0 52 0;
#X connect 41 0 52 0;
#X connect 42 0 52 0;
#X connect 43 0 52 0;
#X connect 44 0 52 0;
#X connect 45 0 52 0;
#X connect 46 0 52 0;
#X connect 47 0 52 0;
#X connect 48 0 52 0;
#X connect 49 0 52 0;
#X connect 50 0 52 0;
#X connect 51 0 52 0;
