#N canvas 1480 487 521 300 10;
#X msg 117 95 connect localhost 9001;
#X obj 117 253 udpsend;
#X msg 213 123 disconnect;
#X floatatom 214 145 5 0 0 0 - - -, f 5;
#X obj 214 200 packOSC;
#X floatatom 344 147 5 0 0 0 - - -, f 5;
#X msg 214 165 send /test/t1 \$1;
#X msg 344 165 send /test/t2 \$1;
#X obj 369 34 import mrpeach;
#X connect 0 0 1 0;
#X connect 2 0 1 0;
#X connect 3 0 6 0;
#X connect 4 0 1 0;
#X connect 5 0 7 0;
#X connect 6 0 4 0;
#X connect 7 0 4 0;
