#N canvas 2009 103 684 511 10;
#X floatatom 117 166 5 0 0 0 - - -, f 5;
#X floatatom 144 186 5 0 0 0 - - -, f 5;
#X floatatom 171 209 5 0 0 0 - - -, f 5;
#X floatatom 198 229 5 0 0 0 - - -, f 5;
#X floatatom 226 254 5 0 0 0 - - -, f 5;
#X obj 117 136 unpack 0 0 0 0 0;
#N canvas 2036 635 450 300 get.info 0;
#X text 29 31 NOTE outlet #2 is for compatibility with mrpeach's net
objects. you can get all info (and more) via outlet #3 as well.;
#X obj 96 119 inlet outlet#3;
#X obj 96 143 route address;
#X floatatom 96 215 3 0 0 0 - - -, f 3;
#X floatatom 123 215 3 0 0 0 - - -, f 3;
#X floatatom 150 215 3 0 0 0 - - -, f 3;
#X floatatom 177 215 3 0 0 0 - - -, f 3;
#X text 53 214 from;
#X floatatom 205 215 5 0 0 0 - - -, f 5;
#X obj 96 189 unpack 0 0 0 0 0;
#X obj 263 189 route port;
#X floatatom 263 215 5 0 0 0 - - -, f 5;
#X text 302 214 listening port;
#X connect 1 0 2 0;
#X connect 2 0 9 0;
#X connect 2 1 10 0;
#X connect 9 0 3 0;
#X connect 9 1 4 0;
#X connect 9 2 5 0;
#X connect 9 3 6 0;
#X connect 9 4 8 0;
#X connect 10 0 11 0;
#X restore 198 116 pd get.info;
#X obj 63 299 print message;
#X msg 63 68 port 9001;
#X floatatom 182 419 5 0 0 0 - - -, f 5;
#X floatatom 236 420 5 0 0 0 - - -, f 5;
#X obj 182 299 unpackOSC;
#X floatatom 378 345 5 0 0 0 - - -, f 5;
#X floatatom 459 343 5 0 0 0 - - -, f 5;
#X floatatom 426 262 5 0 0 0 - - -, f 5;
#X floatatom 507 262 5 0 0 0 - - -, f 5;
#X floatatom 474 181 5 0 0 0 - - -, f 5;
#X floatatom 523 181 5 0 0 0 - - -, f 5;
#X floatatom 571 181 5 0 0 0 - - -, f 5;
#X obj 63 99 udpreceive 9001;
#X obj 378 99 udpreceive 54321;
#X obj 378 124 unpackOSC;
#X obj 379 31 import mrpeach;
#X obj 182 321 routeOSC /test;
#X obj 182 343 routeOSC /t1 /t2;
#X obj 378 152 routeOSC /xypg /xydf /in /gain /out;
#X obj 426 240 unpack \$1 \$2;
#X obj 378 318 unpack \$1 \$2;
#X connect 5 0 0 0;
#X connect 5 1 1 0;
#X connect 5 2 2 0;
#X connect 5 3 3 0;
#X connect 5 4 4 0;
#X connect 8 0 19 0;
#X connect 11 0 23 0;
#X connect 19 0 7 0;
#X connect 19 0 11 0;
#X connect 19 1 5 0;
#X connect 19 2 6 0;
#X connect 20 0 21 0;
#X connect 21 0 25 0;
#X connect 23 0 24 0;
#X connect 24 0 9 0;
#X connect 24 1 10 0;
#X connect 25 0 27 0;
#X connect 25 1 26 0;
#X connect 25 2 16 0;
#X connect 25 3 17 0;
#X connect 25 4 18 0;
#X connect 26 0 14 0;
#X connect 26 1 15 0;
#X connect 27 0 12 0;
#X connect 27 1 13 0;
