#N canvas 1554 89 1009 605 10;
#N canvas 441 85 818 759 drum 0;
#X obj 190 516 osc~;
#X obj 285 100 hsl 128 15 0 127 0 1 empty empty penv 8.1758 10 7 0
10 -262144 -258113 -1 0 1;
#X floatatom 362 373 5 0 0 0 - - -, f 5;
#X obj 191 353 mtof;
#X obj 285 130 hsl 128 15 0 127 0 1 empty empty frq 99.2705 10 7 0
10 -262144 -258113 -1 3400 1;
#X floatatom 191 408 5 0 0 0 - - -, f 5;
#X obj 191 437 +~;
#X obj 449 337 line~;
#X obj 445 403 *~;
#X obj 362 397 *;
#X obj 447 458 *~;
#X obj 446 429 lop~ 200;
#X msg 313 316 1 0;
#X obj 100 100 bng 30 250 50 0 empty empty 1 8 15 0 25 -262144 -4032
-1;
#X obj 302 284 del;
#X msg 320 257 0;
#X obj 285 115 hsl 128 15 1.27 800 0 1 empty empty penv_dec 13.8484
10 7 0 10 -262144 -258113 -1 200 1;
#X msg 449 275 set 0 \$1;
#X msg 449 301 0 13.8484;
#X obj 385 145 hradio 15 1 1 2 empty empty pol -20 7 0 10 -262144 -258113
-1 0;
#X obj 561 242 * 2;
#X obj 561 272 - 1;
#X obj 190 629 *~;
#X obj 285 160 hsl 128 15 1.27 1500 0 1 empty empty dec 1500 10 7
0 10 -262144 -258113 -1 12700 1;
#X msg 274 391 set 0 \$1;
#X msg 274 417 0 1500;
#X obj 275 502 line~;
#X obj 272 569 lop~ 120;
#X obj 271 541 *~;
#X obj 501 84 metro 1000;
#X obj 100 130 tgl 30 0 empty empty empty 17 7 0 10 -228856 -1 -1 0
1;
#X obj 190 683 *~ 0.5;
#X obj 285 175 hsl 128 15 0 1 0 1 empty empty amp 0.952756 10 7 0
10 -262144 -258113 -1 12100 1;
#X obj 133 100 hsl 100 30 0 1 0 0 empty empty empty -2 -8 0 10 -4032
-1 -1 7226 1;
#X msg 266 313 0;
#X obj 561 314 t b f;
#X obj 586 84 random 2000;
#X obj 277 39 spigot;
#X obj 277 64 random 127;
#X obj 55 61 inlet;
#X obj 267 100 tgl 15 1 empty empty empty 17 7 0 10 -262144 -1 -1 1
1;
#X obj 100 61 inlet;
#X obj 362 340 mtof;
#X obj 27 169 int;
#X obj 27 189 change;
#X obj 144 61 inlet;
#X obj 27 147 * 10;
#X obj 399 600 t b f;
#X obj 399 517 metro 100;
#X obj 267 130 tgl 15 1 empty empty empty 17 7 0 10 -262144 -1 -1 1
1;
#X obj 399 539 random 100;
#X obj 399 560 pack f 50;
#X obj 399 580 line;
#X obj 472 517 random 6000;
#X obj 228 175 nbx 5 15 -1e+37 1e+37 0 1 empty empty smooth -40 7 0
10 -262144 -1 -1 80 256;
#X obj 228 160 nbx 5 15 -1e+37 1e+37 0 1 empty empty range -35 7 0
10 -262144 -1 -1 53 256;
#X obj 228 145 nbx 5 15 -1e+37 1e+37 0 1 empty empty speed -35 7 0
10 -262144 -1 -1 1120 256;
#X obj 191 380 +;
#X msg 646 165 label frq \$1;
#X msg 647 189 label dec \$1;
#X msg 648 118 label penv \$1;
#X msg 648 213 label amp \$1;
#X msg 645 142 label penv_dec \$1;
#X obj 191 490 +~;
#X obj 159 460 *~;
#X obj 253 645 *~;
#X obj 161 132 vsl 15 55 0 1 0 0 empty empty -> 2 7 0 10 -204800 -258113
-1 2900 1;
#X obj 146 132 vsl 15 55 0 10000 0 1 empty empty >- 2 7 0 10 -204800
-258113 -1 1300 1;
#X obj 300 693 s~ \$0-out_dr01;
#X obj 68 415 r~ \$0-mod_dr01;
#X obj 42 448 r~ \$0-mod_dr01a;
#X obj 131 132 vsl 15 55 0 1000 0 1 empty empty >a 2 7 0 10 -204800
-258113 -1 1200 1;
#X obj 41 474 *~;
#X obj 190 721 s~ \$0-out_01;
#X obj 116 504 noise~;
#X obj 285 145 hsl 75 15 0 -1 0 1 empty empty sine-noise 10 8 0 10
-262144 -258113 -1 300 1;
#X obj 208 555 + 1;
#X obj 236 555 * -1;
#X obj 190 575 *~;
#X obj 224 575 *~;
#X obj 189 606 +~;
#X obj 116 535 vcf~ 5;
#X obj 22 111 spigot;
#X obj 22 86 t b f;
#X connect 0 0 78 0;
#X connect 1 0 42 0;
#X connect 2 0 9 0;
#X connect 2 0 60 0;
#X connect 3 0 57 0;
#X connect 4 0 3 0;
#X connect 5 0 6 0;
#X connect 5 0 58 0;
#X connect 6 0 63 0;
#X connect 7 0 8 1;
#X connect 7 0 8 0;
#X connect 8 0 11 0;
#X connect 9 0 10 1;
#X connect 10 0 6 1;
#X connect 11 0 10 0;
#X connect 12 0 7 0;
#X connect 12 0 26 0;
#X connect 13 0 12 0;
#X connect 13 0 14 0;
#X connect 13 0 15 0;
#X connect 13 0 34 0;
#X connect 13 0 37 0;
#X connect 14 0 18 0;
#X connect 14 0 25 0;
#X connect 15 0 14 1;
#X connect 16 0 17 0;
#X connect 16 0 62 0;
#X connect 17 0 18 0;
#X connect 18 0 7 0;
#X connect 19 0 20 0;
#X connect 20 0 21 0;
#X connect 21 0 35 0;
#X connect 22 0 31 0;
#X connect 22 0 65 0;
#X connect 23 0 24 0;
#X connect 23 0 59 0;
#X connect 24 0 25 0;
#X connect 25 0 26 0;
#X connect 26 0 28 0;
#X connect 26 0 28 1;
#X connect 27 0 22 1;
#X connect 28 0 27 0;
#X connect 29 0 13 0;
#X connect 29 0 36 0;
#X connect 30 0 29 0;
#X connect 31 0 73 0;
#X connect 32 0 31 1;
#X connect 32 0 61 0;
#X connect 33 0 46 0;
#X connect 34 0 0 1;
#X connect 35 0 2 0;
#X connect 35 1 9 1;
#X connect 36 0 29 1;
#X connect 37 0 38 0;
#X connect 38 0 1 0;
#X connect 39 0 33 0;
#X connect 40 0 37 1;
#X connect 41 0 83 0;
#X connect 42 0 2 0;
#X connect 43 0 44 0;
#X connect 44 0 13 0;
#X connect 45 0 30 0;
#X connect 46 0 43 0;
#X connect 47 0 57 0;
#X connect 47 1 57 1;
#X connect 48 0 50 0;
#X connect 48 0 53 0;
#X connect 49 0 48 0;
#X connect 50 0 51 0;
#X connect 51 0 52 0;
#X connect 52 0 47 0;
#X connect 53 0 48 1;
#X connect 54 0 51 1;
#X connect 55 0 50 1;
#X connect 56 0 53 1;
#X connect 57 0 5 0;
#X connect 58 0 4 0;
#X connect 59 0 23 0;
#X connect 60 0 1 0;
#X connect 61 0 32 0;
#X connect 62 0 16 0;
#X connect 63 0 0 0;
#X connect 63 0 81 1;
#X connect 64 0 63 1;
#X connect 65 0 68 0;
#X connect 66 0 65 1;
#X connect 67 0 64 1;
#X connect 69 0 64 0;
#X connect 70 0 72 0;
#X connect 71 0 72 1;
#X connect 72 0 63 1;
#X connect 74 0 81 0;
#X connect 75 0 76 0;
#X connect 75 0 77 0;
#X connect 76 0 78 1;
#X connect 77 0 79 1;
#X connect 78 0 80 0;
#X connect 79 0 80 1;
#X connect 80 0 22 0;
#X connect 81 0 79 0;
#X connect 82 0 13 0;
#X connect 83 0 82 0;
#X connect 83 1 82 1;
#X coords 0 -1 1 1 315 90 2 100 100;
#X restore 502 79 pd drum;
#N canvas 422 75 936 791 karplus 0;
#X obj 100 100 bng 30 250 50 0 empty empty 3 8 15 0 25 -262144 -260097
-1;
#X obj 470 378 del;
#X msg 437 402 1;
#X msg 470 402 0;
#X obj 380 373 noise~;
#X obj 381 465 *~;
#X obj 506 424 vd~ buffer 100;
#X floatatom 486 579 5 0 0 0 - - -, f 5;
#X obj 383 645 delwrite~ buffer 1000;
#X obj 506 460 *~ 0.5;
#X obj 566 452 z~ 1;
#X obj 567 472 *~ 0.5;
#X obj 507 495 +~;
#X obj 524 343 expr 44100/($f1*1.09545)*0.025;
#X obj 100 130 tgl 30 0 empty empty empty 17 7 0 10 -228856 -1 -1 0
1;
#X obj 486 531 random 1000;
#X obj 486 553 expr $f1 / 10000 + 0.9;
#X obj 285 115 hsl 128 15 0 1 0 1 empty empty kp_amp 1 10 7 0 10 -262144
-258113 -1 12700 1;
#X obj 132 100 hsl 100 30 0 1 0 0 empty empty empty -2 -8 0 10 -260097
-1 -1 3637 1;
#X obj 440 604 *~ 0.99;
#X obj 16 42 inlet;
#X obj 67 42 inlet;
#X obj 18 130 int;
#X obj 18 147 change;
#X obj 118 42 inlet;
#X obj 18 110 * 10;
#X obj 285 100 hsl 128 15 0 127 0 1 empty empty kp_frq 133.735 10
8 0 10 -262144 -258113 -1 3500 1;
#X obj 319 304 mtof;
#X obj 251 312 t b f;
#X obj 252 224 metro 100;
#X obj 251 247 random 100;
#X obj 251 272 pack f 50;
#X obj 251 292 line;
#X obj 325 224 random 6000;
#X obj 228 175 nbx 5 15 -1e+37 1e+37 0 1 empty empty smooth -40 7 0
10 -262144 -1 -1 100 256;
#X obj 228 160 nbx 5 15 -1e+37 1e+37 0 1 empty empty range -35 7 0
10 -262144 -1 -1 300 256;
#X obj 228 145 nbx 5 15 -1e+37 1e+37 0 1 empty empty speed -35 7 0
10 -262144 -1 -1 6652 256;
#X obj 251 351 +;
#X obj 480 304 *~;
#X obj 153 693 *~;
#X obj 160 132 vsl 15 55 0 1 0 1 empty empty -> 2 7 0 10 -261682 -258113
-1 2800 1;
#X obj 145 132 vsl 15 55 0 5 0 1 empty empty >- 2 7 0 10 -261682 -258113
-1 2500 1;
#X obj 130 132 vsl 15 55 0 5 0 1 empty empty >a 2 7 0 10 -261682 -258113
-1 1800 1;
#X obj 514 303 *~;
#X obj 480 246 r~ \$0-mod_kp01;
#X obj 513 274 r~ \$0-mod_kp01a;
#X obj 152 720 s~ \$0-out_kp01;
#X obj 505 401 +~;
#X obj 524 374 sig~;
#X obj 272 718 s~ \$0-out_03;
#X obj 43 91 spigot;
#X obj 43 66 t b f;
#X obj 225 554 osc~;
#X obj 226 617 *~;
#X obj 272 675 +~;
#X obj 243 460 line~;
#X obj 243 438 pack f 200;
#X obj 225 518 +~;
#X obj 270 569 osc~;
#X obj 271 544 +~;
#X obj 244 412 +;
#X obj 289 514 +~;
#X obj 17 235 bng 15 250 50 0 empty empty empty 17 7 0 10 -262144 -1
-1;
#X msg 17 327 1 0;
#X msg 25 301 set \$1 0;
#X obj 225 591 +~;
#X msg 56 327 0 840;
#X obj 25 264 > 0;
#X obj 306 438 random 10;
#X obj 307 460 - 5;
#X obj 244 387 * 400;
#X obj 224 493 *~ 20000;
#X obj 156 476 *~;
#X obj 285 160 hsl 128 15 0 5000 0 1 empty empty noise_ind 1850.39
10 7 0 10 -262144 -258113 -1 4700 1;
#X obj 157 501 *~;
#X msg 675 94 label kp_frq \$1;
#X obj 285 145 hsl 128 15 0 127 0 1 empty empty noise_frq 113.203
10 8 0 10 -262144 -258113 -1 2800 1;
#X obj 425 199 mtof;
#X msg 674 131 label noise_frq \$1;
#X msg 676 165 label noise_ind \$1;
#X obj 285 175 hsl 128 15 0 1 0 1 empty empty noise_amp 1 10 7 0 10
-262144 -258113 -1 12700 1;
#X msg 675 180 label noise_amp \$1;
#X msg 675 114 label kp_amp \$1;
#X obj 117 575 *~;
#X obj 17 367 line;
#X obj 17 398 *;
#X obj 118 551 *~;
#X obj 137 406 +~;
#X obj 138 371 *~ 10000;
#X obj 150 312 t b f;
#X obj 150 285 - 50;
#X obj 150 263 random 100;
#X obj 425 225 +;
#X obj 301 628 *~;
#X obj 285 130 hsl 128 15 0 1 0 1 empty empty osc_amp 0.496063 10
7 0 10 -262144 -258113 -1 6300 1;
#X msg 674 148 label osc_amp \$1;
#X obj 225 642 *~;
#X obj 330 337 expr~ $v1*$v2*1000;
#X obj 118 440 vcf~ 5;
#X msg 67 265 set 0 \$1;
#X obj 179 130 hsl 101 15 0 2000 0 1 empty empty osc_dec 840 10 7
0 10 -262144 -258113 -1 4200 1;
#X msg 647 39 label osc_dec \$1;
#X connect 0 0 1 0;
#X connect 0 0 2 0;
#X connect 0 0 15 0;
#X connect 0 0 30 0;
#X connect 0 0 68 0;
#X connect 0 0 62 0;
#X connect 0 0 91 0;
#X connect 1 0 3 0;
#X connect 2 0 5 1;
#X connect 3 0 5 1;
#X connect 4 0 5 0;
#X connect 4 0 98 0;
#X connect 5 0 8 0;
#X connect 6 0 9 0;
#X connect 6 0 10 0;
#X connect 7 0 19 1;
#X connect 9 0 12 0;
#X connect 10 0 11 0;
#X connect 11 0 12 1;
#X connect 12 0 19 0;
#X connect 13 0 1 1;
#X connect 13 0 48 0;
#X connect 14 0 29 0;
#X connect 15 0 16 0;
#X connect 16 0 7 0;
#X connect 17 0 82 0;
#X connect 17 0 93 1;
#X connect 18 0 25 0;
#X connect 18 0 67 0;
#X connect 18 0 70 0;
#X connect 18 0 62 0;
#X connect 18 0 85 1;
#X connect 19 0 8 0;
#X connect 19 0 71 0;
#X connect 19 0 88 0;
#X connect 19 0 93 0;
#X connect 20 0 18 0;
#X connect 21 0 51 0;
#X connect 22 0 23 0;
#X connect 23 0 0 0;
#X connect 24 0 14 0;
#X connect 25 0 22 0;
#X connect 26 0 27 0;
#X connect 27 0 37 0;
#X connect 28 0 37 0;
#X connect 28 0 92 0;
#X connect 28 1 37 1;
#X connect 28 1 92 1;
#X connect 29 0 33 0;
#X connect 29 0 0 0;
#X connect 30 0 31 0;
#X connect 31 0 32 0;
#X connect 32 0 28 0;
#X connect 33 0 29 1;
#X connect 34 0 31 1;
#X connect 35 0 30 1;
#X connect 36 0 33 1;
#X connect 37 0 75 0;
#X connect 37 0 13 0;
#X connect 38 0 47 0;
#X connect 39 0 46 0;
#X connect 40 0 39 1;
#X connect 41 0 38 1;
#X connect 41 0 97 0;
#X connect 42 0 43 1;
#X connect 43 0 47 0;
#X connect 44 0 38 0;
#X connect 44 0 97 1;
#X connect 45 0 43 0;
#X connect 47 0 6 0;
#X connect 48 0 47 1;
#X connect 50 0 0 0;
#X connect 51 0 50 0;
#X connect 51 1 50 1;
#X connect 52 0 65 0;
#X connect 53 0 96 0;
#X connect 54 0 49 0;
#X connect 54 0 39 0;
#X connect 55 0 57 1;
#X connect 55 0 61 0;
#X connect 56 0 55 0;
#X connect 57 0 59 0;
#X connect 57 0 52 0;
#X connect 58 0 65 1;
#X connect 59 0 58 0;
#X connect 60 0 56 0;
#X connect 61 0 59 1;
#X connect 62 0 63 0;
#X connect 62 0 66 0;
#X connect 63 0 84 0;
#X connect 64 0 63 0;
#X connect 65 0 53 0;
#X connect 66 0 84 0;
#X connect 67 0 64 0;
#X connect 68 0 69 0;
#X connect 69 0 61 1;
#X connect 70 0 60 0;
#X connect 71 0 57 0;
#X connect 72 0 74 0;
#X connect 73 0 79 0;
#X connect 73 0 74 1;
#X connect 74 0 57 0;
#X connect 75 0 26 0;
#X connect 76 0 77 0;
#X connect 77 0 92 0;
#X connect 78 0 76 0;
#X connect 79 0 73 0;
#X connect 80 0 81 0;
#X connect 80 0 83 1;
#X connect 81 0 80 0;
#X connect 82 0 17 0;
#X connect 83 0 54 0;
#X connect 84 0 85 0;
#X connect 84 0 72 1;
#X connect 85 0 53 1;
#X connect 85 0 86 1;
#X connect 86 0 83 0;
#X connect 87 0 98 1;
#X connect 88 0 87 0;
#X connect 89 0 60 0;
#X connect 89 1 60 1;
#X connect 90 0 89 0;
#X connect 91 0 90 0;
#X connect 92 0 78 0;
#X connect 92 0 87 1;
#X connect 93 0 54 0;
#X connect 94 0 95 0;
#X connect 94 0 96 1;
#X connect 95 0 94 0;
#X connect 96 0 54 0;
#X connect 97 0 57 1;
#X connect 98 0 86 0;
#X connect 98 0 72 0;
#X connect 98 1 72 0;
#X connect 98 1 86 0;
#X connect 99 0 66 0;
#X connect 100 0 101 0;
#X connect 100 0 99 0;
#X connect 101 0 100 0;
#X coords 0 -1 1 1 315 90 1 100 100;
#X restore 502 265 pd karplus;
#N canvas 204 105 846 794 karplus 0;
#X obj 299 466 noise~;
#X obj 301 549 *~;
#X obj 414 470 del;
#X msg 378 510 1;
#X msg 414 510 0;
#X obj 100 100 bng 30 250 50 0 empty empty 4 7 15 0 25 -262144 -4034
-1;
#X obj 301 630 delwrite~ \$0-karp 200;
#X obj 454 447 vd~ \$0-karp 200;
#X obj 408 561 *~ 0.999;
#X obj 408 693 *~ 0.5;
#X obj 454 482 *~ 0.5;
#X obj 544 498 *~ 0.5;
#X obj 544 478 z~ 1;
#X obj 454 514 +~;
#X obj 431 231 expr 44100/($f1*1.09545)*0.025;
#X obj 456 361 osc~;
#X obj 473 261 t b f f;
#X obj 473 285 * 1;
#X obj 285 190 hsl 128 15 0 1 0 1 empty empty amp 0.976378 10 7 0
10 -262144 -258113 -1 12400 1;
#X obj 456 381 -~ 1;
#X obj 455 404 *~ 1;
#X obj 454 424 +~;
#X obj 133 100 hsl 101 30 0 1 0 0 empty empty empty -2 -8 0 10 -4034
-1 -1 8390 1;
#X obj 541 80 int;
#X obj 541 102 change;
#X obj 285 115 hsl 128 15 0 10 0 1 empty empty FM harmonic 1.10236
4 8 0 10 -262144 -258113 -1 1400 1;
#X msg 687 177 label FM harmonic \$1;
#X obj 285 130 hsl 128 15 0 2 0 1 empty empty FM amount 0.393701
4 8 0 10 -262144 -258113 -1 2500 1;
#X obj 285 175 hsl 128 15 0.0101 0.999 0 1 empty empty decay 0.987745
5 8 0 10 -262144 -258113 -1 12400 1;
#X obj 461 536 sqrt;
#X msg 686 255 label decay \$1;
#X obj 285 160 hsl 128 15 20 15000 0 1 empty empty LP 4030.39 4 8
0 10 -262144 -258113 -1 3400 1;
#X msg 687 235 label LP \$1;
#X obj 285 145 hsl 128 15 0 10000 0 1 empty empty BP 3622.05 4 8 0
10 -262144 -258113 -1 4600 1;
#X msg 688 215 label BP \$1;
#X msg 687 196 label FM amount \$1;
#X obj 100 130 tgl 30 0 empty empty empty 17 7 0 10 -228856 -1 -1 0
1;
#X msg 515 340 1;
#X obj 504 407 /;
#X msg 504 385 1000 \$1;
#X obj 300 510 vcf~ 10;
#X obj 407 661 lop~ 100;
#X obj 39 18 inlet;
#X msg 687 277 label amp \$1;
#X obj 87 20 inlet;
#X obj 138 19 inlet;
#X obj 19 245 int;
#X obj 19 267 change;
#X obj 19 183 * 10;
#X obj 285 100 hsl 128 15 0 127 0 1 empty empty frq 113.952 10 8 0
10 -262144 -258113 -1 4800 1;
#X msg 689 153 label frq \$1;
#X obj 166 413 mtof;
#X obj 48 477 t b f;
#X obj 49 367 metro 100;
#X obj 48 390 random 100;
#X obj 48 415 pack f 50;
#X obj 48 435 line;
#X obj 122 367 random 6000;
#X obj 228 175 nbx 5 15 -1e+37 1e+37 0 1 empty empty smooth -40 7 0
10 -262144 -1 -1 500 256;
#X obj 228 160 nbx 5 15 -1e+37 1e+37 0 1 empty empty range -35 7 0
10 -262144 -1 -1 41 256;
#X obj 228 145 nbx 5 15 -1e+37 1e+37 0 1 empty empty speed -35 7 0
10 -262144 -1 -1 5422 256;
#X obj 138 498 +;
#X obj 350 322 *~;
#X obj 468 716 *~;
#X obj 160 132 vsl 15 55 0 1 0 1 empty empty -> 2 7 0 10 -204786 -258113
-1 2900 1;
#X obj 145 132 vsl 15 55 0 1000 0 1 empty empty >- 2 7 0 10 -204786
-258113 -1 2700 1;
#X obj 130 132 vsl 15 55 0 1000 0 1 empty empty >a 2 7 0 10 -204786
-258113 -1 800 1;
#X obj 267 278 *~;
#X obj 351 292 r~ \$0-mod_kp02;
#X obj 268 249 r~ \$0-mod_kp02a;
#X obj 469 743 s~ \$0-out_kp02;
#X obj 473 306 sig~;
#X obj 455 337 +~;
#X obj 409 769 s~ \$0-out_04;
#X obj 100 78 spigot;
#X obj 100 53 t b f;
#X obj 48 456 spigot;
#X obj 267 100 tgl 15 1 empty empty empty 17 7 0 10 -262144 -1 -1 1
1;
#X obj 138 442 t b f;
#X obj 138 464 +;
#X obj 228 130 nbx 5 15 0 1e+37 0 1 empty empty empty 0 -8 0 10 -262144
-1 -1 50 256;
#X obj 104 286 *;
#X connect 0 0 40 0;
#X connect 1 0 6 0;
#X connect 2 0 4 0;
#X connect 3 0 1 1;
#X connect 4 0 1 1;
#X connect 5 0 3 0;
#X connect 5 0 2 0;
#X connect 5 0 37 0;
#X connect 5 0 54 0;
#X connect 7 0 10 0;
#X connect 7 0 12 0;
#X connect 8 0 6 0;
#X connect 8 0 41 0;
#X connect 9 0 73 0;
#X connect 10 0 13 0;
#X connect 11 0 13 1;
#X connect 12 0 11 0;
#X connect 13 0 8 0;
#X connect 14 0 2 1;
#X connect 14 0 17 0;
#X connect 15 0 19 0;
#X connect 16 0 17 0;
#X connect 16 1 17 1;
#X connect 16 2 26 0;
#X connect 17 0 71 0;
#X connect 18 0 43 0;
#X connect 18 0 9 1;
#X connect 19 0 20 0;
#X connect 20 0 21 0;
#X connect 21 0 7 0;
#X connect 22 0 23 0;
#X connect 22 0 48 0;
#X connect 22 0 81 0;
#X connect 23 0 24 0;
#X connect 24 0 5 0;
#X connect 25 0 16 0;
#X connect 26 0 25 0;
#X connect 27 0 35 0;
#X connect 27 0 20 1;
#X connect 28 0 29 0;
#X connect 29 0 30 0;
#X connect 29 0 8 1;
#X connect 30 0 28 0;
#X connect 31 0 32 0;
#X connect 31 0 41 1;
#X connect 32 0 31 0;
#X connect 33 0 34 0;
#X connect 33 0 40 1;
#X connect 34 0 33 0;
#X connect 35 0 27 0;
#X connect 36 0 53 0;
#X connect 37 0 15 1;
#X connect 38 0 21 1;
#X connect 39 0 38 0;
#X connect 40 0 1 0;
#X connect 41 0 9 0;
#X connect 41 0 63 0;
#X connect 42 0 22 0;
#X connect 43 0 18 0;
#X connect 44 0 75 0;
#X connect 45 0 36 0;
#X connect 46 0 47 0;
#X connect 47 0 5 0;
#X connect 48 0 46 0;
#X connect 49 0 51 0;
#X connect 49 0 79 0;
#X connect 50 0 49 0;
#X connect 51 0 79 0;
#X connect 52 0 61 0;
#X connect 52 1 61 1;
#X connect 53 0 57 0;
#X connect 53 0 5 0;
#X connect 54 0 55 0;
#X connect 55 0 56 0;
#X connect 56 0 76 0;
#X connect 57 0 53 1;
#X connect 58 0 55 1;
#X connect 59 0 54 1;
#X connect 60 0 57 1;
#X connect 61 0 14 0;
#X connect 61 0 50 0;
#X connect 61 0 39 0;
#X connect 62 0 72 0;
#X connect 63 0 70 0;
#X connect 64 0 63 1;
#X connect 65 0 62 1;
#X connect 66 0 67 1;
#X connect 67 0 72 0;
#X connect 68 0 62 0;
#X connect 69 0 67 0;
#X connect 71 0 72 1;
#X connect 72 0 15 0;
#X connect 74 0 5 0;
#X connect 75 0 74 0;
#X connect 75 1 74 1;
#X connect 76 0 52 0;
#X connect 77 0 76 1;
#X connect 78 0 79 0;
#X connect 78 1 79 1;
#X connect 79 0 61 0;
#X connect 80 0 81 1;
#X connect 81 0 78 0;
#X coords 0 -1 1 1 315 105 1 100 100;
#X restore 502 358 pd karplus 2;
#N canvas 109 167 1026 613 fm 0;
#X obj 435 523 *~ 0.5;
#X obj 415 160 hsl 128 15 0 1 0 1 empty empty amp 0.228346 10 7 0
10 -262144 -258113 -1 2900 1;
#X obj 435 482 osc~;
#X obj 415 100 hsl 128 15 0 127 0 1 empty empty carr 18.9783 10 7
0 10 -262144 -258113 -1 800 1;
#X obj 356 375 mtof;
#X obj 435 439 +~;
#X obj 133 100 hsl 128 15 0 127 0 1 empty empty mod 28.5265 10 7 0
10 -262144 -258113 -1 2000 1;
#X obj 461 284 mtof;
#X obj 274 100 hsl 128 15 0 1000 0 1 empty empty index 136.205 10
7 0 10 -262144 -258113 -1 1669 1;
#X obj 461 387 *~ 500;
#X obj 461 308 +;
#X obj 592 211 t b f;
#X obj 290 274 metro 100;
#X obj 412 115 tgl 15 1 empty empty empty 17 7 0 10 -262144 -1 -1 1
1;
#X obj 394 401 +;
#X obj 394 375 t b f;
#X obj 290 296 random 100;
#X obj 290 317 pack f 50;
#X obj 290 337 line;
#X obj 502 322 +;
#X obj 500 296 t b f;
#X obj 363 274 random 6000;
#X floatatom 394 422 5 0 0 0 - - -, f 5;
#X floatatom 461 332 5 0 0 0 - - -, f 5;
#X obj 99 40 inlet;
#X obj 491 145 nbx 5 15 -1e+37 1e+37 0 1 empty empty smooth -40 7 0
10 -262144 -1 -1 150 256;
#X obj 491 130 nbx 5 15 -1e+37 1e+37 0 1 empty empty range -35 7 0
10 -262144 -1 -1 9 256;
#X obj 491 115 nbx 5 15 -1e+37 1e+37 0 1 empty empty speed -35 7 0
10 -262144 -1 -1 6000 256;
#X obj 117 361 metro 100;
#X obj 271 115 tgl 15 1 empty empty empty 17 7 0 10 -262144 -1 -1 1
1;
#X obj 117 383 random 100;
#X obj 117 404 pack f 50;
#X obj 117 424 line;
#X obj 190 361 random 6000;
#X obj 350 145 nbx 5 15 -1e+37 1e+37 0 1 empty empty smooth -40 7 0
10 -262144 -1 -1 3000 256;
#X obj 350 130 nbx 5 15 -1e+37 1e+37 0 1 empty empty range -35 7 0
10 -262144 -1 -1 48 256;
#X obj 350 115 nbx 5 15 -1e+37 1e+37 0 1 empty empty speed -35 7 0
10 -262144 -1 -1 6000 256;
#X obj 592 128 metro 100;
#X obj 130 115 tgl 15 1 empty empty empty 17 7 0 10 -262144 -1 -1 1
1;
#X obj 592 150 random 100;
#X obj 592 171 pack f 50;
#X obj 592 191 line;
#X obj 665 128 random 6000;
#X obj 209 145 nbx 5 15 -1e+37 1e+37 0 1 empty empty smooth -40 7 0
10 -262144 -1 -1 2000 256;
#X obj 209 130 nbx 5 15 -1e+37 1e+37 0 1 empty empty range -35 7 0
10 -262144 -1 -1 9 256;
#X obj 209 115 nbx 5 15 -1e+37 1e+37 0 1 empty empty speed -35 7 0
10 -262144 -1 -1 5000 256;
#X msg 843 442 label amp \$1;
#X msg 842 421 label index \$1;
#X floatatom 502 344 5 0 0 0 - - -, f 5;
#X obj 381 29 inlet;
#X obj 461 365 osc~;
#X obj 222 38 inlet;
#X obj 444 32 inlet;
#X obj 381 62 * 127;
#X obj 99 66 * 127;
#X obj 224 65 * 1000;
#X obj 504 435 *~ 500;
#X obj 516 488 +~;
#X obj 560 436 *~ 500;
#X obj 612 437 *~ 500;
#X msg 842 398 label mod \$1;
#X msg 842 378 label carr \$1;
#X obj 661 437 *~ 500;
#X obj 100 147 vsl 15 55 0 1000 0 1 empty empty empty 0 -9 0 10 -4032
-1 -1 400 1;
#X obj 115 147 vsl 15 55 0 1000 0 1 empty empty empty 0 -9 0 10 -257985
-1 -1 200 1;
#X obj 130 147 vsl 15 55 0 1000 0 1 empty empty empty 0 -9 0 10 -260097
-1 -1 2300 1;
#X obj 145 147 vsl 15 55 0 1000 0 1 empty empty empty 0 -9 0 10 -4034
-1 -1 1600 1;
#X obj 434 556 s~ \$0-out_00;
#X obj 839 63 r~ \$0-out_01;
#X obj 847 104 r~ \$0-out_02;
#X obj 851 156 r~ \$0-out_03;
#X obj 852 203 r~ \$0-out_04;
#X connect 0 0 67 0;
#X connect 1 0 0 1;
#X connect 1 0 46 0;
#X connect 2 0 0 0;
#X connect 3 0 4 0;
#X connect 4 0 14 0;
#X connect 5 0 57 0;
#X connect 6 0 7 0;
#X connect 7 0 10 0;
#X connect 8 0 19 0;
#X connect 9 0 5 1;
#X connect 10 0 23 0;
#X connect 11 0 10 0;
#X connect 11 1 10 1;
#X connect 12 0 16 0;
#X connect 12 0 21 0;
#X connect 13 0 12 0;
#X connect 14 0 22 0;
#X connect 15 0 14 0;
#X connect 15 1 14 1;
#X connect 16 0 17 0;
#X connect 17 0 18 0;
#X connect 18 0 15 0;
#X connect 19 0 48 0;
#X connect 20 0 19 0;
#X connect 20 1 19 1;
#X connect 21 0 12 1;
#X connect 22 0 5 0;
#X connect 22 0 61 0;
#X connect 23 0 60 0;
#X connect 23 0 50 0;
#X connect 24 0 54 0;
#X connect 25 0 17 1;
#X connect 26 0 16 1;
#X connect 27 0 21 1;
#X connect 28 0 30 0;
#X connect 28 0 33 0;
#X connect 29 0 28 0;
#X connect 30 0 31 0;
#X connect 31 0 32 0;
#X connect 32 0 20 0;
#X connect 33 0 28 1;
#X connect 34 0 31 1;
#X connect 35 0 30 1;
#X connect 36 0 33 1;
#X connect 37 0 39 0;
#X connect 37 0 42 0;
#X connect 38 0 37 0;
#X connect 39 0 40 0;
#X connect 40 0 41 0;
#X connect 41 0 11 0;
#X connect 42 0 37 1;
#X connect 43 0 40 1;
#X connect 44 0 39 1;
#X connect 45 0 42 1;
#X connect 46 0 1 0;
#X connect 47 0 8 0;
#X connect 48 0 47 0;
#X connect 48 0 9 1;
#X connect 49 0 53 0;
#X connect 50 0 9 0;
#X connect 51 0 55 0;
#X connect 52 0 1 0;
#X connect 53 0 3 0;
#X connect 54 0 6 0;
#X connect 55 0 8 0;
#X connect 56 0 57 1;
#X connect 57 0 2 0;
#X connect 58 0 57 1;
#X connect 59 0 57 1;
#X connect 60 0 6 0;
#X connect 61 0 3 0;
#X connect 62 0 57 1;
#X connect 63 0 56 1;
#X connect 64 0 58 1;
#X connect 65 0 59 1;
#X connect 66 0 62 1;
#X connect 68 0 56 0;
#X connect 69 0 58 0;
#X connect 70 0 59 0;
#X connect 71 0 62 0;
#X coords 0 -1 1 1 445 105 2 100 100;
#X restore 50 80 pd fm;
#N canvas 1550 137 941 523 receive_OSC............... 0;
#X obj 31 33 udpreceive 54321;
#X floatatom 30 315 5 0 0 0 - - -, f 5;
#X floatatom 112 316 5 0 0 0 - - -, f 5;
#X obj 31 62 unpackOSC;
#X obj 31 294 unpack \$1 \$2;
#X floatatom 169 319 5 0 0 0 - - -, f 5;
#X floatatom 250 321 5 0 0 0 - - -, f 5;
#X obj 169 297 unpack \$1 \$2;
#X floatatom 306 322 5 0 0 0 - - -, f 5;
#X floatatom 356 322 5 0 0 0 - - -, f 5;
#X floatatom 406 322 5 0 0 0 - - -, f 5;
#X obj 30 346 outlet;
#X obj 112 347 outlet;
#X obj 169 347 outlet;
#X obj 251 348 outlet;
#X obj 306 348 outlet;
#X obj 356 348 outlet;
#X obj 406 348 outlet;
#X floatatom 456 322 5 0 0 0 - - -, f 5;
#X floatatom 506 322 5 0 0 0 - - -, f 5;
#X floatatom 556 322 5 0 0 0 - - -, f 5;
#X obj 456 348 outlet;
#X obj 506 348 outlet;
#X obj 556 348 outlet;
#X floatatom 607 321 5 0 0 0 - - -, f 5;
#X floatatom 657 321 5 0 0 0 - - -, f 5;
#X floatatom 707 321 5 0 0 0 - - -, f 5;
#X obj 607 347 outlet;
#X obj 657 347 outlet;
#X obj 707 347 outlet;
#X floatatom 756 321 5 0 0 0 - - -, f 5;
#X floatatom 806 321 5 0 0 0 - - -, f 5;
#X floatatom 856 321 5 0 0 0 - - -, f 5;
#X obj 756 347 outlet;
#X obj 806 347 outlet;
#X obj 856 347 outlet;
#X obj 31 89 route /xypg /xydf /b01s /b01b /b01t /b02s /b02b /b02t
/b03s /b03b /b03t /b04s /b04b /b04t, f 90;
#X connect 0 0 3 0;
#X connect 1 0 11 0;
#X connect 2 0 12 0;
#X connect 3 0 36 0;
#X connect 4 0 1 0;
#X connect 4 1 2 0;
#X connect 5 0 13 0;
#X connect 6 0 14 0;
#X connect 7 0 5 0;
#X connect 7 1 6 0;
#X connect 8 0 15 0;
#X connect 9 0 16 0;
#X connect 10 0 17 0;
#X connect 18 0 21 0;
#X connect 19 0 22 0;
#X connect 20 0 23 0;
#X connect 24 0 27 0;
#X connect 25 0 28 0;
#X connect 26 0 29 0;
#X connect 30 0 33 0;
#X connect 31 0 34 0;
#X connect 32 0 35 0;
#X connect 36 0 4 0;
#X connect 36 1 7 0;
#X connect 36 2 8 0;
#X connect 36 3 9 0;
#X connect 36 4 10 0;
#X connect 36 5 18 0;
#X connect 36 6 19 0;
#X connect 36 7 20 0;
#X connect 36 8 24 0;
#X connect 36 9 25 0;
#X connect 36 10 26 0;
#X connect 36 11 30 0;
#X connect 36 12 31 0;
#X connect 36 13 32 0;
#X restore 514 41 pd receive_OSC...............;
#N canvas 364 269 855 565 matrix 0;
#X obj 130 130 tgl 15 1 empty empty 1-> -20 7 0 10 -262144 -1 -1 0
1;
#X obj 145 130 tgl 15 1 empty empty empty 17 7 0 10 -262144 -1 -1 1
1;
#X obj 265 6 r~ \$0-out_dr01;
#X obj 263 331 s~ \$0-mod_dr01;
#X obj 265 49 *~;
#X obj 293 49 *~;
#X obj 321 49 *~;
#X obj 349 49 *~;
#X obj 160 130 tgl 15 1 empty empty empty 17 7 0 10 -262144 -1 -1 0
1;
#X obj 175 130 tgl 15 1 empty empty empty 17 7 0 10 -262144 -1 -1 1
1;
#X obj 292 353 s~ \$0-mod_fm01;
#X obj 321 374 s~ \$0-mod_kp01;
#X obj 349 395 s~ \$0-mod_kp02;
#X obj 27 306 s~ \$0-mod_dr01a;
#X obj 27 326 s~ \$0-mod_fm01a;
#X obj 27 346 s~ \$0-mod_kp01a;
#X obj 27 366 s~ \$0-mod_kp02a;
#X obj 130 145 tgl 15 1 empty empty 2-> -20 7 0 10 -262144 -1 -1 1
1;
#X obj 145 145 tgl 15 1 empty empty empty 17 7 0 10 -262144 -1 -1 1
1;
#X obj 385 48 *~;
#X obj 413 48 *~;
#X obj 441 48 *~;
#X obj 469 48 *~;
#X obj 160 145 tgl 15 1 empty empty empty 17 7 0 10 -262144 -1 -1 0
1;
#X obj 175 145 tgl 15 1 empty empty empty 17 7 0 10 -262144 -1 -1 0
1;
#X obj 385 5 r~ \$0-out_fm01;
#X obj 130 160 tgl 15 1 empty empty 3-> -20 7 0 10 -262144 -1 -1 1
1;
#X obj 145 160 tgl 15 1 empty empty empty 17 7 0 10 -262144 -1 -1 1
1;
#X obj 501 49 *~;
#X obj 529 49 *~;
#X obj 557 49 *~;
#X obj 585 49 *~;
#X obj 160 160 tgl 15 1 empty empty empty 17 7 0 10 -262144 -1 -1 0
1;
#X obj 175 160 tgl 15 1 empty empty empty 17 7 0 10 -262144 -1 -1 1
1;
#X obj 130 175 tgl 15 1 empty empty 4-> -20 7 0 10 -262144 -1 -1 0
1;
#X obj 145 175 tgl 15 1 empty empty empty 17 7 0 10 -262144 -1 -1 0
1;
#X obj 615 48 *~;
#X obj 643 48 *~;
#X obj 671 48 *~;
#X obj 699 48 *~;
#X obj 160 175 tgl 15 1 empty empty empty 17 7 0 10 -262144 -1 -1 0
1;
#X obj 175 175 tgl 15 1 empty empty empty 17 7 0 10 -262144 -1 -1 1
1;
#X obj 501 6 r~ \$0-out_kp01;
#X obj 615 5 r~ \$0-out_kp02;
#X obj 613 209 metro 8000;
#X obj 699 209 random 8000;
#X obj 100 100 tgl 15 0 empty empty empty 17 7 0 10 -262144 -1 -1 1
1;
#X obj 600 399 random 2;
#X obj 531 376 random 2;
#X obj 599 375 random 2;
#X obj 667 376 random 2;
#X obj 734 376 random 2;
#X obj 736 399 random 2;
#X obj 671 399 random 2;
#X obj 531 399 random 2;
#X obj 115 100 bng 15 250 50 0 empty empty empty 17 7 0 10 -262144
-1 -1;
#X obj 600 444 random 2;
#X obj 531 421 random 2;
#X obj 599 420 random 2;
#X obj 667 421 random 2;
#X obj 734 421 random 2;
#X obj 736 444 random 2;
#X obj 671 444 random 2;
#X obj 531 444 random 2;
#X obj 136 100 nbx 5 15 -1e+37 1e+37 0 1 empty empty empty 0 -8 0 10
-262144 -1 -1 10000 256;
#X connect 0 0 4 1;
#X connect 1 0 5 1;
#X connect 2 0 4 0;
#X connect 2 0 5 0;
#X connect 2 0 6 0;
#X connect 2 0 7 0;
#X connect 4 0 13 0;
#X connect 5 0 10 0;
#X connect 6 0 11 0;
#X connect 7 0 12 0;
#X connect 8 0 6 1;
#X connect 9 0 7 1;
#X connect 17 0 19 1;
#X connect 18 0 20 1;
#X connect 19 0 3 0;
#X connect 20 0 14 0;
#X connect 21 0 11 0;
#X connect 22 0 12 0;
#X connect 23 0 21 1;
#X connect 24 0 22 1;
#X connect 25 0 19 0;
#X connect 25 0 20 0;
#X connect 25 0 21 0;
#X connect 25 0 22 0;
#X connect 26 0 28 1;
#X connect 27 0 29 1;
#X connect 28 0 3 0;
#X connect 29 0 10 0;
#X connect 30 0 15 0;
#X connect 31 0 12 0;
#X connect 32 0 30 1;
#X connect 33 0 31 1;
#X connect 34 0 36 1;
#X connect 35 0 37 1;
#X connect 36 0 3 0;
#X connect 37 0 10 0;
#X connect 38 0 11 0;
#X connect 39 0 16 0;
#X connect 40 0 38 1;
#X connect 41 0 39 1;
#X connect 42 0 28 0;
#X connect 42 0 29 0;
#X connect 42 0 30 0;
#X connect 42 0 31 0;
#X connect 43 0 36 0;
#X connect 43 0 37 0;
#X connect 43 0 38 0;
#X connect 43 0 39 0;
#X connect 44 0 45 0;
#X connect 44 0 55 0;
#X connect 45 0 44 1;
#X connect 46 0 44 0;
#X connect 47 0 18 0;
#X connect 48 0 0 0;
#X connect 49 0 1 0;
#X connect 50 0 8 0;
#X connect 51 0 9 0;
#X connect 52 0 24 0;
#X connect 53 0 23 0;
#X connect 54 0 17 0;
#X connect 55 0 48 0;
#X connect 55 0 54 0;
#X connect 55 0 49 0;
#X connect 55 0 47 0;
#X connect 55 0 50 0;
#X connect 55 0 53 0;
#X connect 55 0 51 0;
#X connect 55 0 52 0;
#X connect 55 0 57 0;
#X connect 55 0 63 0;
#X connect 55 0 58 0;
#X connect 55 0 56 0;
#X connect 55 0 59 0;
#X connect 55 0 62 0;
#X connect 55 0 60 0;
#X connect 55 0 61 0;
#X connect 56 0 35 0;
#X connect 57 0 26 0;
#X connect 58 0 27 0;
#X connect 59 0 32 0;
#X connect 60 0 33 0;
#X connect 61 0 41 0;
#X connect 62 0 40 0;
#X connect 63 0 34 0;
#X connect 64 0 45 1;
#X coords 0 -1 1 1 90 90 2 100 100;
#X restore 394 224 pd matrix;
#N canvas 340 93 980 806 fm01 0;
#X obj 249 674 *~ 0.5;
#X obj 382 369 *~;
#X obj 362 680 *~;
#X obj 361 706 s~ \$0-out_fm01;
#X obj 383 331 r~ \$0-mod_fm01;
#N canvas 775 218 450 397 asr 0;
#X msg 57 204 1 0;
#X msg 57 178 set 1 \$1;
#X obj 158 145 +;
#X obj 135 191 pipe;
#X floatatom 158 169 5 0 0 0 - - -, f 5;
#X msg 232 225 0 488.189;
#X msg 232 150 set 0 \$1;
#X obj 24 24 inlet;
#X obj 89 22 inlet;
#X obj 158 21 inlet;
#X obj 232 23 inlet;
#X obj 24 75 bng 15 250 50 0 empty empty empty 17 7 0 10 -262144 -1
-1;
#X floatatom 89 78 5 0 0 0 a - -, f 5;
#X floatatom 158 77 5 0 0 0 s - -, f 5;
#X floatatom 232 78 5 0 0 0 r - -, f 5;
#X obj 158 98 t b f;
#X obj 144 252 line~;
#X obj 144 276 outlet~;
#X connect 0 0 16 0;
#X connect 1 0 0 0;
#X connect 2 0 4 0;
#X connect 3 0 5 0;
#X connect 4 0 3 1;
#X connect 5 0 16 0;
#X connect 6 0 5 0;
#X connect 7 0 11 0;
#X connect 8 0 12 0;
#X connect 9 0 13 0;
#X connect 10 0 14 0;
#X connect 11 0 0 0;
#X connect 11 0 3 0;
#X connect 12 0 2 0;
#X connect 12 0 1 0;
#X connect 13 0 15 0;
#X connect 14 0 6 0;
#X connect 15 0 2 0;
#X connect 15 1 2 1;
#X connect 16 0 17 0;
#X restore 317 353 pd asr;
#N canvas 28 456 450 397 asr 0;
#X msg 57 204 1 7.87402;
#X msg 57 178 set 1 \$1;
#X obj 158 145 +;
#X obj 135 191 pipe;
#X floatatom 158 169 5 0 0 0 - - -, f 5;
#X msg 232 225 0 1511.81;
#X msg 232 150 set 0 \$1;
#X obj 24 24 inlet;
#X obj 89 22 inlet;
#X obj 158 21 inlet;
#X obj 232 23 inlet;
#X obj 24 75 bng 15 250 50 0 empty empty empty 17 7 0 10 -262144 -1
-1;
#X floatatom 89 78 5 0 0 0 a - -, f 5;
#X floatatom 158 77 5 0 0 0 s - -, f 5;
#X floatatom 232 76 5 0 0 0 r - -, f 5;
#X obj 158 98 t b f;
#X obj 144 252 line~;
#X obj 144 276 outlet~;
#X connect 0 0 16 0;
#X connect 1 0 0 0;
#X connect 2 0 4 0;
#X connect 3 0 5 0;
#X connect 4 0 3 1;
#X connect 5 0 16 0;
#X connect 6 0 5 0;
#X connect 7 0 11 0;
#X connect 8 0 12 0;
#X connect 9 0 13 0;
#X connect 10 0 14 0;
#X connect 11 0 0 0;
#X connect 11 0 3 0;
#X connect 12 0 2 0;
#X connect 12 0 1 0;
#X connect 13 0 15 0;
#X connect 14 0 6 0;
#X connect 15 0 2 0;
#X connect 15 1 2 1;
#X connect 16 0 17 0;
#X restore 389 532 pd asr;
#X obj 251 549 osc~;
#X obj 250 615 *~;
#X obj 307 548 osc~;
#X obj 252 463 +~;
#X obj 308 510 +~;
#X obj 251 356 osc~;
#X obj 252 386 *~;
#X obj 503 380 *~;
#X obj 504 356 r~ \$0-mod_fm01a;
#X obj 100 100 bng 30 250 50 0 empty empty 2 8 15 0 25 -262144 -257985
-1;
#X obj 100 130 tgl 30 0 empty empty empty 17 7 0 10 -228856 -1 -1 0
1;
#X obj 132 100 hsl 100 30 0 1 0 0 empty empty empty 10 15 0 10 -257985
-1 -1 8411 1;
#X obj 161 132 vsl 15 55 0 1 0 1 empty empty -> 2 7 0 10 -262130 -258113
-1 2700 1;
#X obj 146 132 vsl 15 55 0 10000 0 1 empty empty >- 2 7 0 10 -262130
-258113 -1 2900 1;
#X obj 131 132 vsl 15 55 0 1000 0 1 empty empty >a 2 7 0 10 -262130
-258113 -1 1400 1;
#X obj 287 100 hsl 128 15 0 127 0 1 empty empty mod 547.296 10 7 0
10 -262144 -258113 -1 6711 1;
#X obj 285 130 hsl 128 15 0 1000 0 1 empty empty a 0 10 7 0 10 -262144
-258113 -1 0 1;
#X msg 663 133 label a \$1;
#X obj 285 145 hsl 128 15 0 1000 0 1 empty empty s 31.4961 10 7 0
10 -262144 -258113 -1 400 1;
#X msg 664 150 label s \$1;
#X obj 285 160 hsl 128 15 0 2000 0 1 empty empty r 488.189 10 7 0
10 -262144 -258113 -1 3100 1;
#X msg 664 167 label r \$1;
#X obj 420 100 hsl 128 15 0 127 0 1 empty empty carr 589.317 10 7
0 10 -262144 -258113 -1 5911 1;
#X msg 653 225 label carr \$1;
#X obj 420 130 hsl 128 15 0 1000 0 1 empty empty a 7.87402 10 7 0
10 -262144 -258113 -1 100 1;
#X msg 653 242 label a \$1;
#X obj 420 145 hsl 128 15 0 1000 0 1 empty empty s 55.1181 10 7 0
10 -262144 -258113 -1 700 1;
#X msg 654 259 label s \$1;
#X obj 420 160 hsl 128 15 0 2000 0 1 empty empty r 1511.81 10 7 0
10 -262144 -258113 -1 9600 1;
#X msg 654 276 label r \$1;
#X msg 663 116 label mod \$1;
#X obj 253 418 *~;
#X obj 285 175 hsl 128 15 0 1000 0 1 empty empty index 1000 10 7 0
10 -262144 -258113 -1 12700 1;
#X msg 664 184 label index \$1;
#X obj 417 115 nbx 5 15 -1e+37 1e+37 0 1 empty empty spr 30 7 0 10
-262144 -1 -1 80 256;
#X obj 420 175 hsl 128 15 0 1 0 1 empty empty amp 0.756772 10 7 0
10 -262144 -258113 -1 9611 1;
#X msg 654 293 label amp \$1;
#X obj 125 329 mtof;
#X obj 48 369 t b f;
#X obj 49 281 metro 100;
#X obj 48 304 random 100;
#X obj 48 329 pack f 50;
#X obj 48 349 line;
#X obj 122 281 random 6000;
#X obj 228 175 nbx 5 15 -1e+37 1e+37 0 1 empty empty smooth -40 7 0
10 -262144 -1 -1 69 256;
#X obj 228 160 nbx 5 15 -1e+37 1e+37 0 1 empty empty range -35 7 0
10 -262144 -1 -1 409 256;
#X obj 228 145 nbx 5 15 -1e+37 1e+37 0 1 empty empty speed -35 7 0
10 -262144 -1 -1 6902 256;
#X obj 48 404 +;
#X obj 250 581 +~;
#X obj 27 107 * 10;
#X obj 27 130 int;
#X obj 27 152 change;
#X floatatom 61 444 5 0 0 0 - - -, f 5;
#X obj 126 489 mtof;
#X obj 45 555 t b f;
#X obj 45 490 random 100;
#X obj 45 515 pack f 50;
#X obj 45 535 line;
#X obj 45 590 +;
#X obj 100 23 inlet;
#X obj 57 23 inlet;
#X obj 143 23 inlet;
#X obj 100 73 spigot;
#X obj 100 48 t b f;
#X obj 249 708 s~ \$0-out_02;
#X obj 239 295 *;
#X obj 228 130 nbx 5 15 -1e+37 1e+37 0 1 empty empty empty 0 -8 0 10
-262144 -1 -1 121 256;
#X obj 106 564 +;
#X obj 125 539 t b f;
#X obj 96 384 +;
#X obj 115 359 t b f;
#X connect 0 0 71 0;
#X connect 1 0 10 0;
#X connect 2 0 3 0;
#X connect 4 0 1 0;
#X connect 5 0 13 1;
#X connect 6 0 8 1;
#X connect 7 0 55 0;
#X connect 8 0 0 0;
#X connect 8 0 2 0;
#X connect 9 0 55 1;
#X connect 10 0 7 0;
#X connect 10 0 11 0;
#X connect 11 0 9 0;
#X connect 12 0 13 0;
#X connect 13 0 38 0;
#X connect 14 0 10 0;
#X connect 15 0 14 0;
#X connect 16 0 5 0;
#X connect 16 0 6 0;
#X connect 17 0 46 0;
#X connect 18 0 56 0;
#X connect 18 0 72 0;
#X connect 19 0 2 1;
#X connect 20 0 1 1;
#X connect 21 0 14 1;
#X connect 22 0 60 0;
#X connect 23 0 24 0;
#X connect 23 0 5 1;
#X connect 24 0 23 0;
#X connect 25 0 26 0;
#X connect 25 0 5 2;
#X connect 26 0 25 0;
#X connect 27 0 28 0;
#X connect 27 0 5 3;
#X connect 28 0 27 0;
#X connect 29 0 44 0;
#X connect 30 0 29 0;
#X connect 31 0 32 0;
#X connect 31 0 6 1;
#X connect 32 0 31 0;
#X connect 33 0 34 0;
#X connect 33 0 6 2;
#X connect 34 0 33 0;
#X connect 35 0 36 0;
#X connect 35 0 6 3;
#X connect 36 0 35 0;
#X connect 37 0 22 0;
#X connect 38 0 10 0;
#X connect 39 0 40 0;
#X connect 39 0 38 1;
#X connect 40 0 39 0;
#X connect 41 0 11 1;
#X connect 42 0 43 0;
#X connect 42 0 0 1;
#X connect 43 0 42 0;
#X connect 44 0 76 0;
#X connect 45 0 54 0;
#X connect 45 1 54 1;
#X connect 46 0 50 0;
#X connect 46 0 16 0;
#X connect 46 0 47 0;
#X connect 46 0 62 0;
#X connect 47 0 48 0;
#X connect 48 0 49 0;
#X connect 49 0 45 0;
#X connect 50 0 46 1;
#X connect 51 0 48 1;
#X connect 51 0 63 1;
#X connect 52 0 47 1;
#X connect 52 0 62 1;
#X connect 53 0 50 1;
#X connect 54 0 30 0;
#X connect 54 0 59 0;
#X connect 54 0 10 1;
#X connect 55 0 8 0;
#X connect 56 0 57 0;
#X connect 57 0 58 0;
#X connect 58 0 16 0;
#X connect 60 0 74 0;
#X connect 61 0 65 0;
#X connect 61 1 65 1;
#X connect 62 0 63 0;
#X connect 63 0 64 0;
#X connect 64 0 61 0;
#X connect 65 0 37 0;
#X connect 65 0 12 0;
#X connect 66 0 70 0;
#X connect 67 0 18 0;
#X connect 68 0 17 0;
#X connect 69 0 16 0;
#X connect 70 0 69 0;
#X connect 70 1 69 1;
#X connect 72 0 75 0;
#X connect 72 0 77 0;
#X connect 73 0 72 1;
#X connect 74 0 65 0;
#X connect 75 0 74 0;
#X connect 75 1 74 1;
#X connect 76 0 54 0;
#X connect 77 0 76 0;
#X connect 77 1 76 1;
#X coords 0 -1 1 1 450 90 2 100 100;
#X restore 502 172 pd fm01;
#N canvas 1635 236 844 700 mixer 0;
#X obj 199 149 vsl 15 128 0 127 0 1 empty empty empty 5 10 0 10 -4032
-1 -1 8500 1;
#X obj 219 154 vu 8 120 empty empty -1 -8 0 10 -66577 -1 0 0;
#X obj 259 403 prvu~;
#X msg 591 475 t_metro \$1;
#X msg 590 495 t_release \$1;
#X obj 637 423 loadbang;
#X msg 637 444 10;
#N canvas 164 118 450 372 amp-pan-mo 0;
#X obj 220 152 *;
#X obj 297 119 t b f;
#X obj 142 169 *~;
#X obj 220 102 dbtorms;
#X obj 142 50 inlet~;
#X obj 220 49 inlet;
#X obj 297 47 inlet;
#X obj 141 272 outlet~;
#X obj 297 75 pack \$1 10;
#X obj 297 97 line;
#X text 226 22 amp;
#X text 304 20 tog;
#X obj 264 271 outlet~;
#X connect 0 0 2 1;
#X connect 1 0 0 0;
#X connect 1 1 0 1;
#X connect 2 0 12 0;
#X connect 2 0 7 0;
#X connect 3 0 0 0;
#X connect 4 0 2 0;
#X connect 5 0 3 0;
#X connect 6 0 8 0;
#X connect 8 0 9 0;
#X connect 9 0 1 0;
#X restore 170 377 pd amp-pan-mo;
#X obj 199 280 tgl 15 1 empty empty 1 5 8 0 10 -262144 -1 -1 1 1;
#X obj 234 149 vsl 15 128 0 127 0 1 empty empty empty 5 10 0 10 -257985
-1 -1 7500 1;
#X obj 254 154 vu 8 120 empty empty -1 -8 0 10 -66577 -1 0 0;
#X obj 281 458 prvu~;
#X obj 234 280 tgl 15 1 empty empty 2 5 8 0 10 -262144 -1 -1 1 1;
#X obj 268 149 vsl 15 128 0 127 0 1 empty empty empty 5 10 0 10 -260097
-1 -1 7100 1;
#X obj 288 154 vu 8 120 empty empty -1 -8 0 10 -66577 -1 0 0;
#X obj 268 280 tgl 15 1 empty empty 3 5 8 0 10 -262144 -1 -1 1 1;
#X obj 302 149 vsl 15 128 0 127 0 1 empty empty empty 5 10 0 10 -4034
-1 -1 8500 1;
#X obj 322 154 vu 8 120 empty empty -1 -8 0 10 -66577 -1 0 0;
#X obj 302 280 tgl 15 1 empty empty 4 5 8 0 10 -262144 -1 -1 1 1;
#N canvas 164 118 450 372 amp-pan-mo 0;
#X obj 220 152 *;
#X obj 297 119 t b f;
#X obj 142 169 *~;
#X obj 220 102 dbtorms;
#X obj 142 50 inlet~;
#X obj 220 49 inlet;
#X obj 297 47 inlet;
#X obj 141 272 outlet~;
#X obj 297 75 pack \$1 10;
#X obj 297 97 line;
#X text 226 22 amp;
#X text 304 20 tog;
#X obj 264 271 outlet~;
#X connect 0 0 2 1;
#X connect 1 0 0 0;
#X connect 1 1 0 1;
#X connect 2 0 12 0;
#X connect 2 0 7 0;
#X connect 3 0 0 0;
#X connect 4 0 2 0;
#X connect 5 0 3 0;
#X connect 6 0 8 0;
#X connect 8 0 9 0;
#X connect 9 0 1 0;
#X restore 194 430 pd amp-pan-mo;
#X obj 494 600 prvu~;
#N canvas 164 118 450 372 amp-pan-mo 0;
#X obj 220 152 *;
#X obj 297 119 t b f;
#X obj 142 169 *~;
#X obj 220 102 dbtorms;
#X obj 142 50 inlet~;
#X obj 220 49 inlet;
#X obj 297 47 inlet;
#X obj 141 272 outlet~;
#X obj 297 75 pack \$1 10;
#X obj 297 97 line;
#X text 226 22 amp;
#X text 304 20 tog;
#X obj 264 271 outlet~;
#X connect 0 0 2 1;
#X connect 1 0 0 0;
#X connect 1 1 0 1;
#X connect 2 0 12 0;
#X connect 2 0 7 0;
#X connect 3 0 0 0;
#X connect 4 0 2 0;
#X connect 5 0 3 0;
#X connect 6 0 8 0;
#X connect 8 0 9 0;
#X connect 9 0 1 0;
#X restore 276 546 pd amp-pan-mo;
#X obj 328 515 prvu~;
#N canvas 164 118 450 372 amp-pan-mo 0;
#X obj 220 152 *;
#X obj 297 119 t b f;
#X obj 142 169 *~;
#X obj 220 102 dbtorms;
#X obj 142 50 inlet~;
#X obj 220 49 inlet;
#X obj 297 47 inlet;
#X obj 141 272 outlet~;
#X obj 297 75 pack \$1 10;
#X obj 297 97 line;
#X text 226 22 amp;
#X text 304 20 tog;
#X obj 264 271 outlet~;
#X connect 0 0 2 1;
#X connect 1 0 0 0;
#X connect 1 1 0 1;
#X connect 2 0 12 0;
#X connect 2 0 7 0;
#X connect 3 0 0 0;
#X connect 4 0 2 0;
#X connect 5 0 3 0;
#X connect 6 0 8 0;
#X connect 8 0 9 0;
#X connect 9 0 1 0;
#X restore 240 491 pd amp-pan-mo;
#X obj 165 149 vsl 15 128 0 127 0 1 empty empty empty 5 10 0 10 -262144
-1 -1 0 1;
#X obj 185 154 vu 8 120 empty empty -1 -8 0 10 -66577 -1 0 0;
#X obj 224 349 prvu~;
#N canvas 636 329 450 372 amp-pan-mo 0;
#X obj 220 136 *;
#X obj 297 119 t b f;
#X obj 220 102 dbtorms;
#X obj 220 49 inlet;
#X obj 297 47 inlet;
#X obj 171 271 outlet~;
#X obj 297 97 line;
#X text 226 22 amp;
#X text 304 20 tog;
#X obj 297 272 outlet~;
#X obj 170 161 *~;
#X obj 171 49 inlet~;
#X obj 297 206 +~;
#X obj 297 228 /~ 2;
#X obj 109 158 *~;
#X obj 110 49 inlet~;
#X obj 110 272 outlet~;
#X obj 297 75 pack \$1 10;
#X connect 0 0 10 1;
#X connect 0 0 14 1;
#X connect 1 0 0 0;
#X connect 1 1 0 1;
#X connect 2 0 0 0;
#X connect 3 0 2 0;
#X connect 4 0 17 0;
#X connect 6 0 1 0;
#X connect 10 0 12 1;
#X connect 10 0 5 0;
#X connect 11 0 10 0;
#X connect 12 0 13 0;
#X connect 13 0 9 0;
#X connect 14 0 12 0;
#X connect 14 0 16 0;
#X connect 15 0 14 0;
#X connect 17 0 6 0;
#X restore 105 316 pd amp-pan-mo;
#X obj 165 280 tgl 15 1 empty empty 0 5 8 0 10 -262144 -1 -1 1 1;
#X obj 435 337 prvu~;
#X obj 484 337 prvu~;
#X msg 407 48 \; pd dsp \$1;
#X obj 257 69 samplerate~;
#X obj 279 115 nbx 5 15 -1e+37 1e+37 0 0 empty empty samplerate -65
7 0 10 -262144 -1 -66577 48000 256;
#N canvas 1 75 450 300 cpu 0;
#X obj 118 253 outlet;
#X obj 118 168 cputime;
#X obj 118 28 loadbang;
#X obj 118 112 metro 1000;
#X msg 118 56 1;
#X floatatom 118 84 0 0 0 0 - - -;
#X obj 118 140 t b b;
#X obj 118 228 * 0.1;
#X obj 118 197 int;
#X text 163 84 <-- on/off;
#X connect 1 0 8 0;
#X connect 2 0 4 0;
#X connect 3 0 6 0;
#X connect 4 0 5 0;
#X connect 5 0 3 0;
#X connect 6 0 1 0;
#X connect 6 1 1 1;
#X connect 7 0 0 0;
#X connect 8 0 7 0;
#X restore 344 69 pd cpu;
#X obj 279 100 nbx 5 15 -1e+37 1e+37 0 0 empty empty cpu -25 7 0 10
-262144 -1 -66577 11 256;
#X obj 257 47 loadbang;
#X obj 165 100 tgl 30 0 empty empty DSP 3 15 0 14 -262144 -258113 -1
1 1;
#X obj 7 277 freeverb~;
#X msg 663 88 roomsize \$1;
#X msg 663 133 damping \$1;
#X msg 663 177 width \$1;
#X msg 663 221 wet \$1;
#X msg 663 265 dry \$1;
#X msg 716 327 freeze \$1;
#X msg 721 364 bypass \$1;
#X obj 104 268 tgl 15 0 empty empty bypass 0 -6 0 10 -262144 -1 -1
0 1;
#X obj 104 239 tgl 15 0 empty empty freeze 0 -6 0 10 -262144 -1 -1
0 1;
#X obj 103 207 hsl 60 15 0 1 0 1 empty empty dry 2 8 0 10 -262144 -258113
-1 4900 0;
#X obj 103 192 hsl 60 15 0 1 0 1 empty empty wet 2 8 0 10 -262144 -258113
-1 4900 0;
#X obj 103 177 hsl 60 15 0 1 0 1 empty empty width 2 8 0 10 -262144
-258113 -1 5600 0;
#X obj 103 162 hsl 60 15 0 2 0 1 empty empty damping 2 8 0 10 -262144
-258113 -1 4200 0;
#X obj 103 147 hsl 60 15 0.11 1.1 0 1 empty empty roomsize 2 8 0 10
-262144 -258113 -1 4600 0;
#X floatatom 645 69 3 0 0 0 - - -, f 3;
#X floatatom 645 114 3 0 0 0 - - -, f 3;
#X floatatom 645 159 3 0 0 0 - - -, f 3;
#X floatatom 645 202 3 0 0 0 - - -, f 3;
#X floatatom 644 248 3 0 0 0 - - -, f 3;
#X obj 8 243 r~ \$0-out_00;
#X obj 20 342 r~ \$0-out_01;
#X obj 20 399 r~ \$0-out_02;
#X obj 24 451 r~ \$0-out_03;
#X obj 25 498 r~ \$0-out_04;
#X obj 130 628 dac~ 1 2 3 4 5 6;
#X msg 165 73 1;
#X connect 0 0 7 1;
#X connect 2 0 1 0;
#X connect 3 0 2 0;
#X connect 3 0 11 0;
#X connect 3 0 20 0;
#X connect 3 0 26 0;
#X connect 3 0 29 0;
#X connect 3 0 30 0;
#X connect 4 0 2 0;
#X connect 4 0 11 0;
#X connect 4 0 20 0;
#X connect 4 0 26 0;
#X connect 4 0 29 0;
#X connect 4 0 30 0;
#X connect 5 0 6 0;
#X connect 6 0 3 0;
#X connect 6 0 4 0;
#X connect 7 0 63 2;
#X connect 7 1 2 0;
#X connect 8 0 7 2;
#X connect 9 0 19 1;
#X connect 11 0 10 0;
#X connect 12 0 19 2;
#X connect 13 0 23 1;
#X connect 15 0 23 2;
#X connect 16 0 21 1;
#X connect 18 0 21 2;
#X connect 19 0 63 3;
#X connect 19 1 11 0;
#X connect 20 0 17 0;
#X connect 21 0 63 5;
#X connect 21 1 20 0;
#X connect 22 0 14 0;
#X connect 23 0 63 4;
#X connect 23 1 22 0;
#X connect 24 0 27 2;
#X connect 26 0 25 0;
#X connect 27 0 63 0;
#X connect 27 1 63 1;
#X connect 27 2 26 0;
#X connect 28 0 27 3;
#X connect 32 0 33 0;
#X connect 34 0 35 0;
#X connect 36 0 32 0;
#X connect 36 0 64 0;
#X connect 37 0 31 0;
#X connect 38 0 27 0;
#X connect 38 1 27 1;
#X connect 39 0 38 0;
#X connect 40 0 38 0;
#X connect 41 0 38 0;
#X connect 42 0 38 0;
#X connect 43 0 38 0;
#X connect 44 0 38 0;
#X connect 45 0 38 0;
#X connect 46 0 45 0;
#X connect 47 0 44 0;
#X connect 48 0 43 0;
#X connect 48 0 57 0;
#X connect 49 0 42 0;
#X connect 49 0 56 0;
#X connect 50 0 41 0;
#X connect 50 0 55 0;
#X connect 51 0 40 0;
#X connect 51 0 54 0;
#X connect 52 0 39 0;
#X connect 52 0 53 0;
#X connect 58 0 38 0;
#X connect 58 0 38 1;
#X connect 59 0 7 0;
#X connect 60 0 19 0;
#X connect 61 0 23 0;
#X connect 62 0 21 0;
#X connect 64 0 37 0;
#X coords 0 -1 1 1 245 195 2 100 100;
#X restore 50 194 pd mixer;
#X connect 4 0 3 0;
#X connect 4 1 3 1;
#X connect 4 2 3 2;
#X connect 4 3 3 3;
#X connect 4 4 0 0;
#X connect 4 5 0 1;
#X connect 4 6 0 2;
#X connect 4 7 6 0;
#X connect 4 8 6 1;
#X connect 4 9 6 2;
#X connect 4 10 1 0;
#X connect 4 11 1 1;
#X connect 4 12 1 2;
#X connect 4 13 2 0;
#X connect 4 14 2 1;
#X connect 4 15 2 2;
