#N canvas 509 237 815 627 10;
#X obj 340 529 dac~;
#X obj 339 490 *~ 0.5;
#X obj 447 442 hsl 128 15 0 1 0 1 empty empty empty -2 -8 0 10 -262144
-1 -1 3300 1;
#X obj 339 449 osc~;
#X obj 341 173 hsl 128 15 0 127 0 1 empty empty empty -2 -8 0 10 -262144
-1 -1 2400 1;
#X obj 338 205 mtof;
#X obj 366 321 osc~;
#X obj 338 369 +~;
#X obj 413 207 hsl 128 15 0 127 0 1 empty empty empty -2 -8 0 10 -262144
-1 -1 3600 1;
#X obj 410 230 mtof;
#X obj 468 295 hsl 128 15 0 1000 0 1 empty empty empty -2 -8 0 10 -262144
-1 -1 2300 1;
#X obj 366 343 *~ 500;
#X obj 605 133 metro 100;
#X obj 604 99 tgl 15 0 empty empty empty 17 7 0 10 -262144 -1 -1 1
1;
#X obj 605 180 random 100;
#X obj 410 254 +;
#X obj 477 253 t b f;
#X obj 138 78 metro 100;
#X obj 137 44 tgl 15 0 empty empty empty 17 7 0 10 -262144 -1 -1 1
1;
#X obj 292 299 +;
#X obj 270 246 t b f;
#X floatatom 720 202 5 0 0 0 - - -, f 5;
#X obj 605 213 pack f 50;
#X obj 605 237 line;
#X obj 138 119 random 100;
#X floatatom 233 126 5 0 0 0 - - -, f 5;
#X obj 138 149 pack f 50;
#X obj 138 179 line;
#X floatatom 260 102 5 0 0 0 - - -, f 5;
#X obj 621 320 metro 100;
#X obj 620 286 tgl 15 0 empty empty empty 17 7 0 10 -262144 -1 -1 1
1;
#X obj 621 367 random 100;
#X floatatom 736 389 5 0 0 0 - - -, f 5;
#X obj 621 400 pack f 50;
#X obj 621 424 line;
#X obj 500 348 +;
#X obj 540 339 t b f;
#X floatatom 724 347 5 0 0 0 - - -, f 5;
#X obj 693 320 random 3000;
#X obj 210 78 random 6000;
#X obj 678 132 random 5000;
#X floatatom 292 328 5 0 0 0 - - -, f 5;
#X floatatom 366 299 5 0 0 0 - - -, f 5;
#X connect 1 0 0 0;
#X connect 1 0 0 1;
#X connect 2 0 1 1;
#X connect 3 0 1 0;
#X connect 4 0 5 0;
#X connect 5 0 19 0;
#X connect 6 0 11 0;
#X connect 7 0 3 0;
#X connect 8 0 9 0;
#X connect 9 0 15 0;
#X connect 10 0 35 0;
#X connect 11 0 7 1;
#X connect 12 0 14 0;
#X connect 12 0 40 0;
#X connect 13 0 12 0;
#X connect 14 0 22 0;
#X connect 15 0 42 0;
#X connect 16 0 15 0;
#X connect 16 1 15 1;
#X connect 17 0 24 0;
#X connect 17 0 39 0;
#X connect 18 0 17 0;
#X connect 19 0 41 0;
#X connect 20 0 19 0;
#X connect 20 1 19 1;
#X connect 21 0 22 1;
#X connect 22 0 23 0;
#X connect 23 0 16 0;
#X connect 24 0 26 0;
#X connect 25 0 26 1;
#X connect 26 0 27 0;
#X connect 27 0 20 0;
#X connect 28 0 24 1;
#X connect 29 0 31 0;
#X connect 29 0 38 0;
#X connect 30 0 29 0;
#X connect 31 0 33 0;
#X connect 32 0 33 1;
#X connect 33 0 34 0;
#X connect 34 0 36 0;
#X connect 35 0 11 1;
#X connect 36 0 35 0;
#X connect 36 1 35 1;
#X connect 37 0 31 1;
#X connect 38 0 29 1;
#X connect 39 0 17 1;
#X connect 40 0 12 1;
#X connect 41 0 7 0;
#X connect 42 0 6 0;
