#N canvas 144 276 1126 474 10;
#X obj 329 363 send toNetwork;
#X obj 49 13 receive fromGUI;
#X obj 49 46 route list;
#X floatatom 49 216 5 0 0 0 - - -, f 5;
#X obj 49 176 unpack \$1 \$2;
#X floatatom 130 216 5 0 0 0 - - -, f 5;
#X floatatom 96 290 5 0 0 0 - - -, f 5;
#X obj 96 250 unpack \$1 \$2;
#X floatatom 177 290 5 0 0 0 - - -, f 5;
#X msg 295 251 list /xydf \$1 \$2;
#X msg 285 279 list /xypg \$1 \$2;
#X msg 328 172 list /b01t \$1;
#X msg 315 197 list /b01b \$1;
#X msg 306 225 list /b01s \$1;
#X msg 469 175 list /b02t \$1;
#X msg 456 200 list /b02b \$1;
#X msg 445 223 list /b02s \$1;
#X msg 503 311 list /b03s \$1;
#X msg 514 288 list /b03b \$1;
#X msg 528 263 list /b03t \$1;
#X obj 49 78 route /xypg /xydf /b01s /b01b /b01t /b02s /b02b /b02t
/b03s /b03b /b03t /b04s /b04b /b04t, f 71;
#X msg 716 274 list /b04t \$1;
#X msg 702 299 list /b04b \$1;
#X msg 691 322 list /b04s \$1;
#X connect 1 0 2 0;
#X connect 2 0 20 0;
#X connect 4 0 3 0;
#X connect 4 1 5 0;
#X connect 7 0 6 0;
#X connect 7 1 8 0;
#X connect 9 0 0 0;
#X connect 10 0 0 0;
#X connect 11 0 0 0;
#X connect 12 0 0 0;
#X connect 13 0 0 0;
#X connect 14 0 0 0;
#X connect 15 0 0 0;
#X connect 16 0 0 0;
#X connect 17 0 0 0;
#X connect 18 0 0 0;
#X connect 19 0 0 0;
#X connect 20 0 4 0;
#X connect 20 0 10 0;
#X connect 20 1 7 0;
#X connect 20 1 9 0;
#X connect 20 2 13 0;
#X connect 20 3 12 0;
#X connect 20 4 11 0;
#X connect 20 5 16 0;
#X connect 20 6 15 0;
#X connect 20 7 14 0;
#X connect 20 8 17 0;
#X connect 20 9 18 0;
#X connect 20 10 19 0;
#X connect 20 11 23 0;
#X connect 20 12 22 0;
#X connect 20 13 21 0;
#X connect 21 0 0 0;
#X connect 22 0 0 0;
#X connect 23 0 0 0;
