#N canvas 161 139 1038 620 10;
#N canvas 1 75 1009 524 fm 0;
#X obj 236 160 hsl 128 15 0 1 0 1 empty empty amp_A 1 10 7 0 10 -262144
-258113 -1 12700 1;
#X obj 462 547 osc~;
#X obj 236 100 hsl 128 15 0 127 0 1 empty empty carr_A 54.0097 10
7 0 10 -262144 -258113 -1 2994 1;
#X obj 259 378 mtof;
#X obj 298 447 +~;
#X obj 103 100 hsl 128 15 0 127 0 1 empty empty mod 56.0965 10 7 0
10 -262144 -258113 -1 3181 1;
#X obj 461 284 mtof;
#X obj 103 175 hsl 128 15 0 1000 0 1 empty empty index 538.874 10
7 0 10 -262144 -258113 -1 6244 1;
#X obj 463 493 *~ 500;
#X obj 461 308 +;
#X obj 659 277 t b f;
#X obj 297 262 metro 100;
#X obj 233 115 tgl 15 1 empty empty empty 17 7 0 10 -262144 -1 -1 1
1;
#X obj 297 404 +;
#X obj 297 378 t b f;
#X obj 297 284 random 100;
#X obj 297 305 pack f 50;
#X obj 297 325 line;
#X obj 502 322 +;
#X obj 500 296 t b f;
#X obj 371 262 random 6000;
#X floatatom 297 425 5 0 0 0 - - -, f 5;
#X floatatom 461 336 5 0 0 0 - - -, f 5;
#X obj 312 145 nbx 5 15 -1e+37 1e+37 0 1 empty empty smooth -40 7 0
10 -262144 -1 -1 2500 256;
#X obj 312 130 nbx 5 15 -1e+37 1e+37 0 1 empty empty range -35 7 0
10 -262144 -1 -1 9 256;
#X obj 312 115 nbx 5 15 -1e+37 1e+37 0 1 empty empty speed -35 7 0
10 -262144 -1 -1 6000 256;
#X obj 105 268 metro 100;
#X obj 100 190 tgl 15 1 empty empty empty 17 7 0 10 -262144 -1 -1 1
1;
#X obj 105 290 random 100;
#X obj 105 311 pack f 50;
#X obj 105 331 line;
#X obj 177 268 random 6000;
#X obj 179 220 nbx 5 15 -1e+37 1e+37 0 1 empty empty smooth -40 7 0
10 -262144 -1 -1 3000 256;
#X obj 179 205 nbx 5 15 -1e+37 1e+37 0 1 empty empty range -35 7 0
10 -262144 -1 -1 93 256;
#X obj 179 190 nbx 5 15 -1e+37 1e+37 0 1 empty empty speed -35 7 0
10 -262144 -1 -1 8000 256;
#X obj 659 194 metro 100;
#X obj 100 115 tgl 15 1 empty empty empty 17 7 0 10 -262144 -1 -1 1
1;
#X obj 659 216 random 100;
#X obj 659 237 pack f 50;
#X obj 659 257 line;
#X obj 732 194 random 6000;
#X obj 179 145 nbx 5 15 -1e+37 1e+37 0 1 empty empty smooth -40 7 0
10 -262144 -1 -1 2000 256;
#X obj 179 130 nbx 5 15 -1e+37 1e+37 0 1 empty empty range -35 7 0
10 -262144 -1 -1 12 256;
#X obj 179 115 nbx 5 15 -1e+37 1e+37 0 1 empty empty speed -35 7 0
10 -262144 -1 -1 7000 256;
#X msg 661 61 label index \$1;
#X floatatom 502 344 5 0 0 0 - - -, f 5;
#X obj 239 73 * 127;
#X obj 128 71 * 127;
#X obj 183 71 * 1000;
#X obj 572 315 *~ 500;
#X obj 462 524 +~;
#X obj 621 315 *~ 500;
#X obj 670 315 *~ 500;
#X msg 661 41 label mod \$1;
#X obj 720 315 *~ 500;
#X obj 435 102 vsl 15 40 0 1000 0 1 empty empty 1 4 10 0 10 -257985
-258113 -1 1000 1;
#X obj 450 102 vsl 15 40 0 1000 0 1 empty empty 2 4 10 0 10 -257985
-258113 -1 1000 1;
#X obj 465 102 vsl 15 40 0 1000 0 1 empty empty 3 4 10 0 10 -257985
-258113 -1 1100 1;
#X obj 450 147 vsl 15 40 0 4000 0 1 empty empty 4 4 10 0 10 -4032 -258113
-1 800 1;
#X obj 128 8 r \$0-/drone;
#X obj 128 50 unpack \$1 \$2;
#X obj 225 49 unpack \$1 \$2;
#X obj 460 665 freeverb~;
#X msg 145 416 roomsize \$1;
#X msg 146 436 damping \$1;
#X msg 147 456 width \$1;
#X msg 147 477 wet \$1;
#X msg 148 499 dry \$1;
#X obj 100 205 bng 30 250 50 0 empty empty 0 8 15 0 25 -262144 -228856
-1;
#X obj 420 190 tgl 15 0 empty empty bypass -45 8 0 10 -261234 -1 -1
0 1;
#X obj 420 175 tgl 15 0 empty empty freeze -45 8 0 10 -261234 -1 -1
0 1;
#X obj 373 160 hsl 60 15 0 1 0 1 empty empty dry 2 8 0 10 -262144 -258113
-1 5900 0;
#X obj 373 145 hsl 60 15 0 1 0 1 empty empty wet 2 8 0 10 -262144 -258113
-1 5700 0;
#X obj 373 130 hsl 60 15 0 1 0 1 empty empty width 2 8 0 10 -262144
-258113 -1 5900 0;
#X obj 373 115 hsl 60 15 0 2 0 1 empty empty damping 2 8 0 10 -262144
-258113 -1 5200 0;
#X obj 373 100 hsl 60 15 0.11 1.1 0 1 empty empty roomsize 2 8 0 10
-262144 -258113 -1 4400 0;
#X msg 146 523 freeze \$1;
#X msg 146 543 bypass \$1;
#X obj 461 365 phasor~;
#X obj 409 390 osc~;
#X obj 103 160 hsl 128 15 0 -1 0 1 empty empty sine----------saw 10
7 0 10 -262144 -258113 -1 1100 1;
#X obj 463 471 *~;
#X obj 427 424 + 1;
#X obj 409 457 *~;
#X obj 481 445 * -1;
#X obj 770 315 *~ 500;
#X obj 465 147 vsl 15 40 0 1000 0 1 empty empty 5 4 10 0 10 -4032 -258113
-1 900 1;
#X obj 317 48 * -1;
#X obj 461 389 *~ -2;
#X obj 462 414 +~ 1;
#X obj 435 147 vsl 15 40 0 4000 0 1 empty empty 6 4 10 0 10 -4032 -258113
-1 900 1;
#X obj 819 315 *~ 500;
#X obj 435 192 vsl 15 40 0 1000 0 1 empty empty 7 4 10 0 10 -159808
-258113 -1 1500 1;
#X obj 870 316 *~ 500;
#X obj 450 192 vsl 15 40 0 1000 0 1 empty empty 8 4 10 0 10 -159808
-258113 -1 1400 1;
#X obj 921 315 *~ 500;
#X obj 465 192 vsl 15 40 0 1000 0 1 empty empty 9 4 10 0 10 -159808
-258113 -1 1900 1;
#X obj 970 315 *~ 500;
#X obj 614 517 phasor~;
#X obj 568 518 osc~;
#X obj 236 205 hsl 128 15 0 -1 0 1 empty empty sine----------saw 10
7 0 10 -262144 -258113 -1 0 1;
#X obj 615 608 *~;
#X obj 586 541 + 1;
#X obj 568 562 *~;
#X obj 633 587 * -1;
#X obj 614 541 *~ -2;
#X obj 614 564 +~ 1;
#X obj 236 190 hsl 128 15 0 127 0 1 empty empty carr_B 8.1758 10 7
0 10 -262144 -258113 -1 0 1;
#X obj 661 454 mtof;
#X msg 661 101 label carr_B \$1;
#X msg 663 21 label carr_A \$1;
#X obj 569 491 +~;
#X obj 236 220 hsl 128 15 0 1 0 1 empty empty amp_B 0 10 7 0 10 -262144
-258113 -1 0 1;
#X msg 662 81 label amp_A \$1;
#X msg 661 121 label amp_B \$1;
#X obj 461 636 *~;
#X obj 519 637 *~;
#X obj 448 47 * -1;
#X obj 128 29 route /xymi /xyca /tm /ti /tc /sp /xycb /spb;
#X obj 355 70 * 127;
#X obj 355 49 unpack \$1 \$2;
#X obj 915 16 r~ out_01;
#X obj 915 36 r~ out_02;
#X obj 915 57 r~ out_03;
#X obj 915 77 r~ out_04;
#X obj 915 97 r~ out_05;
#X obj 915 116 r~ out_06;
#X obj 915 136 r~ out_07;
#X obj 915 157 r~ out_08;
#X obj 915 177 r~ out_09;
#X obj 460 695 s~ out_00_l;
#X obj 521 721 s~ out_00_r;
#X connect 0 0 113 0;
#X connect 0 0 115 1;
#X connect 1 0 115 0;
#X connect 2 0 3 0;
#X connect 3 0 13 0;
#X connect 4 0 50 0;
#X connect 5 0 6 0;
#X connect 6 0 9 0;
#X connect 7 0 18 0;
#X connect 8 0 50 0;
#X connect 8 0 111 1;
#X connect 9 0 22 0;
#X connect 10 0 9 0;
#X connect 10 1 9 1;
#X connect 11 0 15 0;
#X connect 11 0 20 0;
#X connect 12 0 11 0;
#X connect 13 0 21 0;
#X connect 14 0 13 0;
#X connect 14 1 13 1;
#X connect 15 0 16 0;
#X connect 16 0 17 0;
#X connect 17 0 14 0;
#X connect 18 0 45 0;
#X connect 19 0 18 0;
#X connect 19 1 18 1;
#X connect 20 0 11 1;
#X connect 21 0 4 0;
#X connect 21 0 110 0;
#X connect 22 0 53 0;
#X connect 22 0 78 0;
#X connect 22 0 79 0;
#X connect 23 0 16 1;
#X connect 24 0 15 1;
#X connect 25 0 20 1;
#X connect 26 0 28 0;
#X connect 26 0 31 0;
#X connect 27 0 26 0;
#X connect 28 0 29 0;
#X connect 29 0 30 0;
#X connect 30 0 19 0;
#X connect 31 0 26 1;
#X connect 32 0 29 1;
#X connect 33 0 28 1;
#X connect 34 0 31 1;
#X connect 35 0 37 0;
#X connect 35 0 40 0;
#X connect 36 0 35 0;
#X connect 37 0 38 0;
#X connect 38 0 39 0;
#X connect 39 0 10 0;
#X connect 40 0 35 1;
#X connect 41 0 38 1;
#X connect 42 0 37 1;
#X connect 43 0 40 1;
#X connect 44 0 7 0;
#X connect 45 0 44 0;
#X connect 45 0 8 1;
#X connect 46 0 2 0;
#X connect 47 0 5 0;
#X connect 48 0 7 0;
#X connect 49 0 50 1;
#X connect 49 0 111 1;
#X connect 50 0 1 0;
#X connect 51 0 50 1;
#X connect 51 0 111 1;
#X connect 52 0 50 1;
#X connect 52 0 111 1;
#X connect 53 0 5 0;
#X connect 54 0 50 1;
#X connect 54 0 111 1;
#X connect 55 0 49 1;
#X connect 56 0 51 1;
#X connect 57 0 52 1;
#X connect 58 0 54 1;
#X connect 59 0 118 0;
#X connect 60 0 47 0;
#X connect 60 1 48 0;
#X connect 61 0 46 0;
#X connect 61 1 0 0;
#X connect 62 0 130 0;
#X connect 62 1 131 0;
#X connect 63 0 62 0;
#X connect 64 0 62 0;
#X connect 65 0 62 0;
#X connect 66 0 62 0;
#X connect 67 0 62 0;
#X connect 68 0 28 0;
#X connect 68 0 15 0;
#X connect 68 0 37 0;
#X connect 69 0 77 0;
#X connect 70 0 76 0;
#X connect 71 0 67 0;
#X connect 72 0 66 0;
#X connect 73 0 65 0;
#X connect 74 0 64 0;
#X connect 75 0 63 0;
#X connect 76 0 62 0;
#X connect 77 0 62 0;
#X connect 78 0 88 0;
#X connect 79 0 83 0;
#X connect 80 0 82 0;
#X connect 80 0 84 0;
#X connect 81 0 8 0;
#X connect 82 0 83 1;
#X connect 83 0 8 0;
#X connect 84 0 81 1;
#X connect 85 0 50 1;
#X connect 85 0 111 1;
#X connect 86 0 85 1;
#X connect 87 0 80 0;
#X connect 88 0 89 0;
#X connect 89 0 81 0;
#X connect 90 0 91 1;
#X connect 91 0 50 1;
#X connect 91 0 111 1;
#X connect 92 0 93 1;
#X connect 93 0 50 1;
#X connect 93 0 111 1;
#X connect 94 0 95 1;
#X connect 95 0 50 1;
#X connect 95 0 111 1;
#X connect 96 0 97 1;
#X connect 97 0 50 1;
#X connect 97 0 111 1;
#X connect 98 0 105 0;
#X connect 99 0 103 0;
#X connect 100 0 102 0;
#X connect 100 0 104 0;
#X connect 101 0 116 0;
#X connect 102 0 103 1;
#X connect 103 0 116 0;
#X connect 104 0 101 1;
#X connect 105 0 106 0;
#X connect 106 0 101 0;
#X connect 107 0 108 0;
#X connect 108 0 109 0;
#X connect 108 0 111 0;
#X connect 109 0 107 0;
#X connect 110 0 2 0;
#X connect 111 0 98 0;
#X connect 111 0 99 0;
#X connect 112 0 114 0;
#X connect 112 0 116 1;
#X connect 113 0 0 0;
#X connect 114 0 112 0;
#X connect 115 0 62 0;
#X connect 115 0 62 1;
#X connect 116 0 62 0;
#X connect 116 0 62 1;
#X connect 117 0 100 0;
#X connect 118 0 60 0;
#X connect 118 1 61 0;
#X connect 118 2 36 0;
#X connect 118 3 27 0;
#X connect 118 4 2 0;
#X connect 118 5 87 0;
#X connect 118 6 120 0;
#X connect 118 7 117 0;
#X connect 119 0 107 0;
#X connect 120 0 119 0;
#X connect 120 1 112 0;
#X connect 121 0 49 0;
#X connect 122 0 51 0;
#X connect 123 0 52 0;
#X connect 124 0 54 0;
#X connect 125 0 85 0;
#X connect 126 0 91 0;
#X connect 127 0 93 0;
#X connect 128 0 95 0;
#X connect 129 0 97 0;
#X coords 0 -1 1 1 380 135 2 100 100;
#X restore 8 10 pd fm;
#N canvas 157 75 844 524 mixer 0;
#X obj 136 140 vsl 15 128 0 127 0 1 empty empty empty 5 10 0 10 -257985
-1 -1 7625 1;
#X obj 155 145 vu 8 120 empty empty -1 -8 0 10 -66577 -1 0 0;
#X obj 274 365 prvu~;
#X msg 591 475 t_metro \$1;
#X msg 590 495 t_release \$1;
#X obj 637 423 loadbang;
#X msg 637 444 10;
#X obj 136 271 tgl 15 1 empty empty 1 5 8 0 10 -262144 -1 -1 1 1;
#X obj 167 140 vsl 15 128 0 127 0 1 empty empty empty 5 10 0 10 -257985
-1 -1 7681 1;
#X obj 186 145 vu 8 120 empty empty -1 -8 0 10 -66577 -1 0 0;
#X obj 300 390 prvu~;
#X obj 167 271 tgl 15 1 empty empty 2 5 8 0 10 -262144 -1 -1 1 1;
#X obj 198 140 vsl 15 128 0 127 0 1 empty empty empty 5 10 0 10 -257985
-1 -1 7625 1;
#X obj 217 145 vu 8 120 empty empty -1 -8 0 10 -66577 -1 0 0;
#X obj 198 271 tgl 15 1 empty empty 3 5 8 0 10 -262144 -1 -1 1 1;
#X obj 229 140 vsl 15 128 0 127 0 1 empty empty empty 5 10 0 10 -4032
-1 -1 7850 1;
#X obj 248 145 vu 8 120 empty empty -1 -8 0 10 -66577 -1 0 0;
#X obj 229 271 tgl 15 1 empty empty 4 5 8 0 10 -262144 -1 -1 1 1;
#X obj 374 436 prvu~;
#X obj 325 413 prvu~;
#X obj 445 141 vsl 30 128 0 127 0 1 empty empty empty 0 -9 0 10 -262144
-1 -1 10300 1;
#X obj 105 140 vsl 15 128 0 127 0 1 empty empty empty 5 10 0 10 -262144
-1 -1 6691 1;
#X obj 124 145 vu 8 120 empty empty -1 -8 0 10 -66577 -1 0 0;
#X obj 235 327 prvu~;
#X obj 105 271 tgl 15 1 empty empty 0 5 8 0 10 -262144 -1 -1 0 1;
#X msg 559 101 \; pd dsp \$1;
#X obj 555 39 samplerate~;
#X obj 391 119 nbx 5 15 -1e+37 1e+37 0 0 empty empty samplerate -65
7 0 10 -262144 -1 -66577 44100 256;
#N canvas 1 75 450 300 cpu 0;
#X obj 118 253 outlet;
#X obj 118 168 cputime;
#X obj 118 28 loadbang;
#X obj 118 112 metro 1000;
#X msg 118 56 1;
#X floatatom 118 84 0 0 0 0 - - -;
#X obj 118 140 t b b;
#X obj 118 228 * 0.1;
#X obj 118 197 int;
#X text 163 84 <-- on/off;
#X connect 1 0 8 0;
#X connect 2 0 4 0;
#X connect 3 0 6 0;
#X connect 4 0 5 0;
#X connect 5 0 3 0;
#X connect 6 0 1 0;
#X connect 6 1 1 1;
#X connect 7 0 0 0;
#X connect 8 0 7 0;
#X restore 642 39 pd cpu;
#X obj 391 104 nbx 5 15 -1e+37 1e+37 0 0 empty empty cpu -25 7 0 10
-262144 -1 -66577 19 256;
#X obj 555 17 loadbang;
#X obj 445 104 tgl 30 0 empty empty DSP 3 15 0 14 -262144 -258113 -1
1 1;
#X obj 433 316 dbtorms;
#X obj 68 11 r \$0-/mixer;
#X obj 53 69 * 127;
#X obj 106 71 * 127;
#X obj 165 72 * 127;
#X obj 226 74 * 127;
#X obj 273 71 * 127;
#X obj 260 140 vsl 15 128 0 127 0 1 empty empty empty 5 10 0 10 -4032
-1 -1 7569 1;
#X obj 279 145 vu 8 120 empty empty -1 -8 0 10 -66577 -1 0 0;
#X obj 260 271 tgl 15 1 empty empty 5 5 8 0 10 -262144 -1 -1 1 1;
#X obj 421 460 prvu~;
#X obj 324 73 * 127;
#X obj 291 140 vsl 15 128 0 127 0 1 empty empty empty 5 10 0 10 -4032
-1 -1 6903 1;
#X obj 310 145 vu 8 120 empty empty -1 -8 0 10 -66577 -1 0 0;
#X obj 291 271 tgl 15 1 empty empty 6 5 8 0 10 -262144 -1 -1 1 1;
#X obj 438 484 prvu~;
#X obj 369 69 * 127;
#X obj 322 140 vsl 15 128 0 127 0 1 empty empty empty 5 10 0 10 -159808
-1 -1 8355 1;
#X obj 341 145 vu 8 120 empty empty -1 -8 0 10 -66577 -1 0 0;
#X obj 322 271 tgl 15 1 empty empty 7 5 8 0 10 -262144 -1 -1 1 1;
#X obj 419 513 prvu~;
#X obj 353 140 vsl 15 128 0 127 0 1 empty empty empty 5 10 0 10 -159808
-1 -1 7308 1;
#X obj 372 145 vu 8 120 empty empty -1 -8 0 10 -66577 -1 0 0;
#X obj 353 271 tgl 15 1 empty empty 8 5 8 0 10 -262144 -1 -1 0 1;
#X obj 466 537 prvu~;
#X obj 384 140 vsl 15 128 0 127 0 1 empty empty empty 5 10 0 10 -159808
-1 -1 7286 1;
#X obj 403 145 vu 8 120 empty empty -1 -8 0 8 -66577 -1 1 0;
#X obj 384 271 tgl 15 1 empty empty 9 5 8 0 10 -262144 -1 -1 0 1;
#X obj 483 561 prvu~;
#X obj 428 67 * 127;
#X obj 472 69 * 127;
#X obj 524 68 * 127;
#X obj 136 662 dac~ 1 2 3 4 5 6 7 8;
#X obj 10 310 r~ out_00_l;
#X obj 10 326 r~ out_00_r;
#X obj 23 347 r~ out_01;
#X obj 24 372 r~ out_02;
#X obj 25 395 r~ out_03;
#X obj 26 420 r~ out_04;
#X obj 27 444 r~ out_05;
#X obj 27 466 r~ out_06;
#X obj 28 487 r~ out_07;
#X obj 29 511 r~ out_08;
#X obj 30 533 r~ out_09;
#X obj 68 31 route /f00 /t00 /f01 /t01 /f02 /t02 /f03 /t03 /f04 /t04
/f05 /t05 /f06 /t06 /f07 /t07 /f08 /t08 /f09 /t09 /tdsp;
#N canvas 538 169 450 372 amp-mo 0;
#X obj 110 229 *~;
#X obj 171 228 *~;
#X obj 220 136 *;
#X obj 297 119 t b f;
#X obj 110 128 *~;
#X obj 220 102 dbtorms;
#X obj 110 49 inlet~;
#X obj 220 49 inlet;
#X obj 297 47 inlet;
#X obj 351 49 inlet;
#X obj 110 272 outlet~;
#X obj 171 272 outlet~;
#X obj 297 75 pack \$1 10;
#X obj 297 97 line;
#X text 226 22 amp;
#X text 304 20 tog;
#X obj 297 272 outlet~;
#X obj 170 131 *~;
#X obj 171 49 inlet~;
#X obj 297 206 +~;
#X obj 297 228 /~ 2;
#X text 365 20 lvl;
#X connect 0 0 10 0;
#X connect 1 0 11 0;
#X connect 2 0 17 1;
#X connect 2 0 4 1;
#X connect 3 0 2 0;
#X connect 3 1 2 1;
#X connect 4 0 0 0;
#X connect 4 0 19 0;
#X connect 5 0 2 0;
#X connect 6 0 4 0;
#X connect 7 0 5 0;
#X connect 8 0 12 0;
#X connect 9 0 0 1;
#X connect 9 0 1 1;
#X connect 12 0 13 0;
#X connect 13 0 3 0;
#X connect 17 0 1 0;
#X connect 17 0 19 1;
#X connect 18 0 17 0;
#X connect 19 0 20 0;
#X connect 20 0 16 0;
#X restore 137 327 pd amp-mo;
#N canvas 162 115 450 372 amp-mo 0;
#X obj 141 233 *~;
#X obj 220 152 *;
#X obj 297 119 t b f;
#X obj 142 169 *~;
#X obj 220 102 dbtorms;
#X obj 142 50 inlet~;
#X obj 220 49 inlet;
#X obj 297 47 inlet;
#X obj 351 49 inlet;
#X obj 141 272 outlet~;
#X obj 297 75 pack \$1 10;
#X obj 297 97 line;
#X text 226 22 amp;
#X text 304 20 tog;
#X obj 264 271 outlet~;
#X text 365 20 lvl;
#X connect 0 0 9 0;
#X connect 1 0 3 1;
#X connect 2 0 1 0;
#X connect 2 1 1 1;
#X connect 3 0 0 0;
#X connect 3 0 14 0;
#X connect 4 0 1 0;
#X connect 5 0 3 0;
#X connect 6 0 4 0;
#X connect 7 0 10 0;
#X connect 8 0 0 1;
#X connect 10 0 11 0;
#X connect 11 0 2 0;
#X restore 277 436 pd amp-mo;
#N canvas 162 115 450 372 amp-mo 0;
#X obj 141 233 *~;
#X obj 220 152 *;
#X obj 297 119 t b f;
#X obj 142 169 *~;
#X obj 220 102 dbtorms;
#X obj 142 50 inlet~;
#X obj 220 49 inlet;
#X obj 297 47 inlet;
#X obj 351 49 inlet;
#X obj 141 272 outlet~;
#X obj 297 75 pack \$1 10;
#X obj 297 97 line;
#X text 226 22 amp;
#X text 304 20 tog;
#X obj 264 271 outlet~;
#X text 365 20 lvl;
#X connect 0 0 9 0;
#X connect 1 0 3 1;
#X connect 2 0 1 0;
#X connect 2 1 1 1;
#X connect 3 0 0 0;
#X connect 3 0 14 0;
#X connect 4 0 1 0;
#X connect 5 0 3 0;
#X connect 6 0 4 0;
#X connect 7 0 10 0;
#X connect 8 0 0 1;
#X connect 10 0 11 0;
#X connect 11 0 2 0;
#X restore 202 390 pd amp-mo;
#N canvas 487 163 450 372 amp-mo 0;
#X obj 141 233 *~;
#X obj 220 152 *;
#X obj 297 119 t b f;
#X obj 142 169 *~;
#X obj 220 102 dbtorms;
#X obj 142 50 inlet~;
#X obj 220 49 inlet;
#X obj 297 47 inlet;
#X obj 351 49 inlet;
#X obj 141 272 outlet~;
#X obj 297 75 pack \$1 10;
#X obj 297 97 line;
#X text 226 22 amp;
#X text 304 20 tog;
#X obj 264 271 outlet~;
#X text 365 20 lvl;
#X connect 0 0 9 0;
#X connect 1 0 3 1;
#X connect 2 0 1 0;
#X connect 2 1 1 1;
#X connect 3 0 0 0;
#X connect 3 0 14 0;
#X connect 4 0 1 0;
#X connect 5 0 3 0;
#X connect 6 0 4 0;
#X connect 7 0 10 0;
#X connect 8 0 0 1;
#X connect 10 0 11 0;
#X connect 11 0 2 0;
#X restore 175 365 pd amp-mo;
#N canvas 162 115 450 372 amp-mo 0;
#X obj 141 233 *~;
#X obj 220 152 *;
#X obj 297 119 t b f;
#X obj 142 169 *~;
#X obj 220 102 dbtorms;
#X obj 142 50 inlet~;
#X obj 220 49 inlet;
#X obj 297 47 inlet;
#X obj 351 49 inlet;
#X obj 141 272 outlet~;
#X obj 297 75 pack \$1 10;
#X obj 297 97 line;
#X text 226 22 amp;
#X text 304 20 tog;
#X obj 264 271 outlet~;
#X text 365 20 lvl;
#X connect 0 0 9 0;
#X connect 1 0 3 1;
#X connect 2 0 1 0;
#X connect 2 1 1 1;
#X connect 3 0 0 0;
#X connect 3 0 14 0;
#X connect 4 0 1 0;
#X connect 5 0 3 0;
#X connect 6 0 4 0;
#X connect 7 0 10 0;
#X connect 8 0 0 1;
#X connect 10 0 11 0;
#X connect 11 0 2 0;
#X restore 228 413 pd amp-mo;
#N canvas 162 115 450 372 amp-mo 0;
#X obj 141 233 *~;
#X obj 220 152 *;
#X obj 297 119 t b f;
#X obj 142 169 *~;
#X obj 220 102 dbtorms;
#X obj 142 50 inlet~;
#X obj 220 49 inlet;
#X obj 297 47 inlet;
#X obj 351 49 inlet;
#X obj 141 272 outlet~;
#X obj 297 75 pack \$1 10;
#X obj 297 97 line;
#X text 226 22 amp;
#X text 304 20 tog;
#X obj 264 271 outlet~;
#X text 365 20 lvl;
#X connect 0 0 9 0;
#X connect 1 0 3 1;
#X connect 2 0 1 0;
#X connect 2 1 1 1;
#X connect 3 0 0 0;
#X connect 3 0 14 0;
#X connect 4 0 1 0;
#X connect 5 0 3 0;
#X connect 6 0 4 0;
#X connect 7 0 10 0;
#X connect 8 0 0 1;
#X connect 10 0 11 0;
#X connect 11 0 2 0;
#X restore 302 460 pd amp-mo;
#N canvas 162 115 450 372 amp-mo 0;
#X obj 141 233 *~;
#X obj 220 152 *;
#X obj 297 119 t b f;
#X obj 142 169 *~;
#X obj 220 102 dbtorms;
#X obj 142 50 inlet~;
#X obj 220 49 inlet;
#X obj 297 47 inlet;
#X obj 351 49 inlet;
#X obj 141 272 outlet~;
#X obj 297 75 pack \$1 10;
#X obj 297 97 line;
#X text 226 22 amp;
#X text 304 20 tog;
#X obj 264 271 outlet~;
#X text 365 20 lvl;
#X connect 0 0 9 0;
#X connect 1 0 3 1;
#X connect 2 0 1 0;
#X connect 2 1 1 1;
#X connect 3 0 0 0;
#X connect 3 0 14 0;
#X connect 4 0 1 0;
#X connect 5 0 3 0;
#X connect 6 0 4 0;
#X connect 7 0 10 0;
#X connect 8 0 0 1;
#X connect 10 0 11 0;
#X connect 11 0 2 0;
#X restore 321 486 pd amp-mo;
#N canvas 162 115 450 372 amp-mo 0;
#X obj 141 233 *~;
#X obj 220 152 *;
#X obj 297 119 t b f;
#X obj 142 169 *~;
#X obj 220 102 dbtorms;
#X obj 142 50 inlet~;
#X obj 220 49 inlet;
#X obj 297 47 inlet;
#X obj 351 49 inlet;
#X obj 141 272 outlet~;
#X obj 297 75 pack \$1 10;
#X obj 297 97 line;
#X text 226 22 amp;
#X text 304 20 tog;
#X obj 264 271 outlet~;
#X text 365 20 lvl;
#X connect 0 0 9 0;
#X connect 1 0 3 1;
#X connect 2 0 1 0;
#X connect 2 1 1 1;
#X connect 3 0 0 0;
#X connect 3 0 14 0;
#X connect 4 0 1 0;
#X connect 5 0 3 0;
#X connect 6 0 4 0;
#X connect 7 0 10 0;
#X connect 8 0 0 1;
#X connect 10 0 11 0;
#X connect 11 0 2 0;
#X restore 322 513 pd amp-mo;
#N canvas 162 115 450 372 amp-mo 0;
#X obj 141 233 *~;
#X obj 220 152 *;
#X obj 297 119 t b f;
#X obj 142 169 *~;
#X obj 220 102 dbtorms;
#X obj 142 50 inlet~;
#X obj 220 49 inlet;
#X obj 297 47 inlet;
#X obj 351 49 inlet;
#X obj 141 272 outlet~;
#X obj 297 75 pack \$1 10;
#X obj 297 97 line;
#X text 226 22 amp;
#X text 304 20 tog;
#X obj 264 271 outlet~;
#X text 365 20 lvl;
#X connect 0 0 9 0;
#X connect 1 0 3 1;
#X connect 2 0 1 0;
#X connect 2 1 1 1;
#X connect 3 0 0 0;
#X connect 3 0 14 0;
#X connect 4 0 1 0;
#X connect 5 0 3 0;
#X connect 6 0 4 0;
#X connect 7 0 10 0;
#X connect 8 0 0 1;
#X connect 10 0 11 0;
#X connect 11 0 2 0;
#X restore 366 537 pd amp-mo;
#N canvas 162 115 450 372 amp-mo 0;
#X obj 141 233 *~;
#X obj 220 152 *;
#X obj 297 119 t b f;
#X obj 142 169 *~;
#X obj 220 102 dbtorms;
#X obj 142 50 inlet~;
#X obj 220 49 inlet;
#X obj 297 47 inlet;
#X obj 351 49 inlet;
#X obj 141 272 outlet~;
#X obj 297 75 pack \$1 10;
#X obj 297 97 line;
#X text 226 22 amp;
#X text 304 20 tog;
#X obj 264 271 outlet~;
#X text 365 20 lvl;
#X connect 0 0 9 0;
#X connect 1 0 3 1;
#X connect 2 0 1 0;
#X connect 2 1 1 1;
#X connect 3 0 0 0;
#X connect 3 0 14 0;
#X connect 4 0 1 0;
#X connect 5 0 3 0;
#X connect 6 0 4 0;
#X connect 7 0 10 0;
#X connect 8 0 0 1;
#X connect 10 0 11 0;
#X connect 11 0 2 0;
#X restore 379 560 pd amp-mo;
#X connect 0 0 80 1;
#X connect 2 0 1 0;
#X connect 3 0 2 0;
#X connect 3 0 10 0;
#X connect 3 0 18 0;
#X connect 3 0 23 0;
#X connect 3 0 42 0;
#X connect 3 0 47 0;
#X connect 3 0 52 0;
#X connect 3 0 56 0;
#X connect 3 0 60 0;
#X connect 4 0 2 0;
#X connect 4 0 10 0;
#X connect 4 0 18 0;
#X connect 4 0 23 0;
#X connect 4 0 42 0;
#X connect 4 0 47 0;
#X connect 4 0 60 0;
#X connect 4 0 56 0;
#X connect 4 0 52 0;
#X connect 5 0 6 0;
#X connect 6 0 3 0;
#X connect 6 0 4 0;
#X connect 7 0 80 2;
#X connect 8 0 79 1;
#X connect 10 0 9 0;
#X connect 11 0 79 2;
#X connect 12 0 81 1;
#X connect 14 0 81 2;
#X connect 15 0 78 1;
#X connect 17 0 78 2;
#X connect 18 0 16 0;
#X connect 19 0 13 0;
#X connect 20 0 32 0;
#X connect 21 0 77 2;
#X connect 23 0 22 0;
#X connect 24 0 77 3;
#X connect 26 0 27 0;
#X connect 28 0 29 0;
#X connect 30 0 26 0;
#X connect 31 0 25 0;
#X connect 32 0 77 4;
#X connect 32 0 80 3;
#X connect 32 0 79 3;
#X connect 32 0 81 3;
#X connect 32 0 78 3;
#X connect 32 0 82 3;
#X connect 32 0 83 3;
#X connect 32 0 84 3;
#X connect 32 0 85 3;
#X connect 32 0 86 3;
#X connect 33 0 76 0;
#X connect 34 0 21 0;
#X connect 35 0 0 0;
#X connect 36 0 8 0;
#X connect 37 0 12 0;
#X connect 38 0 15 0;
#X connect 39 0 82 1;
#X connect 41 0 82 2;
#X connect 42 0 40 0;
#X connect 43 0 39 0;
#X connect 44 0 83 1;
#X connect 46 0 83 2;
#X connect 47 0 45 0;
#X connect 48 0 44 0;
#X connect 49 0 84 1;
#X connect 51 0 84 2;
#X connect 52 0 50 0;
#X connect 53 0 85 1;
#X connect 55 0 85 2;
#X connect 56 0 54 0;
#X connect 57 0 86 1;
#X connect 59 0 86 2;
#X connect 60 0 58 0;
#X connect 61 0 49 0;
#X connect 62 0 53 0;
#X connect 63 0 57 0;
#X connect 65 0 77 0;
#X connect 66 0 77 1;
#X connect 67 0 80 0;
#X connect 68 0 79 0;
#X connect 69 0 81 0;
#X connect 70 0 78 0;
#X connect 71 0 82 0;
#X connect 72 0 83 0;
#X connect 73 0 84 0;
#X connect 74 0 85 0;
#X connect 75 0 86 0;
#X connect 76 0 34 0;
#X connect 76 1 24 0;
#X connect 76 2 35 0;
#X connect 76 3 7 0;
#X connect 76 4 36 0;
#X connect 76 5 11 0;
#X connect 76 6 37 0;
#X connect 76 7 14 0;
#X connect 76 8 38 0;
#X connect 76 9 17 0;
#X connect 76 10 43 0;
#X connect 76 11 41 0;
#X connect 76 12 48 0;
#X connect 76 13 46 0;
#X connect 76 14 61 0;
#X connect 76 15 51 0;
#X connect 76 16 62 0;
#X connect 76 17 55 0;
#X connect 76 18 63 0;
#X connect 76 19 59 0;
#X connect 76 20 31 0;
#X connect 77 0 64 0;
#X connect 77 1 64 1;
#X connect 77 2 23 0;
#X connect 78 0 64 1;
#X connect 78 1 18 0;
#X connect 79 0 64 1;
#X connect 79 1 10 0;
#X connect 80 0 64 0;
#X connect 80 1 2 0;
#X connect 81 0 64 0;
#X connect 81 1 19 0;
#X connect 82 0 64 0;
#X connect 82 1 42 0;
#X connect 83 0 64 1;
#X connect 83 1 47 0;
#X connect 84 0 64 0;
#X connect 84 1 52 0;
#X connect 85 0 64 1;
#X connect 85 1 56 0;
#X connect 86 1 60 0;
#X coords 0 -1 1 1 380 190 1 100 100;
#X restore 8 151 pd mixer;
#N canvas 1 75 1009 524 matrix 0;
#X obj 192 430 *~;
#X obj 221 429 *~;
#X obj 249 429 *~;
#X obj 193 454 *~;
#X obj 298 430 *~;
#X obj 326 430 *~;
#X obj 354 430 *~;
#X obj 297 454 *~;
#X obj 398 426 *~;
#X obj 426 426 *~;
#X obj 454 426 *~;
#X obj 397 447 *~;
#X obj 502 425 *~;
#X obj 530 425 *~;
#X obj 558 425 *~;
#X obj 502 445 *~;
#X obj 170 37 metro 8000;
#X obj 170 59 random 8000;
#X obj 220 104 tgl 15 0 empty empty empty 17 7 0 10 -262144 -258113
-1 0 1;
#X obj 235 104 bng 15 250 50 0 empty empty empty 17 7 0 10 -258113
-1 -1;
#X obj 166 104 nbx 5 15 -1e+37 1e+37 0 1 empty empty empty 0 -8 0 10
-261234 -1 -1 7000 256;
#X obj 306 9 r \$0-/matrix;
#X obj 388 77 spigot;
#X obj 388 54 t b f;
#X obj 250 104 bng 15 250 50 0 empty empty 0 5 8 0 10 -262144 -1 -1
;
#X obj 607 418 *~;
#X obj 634 418 *~;
#X obj 661 418 *~;
#X obj 607 438 *~;
#X obj 221 454 *~;
#X obj 324 454 *~;
#X obj 634 438 *~;
#X obj 425 447 *~;
#X obj 530 445 *~;
#X obj 706 418 *~;
#X obj 732 418 *~;
#X obj 760 418 *~;
#X obj 705 440 *~;
#X obj 732 440 *~;
#X obj 251 454 *~;
#X obj 353 454 *~;
#X obj 454 447 *~;
#X obj 558 445 *~;
#X obj 662 438 *~;
#X obj 761 440 *~;
#X obj 130 130 tgl 15 1 empty empty 1-> -20 7 0 10 -262144 -1 -1 1
1;
#X obj 145 130 tgl 15 1 empty empty empty 17 7 0 10 -262144 -1 -1 1
1;
#X obj 160 130 tgl 15 1 empty empty empty 17 7 0 10 -262144 -1 -1 0
1;
#X obj 175 130 tgl 15 1 empty empty empty 17 7 0 10 -262144 -1 -1 0
1;
#X obj 130 145 tgl 15 1 empty empty 2-> -20 7 0 10 -262144 -1 -1 0
1;
#X obj 145 145 tgl 15 1 empty empty empty 17 7 0 10 -262144 -1 -1 0
1;
#X obj 160 145 tgl 15 1 empty empty empty 17 7 0 10 -262144 -1 -1 0
1;
#X obj 175 145 tgl 15 1 empty empty empty 17 7 0 10 -262144 -1 -1 0
1;
#X obj 130 160 tgl 15 1 empty empty 3-> -20 7 0 10 -262144 -1 -1 1
1;
#X obj 145 160 tgl 15 1 empty empty empty 17 7 0 10 -262144 -1 -1 0
1;
#X obj 160 160 tgl 15 1 empty empty empty 17 7 0 10 -262144 -1 -1 1
1;
#X obj 175 160 tgl 15 1 empty empty empty 17 7 0 10 -262144 -1 -1 0
1;
#X obj 130 175 tgl 15 1 empty empty 4-> -20 7 0 10 -262144 -1 -1 1
1;
#X obj 145 175 tgl 15 1 empty empty empty 17 7 0 10 -262144 -1 -1 0
1;
#X obj 160 175 tgl 15 1 empty empty empty 17 7 0 10 -262144 -1 -1 1
1;
#X obj 175 175 tgl 15 1 empty empty empty 17 7 0 10 -262144 -1 -1 1
1;
#X obj 190 130 tgl 15 1 empty empty empty 17 7 0 10 -262144 -1 -1 0
1;
#X obj 190 145 tgl 15 1 empty empty empty 17 7 0 10 -262144 -1 -1 0
1;
#X obj 190 160 tgl 15 1 empty empty empty 17 7 0 10 -262144 -1 -1 1
1;
#X obj 190 175 tgl 15 1 empty empty empty 17 7 0 10 -262144 -1 -1 0
1;
#X obj 130 190 tgl 15 1 empty empty 5-> -20 7 0 10 -262144 -1 -1 0
1;
#X obj 145 190 tgl 15 1 empty empty empty 17 7 0 10 -262144 -1 -1 0
1;
#X obj 160 190 tgl 15 1 empty empty empty 17 7 0 10 -262144 -1 -1 1
1;
#X obj 175 190 tgl 15 1 empty empty empty 17 7 0 10 -262144 -1 -1 1
1;
#X obj 190 190 tgl 15 1 empty empty empty 17 7 0 10 -262144 -1 -1 0
1;
#X obj 205 130 tgl 15 1 empty empty empty 17 7 0 10 -262144 -1 -1 0
1;
#X obj 205 145 tgl 15 1 empty empty empty 17 7 0 10 -262144 -1 -1 0
1;
#X obj 205 160 tgl 15 1 empty empty empty 17 7 0 10 -262144 -1 -1 0
1;
#X obj 205 175 tgl 15 1 empty empty empty 17 7 0 10 -262144 -1 -1 1
1;
#X obj 205 190 tgl 15 1 empty empty empty 17 7 0 10 -262144 -1 -1 1
1;
#X obj 205 205 tgl 15 1 empty empty empty 17 7 0 10 -262144 -1 -1 0
1;
#X obj 130 205 tgl 15 1 empty empty 6-> -20 7 0 10 -262144 -1 -1 1
1;
#X obj 145 205 tgl 15 1 empty empty empty 17 7 0 10 -262144 -1 -1 0
1;
#X obj 160 205 tgl 15 1 empty empty empty 17 7 0 10 -262144 -1 -1 1
1;
#X obj 175 205 tgl 15 1 empty empty empty 17 7 0 10 -262144 -1 -1 1
1;
#X obj 190 205 tgl 15 1 empty empty empty 17 7 0 10 -262144 -1 -1 0
1;
#X obj 130 220 tgl 15 1 empty empty 7-> -20 7 0 10 -262144 -1 -1 0
1;
#X obj 145 220 tgl 15 1 empty empty empty 17 7 0 10 -262144 -1 -1 1
1;
#X obj 160 220 tgl 15 1 empty empty empty 17 7 0 10 -262144 -1 -1 1
1;
#X obj 175 220 tgl 15 1 empty empty empty 17 7 0 10 -262144 -1 -1 0
1;
#X obj 190 220 tgl 15 1 empty empty empty 17 7 0 10 -262144 -1 -1 1
1;
#X obj 130 235 tgl 15 1 empty empty 8-> -20 7 0 10 -262144 -1 -1 1
1;
#X obj 145 235 tgl 15 1 empty empty empty 17 7 0 10 -262144 -1 -1 1
1;
#X obj 160 235 tgl 15 1 empty empty empty 17 7 0 10 -262144 -1 -1 0
1;
#X obj 175 235 tgl 15 1 empty empty empty 17 7 0 10 -262144 -1 -1 0
1;
#X obj 190 235 tgl 15 1 empty empty empty 17 7 0 10 -262144 -1 -1 0
1;
#X obj 205 220 tgl 15 1 empty empty empty 17 7 0 10 -262144 -1 -1 0
1;
#X obj 205 235 tgl 15 1 empty empty empty 17 7 0 10 -262144 -1 -1 0
1;
#X obj 205 250 tgl 15 1 empty empty empty 17 7 0 10 -262144 -1 -1 1
1;
#X obj 130 250 tgl 15 1 empty empty 9-> -20 7 0 10 -262144 -1 -1 0
1;
#X obj 145 250 tgl 15 1 empty empty empty 17 7 0 10 -262144 -1 -1 1
1;
#X obj 160 250 tgl 15 1 empty empty empty 17 7 0 10 -262144 -1 -1 1
1;
#X obj 175 250 tgl 15 1 empty empty empty 17 7 0 10 -262144 -1 -1 1
1;
#X obj 190 250 tgl 15 1 empty empty empty 17 7 0 10 -262144 -1 -1 1
1;
#X obj 220 220 tgl 15 1 empty empty empty 17 7 0 10 -262144 -1 -1 1
1;
#X obj 235 220 tgl 15 1 empty empty empty 17 7 0 10 -262144 -1 -1 0
1;
#X obj 220 235 tgl 15 1 empty empty empty 17 7 0 10 -262144 -1 -1 1
1;
#X obj 235 235 tgl 15 1 empty empty empty 17 7 0 10 -262144 -1 -1 1
1;
#X obj 250 220 tgl 15 1 empty empty empty 17 7 0 10 -262144 -1 -1 0
1;
#X obj 250 235 tgl 15 1 empty empty empty 17 7 0 10 -262144 -1 -1 1
1;
#X obj 250 250 tgl 15 1 empty empty empty 17 7 0 10 -262144 -1 -1 0
1;
#X obj 220 250 tgl 15 1 empty empty empty 17 7 0 10 -262144 -1 -1 0
1;
#X obj 235 250 tgl 15 1 empty empty empty 17 7 0 10 -262144 -1 -1 0
1;
#X obj 220 175 tgl 15 1 empty empty empty 17 7 0 10 -262144 -1 -1 1
1;
#X obj 235 175 tgl 15 1 empty empty empty 17 7 0 10 -262144 -1 -1 1
1;
#X obj 220 190 tgl 15 1 empty empty empty 17 7 0 10 -262144 -1 -1 0
1;
#X obj 235 190 tgl 15 1 empty empty empty 17 7 0 10 -262144 -1 -1 0
1;
#X obj 250 175 tgl 15 1 empty empty empty 17 7 0 10 -262144 -1 -1 0
1;
#X obj 250 190 tgl 15 1 empty empty empty 17 7 0 10 -262144 -1 -1 1
1;
#X obj 250 205 tgl 15 1 empty empty empty 17 7 0 10 -262144 -1 -1 0
1;
#X obj 220 205 tgl 15 1 empty empty empty 17 7 0 10 -262144 -1 -1 1
1;
#X obj 235 205 tgl 15 1 empty empty empty 17 7 0 10 -262144 -1 -1 0
1;
#X obj 220 130 tgl 15 1 empty empty empty 17 7 0 10 -262144 -1 -1 0
1;
#X obj 235 130 tgl 15 1 empty empty empty 17 7 0 10 -262144 -1 -1 1
1;
#X obj 220 145 tgl 15 1 empty empty empty 17 7 0 10 -262144 -1 -1 0
1;
#X obj 235 145 tgl 15 1 empty empty empty 17 7 0 10 -262144 -1 -1 0
1;
#X obj 250 130 tgl 15 1 empty empty empty 17 7 0 10 -262144 -1 -1 1
1;
#X obj 250 145 tgl 15 1 empty empty empty 17 7 0 10 -262144 -1 -1 0
1;
#X obj 250 160 tgl 15 1 empty empty empty 17 7 0 10 -262144 -1 -1 0
1;
#X obj 220 160 tgl 15 1 empty empty empty 17 7 0 10 -262144 -1 -1 1
1;
#X obj 235 160 tgl 15 1 empty empty empty 17 7 0 10 -262144 -1 -1 1
1;
#X obj 442 78 spigot;
#X obj 442 55 t b f;
#X obj 193 477 *~;
#X obj 222 478 *~;
#X obj 251 478 *~;
#X obj 297 477 *~;
#X obj 324 477 *~;
#X obj 353 477 *~;
#X obj 398 468 *~;
#X obj 426 468 *~;
#X obj 455 468 *~;
#X obj 503 466 *~;
#X obj 531 466 *~;
#X obj 559 466 *~;
#X obj 607 458 *~;
#X obj 634 458 *~;
#X obj 662 458 *~;
#X obj 706 462 *~;
#X obj 733 462 *~;
#X obj 762 462 *~;
#X obj 804 422 *~;
#X obj 832 422 *~;
#X obj 860 422 *~;
#X obj 805 442 *~;
#X obj 832 442 *~;
#X obj 861 442 *~;
#X obj 806 462 *~;
#X obj 833 462 *~;
#X obj 862 462 *~;
#X obj 912 431 *~;
#X obj 940 431 *~;
#X obj 968 431 *~;
#X obj 912 452 *~;
#X obj 939 452 *~;
#X obj 968 452 *~;
#X obj 913 473 *~;
#X obj 940 473 *~;
#X obj 969 473 *~;
#X obj 1016 435 *~;
#X obj 1045 435 *~;
#X obj 1073 435 *~;
#X obj 1016 455 *~;
#X obj 1044 455 *~;
#X obj 1073 455 *~;
#X obj 1016 475 *~;
#X obj 1044 475 *~;
#X obj 1073 475 *~;
#X obj 306 32 route /grid /tr /br /br0;
#N canvas 198 202 1017 488 row_________0 0;
#X obj 27 49 unpack f f f;
#X obj 27 19 inlet;
#X obj 27 317 f;
#X obj 27 282 select 1;
#X obj 355 124 == 0;
#X obj 27 425 outlet;
#X obj 125 318 f;
#X obj 125 283 select 1;
#X obj 125 426 outlet;
#X obj 220 318 f;
#X obj 220 283 select 1;
#X obj 220 426 outlet;
#X obj 318 319 f;
#X obj 318 284 select 1;
#X obj 318 427 outlet;
#X obj 412 319 f;
#X obj 412 284 select 1;
#X obj 412 427 outlet;
#X obj 510 320 f;
#X obj 510 285 select 1;
#X obj 510 428 outlet;
#X obj 605 320 f;
#X obj 605 285 select 1;
#X obj 605 428 outlet;
#X obj 703 321 f;
#X obj 703 286 select 1;
#X obj 703 429 outlet;
#X obj 802 321 f;
#X obj 802 286 select 1;
#X obj 802 429 outlet;
#X obj 355 102 change;
#X obj 27 257 &&;
#X obj 125 258 &&;
#X obj 220 258 &&;
#X obj 318 259 &&;
#X obj 412 259 &&;
#X obj 510 260 &&;
#X obj 605 260 &&;
#X obj 703 261 &&;
#X obj 802 261 &&;
#X obj 27 220 == 0;
#X obj 125 219 == 1;
#X obj 220 218 == 2;
#X obj 318 219 == 3;
#X obj 412 221 == 4;
#X obj 510 223 == 5;
#X obj 605 224 == 6;
#X obj 703 225 == 7;
#X obj 802 226 == 8;
#X obj 901 84 random 2;
#X obj 901 105 random 2;
#X obj 901 126 random 2;
#X obj 901 147 random 2;
#X obj 901 168 random 2;
#X obj 901 189 random 2;
#X obj 901 210 random 2;
#X obj 901 230 random 2;
#X obj 901 251 random 2;
#X msg 509 79 0;
#X obj 690 28 inlet;
#X obj 509 32 inlet;
#X connect 0 0 40 0;
#X connect 0 0 41 0;
#X connect 0 0 42 0;
#X connect 0 0 43 0;
#X connect 0 0 44 0;
#X connect 0 0 45 0;
#X connect 0 0 46 0;
#X connect 0 0 47 0;
#X connect 0 0 48 0;
#X connect 0 1 30 0;
#X connect 0 2 2 1;
#X connect 0 2 6 1;
#X connect 0 2 9 1;
#X connect 0 2 12 1;
#X connect 0 2 15 1;
#X connect 0 2 18 1;
#X connect 0 2 21 1;
#X connect 0 2 24 1;
#X connect 0 2 27 1;
#X connect 1 0 0 0;
#X connect 2 0 5 0;
#X connect 3 0 2 0;
#X connect 4 0 31 1;
#X connect 4 0 32 1;
#X connect 4 0 33 1;
#X connect 4 0 34 1;
#X connect 4 0 35 1;
#X connect 4 0 36 1;
#X connect 4 0 37 1;
#X connect 4 0 38 1;
#X connect 4 0 39 1;
#X connect 6 0 8 0;
#X connect 7 0 6 0;
#X connect 9 0 11 0;
#X connect 10 0 9 0;
#X connect 12 0 14 0;
#X connect 13 0 12 0;
#X connect 15 0 17 0;
#X connect 16 0 15 0;
#X connect 18 0 20 0;
#X connect 19 0 18 0;
#X connect 21 0 23 0;
#X connect 22 0 21 0;
#X connect 24 0 26 0;
#X connect 25 0 24 0;
#X connect 27 0 29 0;
#X connect 28 0 27 0;
#X connect 30 0 4 0;
#X connect 31 0 3 0;
#X connect 32 0 7 0;
#X connect 33 0 10 0;
#X connect 34 0 13 0;
#X connect 35 0 16 0;
#X connect 36 0 19 0;
#X connect 37 0 22 0;
#X connect 38 0 25 0;
#X connect 39 0 28 0;
#X connect 40 0 31 0;
#X connect 41 0 32 0;
#X connect 42 0 33 0;
#X connect 43 0 34 0;
#X connect 44 0 35 0;
#X connect 45 0 36 0;
#X connect 46 0 37 0;
#X connect 47 0 38 0;
#X connect 48 0 39 0;
#X connect 49 0 5 0;
#X connect 50 0 8 0;
#X connect 51 0 11 0;
#X connect 52 0 14 0;
#X connect 53 0 17 0;
#X connect 54 0 20 0;
#X connect 55 0 23 0;
#X connect 56 0 26 0;
#X connect 57 0 29 0;
#X connect 58 0 29 0;
#X connect 58 0 26 0;
#X connect 58 0 23 0;
#X connect 58 0 20 0;
#X connect 58 0 17 0;
#X connect 58 0 14 0;
#X connect 58 0 11 0;
#X connect 58 0 8 0;
#X connect 58 0 5 0;
#X connect 59 0 49 0;
#X connect 59 0 50 0;
#X connect 59 0 51 0;
#X connect 59 0 52 0;
#X connect 59 0 53 0;
#X connect 59 0 54 0;
#X connect 59 0 55 0;
#X connect 59 0 56 0;
#X connect 59 0 57 0;
#X connect 60 0 58 0;
#X restore 645 152 pd row_________0;
#N canvas 198 197 1015 488 row_________1 0;
#X obj 27 29 inlet;
#X obj 27 374 outlet;
#X obj 125 375 outlet;
#X obj 220 375 outlet;
#X obj 318 376 outlet;
#X obj 412 376 outlet;
#X obj 510 377 outlet;
#X obj 605 377 outlet;
#X obj 703 378 outlet;
#X obj 802 378 outlet;
#X obj 27 65 unpack f f f;
#X obj 27 333 f;
#X obj 27 298 select 1;
#X obj 125 334 f;
#X obj 125 299 select 1;
#X obj 220 334 f;
#X obj 220 299 select 1;
#X obj 318 335 f;
#X obj 318 300 select 1;
#X obj 412 335 f;
#X obj 412 300 select 1;
#X obj 510 336 f;
#X obj 510 301 select 1;
#X obj 605 336 f;
#X obj 605 301 select 1;
#X obj 703 337 f;
#X obj 703 302 select 1;
#X obj 802 337 f;
#X obj 802 302 select 1;
#X obj 355 118 change;
#X obj 27 273 &&;
#X obj 125 274 &&;
#X obj 220 274 &&;
#X obj 318 275 &&;
#X obj 412 275 &&;
#X obj 510 276 &&;
#X obj 605 276 &&;
#X obj 703 277 &&;
#X obj 802 277 &&;
#X obj 27 236 == 0;
#X obj 125 235 == 1;
#X obj 220 234 == 2;
#X obj 318 235 == 3;
#X obj 412 237 == 4;
#X obj 510 239 == 5;
#X obj 605 240 == 6;
#X obj 703 241 == 7;
#X obj 802 242 == 8;
#X obj 355 140 == 1;
#X obj 901 84 random 2;
#X obj 901 105 random 2;
#X obj 901 126 random 2;
#X obj 901 147 random 2;
#X obj 901 168 random 2;
#X obj 901 189 random 2;
#X obj 901 210 random 2;
#X obj 901 230 random 2;
#X obj 901 251 random 2;
#X msg 509 79 0;
#X obj 690 28 inlet;
#X obj 509 32 inlet;
#X connect 0 0 10 0;
#X connect 10 0 39 0;
#X connect 10 0 40 0;
#X connect 10 0 41 0;
#X connect 10 0 42 0;
#X connect 10 0 43 0;
#X connect 10 0 44 0;
#X connect 10 0 45 0;
#X connect 10 0 46 0;
#X connect 10 0 47 0;
#X connect 10 1 29 0;
#X connect 10 2 11 1;
#X connect 10 2 13 1;
#X connect 10 2 15 1;
#X connect 10 2 17 1;
#X connect 10 2 19 1;
#X connect 10 2 21 1;
#X connect 10 2 23 1;
#X connect 10 2 25 1;
#X connect 10 2 27 1;
#X connect 11 0 1 0;
#X connect 12 0 11 0;
#X connect 13 0 2 0;
#X connect 14 0 13 0;
#X connect 15 0 3 0;
#X connect 16 0 15 0;
#X connect 17 0 4 0;
#X connect 18 0 17 0;
#X connect 19 0 5 0;
#X connect 20 0 19 0;
#X connect 21 0 6 0;
#X connect 22 0 21 0;
#X connect 23 0 7 0;
#X connect 24 0 23 0;
#X connect 25 0 8 0;
#X connect 26 0 25 0;
#X connect 27 0 9 0;
#X connect 28 0 27 0;
#X connect 29 0 48 0;
#X connect 30 0 12 0;
#X connect 31 0 14 0;
#X connect 32 0 16 0;
#X connect 33 0 18 0;
#X connect 34 0 20 0;
#X connect 35 0 22 0;
#X connect 36 0 24 0;
#X connect 37 0 26 0;
#X connect 38 0 28 0;
#X connect 39 0 30 0;
#X connect 40 0 31 0;
#X connect 41 0 32 0;
#X connect 42 0 33 0;
#X connect 43 0 34 0;
#X connect 44 0 35 0;
#X connect 45 0 36 0;
#X connect 46 0 37 0;
#X connect 47 0 38 0;
#X connect 48 0 30 1;
#X connect 48 0 31 1;
#X connect 48 0 32 1;
#X connect 48 0 33 1;
#X connect 48 0 34 1;
#X connect 48 0 35 1;
#X connect 48 0 36 1;
#X connect 48 0 37 1;
#X connect 48 0 38 1;
#X connect 49 0 1 0;
#X connect 50 0 2 0;
#X connect 51 0 3 0;
#X connect 52 0 4 0;
#X connect 53 0 5 0;
#X connect 54 0 6 0;
#X connect 55 0 7 0;
#X connect 56 0 8 0;
#X connect 57 0 9 0;
#X connect 58 0 1 0;
#X connect 58 0 2 0;
#X connect 58 0 3 0;
#X connect 58 0 4 0;
#X connect 58 0 5 0;
#X connect 58 0 6 0;
#X connect 58 0 7 0;
#X connect 58 0 8 0;
#X connect 58 0 9 0;
#X connect 59 0 49 0;
#X connect 59 0 50 0;
#X connect 59 0 51 0;
#X connect 59 0 52 0;
#X connect 59 0 53 0;
#X connect 59 0 54 0;
#X connect 59 0 55 0;
#X connect 59 0 56 0;
#X connect 59 0 57 0;
#X connect 60 0 58 0;
#X restore 645 172 pd row_________1;
#N canvas 89 259 1029 488 row_________2 0;
#X obj 27 29 inlet;
#X obj 27 371 outlet;
#X obj 125 372 outlet;
#X obj 220 372 outlet;
#X obj 318 373 outlet;
#X obj 412 373 outlet;
#X obj 510 374 outlet;
#X obj 605 374 outlet;
#X obj 703 375 outlet;
#X obj 802 375 outlet;
#X obj 27 62 unpack f f f;
#X obj 27 330 f;
#X obj 27 295 select 1;
#X obj 125 331 f;
#X obj 125 296 select 1;
#X obj 220 331 f;
#X obj 220 296 select 1;
#X obj 318 332 f;
#X obj 318 297 select 1;
#X obj 412 332 f;
#X obj 412 297 select 1;
#X obj 510 333 f;
#X obj 510 298 select 1;
#X obj 605 333 f;
#X obj 605 298 select 1;
#X obj 703 334 f;
#X obj 703 299 select 1;
#X obj 802 334 f;
#X obj 802 299 select 1;
#X obj 355 115 change;
#X obj 27 270 &&;
#X obj 125 271 &&;
#X obj 220 271 &&;
#X obj 318 272 &&;
#X obj 412 272 &&;
#X obj 510 273 &&;
#X obj 605 273 &&;
#X obj 703 274 &&;
#X obj 802 274 &&;
#X obj 27 233 == 0;
#X obj 125 232 == 1;
#X obj 220 231 == 2;
#X obj 318 232 == 3;
#X obj 412 234 == 4;
#X obj 510 236 == 5;
#X obj 605 237 == 6;
#X obj 703 238 == 7;
#X obj 802 239 == 8;
#X obj 355 137 == 2;
#X obj 901 84 random 2;
#X obj 901 105 random 2;
#X obj 901 126 random 2;
#X obj 901 147 random 2;
#X obj 901 168 random 2;
#X obj 901 189 random 2;
#X obj 901 210 random 2;
#X obj 901 230 random 2;
#X obj 901 251 random 2;
#X msg 477 78 0;
#X obj 690 28 inlet;
#X obj 477 31 inlet;
#X connect 0 0 10 0;
#X connect 10 0 39 0;
#X connect 10 0 40 0;
#X connect 10 0 41 0;
#X connect 10 0 42 0;
#X connect 10 0 43 0;
#X connect 10 0 44 0;
#X connect 10 0 45 0;
#X connect 10 0 46 0;
#X connect 10 0 47 0;
#X connect 10 1 29 0;
#X connect 10 2 11 1;
#X connect 10 2 13 1;
#X connect 10 2 15 1;
#X connect 10 2 17 1;
#X connect 10 2 19 1;
#X connect 10 2 21 1;
#X connect 10 2 23 1;
#X connect 10 2 25 1;
#X connect 10 2 27 1;
#X connect 11 0 1 0;
#X connect 12 0 11 0;
#X connect 13 0 2 0;
#X connect 14 0 13 0;
#X connect 15 0 3 0;
#X connect 16 0 15 0;
#X connect 17 0 4 0;
#X connect 18 0 17 0;
#X connect 19 0 5 0;
#X connect 20 0 19 0;
#X connect 21 0 6 0;
#X connect 22 0 21 0;
#X connect 23 0 7 0;
#X connect 24 0 23 0;
#X connect 25 0 8 0;
#X connect 26 0 25 0;
#X connect 27 0 9 0;
#X connect 28 0 27 0;
#X connect 29 0 48 0;
#X connect 30 0 12 0;
#X connect 31 0 14 0;
#X connect 32 0 16 0;
#X connect 33 0 18 0;
#X connect 34 0 20 0;
#X connect 35 0 22 0;
#X connect 36 0 24 0;
#X connect 37 0 26 0;
#X connect 38 0 28 0;
#X connect 39 0 30 0;
#X connect 40 0 31 0;
#X connect 41 0 32 0;
#X connect 42 0 33 0;
#X connect 43 0 34 0;
#X connect 44 0 35 0;
#X connect 45 0 36 0;
#X connect 46 0 37 0;
#X connect 47 0 38 0;
#X connect 48 0 30 1;
#X connect 48 0 31 1;
#X connect 48 0 32 1;
#X connect 48 0 33 1;
#X connect 48 0 34 1;
#X connect 48 0 35 1;
#X connect 48 0 36 1;
#X connect 48 0 37 1;
#X connect 48 0 38 1;
#X connect 49 0 1 0;
#X connect 50 0 2 0;
#X connect 51 0 3 0;
#X connect 52 0 4 0;
#X connect 53 0 5 0;
#X connect 54 0 6 0;
#X connect 55 0 7 0;
#X connect 56 0 8 0;
#X connect 57 0 9 0;
#X connect 58 0 1 0;
#X connect 58 0 2 0;
#X connect 58 0 3 0;
#X connect 58 0 4 0;
#X connect 58 0 5 0;
#X connect 58 0 6 0;
#X connect 58 0 7 0;
#X connect 58 0 8 0;
#X connect 58 0 9 0;
#X connect 59 0 49 0;
#X connect 59 0 50 0;
#X connect 59 0 51 0;
#X connect 59 0 52 0;
#X connect 59 0 53 0;
#X connect 59 0 54 0;
#X connect 59 0 55 0;
#X connect 59 0 56 0;
#X connect 59 0 57 0;
#X connect 60 0 58 0;
#X restore 646 192 pd row_________2;
#N canvas 127 294 1065 488 row_________3 0;
#X obj 27 29 inlet;
#X obj 27 389 outlet;
#X obj 125 390 outlet;
#X obj 220 390 outlet;
#X obj 318 391 outlet;
#X obj 412 391 outlet;
#X obj 510 392 outlet;
#X obj 605 392 outlet;
#X obj 703 393 outlet;
#X obj 802 393 outlet;
#X obj 27 49 unpack f f f;
#X obj 27 345 f;
#X obj 27 310 select 1;
#X obj 125 346 f;
#X obj 125 311 select 1;
#X obj 220 346 f;
#X obj 220 311 select 1;
#X obj 318 347 f;
#X obj 318 312 select 1;
#X obj 412 347 f;
#X obj 412 312 select 1;
#X obj 510 348 f;
#X obj 510 313 select 1;
#X obj 605 348 f;
#X obj 605 313 select 1;
#X obj 703 349 f;
#X obj 703 314 select 1;
#X obj 802 349 f;
#X obj 802 314 select 1;
#X obj 355 102 change;
#X obj 27 285 &&;
#X obj 125 286 &&;
#X obj 220 286 &&;
#X obj 318 287 &&;
#X obj 412 287 &&;
#X obj 510 288 &&;
#X obj 605 288 &&;
#X obj 703 289 &&;
#X obj 802 289 &&;
#X obj 27 248 == 0;
#X obj 125 247 == 1;
#X obj 220 246 == 2;
#X obj 318 247 == 3;
#X obj 412 249 == 4;
#X obj 510 251 == 5;
#X obj 605 252 == 6;
#X obj 703 253 == 7;
#X obj 802 254 == 8;
#X obj 355 124 == 3;
#X obj 901 84 random 2;
#X obj 901 105 random 2;
#X obj 901 126 random 2;
#X obj 901 147 random 2;
#X obj 901 168 random 2;
#X obj 901 189 random 2;
#X obj 901 210 random 2;
#X obj 901 230 random 2;
#X obj 901 251 random 2;
#X msg 477 78 0;
#X obj 690 28 inlet;
#X obj 477 31 inlet;
#X connect 0 0 10 0;
#X connect 10 0 39 0;
#X connect 10 0 40 0;
#X connect 10 0 41 0;
#X connect 10 0 42 0;
#X connect 10 0 43 0;
#X connect 10 0 44 0;
#X connect 10 0 45 0;
#X connect 10 0 46 0;
#X connect 10 0 47 0;
#X connect 10 1 29 0;
#X connect 10 2 11 1;
#X connect 10 2 13 1;
#X connect 10 2 15 1;
#X connect 10 2 17 1;
#X connect 10 2 19 1;
#X connect 10 2 21 1;
#X connect 10 2 23 1;
#X connect 10 2 25 1;
#X connect 10 2 27 1;
#X connect 11 0 1 0;
#X connect 12 0 11 0;
#X connect 13 0 2 0;
#X connect 14 0 13 0;
#X connect 15 0 3 0;
#X connect 16 0 15 0;
#X connect 17 0 4 0;
#X connect 18 0 17 0;
#X connect 19 0 5 0;
#X connect 20 0 19 0;
#X connect 21 0 6 0;
#X connect 22 0 21 0;
#X connect 23 0 7 0;
#X connect 24 0 23 0;
#X connect 25 0 8 0;
#X connect 26 0 25 0;
#X connect 27 0 9 0;
#X connect 28 0 27 0;
#X connect 29 0 48 0;
#X connect 30 0 12 0;
#X connect 31 0 14 0;
#X connect 32 0 16 0;
#X connect 33 0 18 0;
#X connect 34 0 20 0;
#X connect 35 0 22 0;
#X connect 36 0 24 0;
#X connect 37 0 26 0;
#X connect 38 0 28 0;
#X connect 39 0 30 0;
#X connect 40 0 31 0;
#X connect 41 0 32 0;
#X connect 42 0 33 0;
#X connect 43 0 34 0;
#X connect 44 0 35 0;
#X connect 45 0 36 0;
#X connect 46 0 37 0;
#X connect 47 0 38 0;
#X connect 48 0 30 1;
#X connect 48 0 31 1;
#X connect 48 0 32 1;
#X connect 48 0 33 1;
#X connect 48 0 34 1;
#X connect 48 0 35 1;
#X connect 48 0 36 1;
#X connect 48 0 37 1;
#X connect 48 0 38 1;
#X connect 49 0 1 0;
#X connect 50 0 2 0;
#X connect 51 0 3 0;
#X connect 52 0 4 0;
#X connect 53 0 5 0;
#X connect 54 0 6 0;
#X connect 55 0 7 0;
#X connect 56 0 8 0;
#X connect 57 0 9 0;
#X connect 58 0 1 0;
#X connect 58 0 2 0;
#X connect 58 0 3 0;
#X connect 58 0 4 0;
#X connect 58 0 5 0;
#X connect 58 0 6 0;
#X connect 58 0 7 0;
#X connect 58 0 8 0;
#X connect 58 0 9 0;
#X connect 59 0 49 0;
#X connect 59 0 50 0;
#X connect 59 0 51 0;
#X connect 59 0 52 0;
#X connect 59 0 53 0;
#X connect 59 0 54 0;
#X connect 59 0 55 0;
#X connect 59 0 56 0;
#X connect 59 0 57 0;
#X connect 60 0 58 0;
#X restore 646 212 pd row_________3;
#N canvas 61 240 1028 488 row_________4 0;
#X obj 27 29 inlet;
#X obj 27 461 outlet;
#X obj 125 462 outlet;
#X obj 220 462 outlet;
#X obj 318 463 outlet;
#X obj 412 463 outlet;
#X obj 510 464 outlet;
#X obj 605 464 outlet;
#X obj 703 465 outlet;
#X obj 802 465 outlet;
#X obj 27 80 unpack f f f;
#X obj 27 348 f;
#X obj 27 313 select 1;
#X obj 125 349 f;
#X obj 125 314 select 1;
#X obj 220 349 f;
#X obj 220 314 select 1;
#X obj 318 350 f;
#X obj 318 315 select 1;
#X obj 412 350 f;
#X obj 412 315 select 1;
#X obj 510 351 f;
#X obj 510 316 select 1;
#X obj 605 351 f;
#X obj 605 316 select 1;
#X obj 703 352 f;
#X obj 703 317 select 1;
#X obj 802 352 f;
#X obj 802 317 select 1;
#X obj 355 133 change;
#X obj 27 288 &&;
#X obj 125 289 &&;
#X obj 220 289 &&;
#X obj 318 290 &&;
#X obj 412 290 &&;
#X obj 510 291 &&;
#X obj 605 291 &&;
#X obj 703 292 &&;
#X obj 802 292 &&;
#X obj 27 251 == 0;
#X obj 125 250 == 1;
#X obj 220 249 == 2;
#X obj 318 250 == 3;
#X obj 412 252 == 4;
#X obj 510 254 == 5;
#X obj 605 255 == 6;
#X obj 703 256 == 7;
#X obj 802 257 == 8;
#X obj 355 155 == 4;
#X obj 901 84 random 2;
#X obj 901 105 random 2;
#X obj 901 126 random 2;
#X obj 901 147 random 2;
#X obj 901 168 random 2;
#X obj 901 189 random 2;
#X obj 901 210 random 2;
#X obj 901 230 random 2;
#X obj 901 251 random 2;
#X msg 477 78 0;
#X obj 690 28 inlet;
#X obj 477 31 inlet;
#X connect 0 0 10 0;
#X connect 10 0 39 0;
#X connect 10 0 40 0;
#X connect 10 0 41 0;
#X connect 10 0 42 0;
#X connect 10 0 43 0;
#X connect 10 0 44 0;
#X connect 10 0 45 0;
#X connect 10 0 46 0;
#X connect 10 0 47 0;
#X connect 10 1 29 0;
#X connect 10 2 11 1;
#X connect 10 2 13 1;
#X connect 10 2 15 1;
#X connect 10 2 17 1;
#X connect 10 2 19 1;
#X connect 10 2 21 1;
#X connect 10 2 23 1;
#X connect 10 2 25 1;
#X connect 10 2 27 1;
#X connect 11 0 1 0;
#X connect 12 0 11 0;
#X connect 13 0 2 0;
#X connect 14 0 13 0;
#X connect 15 0 3 0;
#X connect 16 0 15 0;
#X connect 17 0 4 0;
#X connect 18 0 17 0;
#X connect 19 0 5 0;
#X connect 20 0 19 0;
#X connect 21 0 6 0;
#X connect 22 0 21 0;
#X connect 23 0 7 0;
#X connect 24 0 23 0;
#X connect 25 0 8 0;
#X connect 26 0 25 0;
#X connect 27 0 9 0;
#X connect 28 0 27 0;
#X connect 29 0 48 0;
#X connect 30 0 12 0;
#X connect 31 0 14 0;
#X connect 32 0 16 0;
#X connect 33 0 18 0;
#X connect 34 0 20 0;
#X connect 35 0 22 0;
#X connect 36 0 24 0;
#X connect 37 0 26 0;
#X connect 38 0 28 0;
#X connect 39 0 30 0;
#X connect 40 0 31 0;
#X connect 41 0 32 0;
#X connect 42 0 33 0;
#X connect 43 0 34 0;
#X connect 44 0 35 0;
#X connect 45 0 36 0;
#X connect 46 0 37 0;
#X connect 47 0 38 0;
#X connect 48 0 30 1;
#X connect 48 0 31 1;
#X connect 48 0 32 1;
#X connect 48 0 33 1;
#X connect 48 0 34 1;
#X connect 48 0 35 1;
#X connect 48 0 36 1;
#X connect 48 0 37 1;
#X connect 48 0 38 1;
#X connect 49 0 1 0;
#X connect 50 0 2 0;
#X connect 51 0 3 0;
#X connect 52 0 4 0;
#X connect 53 0 5 0;
#X connect 54 0 6 0;
#X connect 55 0 7 0;
#X connect 56 0 8 0;
#X connect 57 0 9 0;
#X connect 58 0 1 0;
#X connect 58 0 2 0;
#X connect 58 0 3 0;
#X connect 58 0 4 0;
#X connect 58 0 5 0;
#X connect 58 0 6 0;
#X connect 58 0 7 0;
#X connect 58 0 8 0;
#X connect 58 0 9 0;
#X connect 59 0 49 0;
#X connect 59 0 50 0;
#X connect 59 0 51 0;
#X connect 59 0 52 0;
#X connect 59 0 53 0;
#X connect 59 0 54 0;
#X connect 59 0 55 0;
#X connect 59 0 56 0;
#X connect 59 0 57 0;
#X connect 60 0 58 0;
#X restore 646 232 pd row_________4;
#N canvas 143 241 1008 488 row_________5 0;
#X obj 27 29 inlet;
#X obj 27 460 outlet;
#X obj 125 461 outlet;
#X obj 220 461 outlet;
#X obj 318 462 outlet;
#X obj 412 462 outlet;
#X obj 510 463 outlet;
#X obj 605 463 outlet;
#X obj 703 464 outlet;
#X obj 802 464 outlet;
#X obj 27 71 unpack f f f;
#X obj 27 339 f;
#X obj 27 304 select 1;
#X obj 125 340 f;
#X obj 125 305 select 1;
#X obj 220 340 f;
#X obj 220 305 select 1;
#X obj 318 341 f;
#X obj 318 306 select 1;
#X obj 412 341 f;
#X obj 412 306 select 1;
#X obj 510 342 f;
#X obj 510 307 select 1;
#X obj 605 342 f;
#X obj 605 307 select 1;
#X obj 703 343 f;
#X obj 703 308 select 1;
#X obj 802 343 f;
#X obj 802 308 select 1;
#X obj 355 124 change;
#X obj 27 279 &&;
#X obj 125 280 &&;
#X obj 220 280 &&;
#X obj 318 281 &&;
#X obj 412 281 &&;
#X obj 510 282 &&;
#X obj 605 282 &&;
#X obj 703 283 &&;
#X obj 802 283 &&;
#X obj 27 242 == 0;
#X obj 125 241 == 1;
#X obj 220 240 == 2;
#X obj 318 241 == 3;
#X obj 412 243 == 4;
#X obj 510 245 == 5;
#X obj 605 246 == 6;
#X obj 703 247 == 7;
#X obj 802 248 == 8;
#X obj 355 146 == 5;
#X obj 901 84 random 2;
#X obj 901 105 random 2;
#X obj 901 126 random 2;
#X obj 901 147 random 2;
#X obj 901 168 random 2;
#X obj 901 189 random 2;
#X obj 901 210 random 2;
#X obj 901 230 random 2;
#X obj 901 251 random 2;
#X msg 477 78 0;
#X obj 690 28 inlet;
#X obj 477 31 inlet;
#X connect 0 0 10 0;
#X connect 10 0 39 0;
#X connect 10 0 40 0;
#X connect 10 0 41 0;
#X connect 10 0 42 0;
#X connect 10 0 43 0;
#X connect 10 0 44 0;
#X connect 10 0 45 0;
#X connect 10 0 46 0;
#X connect 10 0 47 0;
#X connect 10 1 29 0;
#X connect 10 2 11 1;
#X connect 10 2 13 1;
#X connect 10 2 15 1;
#X connect 10 2 17 1;
#X connect 10 2 19 1;
#X connect 10 2 21 1;
#X connect 10 2 23 1;
#X connect 10 2 25 1;
#X connect 10 2 27 1;
#X connect 11 0 1 0;
#X connect 12 0 11 0;
#X connect 13 0 2 0;
#X connect 14 0 13 0;
#X connect 15 0 3 0;
#X connect 16 0 15 0;
#X connect 17 0 4 0;
#X connect 18 0 17 0;
#X connect 19 0 5 0;
#X connect 20 0 19 0;
#X connect 21 0 6 0;
#X connect 22 0 21 0;
#X connect 23 0 7 0;
#X connect 24 0 23 0;
#X connect 25 0 8 0;
#X connect 26 0 25 0;
#X connect 27 0 9 0;
#X connect 28 0 27 0;
#X connect 29 0 48 0;
#X connect 30 0 12 0;
#X connect 31 0 14 0;
#X connect 32 0 16 0;
#X connect 33 0 18 0;
#X connect 34 0 20 0;
#X connect 35 0 22 0;
#X connect 36 0 24 0;
#X connect 37 0 26 0;
#X connect 38 0 28 0;
#X connect 39 0 30 0;
#X connect 40 0 31 0;
#X connect 41 0 32 0;
#X connect 42 0 33 0;
#X connect 43 0 34 0;
#X connect 44 0 35 0;
#X connect 45 0 36 0;
#X connect 46 0 37 0;
#X connect 47 0 38 0;
#X connect 48 0 30 1;
#X connect 48 0 31 1;
#X connect 48 0 32 1;
#X connect 48 0 33 1;
#X connect 48 0 34 1;
#X connect 48 0 35 1;
#X connect 48 0 36 1;
#X connect 48 0 37 1;
#X connect 48 0 38 1;
#X connect 49 0 1 0;
#X connect 50 0 2 0;
#X connect 51 0 3 0;
#X connect 52 0 4 0;
#X connect 53 0 5 0;
#X connect 54 0 6 0;
#X connect 55 0 7 0;
#X connect 56 0 8 0;
#X connect 57 0 9 0;
#X connect 58 0 1 0;
#X connect 58 0 2 0;
#X connect 58 0 3 0;
#X connect 58 0 4 0;
#X connect 58 0 5 0;
#X connect 58 0 6 0;
#X connect 58 0 7 0;
#X connect 58 0 8 0;
#X connect 58 0 9 0;
#X connect 59 0 49 0;
#X connect 59 0 50 0;
#X connect 59 0 51 0;
#X connect 59 0 52 0;
#X connect 59 0 53 0;
#X connect 59 0 54 0;
#X connect 59 0 55 0;
#X connect 59 0 56 0;
#X connect 59 0 57 0;
#X connect 60 0 58 0;
#X restore 646 252 pd row_________5;
#N canvas 109 342 1056 488 row_________6 0;
#X obj 27 29 inlet;
#X obj 27 451 outlet;
#X obj 125 452 outlet;
#X obj 220 452 outlet;
#X obj 318 453 outlet;
#X obj 412 453 outlet;
#X obj 510 454 outlet;
#X obj 605 454 outlet;
#X obj 703 455 outlet;
#X obj 802 455 outlet;
#X obj 27 70 unpack f f f;
#X obj 27 338 f;
#X obj 27 303 select 1;
#X obj 125 339 f;
#X obj 125 304 select 1;
#X obj 220 339 f;
#X obj 220 304 select 1;
#X obj 318 340 f;
#X obj 318 305 select 1;
#X obj 412 340 f;
#X obj 412 305 select 1;
#X obj 510 341 f;
#X obj 510 306 select 1;
#X obj 605 341 f;
#X obj 605 306 select 1;
#X obj 703 342 f;
#X obj 703 307 select 1;
#X obj 802 342 f;
#X obj 802 307 select 1;
#X obj 355 123 change;
#X obj 27 278 &&;
#X obj 125 279 &&;
#X obj 220 279 &&;
#X obj 318 280 &&;
#X obj 412 280 &&;
#X obj 510 281 &&;
#X obj 605 281 &&;
#X obj 703 282 &&;
#X obj 802 282 &&;
#X obj 27 241 == 0;
#X obj 125 240 == 1;
#X obj 220 239 == 2;
#X obj 318 240 == 3;
#X obj 412 242 == 4;
#X obj 510 244 == 5;
#X obj 605 245 == 6;
#X obj 703 246 == 7;
#X obj 802 247 == 8;
#X obj 355 145 == 6;
#X obj 901 84 random 2;
#X obj 901 105 random 2;
#X obj 901 126 random 2;
#X obj 901 147 random 2;
#X obj 901 168 random 2;
#X obj 901 189 random 2;
#X obj 901 210 random 2;
#X obj 901 230 random 2;
#X obj 901 251 random 2;
#X msg 477 78 0;
#X obj 690 28 inlet;
#X obj 477 31 inlet;
#X connect 0 0 10 0;
#X connect 10 0 39 0;
#X connect 10 0 40 0;
#X connect 10 0 41 0;
#X connect 10 0 42 0;
#X connect 10 0 43 0;
#X connect 10 0 44 0;
#X connect 10 0 45 0;
#X connect 10 0 46 0;
#X connect 10 0 47 0;
#X connect 10 1 29 0;
#X connect 10 2 11 1;
#X connect 10 2 13 1;
#X connect 10 2 15 1;
#X connect 10 2 17 1;
#X connect 10 2 19 1;
#X connect 10 2 21 1;
#X connect 10 2 23 1;
#X connect 10 2 25 1;
#X connect 10 2 27 1;
#X connect 11 0 1 0;
#X connect 12 0 11 0;
#X connect 13 0 2 0;
#X connect 14 0 13 0;
#X connect 15 0 3 0;
#X connect 16 0 15 0;
#X connect 17 0 4 0;
#X connect 18 0 17 0;
#X connect 19 0 5 0;
#X connect 20 0 19 0;
#X connect 21 0 6 0;
#X connect 22 0 21 0;
#X connect 23 0 7 0;
#X connect 24 0 23 0;
#X connect 25 0 8 0;
#X connect 26 0 25 0;
#X connect 27 0 9 0;
#X connect 28 0 27 0;
#X connect 29 0 48 0;
#X connect 30 0 12 0;
#X connect 31 0 14 0;
#X connect 32 0 16 0;
#X connect 33 0 18 0;
#X connect 34 0 20 0;
#X connect 35 0 22 0;
#X connect 36 0 24 0;
#X connect 37 0 26 0;
#X connect 38 0 28 0;
#X connect 39 0 30 0;
#X connect 40 0 31 0;
#X connect 41 0 32 0;
#X connect 42 0 33 0;
#X connect 43 0 34 0;
#X connect 44 0 35 0;
#X connect 45 0 36 0;
#X connect 46 0 37 0;
#X connect 47 0 38 0;
#X connect 48 0 30 1;
#X connect 48 0 31 1;
#X connect 48 0 32 1;
#X connect 48 0 33 1;
#X connect 48 0 34 1;
#X connect 48 0 35 1;
#X connect 48 0 36 1;
#X connect 48 0 37 1;
#X connect 48 0 38 1;
#X connect 49 0 1 0;
#X connect 50 0 2 0;
#X connect 51 0 3 0;
#X connect 52 0 4 0;
#X connect 53 0 5 0;
#X connect 54 0 6 0;
#X connect 55 0 7 0;
#X connect 56 0 8 0;
#X connect 57 0 9 0;
#X connect 58 0 1 0;
#X connect 58 0 2 0;
#X connect 58 0 3 0;
#X connect 58 0 4 0;
#X connect 58 0 5 0;
#X connect 58 0 6 0;
#X connect 58 0 7 0;
#X connect 58 0 8 0;
#X connect 58 0 9 0;
#X connect 59 0 49 0;
#X connect 59 0 50 0;
#X connect 59 0 51 0;
#X connect 59 0 52 0;
#X connect 59 0 53 0;
#X connect 59 0 54 0;
#X connect 59 0 55 0;
#X connect 59 0 56 0;
#X connect 59 0 57 0;
#X connect 60 0 58 0;
#X restore 646 272 pd row_________6;
#N canvas 92 296 1016 488 row_________7 0;
#X obj 27 29 inlet;
#X obj 27 411 outlet;
#X obj 125 412 outlet;
#X obj 220 412 outlet;
#X obj 318 413 outlet;
#X obj 412 413 outlet;
#X obj 510 414 outlet;
#X obj 605 414 outlet;
#X obj 703 415 outlet;
#X obj 802 415 outlet;
#X obj 27 80 unpack f f f;
#X obj 27 348 f;
#X obj 27 313 select 1;
#X obj 125 349 f;
#X obj 125 314 select 1;
#X obj 220 349 f;
#X obj 220 314 select 1;
#X obj 318 350 f;
#X obj 318 315 select 1;
#X obj 412 350 f;
#X obj 412 315 select 1;
#X obj 510 351 f;
#X obj 510 316 select 1;
#X obj 605 351 f;
#X obj 605 316 select 1;
#X obj 703 352 f;
#X obj 703 317 select 1;
#X obj 802 352 f;
#X obj 802 317 select 1;
#X obj 355 133 change;
#X obj 27 288 &&;
#X obj 125 289 &&;
#X obj 220 289 &&;
#X obj 318 290 &&;
#X obj 412 290 &&;
#X obj 510 291 &&;
#X obj 605 291 &&;
#X obj 703 292 &&;
#X obj 802 292 &&;
#X obj 27 251 == 0;
#X obj 125 250 == 1;
#X obj 220 249 == 2;
#X obj 318 250 == 3;
#X obj 412 252 == 4;
#X obj 510 254 == 5;
#X obj 605 255 == 6;
#X obj 703 256 == 7;
#X obj 802 257 == 8;
#X obj 355 155 == 7;
#X obj 901 84 random 2;
#X obj 901 105 random 2;
#X obj 901 126 random 2;
#X obj 901 147 random 2;
#X obj 901 168 random 2;
#X obj 901 189 random 2;
#X obj 901 210 random 2;
#X obj 901 230 random 2;
#X obj 901 251 random 2;
#X msg 477 78 0;
#X obj 690 28 inlet;
#X obj 477 31 inlet;
#X connect 0 0 10 0;
#X connect 10 0 39 0;
#X connect 10 0 40 0;
#X connect 10 0 41 0;
#X connect 10 0 42 0;
#X connect 10 0 43 0;
#X connect 10 0 44 0;
#X connect 10 0 45 0;
#X connect 10 0 46 0;
#X connect 10 0 47 0;
#X connect 10 1 29 0;
#X connect 10 2 11 1;
#X connect 10 2 13 1;
#X connect 10 2 15 1;
#X connect 10 2 17 1;
#X connect 10 2 19 1;
#X connect 10 2 21 1;
#X connect 10 2 23 1;
#X connect 10 2 25 1;
#X connect 10 2 27 1;
#X connect 11 0 1 0;
#X connect 12 0 11 0;
#X connect 13 0 2 0;
#X connect 14 0 13 0;
#X connect 15 0 3 0;
#X connect 16 0 15 0;
#X connect 17 0 4 0;
#X connect 18 0 17 0;
#X connect 19 0 5 0;
#X connect 20 0 19 0;
#X connect 21 0 6 0;
#X connect 22 0 21 0;
#X connect 23 0 7 0;
#X connect 24 0 23 0;
#X connect 25 0 8 0;
#X connect 26 0 25 0;
#X connect 27 0 9 0;
#X connect 28 0 27 0;
#X connect 29 0 48 0;
#X connect 30 0 12 0;
#X connect 31 0 14 0;
#X connect 32 0 16 0;
#X connect 33 0 18 0;
#X connect 34 0 20 0;
#X connect 35 0 22 0;
#X connect 36 0 24 0;
#X connect 37 0 26 0;
#X connect 38 0 28 0;
#X connect 39 0 30 0;
#X connect 40 0 31 0;
#X connect 41 0 32 0;
#X connect 42 0 33 0;
#X connect 43 0 34 0;
#X connect 44 0 35 0;
#X connect 45 0 36 0;
#X connect 46 0 37 0;
#X connect 47 0 38 0;
#X connect 48 0 30 1;
#X connect 48 0 31 1;
#X connect 48 0 32 1;
#X connect 48 0 33 1;
#X connect 48 0 34 1;
#X connect 48 0 35 1;
#X connect 48 0 36 1;
#X connect 48 0 37 1;
#X connect 48 0 38 1;
#X connect 49 0 1 0;
#X connect 50 0 2 0;
#X connect 51 0 3 0;
#X connect 52 0 4 0;
#X connect 53 0 5 0;
#X connect 54 0 6 0;
#X connect 55 0 7 0;
#X connect 56 0 8 0;
#X connect 57 0 9 0;
#X connect 58 0 1 0;
#X connect 58 0 2 0;
#X connect 58 0 3 0;
#X connect 58 0 4 0;
#X connect 58 0 5 0;
#X connect 58 0 6 0;
#X connect 58 0 7 0;
#X connect 58 0 8 0;
#X connect 58 0 9 0;
#X connect 59 0 49 0;
#X connect 59 0 50 0;
#X connect 59 0 51 0;
#X connect 59 0 52 0;
#X connect 59 0 53 0;
#X connect 59 0 54 0;
#X connect 59 0 55 0;
#X connect 59 0 56 0;
#X connect 59 0 57 0;
#X connect 60 0 58 0;
#X restore 646 293 pd row_________7;
#N canvas 198 203 1004 426 row_________8 0;
#X obj 27 12 inlet;
#X obj 27 395 outlet;
#X obj 125 396 outlet;
#X obj 219 396 outlet;
#X obj 318 397 outlet;
#X obj 412 397 outlet;
#X obj 510 398 outlet;
#X obj 605 398 outlet;
#X obj 703 399 outlet;
#X obj 802 399 outlet;
#X obj 27 49 unpack f f f;
#X obj 27 317 f;
#X obj 27 282 select 1;
#X obj 125 318 f;
#X obj 125 283 select 1;
#X obj 220 318 f;
#X obj 220 283 select 1;
#X obj 318 319 f;
#X obj 318 284 select 1;
#X obj 412 319 f;
#X obj 412 284 select 1;
#X obj 510 320 f;
#X obj 510 285 select 1;
#X obj 605 320 f;
#X obj 605 285 select 1;
#X obj 703 321 f;
#X obj 703 286 select 1;
#X obj 802 321 f;
#X obj 802 286 select 1;
#X obj 355 102 change;
#X obj 27 257 &&;
#X obj 125 258 &&;
#X obj 220 258 &&;
#X obj 318 259 &&;
#X obj 412 259 &&;
#X obj 510 260 &&;
#X obj 605 260 &&;
#X obj 703 261 &&;
#X obj 802 261 &&;
#X obj 27 220 == 0;
#X obj 125 219 == 1;
#X obj 220 218 == 2;
#X obj 318 219 == 3;
#X obj 412 221 == 4;
#X obj 510 223 == 5;
#X obj 605 224 == 6;
#X obj 703 225 == 7;
#X obj 802 226 == 8;
#X obj 355 124 == 8;
#X obj 901 84 random 2;
#X obj 901 105 random 2;
#X obj 901 126 random 2;
#X obj 901 147 random 2;
#X obj 901 168 random 2;
#X obj 901 189 random 2;
#X obj 901 210 random 2;
#X obj 901 230 random 2;
#X obj 901 251 random 2;
#X msg 477 78 0;
#X obj 690 28 inlet;
#X obj 477 31 inlet;
#X connect 0 0 10 0;
#X connect 10 0 39 0;
#X connect 10 0 40 0;
#X connect 10 0 41 0;
#X connect 10 0 42 0;
#X connect 10 0 43 0;
#X connect 10 0 44 0;
#X connect 10 0 45 0;
#X connect 10 0 46 0;
#X connect 10 0 47 0;
#X connect 10 1 29 0;
#X connect 10 2 11 1;
#X connect 10 2 13 1;
#X connect 10 2 15 1;
#X connect 10 2 17 1;
#X connect 10 2 19 1;
#X connect 10 2 21 1;
#X connect 10 2 23 1;
#X connect 10 2 25 1;
#X connect 10 2 27 1;
#X connect 11 0 1 0;
#X connect 12 0 11 0;
#X connect 13 0 2 0;
#X connect 14 0 13 0;
#X connect 15 0 3 0;
#X connect 16 0 15 0;
#X connect 17 0 4 0;
#X connect 18 0 17 0;
#X connect 19 0 5 0;
#X connect 20 0 19 0;
#X connect 21 0 6 0;
#X connect 22 0 21 0;
#X connect 23 0 7 0;
#X connect 24 0 23 0;
#X connect 25 0 8 0;
#X connect 26 0 25 0;
#X connect 27 0 9 0;
#X connect 28 0 27 0;
#X connect 29 0 48 0;
#X connect 30 0 12 0;
#X connect 31 0 14 0;
#X connect 32 0 16 0;
#X connect 33 0 18 0;
#X connect 34 0 20 0;
#X connect 35 0 22 0;
#X connect 36 0 24 0;
#X connect 37 0 26 0;
#X connect 38 0 28 0;
#X connect 39 0 30 0;
#X connect 40 0 31 0;
#X connect 41 0 32 0;
#X connect 42 0 33 0;
#X connect 43 0 34 0;
#X connect 44 0 35 0;
#X connect 45 0 36 0;
#X connect 46 0 37 0;
#X connect 47 0 38 0;
#X connect 48 0 30 1;
#X connect 48 0 31 1;
#X connect 48 0 32 1;
#X connect 48 0 33 1;
#X connect 48 0 34 1;
#X connect 48 0 35 1;
#X connect 48 0 36 1;
#X connect 48 0 37 1;
#X connect 48 0 38 1;
#X connect 49 0 1 0;
#X connect 50 0 2 0;
#X connect 51 0 3 0;
#X connect 52 0 4 0;
#X connect 53 0 5 0;
#X connect 54 0 6 0;
#X connect 55 0 7 0;
#X connect 56 0 8 0;
#X connect 57 0 9 0;
#X connect 58 0 1 0;
#X connect 58 0 2 0;
#X connect 58 0 3 0;
#X connect 58 0 4 0;
#X connect 58 0 5 0;
#X connect 58 0 6 0;
#X connect 58 0 7 0;
#X connect 58 0 8 0;
#X connect 58 0 9 0;
#X connect 59 0 49 0;
#X connect 59 0 50 0;
#X connect 59 0 51 0;
#X connect 59 0 52 0;
#X connect 59 0 53 0;
#X connect 59 0 54 0;
#X connect 59 0 55 0;
#X connect 59 0 56 0;
#X connect 59 0 57 0;
#X connect 60 0 58 0;
#X restore 646 313 pd row_________8;
#X obj 193 386 r~ out_r01;
#X obj 298 387 r~ out_r02;
#X obj 398 383 r~ out_r03;
#X obj 502 382 r~ out_r04;
#X obj 604 384 r~ out_r05;
#X obj 705 384 r~ out_r06;
#X obj 804 385 r~ out_r07;
#X obj 912 383 r~ out_r08;
#X obj 1014 383 r~ out_r09;
#X obj 977 595 s~ mod_r09;
#X obj 878 595 s~ mod_r08;
#X obj 779 595 s~ mod_r07;
#X obj 680 595 s~ mod_r06;
#X obj 582 595 s~ mod_r05;
#X obj 484 595 s~ mod_r04;
#X obj 386 595 s~ mod_r03;
#X obj 288 595 s~ mod_r02;
#X obj 190 595 s~ mod_r01;
#X obj 42 595 s~ mod_r09a;
#X obj 41 576 s~ mod_r08a;
#X obj 41 556 s~ mod_r07a;
#X obj 41 536 s~ mod_r06a;
#X obj 41 516 s~ mod_r05a;
#X obj 41 496 s~ mod_r04a;
#X obj 41 476 s~ mod_r03a;
#X obj 41 456 s~ mod_r02a;
#X obj 41 437 s~ mod_r01a;
#X connect 0 0 209 0;
#X connect 1 0 199 0;
#X connect 2 0 198 0;
#X connect 3 0 197 0;
#X connect 4 0 200 0;
#X connect 5 0 208 0;
#X connect 6 0 198 0;
#X connect 7 0 197 0;
#X connect 8 0 200 0;
#X connect 9 0 199 0;
#X connect 10 0 207 0;
#X connect 11 0 197 0;
#X connect 12 0 200 0;
#X connect 13 0 199 0;
#X connect 14 0 198 0;
#X connect 15 0 206 0;
#X connect 16 0 17 0;
#X connect 16 0 19 0;
#X connect 17 0 16 1;
#X connect 18 0 16 0;
#X connect 19 0 174 2;
#X connect 19 0 176 2;
#X connect 19 0 177 2;
#X connect 19 0 178 2;
#X connect 19 0 179 2;
#X connect 19 0 180 2;
#X connect 19 0 181 2;
#X connect 19 0 182 2;
#X connect 20 0 17 1;
#X connect 21 0 173 0;
#X connect 22 0 19 0;
#X connect 23 0 22 0;
#X connect 23 1 22 1;
#X connect 24 0 174 1;
#X connect 24 0 175 1;
#X connect 24 0 176 1;
#X connect 24 0 177 1;
#X connect 24 0 178 1;
#X connect 24 0 179 1;
#X connect 24 0 180 1;
#X connect 24 0 181 1;
#X connect 24 0 182 1;
#X connect 25 0 200 0;
#X connect 26 0 199 0;
#X connect 27 0 198 0;
#X connect 28 0 197 0;
#X connect 29 0 196 0;
#X connect 30 0 196 0;
#X connect 31 0 205 0;
#X connect 32 0 196 0;
#X connect 33 0 196 0;
#X connect 34 0 200 0;
#X connect 35 0 199 0;
#X connect 36 0 198 0;
#X connect 37 0 197 0;
#X connect 38 0 196 0;
#X connect 39 0 195 0;
#X connect 40 0 195 0;
#X connect 41 0 195 0;
#X connect 42 0 195 0;
#X connect 43 0 195 0;
#X connect 44 0 204 0;
#X connect 45 0 0 1;
#X connect 46 0 1 1;
#X connect 47 0 2 1;
#X connect 48 0 3 1;
#X connect 49 0 4 1;
#X connect 50 0 5 1;
#X connect 51 0 6 1;
#X connect 52 0 7 1;
#X connect 53 0 8 1;
#X connect 54 0 9 1;
#X connect 55 0 10 1;
#X connect 56 0 11 1;
#X connect 57 0 12 1;
#X connect 58 0 13 1;
#X connect 59 0 14 1;
#X connect 60 0 15 1;
#X connect 61 0 29 1;
#X connect 62 0 30 1;
#X connect 63 0 32 1;
#X connect 64 0 33 1;
#X connect 65 0 25 1;
#X connect 66 0 26 1;
#X connect 67 0 27 1;
#X connect 68 0 28 1;
#X connect 69 0 31 1;
#X connect 70 0 39 1;
#X connect 71 0 40 1;
#X connect 72 0 41 1;
#X connect 73 0 42 1;
#X connect 74 0 43 1;
#X connect 75 0 44 1;
#X connect 76 0 34 1;
#X connect 76 0 99 0;
#X connect 77 0 35 1;
#X connect 78 0 36 1;
#X connect 79 0 37 1;
#X connect 80 0 38 1;
#X connect 81 0 146 1;
#X connect 82 0 147 1;
#X connect 83 0 148 1;
#X connect 84 0 149 1;
#X connect 85 0 150 1;
#X connect 86 0 155 1;
#X connect 87 0 156 1;
#X connect 88 0 157 1;
#X connect 89 0 158 1;
#X connect 90 0 159 1;
#X connect 91 0 151 1;
#X connect 92 0 160 1;
#X connect 93 0 169 1;
#X connect 94 0 164 1;
#X connect 95 0 165 1;
#X connect 96 0 166 1;
#X connect 97 0 167 1;
#X connect 98 0 168 1;
#X connect 99 0 152 1;
#X connect 100 0 153 1;
#X connect 101 0 161 1;
#X connect 102 0 162 1;
#X connect 103 0 154 1;
#X connect 104 0 163 1;
#X connect 105 0 172 1;
#X connect 106 0 170 1;
#X connect 107 0 171 1;
#X connect 108 0 137 1;
#X connect 109 0 138 1;
#X connect 110 0 140 1;
#X connect 111 0 141 1;
#X connect 112 0 139 1;
#X connect 113 0 142 1;
#X connect 114 0 145 1;
#X connect 115 0 143 1;
#X connect 116 0 144 1;
#X connect 117 0 128 1;
#X connect 118 0 129 1;
#X connect 119 0 131 1;
#X connect 120 0 132 1;
#X connect 121 0 130 1;
#X connect 122 0 133 1;
#X connect 123 0 136 1;
#X connect 124 0 134 1;
#X connect 125 0 135 1;
#X connect 126 0 24 0;
#X connect 127 0 126 0;
#X connect 127 1 126 1;
#X connect 128 0 194 0;
#X connect 129 0 193 0;
#X connect 130 0 192 0;
#X connect 131 0 192 0;
#X connect 131 0 194 0;
#X connect 132 0 193 0;
#X connect 134 0 194 0;
#X connect 135 0 193 0;
#X connect 136 0 192 0;
#X connect 137 0 194 0;
#X connect 138 0 193 0;
#X connect 139 0 192 0;
#X connect 140 0 194 0;
#X connect 141 0 193 0;
#X connect 142 0 192 0;
#X connect 143 0 194 0;
#X connect 144 0 193 0;
#X connect 145 0 192 0;
#X connect 146 0 200 0;
#X connect 147 0 199 0;
#X connect 148 0 198 0;
#X connect 149 0 197 0;
#X connect 150 0 196 0;
#X connect 151 0 195 0;
#X connect 152 0 203 0;
#X connect 153 0 193 0;
#X connect 154 0 192 0;
#X connect 155 0 200 0;
#X connect 156 0 199 0;
#X connect 157 0 198 0;
#X connect 158 0 197 0;
#X connect 159 0 196 0;
#X connect 160 0 195 0;
#X connect 161 0 194 0;
#X connect 162 0 202 0;
#X connect 163 0 192 0;
#X connect 164 0 200 0;
#X connect 165 0 199 0;
#X connect 166 0 198 0;
#X connect 167 0 197 0;
#X connect 168 0 196 0;
#X connect 169 0 195 0;
#X connect 170 0 194 0;
#X connect 171 0 193 0;
#X connect 172 0 201 0;
#X connect 173 0 174 0;
#X connect 173 0 175 0;
#X connect 173 0 176 0;
#X connect 173 0 177 0;
#X connect 173 0 178 0;
#X connect 173 0 179 0;
#X connect 173 0 180 0;
#X connect 173 0 181 0;
#X connect 173 0 182 0;
#X connect 173 1 18 0;
#X connect 173 2 23 0;
#X connect 173 3 127 0;
#X connect 174 0 45 0;
#X connect 174 1 46 0;
#X connect 174 2 47 0;
#X connect 174 3 48 0;
#X connect 174 4 61 0;
#X connect 174 5 70 0;
#X connect 174 6 117 0;
#X connect 174 7 118 0;
#X connect 174 8 121 0;
#X connect 175 0 49 0;
#X connect 175 1 50 0;
#X connect 175 2 51 0;
#X connect 175 3 52 0;
#X connect 175 4 62 0;
#X connect 175 5 71 0;
#X connect 175 6 119 0;
#X connect 175 7 120 0;
#X connect 175 8 122 0;
#X connect 176 0 53 0;
#X connect 176 1 54 0;
#X connect 176 2 55 0;
#X connect 176 3 56 0;
#X connect 176 4 63 0;
#X connect 176 5 72 0;
#X connect 176 6 124 0;
#X connect 176 7 125 0;
#X connect 176 8 123 0;
#X connect 177 0 57 0;
#X connect 177 1 58 0;
#X connect 177 2 59 0;
#X connect 177 3 60 0;
#X connect 177 4 64 0;
#X connect 177 5 73 0;
#X connect 177 6 108 0;
#X connect 177 7 109 0;
#X connect 177 8 112 0;
#X connect 178 0 65 0;
#X connect 178 1 66 0;
#X connect 178 2 67 0;
#X connect 178 3 68 0;
#X connect 178 4 69 0;
#X connect 178 5 74 0;
#X connect 178 6 110 0;
#X connect 178 7 111 0;
#X connect 178 8 113 0;
#X connect 179 0 76 0;
#X connect 179 1 77 0;
#X connect 179 2 78 0;
#X connect 179 3 79 0;
#X connect 179 4 80 0;
#X connect 179 5 75 0;
#X connect 179 6 115 0;
#X connect 179 7 116 0;
#X connect 179 8 114 0;
#X connect 180 0 81 0;
#X connect 180 1 82 0;
#X connect 180 2 83 0;
#X connect 180 3 84 0;
#X connect 180 4 85 0;
#X connect 180 5 91 0;
#X connect 180 6 99 0;
#X connect 180 7 100 0;
#X connect 180 8 103 0;
#X connect 181 0 86 0;
#X connect 181 1 87 0;
#X connect 181 2 88 0;
#X connect 181 3 89 0;
#X connect 181 4 90 0;
#X connect 181 5 92 0;
#X connect 181 6 101 0;
#X connect 181 7 102 0;
#X connect 181 8 104 0;
#X connect 182 0 94 0;
#X connect 182 1 95 0;
#X connect 182 2 96 0;
#X connect 182 3 97 0;
#X connect 182 4 98 0;
#X connect 182 5 93 0;
#X connect 182 6 106 0;
#X connect 182 7 107 0;
#X connect 182 8 105 0;
#X connect 183 0 0 0;
#X connect 183 0 1 0;
#X connect 183 0 2 0;
#X connect 183 0 3 0;
#X connect 183 0 29 0;
#X connect 183 0 39 0;
#X connect 183 0 128 0;
#X connect 183 0 129 0;
#X connect 183 0 130 0;
#X connect 184 0 4 0;
#X connect 184 0 5 0;
#X connect 184 0 6 0;
#X connect 184 0 7 0;
#X connect 184 0 30 0;
#X connect 184 0 40 0;
#X connect 184 0 131 0;
#X connect 184 0 132 0;
#X connect 184 0 133 0;
#X connect 185 0 8 0;
#X connect 185 0 9 0;
#X connect 185 0 10 0;
#X connect 185 0 11 0;
#X connect 185 0 32 0;
#X connect 185 0 41 0;
#X connect 185 0 134 0;
#X connect 185 0 135 0;
#X connect 185 0 136 0;
#X connect 186 0 12 0;
#X connect 186 0 13 0;
#X connect 186 0 14 0;
#X connect 186 0 15 0;
#X connect 186 0 33 0;
#X connect 186 0 42 0;
#X connect 186 0 137 0;
#X connect 186 0 138 0;
#X connect 186 0 139 0;
#X connect 187 0 25 0;
#X connect 187 0 26 0;
#X connect 187 0 27 0;
#X connect 187 0 28 0;
#X connect 187 0 31 0;
#X connect 187 0 43 0;
#X connect 187 0 140 0;
#X connect 187 0 141 0;
#X connect 187 0 142 0;
#X connect 188 0 34 0;
#X connect 188 0 35 0;
#X connect 188 0 36 0;
#X connect 188 0 37 0;
#X connect 188 0 38 0;
#X connect 188 0 44 0;
#X connect 188 0 143 0;
#X connect 188 0 144 0;
#X connect 188 0 145 0;
#X connect 189 0 146 0;
#X connect 189 0 147 0;
#X connect 189 0 148 0;
#X connect 189 0 149 0;
#X connect 189 0 150 0;
#X connect 189 0 151 0;
#X connect 189 0 152 0;
#X connect 189 0 153 0;
#X connect 189 0 154 0;
#X connect 190 0 155 0;
#X connect 190 0 156 0;
#X connect 190 0 157 0;
#X connect 190 0 158 0;
#X connect 190 0 159 0;
#X connect 190 0 160 0;
#X connect 190 0 161 0;
#X connect 190 0 162 0;
#X connect 190 0 163 0;
#X connect 191 0 164 0;
#X connect 191 0 165 0;
#X connect 191 0 166 0;
#X connect 191 0 167 0;
#X connect 191 0 168 0;
#X connect 191 0 169 0;
#X connect 191 0 170 0;
#X connect 191 0 171 0;
#X connect 191 0 172 0;
#X coords 0 -1 1 1 170 170 1 100 100;
#X restore 217 347 pd matrix;
#N canvas 447 239 450 300 receive_OSC 0;
#X obj 92 58 udpreceive 54321;
#X obj 92 89 unpackOSC;
#X obj 278 247 s \$0-/matrix;
#X obj 92 122 routeOSC /bang /drone /mixer /matrix;
#X obj 92 150 outlet;
#X text 141 151 bang;
#X obj 154 179 s \$0-/drone;
#X obj 216 213 s \$0-/mixer;
#X connect 0 0 1 0;
#X connect 1 0 3 0;
#X connect 3 0 4 0;
#X connect 3 1 6 0;
#X connect 3 2 7 0;
#X connect 3 3 2 0;
#X restore 112 347 pd receive_OSC;
#X obj 394 10 mod01_test~;
#X obj 394 115 mod02_test~;
#X obj 394 220 mod03_test~;
#X obj 394 325 mod07_test~;
#X obj 394 415 mod08_test~;
#X obj 394 505 mod09_test~;
#X obj 705 10 mod04_test~;
#X obj 705 100 mod05_test~;
#X obj 705 190 mod06_test~;
