#N canvas 482 250 796 524 10;
#X obj 100 100 bng 30 250 50 0 empty empty 4 8 15 0 25 -262144 -4032
-1;
#X obj 133 100 hsl 100 30 0 1 0 0 empty empty empty 10 15 0 10 -4032
-1 -1 3237 1;
#X obj 130 132 vsl 15 55 0 1 0 1 empty empty -> 2 7 0 10 -228856 -258113
-1 1200 1;
#X obj 115 132 vsl 15 55 0 10000 0 1 empty empty >- 2 7 0 10 -204800
-258113 -1 500 1;
#X obj 100 132 vsl 15 55 0 1000 0 1 empty empty >a 2 7 0 10 -204800
-258113 -1 0 1;
#X obj 23 217 int;
#X obj 23 239 change;
#X obj 21 129 spigot;
#X obj 21 104 t b f;
#X text 254 640 mixer;
#X text 358 641 fm-out;
#X obj 96 371 *~;
#X text 31 321 fm-auto;
#X text 98 320 fm-in;
#X obj 24 7 udpreceive 54321;
#X obj 24 29 unpackOSC;
#X obj 24 50 routeOSC /bang;
#X obj 148 175 hsl 128 15 0 1 0 1 empty empty amp-osc_1 10 7 0 10 -262144
-258113 -1 8600 1;
#X text 137 51 Arduino-OSC /bang/s04;
#X obj 19 287 r~ mod_r04a;
#X obj 127 287 r~ mod_r04;
#X obj 253 617 s~ out_04;
#X obj 329 617 s~ out_r04;
#X obj 148 145 hsl 128 15 0 127 0 1 empty empty frq-osc_1 10 7 0 10
-204800 -258113 -1 700 1;
#X obj 313 268 mtof;
#X obj 317 490 *~ 0.5;
#X obj 254 515 *~;
#X obj 515 328 osc~;
#X obj 604 202 mtof;
#X obj 281 145 hsl 128 15 0 127 0 1 empty empty penv 10 7 0 10 -262144
-258113 -1 4153 1;
#X obj 515 251 mtof;
#X obj 281 115 hsl 128 15 0 120 0 1 empty empty frq-osc_2 10 7 0 10
-204800 -258113 -1 2500 1;
#X obj 515 282 +~;
#X obj 554 253 *~;
#X obj 516 356 *~;
#X obj 281 130 hsl 128 15 1.27 800 0 1 empty empty decay-osc_2 10 7
0 10 -262144 -258113 -1 7400 1;
#X obj 281 175 hsl 128 15 0 1 0 1 empty empty amp-osc_2 10 7 0 10 -262144
-258113 -1 12500 1;
#X msg 540 302 0;
#X obj 254 342 +~;
#X obj 256 297 *~ 1000;
#X obj 148 160 hsl 128 15 1.27 10000 0 1 empty empty decay-osc_1 10
7 0 10 -262144 -258113 -1 4200 1;
#X obj 254 549 *~;
#N canvas 456 208 450 300 env 0;
#X obj 15 18 inlet;
#X obj 83 18 inlet;
#X obj 83 183 line~;
#X obj 82 210 *~;
#X obj 83 236 lop~ 200;
#X msg 15 154 1 0;
#X obj 23 104 del;
#X msg 41 83 0;
#X msg 83 110 set 0 \$1;
#X msg 83 136 0 32.7161;
#X obj 15 55 bng 15 250 50 0 empty empty empty 17 7 0 10 -262144 -1
-1;
#X obj 84 262 outlet~;
#X connect 0 0 10 0;
#X connect 1 0 8 0;
#X connect 2 0 3 1;
#X connect 2 0 3 0;
#X connect 3 0 4 0;
#X connect 4 0 11 0;
#X connect 5 0 2 0;
#X connect 6 0 9 0;
#X connect 7 0 6 1;
#X connect 8 0 9 0;
#X connect 9 0 2 0;
#X connect 10 0 7 0;
#X connect 10 0 6 0;
#X connect 10 0 5 0;
#X restore 554 201 pd env;
#X obj 281 160 hsl 128 15 1.27 800 0 1 empty empty penv-dec 10 7 0
10 -262144 -258113 -1 500 1;
#N canvas 426 311 450 300 env 0;
#X obj 15 18 inlet;
#X obj 83 18 inlet;
#X obj 83 183 line~;
#X obj 82 210 *~;
#X obj 83 236 lop~ 200;
#X msg 15 154 1 0;
#X obj 23 104 del;
#X msg 41 83 0;
#X msg 83 110 set 0 \$1;
#X msg 83 136 0 466.672;
#X obj 15 55 bng 15 250 50 0 empty empty empty 17 7 0 10 -262144 -1
-1;
#X obj 84 262 outlet~;
#X connect 0 0 10 0;
#X connect 1 0 8 0;
#X connect 2 0 3 1;
#X connect 2 0 3 0;
#X connect 3 0 4 0;
#X connect 4 0 11 0;
#X connect 5 0 2 0;
#X connect 6 0 9 0;
#X connect 7 0 6 1;
#X connect 8 0 9 0;
#X connect 9 0 2 0;
#X connect 10 0 7 0;
#X connect 10 0 6 0;
#X connect 10 0 5 0;
#X restore 556 329 pd env;
#N canvas 456 208 450 300 env 0;
#X obj 15 18 inlet;
#X obj 83 18 inlet;
#X obj 83 183 line~;
#X obj 82 210 *~;
#X obj 83 236 lop~ 200;
#X msg 15 154 1 0;
#X obj 23 104 del;
#X msg 41 83 0;
#X msg 83 110 set 0 \$1;
#X msg 83 136 0 3307.94;
#X obj 15 55 bng 15 250 50 0 empty empty empty 17 7 0 10 -262144 -1
-1;
#X obj 84 262 outlet~;
#X connect 0 0 10 0;
#X connect 1 0 8 0;
#X connect 2 0 3 1;
#X connect 2 0 3 0;
#X connect 3 0 4 0;
#X connect 4 0 11 0;
#X connect 5 0 2 0;
#X connect 6 0 9 0;
#X connect 7 0 6 1;
#X connect 8 0 9 0;
#X connect 9 0 2 0;
#X connect 10 0 7 0;
#X connect 10 0 6 0;
#X connect 10 0 5 0;
#X restore 285 515 pd env;
#N canvas 921 226 450 300 random 0;
#X obj 39 27 inlet;
#X obj 106 48 inlet;
#X obj 39 130 random 200;
#X obj 39 255 outlet;
#X obj 138 129 / 2;
#X obj 106 76 t f f;
#X obj 138 161 * -1;
#X obj 39 195 +;
#X text 36 5 input bang;
#X text 151 48 input random range;
#X connect 0 0 2 0;
#X connect 1 0 5 0;
#X connect 2 0 7 0;
#X connect 4 0 6 0;
#X connect 5 0 2 1;
#X connect 5 1 4 0;
#X connect 6 0 7 1;
#X connect 7 0 3 0;
#X restore 349 229 pd random;
#X obj 224 130 nbx 5 15 -1e+37 1e+37 0 1 empty empty r-range -45 7
0 10 -262144 -1 -1 383 256;
#X obj 313 297 +;
#X obj 349 268 t b f;
#X obj 34 404 +~;
#X obj 255 320 +~;
#X obj 254 578 *~ 1;
#X obj 23 194 * 15;
#X obj 250 71 * 127;
#X obj 604 234 *;
#X obj 381 100 hradio 15 1 1 2 empty empty pol -20 7 0 10 -262144 -258113
-1 0;
#X obj 641 152 * 2;
#X obj 641 175 - 1;
#X obj 641 202 t b f;
#X obj 34 370 *~;
#X obj 516 392 *~;
#X obj 24 70 route /s04 /b04;
#X obj 623 344 random 2000;
#X obj 623 387 t b f;
#X obj 623 411 +;
#X obj 623 367 expr $f1 / (-2);
#X obj 623 435 t b f;
#X obj 623 459 +;
#X obj 255 473 osc~;
#X obj 317 457 osc~;
#X obj 382 457 osc~;
#X obj 313 348 del;
#X obj 331 324 + 50;
#X obj 343 304 random 500;
#X obj 318 429 +~;
#X obj 313 373 random 2000;
#X obj 432 353 + 50;
#X obj 424 321 random 500;
#X obj 409 398 random 2000;
#X obj 413 376 del;
#X obj 382 428 +~;
#X obj 171 70 inlet;
#X connect 0 0 37 0;
#X connect 0 0 42 0;
#X connect 0 0 44 0;
#X connect 0 0 45 0;
#X connect 0 0 46 0;
#X connect 0 0 74 0;
#X connect 0 0 78 0;
#X connect 0 0 72 0;
#X connect 0 0 80 0;
#X connect 1 0 53 0;
#X connect 1 0 54 0;
#X connect 2 0 22 0;
#X connect 3 0 11 1;
#X connect 4 0 60 1;
#X connect 5 0 6 0;
#X connect 6 0 0 0;
#X connect 7 0 0 0;
#X connect 8 0 7 0;
#X connect 8 1 7 1;
#X connect 11 0 50 1;
#X connect 14 0 15 0;
#X connect 15 0 16 0;
#X connect 16 0 62 0;
#X connect 17 0 26 1;
#X connect 19 0 60 0;
#X connect 20 0 11 0;
#X connect 23 0 24 0;
#X connect 24 0 48 0;
#X connect 25 0 26 0;
#X connect 26 0 41 0;
#X connect 27 0 34 0;
#X connect 28 0 55 0;
#X connect 29 0 28 0;
#X connect 30 0 32 0;
#X connect 31 0 30 0;
#X connect 32 0 27 0;
#X connect 33 0 32 1;
#X connect 34 0 39 0;
#X connect 34 0 61 0;
#X connect 35 0 44 1;
#X connect 36 0 61 1;
#X connect 37 0 27 1;
#X connect 38 0 69 0;
#X connect 38 0 75 0;
#X connect 38 0 81 0;
#X connect 39 0 51 0;
#X connect 40 0 45 1;
#X connect 41 0 52 0;
#X connect 42 0 33 0;
#X connect 43 0 42 0;
#X connect 43 0 42 1;
#X connect 44 0 34 1;
#X connect 45 0 41 1;
#X connect 46 0 49 0;
#X connect 47 0 46 1;
#X connect 48 0 51 1;
#X connect 49 0 48 0;
#X connect 49 1 48 1;
#X connect 50 0 38 1;
#X connect 51 0 38 0;
#X connect 52 0 21 0;
#X connect 52 0 22 0;
#X connect 53 0 5 0;
#X connect 54 0 29 0;
#X connect 55 0 33 1;
#X connect 56 0 57 0;
#X connect 57 0 58 0;
#X connect 58 0 59 0;
#X connect 59 0 55 0;
#X connect 59 1 55 1;
#X connect 60 0 50 0;
#X connect 61 0 52 0;
#X connect 62 0 1 0;
#X connect 62 1 8 0;
#X connect 63 0 66 0;
#X connect 64 0 65 0;
#X connect 64 1 65 1;
#X connect 65 0 67 0;
#X connect 66 0 64 0;
#X connect 67 0 68 0;
#X connect 67 1 68 1;
#X connect 69 0 26 0;
#X connect 70 0 25 0;
#X connect 71 0 25 0;
#X connect 72 0 76 0;
#X connect 73 0 72 1;
#X connect 74 0 73 0;
#X connect 75 0 70 0;
#X connect 76 0 75 1;
#X connect 77 0 80 1;
#X connect 78 0 77 0;
#X connect 79 0 81 1;
#X connect 80 0 79 0;
#X connect 81 0 71 0;
#X connect 82 0 1 0;
#X coords 0 -1 1 1 311 90 2 100 100;
