#N canvas 1 75 1009 524 10;
#X obj 150 100 bng 30 250 50 0 empty empty 5 8 15 0 25 -262144 -4032
-1;
#X obj 150 129 tgl 30 0 empty empty empty 17 7 0 10 -228856 -1 -1 0
1;
#X obj 184 100 hsl 100 30 0 1 0 0 empty empty empty 10 15 0 10 -4032
-1 -1 0 1;
#X obj 210 132 vsl 15 55 0 1 0 1 empty empty -> 2 7 0 10 -191407 -66577
-1 3700 1;
#X obj 195 132 vsl 15 55 0 10000 0 1 empty empty >- 2 7 0 10 -204800
-258113 -1 0 1;
#X obj 180 132 vsl 15 55 0 1000 0 1 empty empty >a 2 7 0 10 -204800
-258113 -1 0 1;
#X obj 73 212 int;
#X obj 73 234 change;
#X obj 71 124 spigot;
#X obj 71 99 t b f;
#X text 254 636 mixer;
#X text 358 637 fm-out;
#X obj 85 334 inlet~;
#X obj 149 335 inlet~;
#X obj 146 366 *~;
#X text 81 316 fm-auto;
#X text 148 315 fm-in;
#X obj 74 2 udpreceive 54321;
#X obj 74 24 unpackOSC;
#X obj 74 45 routeOSC /bang;
#X obj 228 175 hsl 128 15 0 1 0 1 empty empty amp-osc_1 10 7 0 10 -262144
-258113 -1 9000 1;
#X obj 74 65 route /s04 /b04 /t04;
#X text 187 46 Arduino-OSC /bang/s04;
#X obj 69 282 r~ mod_r04a;
#X obj 177 282 r~ mod_r04;
#X obj 253 613 s~ out_04;
#X obj 329 613 s~ out_r04;
#X obj 84 365 *~ 0.5;
#X obj 228 145 hsl 128 15 0 127 0 1 empty empty frq-osc_1 10 7 0 10
-262144 -258113 -1 2800 1;
#X obj 364 310 mtof;
#X obj 367 485 *~ 0.5;
#X obj 304 510 *~;
#X obj 432 452 osc~ 80;
#X obj 605 218 mtof;
#X obj 361 145 hsl 128 15 0 127 0 1 empty empty penv 10 7 0 10 -262144
-258113 -1 0 1;
#X obj 517 246 mtof;
#X obj 361 115 hsl 128 15 0 120 0 1 empty empty frq-osc_2 10 7 0 10
-262144 -258113 -1 2000 1;
#X obj 517 277 +~;
#X obj 556 248 *~;
#X obj 518 351 *~;
#X obj 361 130 hsl 128 15 1.27 800 0 1 empty empty decay-osc_2 10 7
0 10 -262144 -258113 -1 6800 1;
#X obj 361 175 hsl 128 15 0 1 0 1 empty empty amp-osc_2 10 7 0 10 -262144
-258113 -1 8600 1;
#X msg 542 297 0;
#X obj 518 387 *~ 0.9;
#X obj 302 396 +~;
#X obj 432 423 +~ 100;
#X obj 303 338 *~ 1000;
#X obj 228 160 hsl 128 15 1.27 20000 0 1 empty empty decay-osc_1 10
7 0 10 -262144 -258113 -1 12700 1;
#X obj 292 544 *~;
#N canvas 456 208 450 300 env 0;
#X obj 15 18 inlet;
#X obj 83 18 inlet;
#X obj 83 183 line~;
#X obj 82 210 *~;
#X obj 83 236 lop~ 200;
#X msg 15 154 1 0;
#X obj 23 104 del;
#X msg 41 83 0;
#X msg 83 110 set 0 \$1;
#X msg 83 136 0 422.647;
#X obj 15 55 bng 15 250 50 0 empty empty empty 17 7 0 10 -262144 -1
-1;
#X obj 84 262 outlet~;
#X connect 0 0 10 0;
#X connect 1 0 8 0;
#X connect 2 0 3 1;
#X connect 2 0 3 0;
#X connect 3 0 4 0;
#X connect 4 0 11 0;
#X connect 5 0 2 0;
#X connect 6 0 9 0;
#X connect 7 0 6 1;
#X connect 8 0 9 0;
#X connect 9 0 2 0;
#X connect 10 0 7 0;
#X connect 10 0 6 0;
#X connect 10 0 5 0;
#X restore 555 218 pd env;
#X obj 361 160 hsl 128 15 1.27 800 0 1 empty empty penv-dec 10 7 0
10 -262144 -258113 -1 6700 1;
#N canvas 426 311 450 300 env 0;
#X obj 15 18 inlet;
#X obj 83 18 inlet;
#X obj 83 183 line~;
#X obj 82 210 *~;
#X obj 83 236 lop~ 200;
#X msg 15 154 1 0;
#X obj 23 104 del;
#X msg 41 83 0;
#X msg 83 110 set 0 \$1;
#X msg 83 136 0 428.936;
#X obj 15 55 bng 15 250 50 0 empty empty empty 17 7 0 10 -262144 -1
-1;
#X obj 84 262 outlet~;
#X connect 0 0 10 0;
#X connect 1 0 8 0;
#X connect 2 0 3 1;
#X connect 2 0 3 0;
#X connect 3 0 4 0;
#X connect 4 0 11 0;
#X connect 5 0 2 0;
#X connect 6 0 9 0;
#X connect 7 0 6 1;
#X connect 8 0 9 0;
#X connect 9 0 2 0;
#X connect 10 0 7 0;
#X connect 10 0 6 0;
#X connect 10 0 5 0;
#X restore 581 324 pd env;
#N canvas 456 208 450 300 env 0;
#X obj 15 18 inlet;
#X obj 83 18 inlet;
#X obj 83 183 line~;
#X obj 82 210 *~;
#X obj 83 236 lop~ 200;
#X msg 15 154 1 0;
#X obj 23 104 del;
#X msg 41 83 0;
#X msg 83 110 set 0 \$1;
#X msg 83 136 0 20000;
#X obj 15 55 bng 15 250 50 0 empty empty empty 17 7 0 10 -262144 -1
-1;
#X obj 84 262 outlet~;
#X connect 0 0 10 0;
#X connect 1 0 8 0;
#X connect 2 0 3 1;
#X connect 2 0 3 0;
#X connect 3 0 4 0;
#X connect 4 0 11 0;
#X connect 5 0 2 0;
#X connect 6 0 9 0;
#X connect 7 0 6 1;
#X connect 8 0 9 0;
#X connect 9 0 2 0;
#X connect 10 0 7 0;
#X connect 10 0 6 0;
#X connect 10 0 5 0;
#X restore 335 510 pd env;
#X obj 304 130 nbx 5 15 -1e+037 1e+037 0 1 empty empty r-range 0 -8
0 10 -262144 -1 -1 124 256;
#X obj 364 339 +;
#X obj 400 310 t b f;
#X obj 84 399 +~;
#X obj 303 366 +~;
#X obj 254 574 *~ 1;
#X obj 273 68 * 127;
#X obj 357 588 dac~;
#X obj 303 452 osc~ 300;
#X obj 368 452 osc~ 500;
#X obj 368 424 +~ 50;
#X obj 517 323 osc~ 400;
#X obj 73 189 * 10;
#X connect 0 0 42 0;
#X connect 0 0 49 0;
#X connect 0 0 51 0;
#X connect 0 0 52 0;
#X connect 2 0 59 0;
#X connect 2 0 65 0;
#X connect 4 0 14 1;
#X connect 5 0 27 1;
#X connect 6 0 7 0;
#X connect 7 0 0 0;
#X connect 8 0 0 0;
#X connect 9 0 8 0;
#X connect 9 1 8 1;
#X connect 12 0 27 0;
#X connect 13 0 14 0;
#X connect 14 0 56 1;
#X connect 17 0 18 0;
#X connect 18 0 19 0;
#X connect 19 0 21 0;
#X connect 20 0 31 1;
#X connect 21 0 2 0;
#X connect 21 1 9 0;
#X connect 21 2 1 0;
#X connect 23 0 27 0;
#X connect 24 0 14 0;
#X connect 27 0 56 0;
#X connect 28 0 29 0;
#X connect 29 0 54 0;
#X connect 30 0 31 0;
#X connect 31 0 48 0;
#X connect 32 0 30 0;
#X connect 33 0 38 1;
#X connect 34 0 33 0;
#X connect 35 0 37 0;
#X connect 36 0 35 0;
#X connect 37 0 64 0;
#X connect 38 0 37 1;
#X connect 39 0 43 0;
#X connect 39 0 46 0;
#X connect 40 0 51 1;
#X connect 41 0 43 1;
#X connect 42 0 64 1;
#X connect 43 0 58 0;
#X connect 44 0 45 0;
#X connect 44 0 61 0;
#X connect 44 0 63 0;
#X connect 45 0 32 0;
#X connect 46 0 57 0;
#X connect 47 0 52 1;
#X connect 48 0 58 0;
#X connect 49 0 38 0;
#X connect 50 0 49 0;
#X connect 50 0 49 1;
#X connect 51 0 39 1;
#X connect 52 0 48 1;
#X connect 54 0 57 1;
#X connect 55 0 54 0;
#X connect 55 1 54 1;
#X connect 56 0 44 1;
#X connect 57 0 44 0;
#X connect 58 0 60 0;
#X connect 58 0 60 1;
#X connect 59 0 34 0;
#X connect 61 0 31 0;
#X connect 62 0 30 0;
#X connect 63 0 62 0;
#X connect 64 0 39 0;
#X connect 65 0 6 0;
#X coords -1 -1 1 1 345 100 2 150 100;
