#N canvas 137 116 1143 662 10;
#X obj 100 105 bng 30 250 50 0 empty empty 1 8 15 0 25 -262144 -257985
-1;
#X obj 100 135 tgl 30 0 empty empty empty 17 7 0 10 -228856 -1 -1 0
1;
#X obj 133 105 hsl 100 30 0 1 0 0 empty empty empty 10 15 0 10 -257985
-1 -1 3700 1;
#X obj 160 137 vsl 15 55 0 1 0 1 empty empty -> 2 7 0 10 -262130 -258113
-1 4000 1;
#X obj 145 137 vsl 15 55 0 10000 0 1 empty empty >- 2 7 0 10 -262130
-258113 -1 2300 1;
#X obj 130 137 vsl 15 55 0 1000 0 1 empty empty >a 2 7 0 10 -262130
-258113 -1 500 1;
#X obj 23 194 * 10;
#X obj 23 217 int;
#X obj 23 239 change;
#X obj 21 129 spigot;
#X obj 21 104 t b f;
#X obj 35 339 inlet~;
#X obj 99 340 inlet~;
#X obj 36 421 *~;
#X obj 98 422 *~;
#X text 31 321 fm-auto;
#X text 98 320 fm-in;
#X obj 445 5 udpreceive 54321;
#X obj 445 27 unpackOSC;
#X obj 445 48 routeOSC /bang;
#X obj 445 68 route /s01 /b01 /t01;
#X text 558 49 Arduino-OSC /bang/s01;
#X obj 19 287 r~ mod_r01a;
#X obj 127 287 r~ mod_r01;
#X obj 383 533 *~;
#X obj 316 531 *~;
#X obj 298 181 hsl 128 15 0 1 0 1 empty empty amp 0 7 0 10 -257985
-258113 -1 12700 1;
#X obj 424 578 s~ out_r01;
#X obj 451 162 bng 30 250 50 0 empty empty empty 17 7 0 10 -262144
-258113 -1;
#X floatatom 451 229 5 0 0 0 - - -, f 5;
#X obj 297 120 hsl 128 15 0 1 0 1 empty empty delay_amp 0 8 0 10 -257985
-258113 -1 5900 1;
#X obj 602 277 osc~;
#X obj 603 251 +~;
#X obj 600 207 hsl 128 15 0 127 0 1 empty empty empty -2 -8 0 10 -262144
-1 -1 2145 1;
#X obj 600 227 mtof;
#X obj 604 304 +~;
#X obj 605 385 delwrite~ \$0-k2 2000;
#X floatatom 769 232 5 0 0 0 - - -, f 5;
#X obj 769 305 vline~;
#X msg 769 259 \$1 200;
#X obj 772 207 hsl 128 15 0 500 0 1 empty empty empty -2 -8 0 10 -262144
-1 -1 3300 1;
#X msg 966 408 0.99;
#X msg 895 405 0.8;
#X msg 781 404 0;
#X msg 816 405 0.25;
#X msg 859 405 0.5;
#X msg 927 407 0.95;
#X obj 770 339 +~;
#X obj 847 278 osc~ 1;
#X obj 848 299 *~ 1;
#X obj 767 372 vd~ \$0-k2 2000;
#X floatatom 847 258 5 0 0 0 - - -, f 5;
#X obj 507 396 osc~;
#X obj 512 442 +~;
#X floatatom 461 417 5 0 0 0 - - -, f 5;
#X floatatom 458 397 5 0 0 0 - - -, f 5;
#X obj 510 419 *~;
#X obj 509 468 osc~;
#X obj 463 304 / 10;
#X obj 466 345 phasor~ 100;
#X floatatom 463 326 5 0 0 0 - - -, f 5;
#X obj 499 368 *~ 250;
#X obj 615 347 *~ 0.25;
#X obj 352 382 line~;
#X obj 348 428 *~;
#X obj 350 481 *~;
#X obj 349 454 lop~ 200;
#X msg 316 359 1 0;
#X obj 308 318 del;
#X msg 307 287 0;
#X obj 297 161 hsl 128 15 1.27 5000 0 1 empty empty decay 0 7 0 10
-257985 -258113 -1 8600 1;
#X msg 352 320 set 0 \$1;
#X msg 352 346 0 3386.24;
#X obj 269 265 bng 15 250 50 0 empty empty empty 17 7 0 10 -262144
-1 -1;
#X obj 451 206 random 2000;
#X obj 509 512 *~ 0.5;
#X obj 298 140 hsl 128 15 0 1200 0 0 empty empty osc_2 0 8 0 10 -257985
-258113 -33289 0 1;
#X obj 544 229 * 0.05;
#X obj 767 442 *~ 0.35;
#X obj 316 579 s~ out_01;
#X connect 0 0 73 0;
#X connect 0 0 28 0;
#X connect 2 0 6 0;
#X connect 3 0 24 1;
#X connect 4 0 14 1;
#X connect 5 0 13 1;
#X connect 6 0 7 0;
#X connect 7 0 8 0;
#X connect 8 0 0 0;
#X connect 9 0 0 0;
#X connect 10 0 9 0;
#X connect 10 1 9 1;
#X connect 11 0 13 0;
#X connect 12 0 14 0;
#X connect 17 0 18 0;
#X connect 18 0 19 0;
#X connect 19 0 20 0;
#X connect 20 0 2 0;
#X connect 20 1 10 0;
#X connect 20 2 1 0;
#X connect 22 0 13 0;
#X connect 23 0 14 0;
#X connect 24 0 27 0;
#X connect 25 0 79 0;
#X connect 26 0 25 1;
#X connect 28 0 74 0;
#X connect 29 0 32 0;
#X connect 29 0 58 0;
#X connect 29 0 55 0;
#X connect 29 0 77 0;
#X connect 30 0 62 1;
#X connect 31 0 35 0;
#X connect 32 0 31 0;
#X connect 33 0 34 0;
#X connect 34 0 32 0;
#X connect 35 0 62 0;
#X connect 37 0 39 0;
#X connect 38 0 47 0;
#X connect 39 0 38 0;
#X connect 40 0 37 0;
#X connect 41 0 78 1;
#X connect 42 0 78 1;
#X connect 43 0 78 1;
#X connect 44 0 78 1;
#X connect 45 0 78 1;
#X connect 46 0 78 1;
#X connect 47 0 50 0;
#X connect 48 0 49 0;
#X connect 50 0 78 0;
#X connect 51 0 48 0;
#X connect 52 0 56 0;
#X connect 53 0 57 0;
#X connect 54 0 53 1;
#X connect 55 0 56 1;
#X connect 56 0 53 0;
#X connect 57 0 75 0;
#X connect 58 0 60 0;
#X connect 59 0 61 0;
#X connect 60 0 59 0;
#X connect 61 0 52 0;
#X connect 62 0 36 0;
#X connect 63 0 64 1;
#X connect 63 0 64 0;
#X connect 64 0 66 0;
#X connect 65 0 25 0;
#X connect 65 0 24 0;
#X connect 66 0 65 0;
#X connect 67 0 63 0;
#X connect 68 0 72 0;
#X connect 69 0 68 1;
#X connect 70 0 71 0;
#X connect 71 0 72 0;
#X connect 72 0 63 0;
#X connect 73 0 69 0;
#X connect 73 0 68 0;
#X connect 73 0 67 0;
#X connect 74 0 29 0;
#X connect 75 0 31 0;
#X connect 75 0 65 1;
#X connect 76 0 54 0;
#X connect 77 0 33 0;
#X connect 78 0 65 1;
#X coords 0 -1 1 1 330 100 2 100 100;
