#N canvas -8 -8 1024 695 10;
#X obj 100 105 bng 30 250 50 0 empty empty 4 8 15 0 25 -262144 -4032
-1;
#X obj 100 135 tgl 30 0 empty empty empty 17 7 0 10 -228856 -1 -1 0
1;
#X obj 133 105 hsl 100 30 0 1 0 0 empty empty empty 10 15 0 10 -135391
-1 -262144 0 1;
#X obj 160 137 vsl 15 55 0 1 0 1 empty empty -> 2 7 0 10 -191407 -66577
-1 4000 1;
#X obj 145 137 vsl 15 55 0 10000 0 1 empty empty >- 2 7 0 10 -204800
-258113 -1 2300 1;
#X obj 130 137 vsl 15 55 0 1000 0 1 empty empty >a 2 7 0 10 -204800
-258113 -1 500 1;
#X obj 23 194 * 10;
#X obj 23 217 int;
#X obj 23 239 change;
#X obj 21 129 spigot;
#X obj 21 104 t b f;
#X text 339 657 mixer;
#X text 452 658 fm-out;
#X obj 35 339 inlet~;
#X obj 99 340 inlet~;
#X obj 98 422 *~;
#X text 31 321 fm-auto;
#X text 98 320 fm-in;
#X obj 445 5 udpreceive 54321;
#X obj 445 27 unpackOSC;
#X obj 445 48 routeOSC /bang;
#X obj 297 180 hsl 128 15 0 1 0 1 empty empty amp 10 7 0 10 -262144
-258113 -1 4100 1;
#X obj 445 68 route /s04 /b04 /t04;
#X text 558 49 Arduino-OSC /bang/s04;
#X obj 19 287 r~ mod_r04a;
#X obj 127 287 r~ mod_r04;
#X obj 330 634 s~ out_04;
#X obj 438 633 s~ out_r04;
#X obj 36 421 *~ 0.5;
#X obj 297 158 hsl 128 15 60 70 0 1 empty empty frq 10 7 0 10 -262144
-1 -1 0 1;
#X obj 337 414 osc~ 100;
#X obj 283 292 mtof;
#X obj 421 309 osc~ 150;
#X obj 466 355 *~ 0.5;
#X obj 344 471 *~;
#X obj 351 512 *~;
#X obj 530 408 osc~ 80;
#X obj 484 141 bng 15 250 50 0 empty empty empty 17 7 0 10 -262144
-1 -1;
#X obj 485 260 hsl 128 15 0 127 0 0 empty empty empty -2 -8 0 10 -262144
-1 -1 0 1;
#X obj 486 217 random 70;
#X obj 488 178 metro 200;
#X obj 767 475 osc~;
#X obj 940 186 mtof;
#X obj 957 131 hsl 128 15 1.7 800 0 1 empty empty penv 10 7 0 10 -262144
-1 -1 502 1;
#X floatatom 939 332 5 0 0 0 - - -, f 5;
#X obj 768 185 mtof;
#X obj 771 122 hsl 128 15 0 127 0 1 empty empty frq 10 7 0 10 -262144
-1 -1 3700 1;
#X floatatom 768 217 5 0 0 0 - - -, f 5;
#X obj 768 398 +~;
#X obj 1005 303 line~;
#X obj 1001 369 *~;
#X obj 939 356 *;
#X obj 1003 424 *~;
#X obj 1002 395 lop~ 200;
#X msg 912 271 1 0;
#X obj 883 230 del;
#X msg 901 207 0;
#X obj 961 153 hsl 128 15 1.27 800 0 1 empty empty penv-dec 10 7 0
10 -262144 -1 -1 5400 1;
#X msg 1005 241 set 0 \$1;
#X msg 1005 267 0 340.887;
#X obj 1138 124 hradio 15 1 1 2 empty empty pol 0 -8 0 10 -262144 -1
-1 1;
#X obj 1138 185 - 1;
#X obj 767 606 *~;
#X obj 784 156 hsl 128 15 1.27 800 0 1 empty empty penv-dec 10 7 0
10 -262144 -1 -1 12700 1;
#X msg 852 368 set 0 \$1;
#X msg 852 394 0 800;
#X obj 852 461 line~;
#X obj 849 528 lop~ 120;
#X obj 848 500 *~;
#X obj 826 613 hsl 128 15 0 1 0 1 empty empty amp 10 7 0 10 -262144
-1 -1 12700 1;
#X msg 792 447 0;
#X obj 1138 216 t b f;
#X obj 954 75 spigot;
#X obj 1138 155 * 3;
#X obj 954 100 random 127;
#X obj 767 642 *~ 0.9;
#X connect 0 0 70 0;
#X connect 0 0 55 0;
#X connect 0 0 56 0;
#X connect 0 0 72 0;
#X connect 0 0 54 0;
#X connect 2 0 6 0;
#X connect 2 0 35 1;
#X connect 4 0 15 1;
#X connect 5 0 28 1;
#X connect 6 0 7 0;
#X connect 7 0 8 0;
#X connect 8 0 0 0;
#X connect 9 0 0 0;
#X connect 10 0 9 0;
#X connect 10 1 9 1;
#X connect 13 0 28 0;
#X connect 14 0 15 0;
#X connect 18 0 19 0;
#X connect 19 0 20 0;
#X connect 20 0 22 0;
#X connect 21 0 34 1;
#X connect 22 0 2 0;
#X connect 22 1 10 0;
#X connect 22 2 1 0;
#X connect 24 0 28 0;
#X connect 25 0 15 0;
#X connect 29 0 31 0;
#X connect 30 0 34 0;
#X connect 31 0 30 0;
#X connect 31 0 32 0;
#X connect 32 0 33 0;
#X connect 33 0 34 0;
#X connect 34 0 35 0;
#X connect 35 0 26 0;
#X connect 35 0 27 0;
#X connect 36 0 33 0;
#X connect 37 0 40 0;
#X connect 38 0 31 0;
#X connect 39 0 38 0;
#X connect 40 0 39 0;
#X connect 41 0 62 0;
#X connect 42 0 44 0;
#X connect 43 0 42 0;
#X connect 44 0 51 0;
#X connect 45 0 47 0;
#X connect 46 0 45 0;
#X connect 47 0 48 0;
#X connect 48 0 41 0;
#X connect 49 0 50 1;
#X connect 49 0 50 0;
#X connect 50 0 53 0;
#X connect 51 0 52 1;
#X connect 52 0 48 1;
#X connect 53 0 52 0;
#X connect 54 0 49 0;
#X connect 54 0 66 0;
#X connect 55 0 59 0;
#X connect 55 0 65 0;
#X connect 56 0 55 1;
#X connect 57 0 58 0;
#X connect 58 0 59 0;
#X connect 59 0 49 0;
#X connect 60 0 73 0;
#X connect 61 0 71 0;
#X connect 62 0 75 0;
#X connect 63 0 64 0;
#X connect 64 0 65 0;
#X connect 65 0 66 0;
#X connect 66 0 68 0;
#X connect 66 0 68 1;
#X connect 67 0 62 1;
#X connect 68 0 67 0;
#X connect 69 0 75 1;
#X connect 70 0 41 1;
#X connect 71 0 44 0;
#X connect 71 1 51 1;
#X connect 72 0 74 0;
#X connect 73 0 61 0;
#X connect 74 0 43 0;
#X connect 75 0 35 0;
#X coords 0 -1 1 1 330 100 2 100 100;
