#N canvas 59 48 1089 698 10;
#X obj 100 105 bng 30 250 50 0 empty empty 2 8 15 0 25 -262144 -257985
-1;
#X obj 100 135 tgl 30 0 empty empty empty 17 7 0 10 -228856 -1 -1 0
1;
#X obj 133 105 hsl 100 30 0 1 0 0 empty empty empty 10 15 0 10 -257985
-1 -1 0 1;
#X obj 160 137 vsl 15 55 0 1 0 1 empty empty -> 2 7 0 10 -262130 -258113
-1 4000 1;
#X obj 145 137 vsl 15 55 0 10000 0 1 empty empty >- 2 7 0 10 -262130
-258113 -1 2300 1;
#X obj 130 137 vsl 15 55 0 1000 0 1 empty empty >a 2 7 0 10 -262130
-258113 -1 500 1;
#X obj 23 194 * 10;
#X obj 23 217 int;
#X obj 23 239 change;
#X obj 21 129 spigot;
#X obj 21 104 t b f;
#X obj 35 339 inlet~;
#X obj 99 340 inlet~;
#X obj 36 421 *~;
#X obj 98 422 *~;
#X text 31 321 fm-auto;
#X text 98 320 fm-in;
#X obj 445 5 udpreceive 54321;
#X obj 445 27 unpackOSC;
#X obj 445 48 routeOSC /bang;
#X obj 445 68 route /s02 /b02 /t02;
#X text 558 49 Arduino-OSC /bang/s02;
#X obj 19 287 r~ mod_r02a;
#X obj 127 287 r~ mod_r02;
#X obj 313 526 *~;
#X obj 246 524 *~;
#X obj 294 177 hsl 128 15 0 1 0 1 empty empty amp 0 7 0 10 -257985
-258113 -1 12700 1;
#X obj 447 158 bng 30 250 50 0 empty empty empty 17 7 0 10 -262144
-258113 -1;
#X floatatom 447 225 5 0 0 0 - - -, f 5;
#X obj 293 116 hsl 128 15 0 1 0 1 empty empty delay_amp 0 8 0 10 -257985
-258113 -1 7900 1;
#X obj 598 273 osc~;
#X obj 599 247 +~;
#X obj 596 203 hsl 128 15 0 127 0 1 empty empty empty -2 -8 0 10 -262144
-1 -1 6255 1;
#X obj 596 223 mtof;
#X obj 600 300 +~;
#X obj 601 381 delwrite~ \$0-k2 2000;
#X floatatom 765 228 5 0 0 0 - - -, f 5;
#X obj 765 301 vline~;
#X msg 765 255 \$1 200;
#X obj 768 203 hsl 128 15 0 200 0 1 empty empty empty -2 -8 0 10 -262144
-1 -1 6400 1;
#X msg 962 404 0.99;
#X msg 891 401 0.8;
#X msg 777 400 0;
#X msg 812 401 0.25;
#X msg 855 401 0.5;
#X msg 923 403 0.95;
#X obj 766 335 +~;
#X obj 843 274 osc~ 1;
#X obj 844 295 *~ 1;
#X obj 763 368 vd~ \$0-k2 2000;
#X floatatom 843 254 5 0 0 0 - - -, f 5;
#X obj 509 409 osc~;
#X obj 508 463 +~;
#X floatatom 462 437 5 0 0 0 - - -, f 5;
#X floatatom 458 409 5 0 0 0 - - -, f 5;
#X obj 507 435 *~;
#X obj 505 491 osc~;
#X obj 462 341 phasor~ 100;
#X floatatom 459 322 5 0 0 0 - - -, f 5;
#X obj 611 343 *~ 0.25;
#X obj 348 378 line~;
#X obj 344 424 *~;
#X obj 342 491 *~;
#X obj 345 450 lop~ 200;
#X msg 312 355 1 0;
#X obj 304 314 del;
#X msg 303 283 0;
#X obj 293 157 hsl 128 15 1.27 5000 0 1 empty empty decay 0 7 0 10
-257985 -258113 -1 10200 1;
#X msg 348 316 set 0 \$1;
#X msg 348 342 0 4016;
#X obj 265 261 bng 15 250 50 0 empty empty empty 17 7 0 10 -262144
-1 -1;
#X obj 505 517 *~ 0.5;
#X obj 294 136 hsl 128 15 0 500 0 0 empty empty osc_2 0 8 0 10 -257985
-258113 -33289 3600 1;
#X obj 540 225 * 0.05;
#X obj 763 438 *~ 0.35;
#X obj 198 656 s~ out_02;
#X obj 306 655 s~ out_r02;
#X obj 459 300 / 20;
#X obj 409 269 / 5;
#X floatatom 533 364 5 0 0 0 - - -, f 5;
#X obj 184 176 hsl 100 15 0 800 0 1 empty empty phasor_* 0 8 0 10 -257985
-258113 -1 3800 1;
#X obj 501 381 *~;
#X obj 447 202 random 1400;
#X obj 307 579 bp~;
#X floatatom 342 581 0 0 0 0 - - -;
#X floatatom 342 604 0 0 0 0 - - -;
#X obj 184 157 hsl 100 15 0 20000 0 0 empty empty bp_frq 0 8 0 10 -257985
-258113 -1 8347 1;
#X obj 405 603 hsl 128 15 0 200 0 0 empty empty empty -2 -8 0 10 -262144
-1 -1 6600 1;
#X obj 273 611 *~ 0.5;
#X connect 0 0 70 0;
#X connect 0 0 27 0;
#X connect 2 0 6 0;
#X connect 3 0 24 1;
#X connect 4 0 14 1;
#X connect 5 0 13 1;
#X connect 6 0 7 0;
#X connect 7 0 8 0;
#X connect 8 0 0 0;
#X connect 9 0 0 0;
#X connect 10 0 9 0;
#X connect 10 1 9 1;
#X connect 11 0 13 0;
#X connect 12 0 14 0;
#X connect 17 0 18 0;
#X connect 18 0 19 0;
#X connect 19 0 20 0;
#X connect 20 0 2 0;
#X connect 20 1 10 0;
#X connect 20 2 1 0;
#X connect 22 0 13 0;
#X connect 23 0 14 0;
#X connect 24 0 83 0;
#X connect 25 0 83 0;
#X connect 26 0 25 1;
#X connect 27 0 82 0;
#X connect 28 0 31 0;
#X connect 28 0 73 0;
#X connect 28 0 77 0;
#X connect 28 0 78 0;
#X connect 29 0 59 1;
#X connect 30 0 34 0;
#X connect 31 0 30 0;
#X connect 32 0 33 0;
#X connect 33 0 31 0;
#X connect 34 0 59 0;
#X connect 36 0 38 0;
#X connect 37 0 46 0;
#X connect 38 0 37 0;
#X connect 39 0 36 0;
#X connect 40 0 74 1;
#X connect 41 0 74 1;
#X connect 42 0 74 1;
#X connect 43 0 74 1;
#X connect 44 0 74 1;
#X connect 45 0 74 1;
#X connect 46 0 49 0;
#X connect 47 0 48 0;
#X connect 49 0 74 0;
#X connect 50 0 47 0;
#X connect 51 0 55 0;
#X connect 52 0 56 0;
#X connect 53 0 52 1;
#X connect 54 0 55 1;
#X connect 55 0 52 0;
#X connect 56 0 71 0;
#X connect 57 0 81 0;
#X connect 58 0 57 0;
#X connect 59 0 35 0;
#X connect 60 0 61 1;
#X connect 60 0 61 0;
#X connect 61 0 63 0;
#X connect 62 0 25 0;
#X connect 62 0 24 0;
#X connect 63 0 62 0;
#X connect 64 0 60 0;
#X connect 65 0 69 0;
#X connect 66 0 65 1;
#X connect 67 0 68 0;
#X connect 68 0 69 0;
#X connect 69 0 60 0;
#X connect 70 0 66 0;
#X connect 70 0 65 0;
#X connect 70 0 64 0;
#X connect 71 0 30 0;
#X connect 71 0 62 1;
#X connect 72 0 53 0;
#X connect 73 0 32 0;
#X connect 74 0 62 1;
#X connect 77 0 58 0;
#X connect 78 0 54 0;
#X connect 79 0 81 1;
#X connect 80 0 79 0;
#X connect 81 0 51 0;
#X connect 82 0 28 0;
#X connect 83 0 88 0;
#X connect 84 0 83 1;
#X connect 85 0 83 2;
#X connect 86 0 84 0;
#X connect 87 0 85 0;
#X connect 88 0 75 0;
#X connect 88 0 76 0;
#X coords 0 -1 1 1 330 100 2 100 100;
