#N canvas 131 31 999 656 10;
#X obj 362 626 *~;
#X obj 100 105 bng 30 250 50 0 empty empty 8 8 15 0 25 -262144 -159808
-1;
#X obj 100 135 tgl 30 0 empty empty empty 17 7 0 10 -228856 -1 -1 0
1;
#X obj 133 105 hsl 100 30 0 1 0 0 empty empty empty 10 15 0 10 -159808
-1 -1 1000 1;
#X obj 160 137 vsl 15 55 0 1 0 1 empty empty -> 2 7 0 10 -232576 -258113
-1 3200 1;
#X obj 145 137 vsl 15 55 0 10000 0 1 empty empty >- 2 7 0 10 -232576
-258113 -1 1800 1;
#X obj 130 137 vsl 15 55 0 1000 0 1 empty empty >a 2 7 0 10 -232576
-258113 -1 1300 1;
#X obj 23 194 * 10;
#X obj 23 217 int;
#X obj 23 239 change;
#X obj 21 129 spigot;
#X obj 21 104 t b f;
#X obj 35 339 inlet~;
#X obj 99 340 inlet~;
#X obj 36 421 *~;
#X obj 98 422 *~;
#X text 31 321 fm-auto;
#X text 98 320 fm-in;
#X obj 249 623 *~;
#X obj 445 5 udpreceive 54321;
#X obj 445 27 unpackOSC;
#X obj 445 48 routeOSC /bang;
#X obj 444 68 route /s08 /b08 /t08;
#X text 558 49 Arduino-OSC /bang/s08;
#X obj 297 180 hsl 128 15 0 1 0 1 empty empty amp 10 7 0 10 -262144
-258113 -1 8500 1;
#X obj 19 287 r~ mod_r08a;
#X obj 127 287 r~ mod_r08;
#X obj 267 678 s~ out_08;
#X obj 375 677 s~ out_r08;
#X obj 362 626 *~;
#X obj 460 216 tgl 15 0 empty empty empty 17 7 0 10 -262144 -1 -1 0
1;
#X obj 459 270 f;
#X obj 498 270 + 1;
#X floatatom 477 323 5 0 0 0 - - -, f 5;
#X obj 465 451 int;
#X obj 466 477 mtof;
#X floatatom 476 499 5 0 0 0 - - -, f 5;
#X obj 462 526 phasor~;
#X obj 465 634 dac~;
#X floatatom 483 373 5 0 0 0 - - -, f 5;
#X obj 310 257 hsl 128 15 3 20 0 1 empty empty empty -2 -8 0 10 -262144
-1 -1 5000 1;
#X floatatom 549 522 5 0 0 0 - - -, f 5;
#N canvas 0 22 450 278 (subpatch) 0;
#X array melody 50 float 3;
#A 0 -0.200003 0.185708 -0.157146 0.385718 0.314291 0.242863 0.21072
0.178578 0.146435 0.485718 0.328572 0.228573 0.157145 0.114289 0.071432
0.0500036 0.0285753 -0.0857135 0.385714 0.35 0.314286 0.278573 0.242859
0.200002 0.628572 0.585716 0.564287 0.542859 -0.0999981 -0.0857125
-0.0642841 -0.0428558 8.9407e-07 0.0428576 0.435718 0.485717 0.535717
0.585716 0.214289 0.221431 0.228574 0.314288 0.457143 -0.385715 -0.385715
0 0 0 0 0;
#X coords 0 1 50 -1 200 140 1 0 0;
#X restore 615 271 graph;
#X obj 553 548 *~;
#X obj 459 347 tabread melody;
#X obj 465 423 * 30;
#X obj 465 399 + 0;
#X obj 474 578 bp~;
#X obj 310 237 hsl 128 15 30 155 0 1 empty empty empty -2 -8 0 10 -262144
-1 -1 2600 1;
#X floatatom 388 423 5 0 0 0 - - -, f 5;
#X floatatom 327 441 5 0 0 0 - - -, f 5;
#X obj 323 322 + 0.05;
#X obj 458 296 mod 10;
#X obj 341 362 * 44100;
#X obj 459 241 metro 1500;
#X connect 0 0 28 0;
#X connect 3 0 7 0;
#X connect 3 0 51 0;
#X connect 4 0 0 1;
#X connect 5 0 15 1;
#X connect 6 0 14 1;
#X connect 7 0 8 0;
#X connect 8 0 9 0;
#X connect 9 0 1 0;
#X connect 10 0 1 0;
#X connect 11 0 10 0;
#X connect 11 1 10 1;
#X connect 12 0 14 0;
#X connect 13 0 15 0;
#X connect 18 0 27 0;
#X connect 19 0 20 0;
#X connect 20 0 21 0;
#X connect 21 0 22 0;
#X connect 22 0 3 0;
#X connect 22 1 11 0;
#X connect 22 2 2 0;
#X connect 24 0 18 1;
#X connect 25 0 14 0;
#X connect 26 0 15 0;
#X connect 30 0 54 0;
#X connect 31 0 32 0;
#X connect 31 0 52 0;
#X connect 32 0 31 1;
#X connect 34 0 35 0;
#X connect 35 0 36 0;
#X connect 35 0 37 0;
#X connect 37 0 47 0;
#X connect 40 0 41 0;
#X connect 41 0 37 0;
#X connect 41 0 43 0;
#X connect 44 0 39 0;
#X connect 44 0 46 0;
#X connect 45 0 34 0;
#X connect 46 0 45 0;
#X connect 47 0 38 1;
#X connect 47 0 38 0;
#X connect 48 0 49 0;
#X connect 49 0 47 2;
#X connect 50 0 47 1;
#X connect 51 0 53 0;
#X connect 52 0 33 0;
#X connect 52 0 44 0;
#X connect 53 0 50 0;
#X connect 54 0 31 0;
#X coords 0 -1 1 1 330 100 2 100 100;
