#N canvas 151 125 1009 524 10;
#X obj 190 484 *~;
#X obj 100 105 bng 30 250 50 0 empty empty 9 8 15 0 25 -262144 -159808
-1;
#X obj 100 135 tgl 30 0 empty empty empty 17 7 0 10 -228856 -1 -1 0
1;
#X obj 133 105 hsl 100 30 0 1 0 0 empty empty empty 10 15 0 10 -159808
-1 -1 1800 1;
#X obj 160 137 vsl 15 55 0 1 0 1 empty empty -> 2 7 0 10 -232576 -258113
-1 4000 1;
#X obj 145 137 vsl 15 55 0 10000 0 1 empty empty >- 2 7 0 10 -232576
-258113 -1 2300 1;
#X obj 130 137 vsl 15 55 0 1000 0 1 empty empty >a 2 7 0 10 -232576
-258113 -1 500 1;
#X obj 23 194 * 10;
#X obj 23 217 int;
#X obj 23 239 change;
#X obj 21 129 spigot;
#X obj 21 104 t b f;
#X obj 35 339 inlet~;
#X obj 99 340 inlet~;
#X obj 36 421 *~;
#X obj 98 422 *~;
#X text 31 321 fm-auto;
#X text 98 320 fm-in;
#X obj 77 481 *~;
#X obj 445 5 udpreceive 54321;
#X obj 445 27 unpackOSC;
#X obj 445 48 routeOSC /bang;
#X text 558 49 Arduino-OSC /bang/s08;
#X obj 297 180 hsl 128 15 0 1 0 1 empty empty amp 10 7 0 10 -262144
-258113 -1 0 1;
#X obj 444 68 route /s09 /b09 /t09;
#X obj 19 287 r~ mod_r09a;
#X obj 127 287 r~ mod_r09;
#X obj 95 536 s~ out_09;
#X obj 203 535 s~ out_r09;
#X obj 460 216 tgl 15 0 empty empty empty 17 7 0 10 -262144 -1 -1 1
1;
#X obj 459 270 f;
#X obj 498 270 + 1;
#X floatatom 477 323 5 0 0 0 - - -, f 5;
#X obj 465 451 int;
#X obj 466 477 mtof;
#X floatatom 476 499 5 0 0 0 - - -, f 5;
#X obj 462 526 phasor~;
#X obj 465 634 dac~;
#X floatatom 483 373 5 0 0 0 - - -, f 5;
#X obj 297 163 hsl 128 15 0 330 0 0 empty empty empty -2 -8 0 10 -262144
-1 -1 0 1;
#X floatatom 549 522 5 0 0 0 - - -, f 5;
#N canvas 234 114 496 299 (subpatch) 0;
#X array melody 20 float 5;
#A 0 -0.957143 0.242844 -0.328578 0.685708 0.299998 0.0142868 0.0142868
0.671422 1.01428 0.214291 0.350004 0.585716 0.671429 0.500003 0.500003
0.400004 0.528574 0.771428 0.728565 0.714286;
#X coords 0 1 19 -1 200 140 1 0 0;
#X restore 615 271 graph;
#X obj 553 548 *~;
#X obj 459 347 tabread melody;
#X obj 465 399 + 0;
#X obj 474 578 bp~;
#X obj 297 143 hsl 128 15 0 100 0 1 empty empty empty -2 -8 0 10 -262144
-1 -1 11600 1;
#X floatatom 388 423 5 0 0 0 - - -, f 5;
#X floatatom 327 441 5 0 0 0 - - -, f 5;
#X obj 341 362 * 20000;
#X obj 323 322 + 0.05;
#X obj 465 423 * 50;
#X obj 459 241 metro 500;
#X obj 458 297 mod 20;
#X connect 0 0 28 0;
#X connect 3 0 7 0;
#X connect 3 0 50 0;
#X connect 4 0 0 1;
#X connect 5 0 15 1;
#X connect 6 0 14 1;
#X connect 7 0 8 0;
#X connect 8 0 9 0;
#X connect 9 0 1 0;
#X connect 10 0 1 0;
#X connect 11 0 10 0;
#X connect 11 1 10 1;
#X connect 12 0 14 0;
#X connect 13 0 15 0;
#X connect 18 0 27 0;
#X connect 19 0 20 0;
#X connect 20 0 21 0;
#X connect 21 0 24 0;
#X connect 23 0 18 1;
#X connect 24 0 3 0;
#X connect 24 1 11 0;
#X connect 24 2 2 0;
#X connect 25 0 14 0;
#X connect 26 0 15 0;
#X connect 29 0 52 0;
#X connect 30 0 31 0;
#X connect 30 0 53 0;
#X connect 31 0 30 1;
#X connect 33 0 34 0;
#X connect 34 0 35 0;
#X connect 34 0 36 0;
#X connect 36 0 45 0;
#X connect 39 0 40 0;
#X connect 40 0 36 0;
#X connect 40 0 42 0;
#X connect 43 0 38 0;
#X connect 43 0 44 0;
#X connect 44 0 51 0;
#X connect 45 0 37 1;
#X connect 45 0 37 0;
#X connect 46 0 47 0;
#X connect 47 0 45 2;
#X connect 48 0 45 1;
#X connect 49 0 48 0;
#X connect 50 0 49 0;
#X connect 51 0 33 0;
#X connect 52 0 30 0;
#X connect 53 0 32 0;
#X connect 53 0 43 0;
#X coords 0 -1 1 1 330 100 2 100 100;
