#N canvas 34 1 1362 695 10;
#X obj 362 626 *~;
#X obj 100 105 bng 30 250 50 0 empty empty 6 8 15 0 25 -262144 -4032
-1;
#X obj 100 135 tgl 30 0 empty empty empty 17 7 0 10 -228856 -1 -1 0
1;
#X obj 134 105 hsl 100 30 0 1 0 0 empty empty empty 10 15 0 10 -4032
-1 -1 0 1;
#X obj 160 137 vsl 15 55 0 1 0 1 empty empty -> 2 7 0 10 -204800 -258113
-1 4000 1;
#X obj 145 137 vsl 15 55 0 10000 0 1 empty empty >- 2 7 0 10 -204800
-258113 -1 2300 1;
#X obj 130 137 vsl 15 55 0 1000 0 1 empty empty >a 2 7 0 10 -204800
-258113 -1 500 1;
#X obj 23 194 * 10;
#X obj 23 217 int;
#X obj 23 239 change;
#X obj 21 129 spigot;
#X obj 21 104 t b f;
#X text 247 725 mixer;
#X text 360 726 fm-out;
#X obj 249 708 outlet~;
#X obj 361 706 outlet~;
#X obj 35 339 inlet~;
#X obj 99 340 inlet~;
#X obj 36 421 *~;
#X obj 98 422 *~;
#X text 31 321 fm-auto;
#X text 98 320 fm-in;
#X obj 249 623 *~;
#X obj 445 5 udpreceive 54321;
#X obj 445 27 unpackOSC;
#X obj 445 48 routeOSC /bang;
#X text 558 49 Arduino-OSC /bang/s08;
#X obj 312 181 hsl 128 15 0 1 0 1 empty empty amp 10 7 0 10 -262144
-258113 -1 12700 1;
#X obj 445 68 route /s06 /b06 /t06;
#X obj 19 287 r~ mod_r06a;
#X obj 127 287 r~ mod_r06;
#X obj 267 678 s~ out_06;
#X obj 375 677 s~ out_r06;
#X obj 454 107 udpreceive 54321;
#X obj 454 129 unpackOSC;
#X obj 454 150 routeOSC /bang;
#X text 567 151 Arduino-OSC /bang/s04;
#X obj 728 529 osc~;
#X obj 901 240 mtof;
#X obj 312 136 hsl 128 15 1.7 800 0 1 empty empty penv 10 7 0 10 -262144
-1 -1 802 1;
#X floatatom 900 386 5 0 0 0 - - -, f 5;
#X obj 729 239 mtof;
#X obj 312 166 hsl 128 15 0 127 0 1 empty empty frq 10 7 0 10 -262144
-1 -1 5400 1;
#X floatatom 729 271 5 0 0 0 - - -, f 5;
#X obj 729 452 +~;
#X obj 966 357 line~;
#X obj 962 423 *~;
#X obj 900 410 *;
#X obj 964 478 *~;
#X obj 963 449 lop~ 200;
#X msg 873 325 1 0;
#X obj 844 284 del;
#X msg 862 261 0;
#X obj 312 121 hsl 128 15 1.27 800 0 1 empty empty penv-dec 10 7 0
10 -262144 -1 -1 12400 1;
#X msg 966 295 set 0 \$1;
#X msg 966 321 0 781.132;
#X obj 271 182 hradio 15 1 1 2 empty empty pol 0 -8 0 10 -262144 -1
-1 0;
#X obj 271 213 * 2;
#X obj 1099 239 - 1;
#X obj 728 660 *~;
#X obj 312 151 hsl 128 15 1.27 800 0 1 empty empty penv-dec 10 7 0
10 -262144 -1 -1 12700 1;
#X msg 813 422 set 0 \$1;
#X msg 813 448 0 800;
#X obj 813 515 line~;
#X obj 810 582 lop~ 120;
#X obj 809 554 *~;
#X obj 312 106 hsl 128 15 0 1 0 1 empty empty amp 10 7 0 10 -262144
-1 -1 12700 1;
#X msg 753 501 0;
#X obj 1099 270 t b f;
#X obj 915 129 spigot;
#X obj 915 154 random 127;
#X obj 801 724 dac~;
#X obj 350 511 osc~ 200;
#X obj 318 406 mtof;
#X obj 728 696 *~ 0.9;
#X connect 0 0 15 0;
#X connect 0 0 32 0;
#X connect 1 0 51 0;
#X connect 1 0 67 0;
#X connect 1 0 50 0;
#X connect 1 0 52 0;
#X connect 1 0 69 0;
#X connect 3 0 7 0;
#X connect 3 0 73 0;
#X connect 4 0 0 1;
#X connect 5 0 19 1;
#X connect 6 0 18 1;
#X connect 7 0 8 0;
#X connect 8 0 9 0;
#X connect 9 0 1 0;
#X connect 10 0 1 0;
#X connect 11 0 10 0;
#X connect 11 1 10 1;
#X connect 16 0 18 0;
#X connect 17 0 19 0;
#X connect 22 0 14 0;
#X connect 22 0 31 0;
#X connect 23 0 24 0;
#X connect 24 0 25 0;
#X connect 25 0 28 0;
#X connect 27 0 22 1;
#X connect 28 0 3 0;
#X connect 28 1 11 0;
#X connect 28 2 2 0;
#X connect 29 0 18 0;
#X connect 30 0 19 0;
#X connect 33 0 34 0;
#X connect 34 0 35 0;
#X connect 37 0 59 0;
#X connect 38 0 40 0;
#X connect 39 0 38 0;
#X connect 40 0 47 0;
#X connect 41 0 43 0;
#X connect 42 0 41 0;
#X connect 43 0 44 0;
#X connect 44 0 37 0;
#X connect 45 0 46 1;
#X connect 45 0 46 0;
#X connect 46 0 49 0;
#X connect 47 0 48 1;
#X connect 48 0 44 1;
#X connect 49 0 48 0;
#X connect 50 0 45 0;
#X connect 50 0 63 0;
#X connect 51 0 55 0;
#X connect 51 0 62 0;
#X connect 52 0 51 1;
#X connect 53 0 54 0;
#X connect 54 0 55 0;
#X connect 55 0 45 0;
#X connect 56 0 57 0;
#X connect 57 0 58 0;
#X connect 58 0 68 0;
#X connect 59 0 74 0;
#X connect 60 0 61 0;
#X connect 61 0 62 0;
#X connect 62 0 63 0;
#X connect 63 0 65 0;
#X connect 63 0 65 1;
#X connect 64 0 59 1;
#X connect 65 0 64 0;
#X connect 66 0 74 1;
#X connect 67 0 37 1;
#X connect 68 0 40 0;
#X connect 68 1 47 1;
#X connect 69 0 70 0;
#X connect 70 0 39 0;
#X connect 72 0 22 0;
#X connect 73 0 72 0;
#X connect 74 0 71 0;
#X connect 74 0 71 1;
#X coords 0 -1 1 1 345 100 2 100 100;
