#N canvas 209 75 906 762 10;
#X obj 130 8 udpreceive 54321;
#X obj 130 30 unpackOSC;
#X obj 130 51 routeOSC /bang;
#X text 243 52 Arduino-OSC /bang/s06;
#X obj 100 100 bng 30 250 50 0 empty empty 6 8 15 0 25 -262144 -4034
-1;
#X obj 470 378 del;
#X msg 437 402 1;
#X msg 470 402 0;
#X obj 380 373 noise~;
#X obj 381 465 *~;
#X floatatom 486 579 5 0 0 0 - - -, f 5;
#X obj 506 460 *~ 0.5;
#X obj 566 452 z~ 1;
#X obj 567 472 *~ 0.5;
#X obj 507 495 +~;
#X obj 524 343 expr 44100/($f1*1.09545)*0.025;
#X obj 486 530 random 1000;
#X obj 486 553 expr $f1 / 10000 + 0.9;
#X obj 281 115 hsl 128 15 0 1 0 1 empty empty kp_amp 1 10 7 0 10 -204786
-258113 -1 12700 1;
#X obj 133 100 hsl 100 30 0 1 0 0 empty empty empty -2 -8 0 10 -4034
-1 -1 3300 1;
#X obj 440 604 *~ 0.99;
#X obj 16 159 int;
#X obj 16 176 change;
#X obj 16 139 * 10;
#X obj 281 100 hsl 128 15 0 127 0 1 empty empty kp_frq 20.8957 10
8 0 10 -204786 -258113 -1 600 1;
#X obj 534 238 mtof;
#X obj 137 302 t b f;
#X obj 139 217 random 100;
#X obj 140 238 pack f 50;
#X obj 141 259 line;
#X obj 171 175 nbx 5 15 -1e+37 1e+37 0 1 empty empty sm -15 7 0 10
-262144 -1 -1 348 256;
#X obj 171 160 nbx 5 15 -1e+37 1e+37 0 1 empty empty ra -15 7 0 10
-262144 -1 -1 524 256;
#X obj 524 312 +;
#X obj 718 283 *~;
#X obj 294 690 *~;
#X obj 130 132 vsl 15 55 0 1 0 1 empty empty -> 2 7 0 10 -228856 -258113
-1 1100 1;
#X obj 115 132 vsl 15 55 0 5 0 1 empty empty >- 2 7 0 10 -204786 -258113
-1 3300 1;
#X obj 100 132 vsl 15 55 0 5 0 1 empty empty >a 2 7 0 10 -204786 -258113
-1 1100 1;
#X obj 752 283 *~;
#X obj 505 401 +~;
#X obj 524 374 sig~;
#X obj 16 118 spigot;
#X obj 16 93 t b f;
#X obj 210 553 osc~;
#X obj 211 616 *~;
#X obj 211 674 +~;
#X obj 243 460 line~;
#X obj 243 438 pack f 200;
#X obj 210 517 +~;
#X obj 270 569 osc~;
#X obj 271 544 +~;
#X obj 243 412 +;
#X obj 289 514 +~;
#X obj 16 305 bng 15 250 50 0 empty empty empty 17 7 0 10 -262144 -1
-1;
#X msg 16 455 1 0;
#X msg 24 429 set \$1 0;
#X obj 210 590 +~;
#X msg 55 455 0 180;
#X obj 24 392 > 0;
#X obj 321 438 random 10;
#X obj 322 460 - 5;
#X obj 216 343 * 400;
#X obj 209 492 *~ 20000;
#X obj 156 476 *~;
#X obj 281 160 hsl 128 15 0 5000 0 1 empty empty noise_ind 4291.34
10 7 0 10 -262144 -258113 -1 10900 1;
#X obj 157 501 *~;
#X msg 675 94 label kp_frq \$1;
#X obj 281 145 hsl 128 15 0 127 0 1 empty empty noise_frq 2489.02
10 8 0 10 -262144 -258113 -1 9900 1;
#X obj 429 213 mtof;
#X msg 674 131 label noise_frq \$1;
#X msg 676 165 label noise_ind \$1;
#X obj 281 175 hsl 128 15 0 1 0 1 empty empty noise_amp 0.448819 10
7 0 10 -262144 -258113 -1 5700 1;
#X msg 675 183 label noise_amp \$1;
#X msg 675 114 label kp_amp \$1;
#X obj 117 575 *~;
#X obj 16 495 line;
#X obj 16 526 *;
#X obj 118 551 *~;
#X obj 137 406 +~;
#X obj 138 371 *~ 10000;
#X obj 262 344 t b f;
#X obj 262 317 - 50;
#X obj 262 295 random 100;
#X obj 137 328 +;
#X obj 301 628 *~;
#X obj 281 130 hsl 128 15 0 1 0 1 empty empty osc_amp 0.496063 10
7 0 10 -262144 -258113 -1 6300 1;
#X msg 674 148 label osc_amp \$1;
#X obj 210 641 *~;
#X obj 321 351 expr~ $v1*$v2*1000;
#X obj 118 440 vcf~ 5;
#X msg 66 393 set 0 \$1;
#X obj 175 145 hsl 101 15 0 2000 0 1 empty empty osc_dec 180 10 7
0 10 -262144 -258113 -1 900 1;
#X msg 674 77 label osc_dec \$1;
#X obj 141 280 spigot;
#X obj 235 115 tgl 15 0 empty empty empty 17 7 0 10 -204786 -1 -1 0
1;
#X obj 172 130 nbx 5 15 -1e+37 1e+37 0 1 empty empty empty 0 -8 0 10
-204786 -1 -1 28 256;
#X obj 377 276 *;
#X obj 377 249 t b f;
#X obj 524 263 t b f;
#X obj 524 290 +;
#X floatatom 16 199 5 0 0 0 - - -, f 5;
#X obj 16 242 metro;
#X obj 16 218 > 0;
#X obj 234 274 random 500;
#X obj 230 250 expr 3000/$f1;
#X obj 130 72 route /s06 /b06;
#X obj 506 424 vd~ \$0-dl1 100;
#X obj 383 645 delwrite~ \$0-dl1 1000;
#X obj 293 717 s~ out_r06;
#X obj 211 717 s~ out_06;
#X obj 718 225 r~ mod_r06;
#X obj 752 254 r~ mod_r06a;
#X obj 16 269 spigot;
#X obj 235 100 tgl 15 0 empty empty b 5 7 0 10 -262144 -1 -1 0 1;
#X connect 0 0 1 0;
#X connect 1 0 2 0;
#X connect 2 0 105 0;
#X connect 4 0 5 0;
#X connect 4 0 6 0;
#X connect 4 0 27 0;
#X connect 4 0 59 0;
#X connect 4 0 53 0;
#X connect 4 0 82 0;
#X connect 4 0 16 0;
#X connect 5 0 7 0;
#X connect 6 0 9 1;
#X connect 7 0 9 1;
#X connect 8 0 9 0;
#X connect 8 0 89 0;
#X connect 9 0 107 0;
#X connect 10 0 20 1;
#X connect 11 0 14 0;
#X connect 12 0 13 0;
#X connect 13 0 14 1;
#X connect 14 0 20 0;
#X connect 15 0 5 1;
#X connect 15 0 40 0;
#X connect 16 0 17 0;
#X connect 17 0 10 0;
#X connect 18 0 73 0;
#X connect 18 0 84 1;
#X connect 19 0 23 0;
#X connect 19 0 58 0;
#X connect 19 0 61 0;
#X connect 19 0 76 1;
#X connect 19 0 96 0;
#X connect 20 0 62 0;
#X connect 20 0 79 0;
#X connect 20 0 84 0;
#X connect 20 0 107 0;
#X connect 21 0 22 0;
#X connect 22 0 4 0;
#X connect 22 0 100 0;
#X connect 23 0 21 0;
#X connect 24 0 25 0;
#X connect 25 0 99 0;
#X connect 26 0 32 0;
#X connect 26 0 83 0;
#X connect 26 1 32 1;
#X connect 26 1 83 1;
#X connect 27 0 28 0;
#X connect 28 0 29 0;
#X connect 29 0 93 0;
#X connect 30 0 28 1;
#X connect 31 0 27 1;
#X connect 32 0 66 0;
#X connect 32 0 15 0;
#X connect 33 0 39 0;
#X connect 34 0 108 0;
#X connect 35 0 34 1;
#X connect 36 0 33 1;
#X connect 36 0 88 0;
#X connect 37 0 38 1;
#X connect 38 0 39 0;
#X connect 39 0 106 0;
#X connect 40 0 39 1;
#X connect 41 0 4 0;
#X connect 42 0 41 0;
#X connect 42 1 41 1;
#X connect 43 0 56 0;
#X connect 44 0 87 0;
#X connect 45 0 34 0;
#X connect 45 0 109 0;
#X connect 46 0 48 1;
#X connect 46 0 52 0;
#X connect 47 0 46 0;
#X connect 48 0 50 0;
#X connect 48 0 43 0;
#X connect 49 0 56 1;
#X connect 50 0 49 0;
#X connect 51 0 47 0;
#X connect 52 0 50 1;
#X connect 53 0 54 0;
#X connect 53 0 57 0;
#X connect 54 0 75 0;
#X connect 55 0 54 0;
#X connect 56 0 44 0;
#X connect 57 0 75 0;
#X connect 58 0 55 0;
#X connect 59 0 60 0;
#X connect 60 0 52 1;
#X connect 61 0 51 0;
#X connect 62 0 48 0;
#X connect 63 0 65 0;
#X connect 64 0 70 0;
#X connect 64 0 65 1;
#X connect 65 0 48 0;
#X connect 66 0 24 0;
#X connect 67 0 68 0;
#X connect 68 0 83 0;
#X connect 69 0 67 0;
#X connect 70 0 64 0;
#X connect 71 0 72 0;
#X connect 71 0 74 1;
#X connect 72 0 71 0;
#X connect 73 0 18 0;
#X connect 74 0 45 0;
#X connect 75 0 76 0;
#X connect 75 0 63 1;
#X connect 76 0 44 1;
#X connect 76 0 77 1;
#X connect 77 0 74 0;
#X connect 78 0 89 1;
#X connect 79 0 78 0;
#X connect 80 0 51 0;
#X connect 80 1 51 1;
#X connect 81 0 80 0;
#X connect 82 0 81 0;
#X connect 83 0 69 0;
#X connect 83 0 78 1;
#X connect 84 0 45 0;
#X connect 85 0 86 0;
#X connect 85 0 87 1;
#X connect 86 0 85 0;
#X connect 87 0 45 0;
#X connect 88 0 48 1;
#X connect 89 0 77 0;
#X connect 89 0 63 0;
#X connect 89 1 63 0;
#X connect 89 1 77 0;
#X connect 90 0 57 0;
#X connect 91 0 92 0;
#X connect 91 0 90 0;
#X connect 92 0 91 0;
#X connect 93 0 26 0;
#X connect 94 0 93 1;
#X connect 95 0 97 0;
#X connect 96 0 98 0;
#X connect 97 0 96 0;
#X connect 97 1 96 1;
#X connect 98 0 99 0;
#X connect 98 1 99 1;
#X connect 99 0 32 0;
#X connect 100 0 102 0;
#X connect 100 0 104 0;
#X connect 101 0 103 0;
#X connect 101 0 112 0;
#X connect 102 0 101 0;
#X connect 103 0 101 1;
#X connect 104 0 103 1;
#X connect 105 0 19 0;
#X connect 105 1 42 0;
#X connect 106 0 11 0;
#X connect 106 0 12 0;
#X connect 110 0 33 0;
#X connect 110 0 88 1;
#X connect 111 0 38 0;
#X connect 112 0 4 0;
#X connect 113 0 112 1;
#X coords 0 -1 1 1 311 90 2 100 100;
