#N canvas 151 75 617 524 10;
#X obj 100 100 bng 30 250 50 0 empty empty 1 8 15 0 25 -262144 -257985
-1;
#X obj 133 100 hsl 100 30 0 1 0 0 empty empty empty 10 15 0 10 -257985
-1 -1 0 1;
#X obj 130 132 vsl 15 55 0 1 0 1 empty empty -> 2 7 0 10 -228856 -258113
-1 4000 1;
#X obj 115 132 vsl 15 55 0 10000 0 1 empty empty >- 2 7 0 10 -262130
-258113 -1 2300 1;
#X obj 100 132 vsl 15 55 0 1000 0 1 empty empty >a 2 7 0 10 -262130
-258113 -1 500 1;
#X obj 23 194 * 10;
#X obj 23 217 int;
#X obj 23 239 change;
#X obj 21 129 spigot;
#X obj 21 104 t b f;
#X obj 36 376 *~;
#X obj 98 375 *~;
#X text 31 321 fm-auto;
#X text 98 320 fm-in;
#X obj 56 7 udpreceive 54321;
#X obj 56 29 unpackOSC;
#X obj 56 50 routeOSC /bang;
#X obj 284 607 *~;
#X obj 212 606 *~;
#X obj 281 160 hsl 128 15 0 1 0 1 empty empty amp_01 10 7 0 10 -262130
-258113 -1 12700 1;
#X floatatom 215 257 5 0 0 0 - - -, f 5;
#X obj 281 190 hsl 128 15 0 1 0 1 empty empty amp_02 10 7 0 10 -262144
-258113 -1 2000 1;
#X obj 416 366 osc~;
#X obj 487 332 vline~;
#X msg 487 292 \$1 200;
#X obj 148 145 hsl 128 15 0 500 0 1 empty empty delay 10 7 0 10 -262144
-258113 -1 4600 1;
#X obj 488 365 +~;
#X obj 213 439 osc~;
#X obj 211 506 +~;
#X floatatom 275 419 5 0 0 0 - - -, f 5;
#X obj 212 461 *~;
#X obj 211 527 osc~;
#X obj 215 280 / 10;
#X obj 215 324 phasor~ 100;
#X floatatom 215 303 5 0 0 0 - - -, f 5;
#X obj 212 555 *~;
#X obj 281 145 hsl 128 15 1.27 5000 0 1 empty empty decay_01 10 7 0
10 -262130 -258113 -1 1300 1;
#X obj 215 228 random 2000;
#X obj 281 115 hsl 128 15 0 127 0 1 empty empty mod-02_frq 10 8 0 10
-262130 -258113 -33289 1400 1;
#N canvas 456 208 450 300 env 0;
#X obj 15 18 inlet;
#X obj 83 18 inlet;
#X obj 83 183 line~;
#X obj 82 210 *~;
#X obj 83 236 lop~ 200;
#X msg 15 154 1 0;
#X obj 23 104 del;
#X msg 41 83 0;
#X msg 83 110 set 0 \$1;
#X msg 83 136 0 512.951;
#X obj 15 55 bng 15 250 50 0 empty empty empty 17 7 0 10 -262144 -1
-1;
#X obj 84 262 outlet~;
#X connect 0 0 10 0;
#X connect 1 0 8 0;
#X connect 2 0 3 1;
#X connect 2 0 3 0;
#X connect 3 0 4 0;
#X connect 4 0 11 0;
#X connect 5 0 2 0;
#X connect 6 0 9 0;
#X connect 7 0 6 1;
#X connect 8 0 9 0;
#X connect 9 0 2 0;
#X connect 10 0 7 0;
#X connect 10 0 6 0;
#X connect 10 0 5 0;
#X restore 250 526 pd env;
#X obj 215 372 +~ 1;
#X obj 281 100 hsl 128 15 0 1000 0 1 empty empty mod-01_index 10 7
0 10 -262130 -258113 -1 1400 1;
#X obj 214 393 *~;
#X obj 37 408 +~;
#X obj 281 130 hsl 128 15 0 127 0 1 empty empty carr_frq 10 8 0 10
-262130 -258113 -33289 700 1;
#X obj 320 416 mtof;
#X obj 335 346 mtof;
#X obj 213 418 +~;
#X obj 211 484 +~;
#X obj 214 348 *~ 2;
#X obj 416 517 delwrite~ \$0-d01 2000;
#X obj 487 393 vd~ \$0-d01 2000;
#X obj 415 488 +~;
#X obj 326 550 *~;
#N canvas 456 208 450 300 env 0;
#X obj 15 18 inlet;
#X obj 83 18 inlet;
#X obj 83 183 line~;
#X obj 82 210 *~;
#X obj 83 236 lop~ 200;
#X msg 15 154 1 0;
#X obj 23 104 del;
#X msg 41 83 0;
#X msg 83 110 set 0 \$1;
#X msg 83 136 0 1103.35;
#X obj 15 55 bng 15 250 50 0 empty empty empty 17 7 0 10 -262144 -1
-1;
#X obj 84 262 outlet~;
#X connect 0 0 10 0;
#X connect 1 0 8 0;
#X connect 2 0 3 1;
#X connect 2 0 3 0;
#X connect 3 0 4 0;
#X connect 4 0 11 0;
#X connect 5 0 2 0;
#X connect 6 0 9 0;
#X connect 7 0 6 1;
#X connect 8 0 9 0;
#X connect 9 0 2 0;
#X connect 10 0 7 0;
#X connect 10 0 6 0;
#X connect 10 0 5 0;
#X restore 438 421 pd env;
#X obj 417 448 *~;
#X obj 281 175 hsl 128 15 1.27 5000 0 1 empty empty decay_02 10 7 0
10 -262144 -258113 -1 2800 1;
#X obj 148 190 hsl 128 15 0 20 0 1 empty empty lfo 10 7 0 10 -262144
-258113 -1 0 1;
#X obj 148 175 hsl 128 15 0 10 0 1 empty empty rate 10 7 0 10 -262144
-258113 -33289 0 1;
#X obj 148 160 hsl 128 15 0 0.99 0 1 empty empty feedback 10 7 0 10
-262144 -258113 -1 10000 1;
#X obj 488 421 *~;
#X obj 212 580 +~;
#X obj 563 307 osc~;
#X obj 563 334 *~;
#X text 169 51 Arduino-OSC /bang/s01;
#X obj 19 287 r~ mod_r01a;
#X obj 127 287 r~ mod_r01;
#X obj 212 633 s~ out_01;
#X obj 285 633 s~ out_r01;
#X obj 56 70 route /s01 /b01;
#X connect 0 0 39 0;
#X connect 0 0 37 0;
#X connect 0 0 54 0;
#X connect 1 0 5 0;
#X connect 2 0 17 1;
#X connect 3 0 11 1;
#X connect 4 0 10 1;
#X connect 5 0 6 0;
#X connect 6 0 7 0;
#X connect 7 0 0 0;
#X connect 8 0 0 0;
#X connect 9 0 8 0;
#X connect 9 1 8 1;
#X connect 10 0 43 0;
#X connect 11 0 43 1;
#X connect 14 0 15 0;
#X connect 15 0 16 0;
#X connect 16 0 69 0;
#X connect 17 0 68 0;
#X connect 18 0 67 0;
#X connect 19 0 18 1;
#X connect 20 0 32 0;
#X connect 20 0 29 0;
#X connect 20 0 22 0;
#X connect 21 0 53 1;
#X connect 22 0 55 0;
#X connect 23 0 26 0;
#X connect 24 0 23 0;
#X connect 25 0 24 0;
#X connect 26 0 51 0;
#X connect 27 0 30 0;
#X connect 28 0 31 0;
#X connect 29 0 30 1;
#X connect 30 0 48 0;
#X connect 31 0 35 0;
#X connect 32 0 34 0;
#X connect 33 0 49 0;
#X connect 34 0 33 0;
#X connect 35 0 61 0;
#X connect 36 0 39 1;
#X connect 37 0 20 0;
#X connect 38 0 46 0;
#X connect 39 0 35 1;
#X connect 40 0 42 0;
#X connect 41 0 42 1;
#X connect 42 0 47 0;
#X connect 43 0 48 1;
#X connect 44 0 45 0;
#X connect 45 0 28 1;
#X connect 46 0 47 1;
#X connect 47 0 27 0;
#X connect 48 0 28 0;
#X connect 49 0 40 0;
#X connect 51 0 53 0;
#X connect 51 0 60 0;
#X connect 52 0 50 0;
#X connect 53 0 61 1;
#X connect 54 0 55 1;
#X connect 55 0 52 0;
#X connect 56 0 54 1;
#X connect 57 0 63 1;
#X connect 58 0 62 0;
#X connect 59 0 60 1;
#X connect 60 0 52 1;
#X connect 61 0 18 0;
#X connect 61 0 17 0;
#X connect 62 0 63 0;
#X connect 63 0 26 1;
#X connect 65 0 10 0;
#X connect 66 0 11 0;
#X connect 69 0 1 0;
#X connect 69 1 9 0;
#X coords 0 -1 1 1 311 105 2 100 100;
