#N canvas 657 258 450 300 10;
#X obj 72 62 adc~;
#X obj 71 196 dac~ 1 2 3 4 5 6 7 8;
#X obj 232 64 loadbang;
#X msg 232 92 \; pd dsp 1;
#X connect 0 0 1 0;
#X connect 0 0 1 2;
#X connect 0 0 1 4;
#X connect 0 0 1 6;
#X connect 0 1 1 1;
#X connect 0 1 1 3;
#X connect 0 1 1 5;
#X connect 0 1 1 7;
#X connect 2 0 3 0;
